<svg width="31" height="31" viewBox="0 0 31 31" fill="none" xmlns="http://www.w3.org/2000/svg">
<path d="M15.276 0C6.95553 0 0.210815 6.74471 0.210815 15.0652C0.210815 23.3857 6.95553 30.1304 15.276 30.1304C15.4898 30.1304 15.7016 30.1251 15.9132 30.1163V19.1194H13.6407V15.3295H15.9132V13.0546C15.9132 9.96267 17.1937 8.12257 20.8358 8.12257H23.8682V11.9148H21.9733C20.5552 11.9148 20.4606 12.4436 20.4606 13.4322L20.4559 15.3295H23.8894L23.4883 19.1194H20.4559V29.2172C26.2245 27.105 30.3413 21.5656 30.3413 15.0652C30.3413 6.74471 23.5965 0 15.276 0Z" fill="#0280C7"/>
<path d="M20.8363 8.12402C17.1942 8.12402 15.9136 9.96412 15.9136 13.0561V15.331H13.6411V19.1209H15.9136V30.1177C17.5037 30.0515 19.0308 29.7406 20.4563 29.2186V19.1209H23.4887L23.8899 15.331H20.4563L20.4611 13.4337C20.4611 12.445 20.5557 11.9163 21.9737 11.9163H23.8687V8.12402H20.8363Z" fill="white"/>
</svg>
