<svg width="31" height="31" viewBox="0 0 31 31" fill="none" xmlns="http://www.w3.org/2000/svg">
<path d="M30.1304 15.0652C30.1304 23.3888 23.3888 30.1304 15.0652 30.1304C6.74168 30.1304 0 23.3888 0 15.0652C0 6.74168 6.74168 0 15.0652 0C23.3888 0 30.1304 6.74168 30.1304 15.0652Z" fill="#2D9CDB"/>
<path d="M12.3033 21.9701C11.8136 21.9701 11.9015 21.7818 11.7258 21.3173L10.2946 16.5969L19.183 11.0479L20.225 11.324L19.3588 13.6843L12.3033 21.9701Z" fill="#E4F2FA"/>
<path d="M12.3032 21.9701C12.6799 21.9701 12.8431 21.7944 13.0565 21.5935C13.3829 21.2797 17.576 17.1995 17.576 17.1995L15.0024 16.5718L12.6171 18.0783L12.3032 21.8446V21.9701Z" fill="#E4F2FA"/>
<path d="M12.5543 18.1284L18.6306 22.6103C19.3211 22.9869 19.8233 22.7986 19.999 21.97L22.4722 10.3196C22.7233 9.30267 22.083 8.85071 21.4177 9.15202L6.90484 14.7513C5.91304 15.153 5.9256 15.7054 6.72907 15.9439L10.4577 17.1115L19.0826 11.6754C19.4843 11.4244 19.8609 11.5625 19.5596 11.8386L12.5543 18.1284Z" fill="white"/>
</svg>
