<svg width="31" height="31" viewBox="0 0 31 31" fill="none" xmlns="http://www.w3.org/2000/svg">
<path d="M15.6975 30.1302C24.0177 30.1302 30.7626 23.3853 30.7626 15.0651C30.7626 6.74487 24.0177 0 15.6975 0C7.37731 0 0.632446 6.74487 0.632446 15.0651C0.632446 23.3853 7.37731 30.1302 15.6975 30.1302Z" fill="#0494D4"/>
<path d="M24.9251 10.8268C24.2795 11.1131 23.5851 11.3067 22.8568 11.3932C23.6004 10.9477 24.1711 10.2427 24.4404 9.40136C23.7446 9.81412 22.9736 10.1136 22.1537 10.275C21.4968 9.57538 20.5609 9.13818 19.5246 9.13818C17.5363 9.13818 15.9236 10.7508 15.9236 12.7392C15.9236 13.0214 15.9556 13.2961 16.0174 13.5598C13.0246 13.4097 10.3711 11.9762 8.59492 9.79693C8.28502 10.3287 8.10724 10.9477 8.10724 11.6075C8.10724 12.8565 8.74343 13.9592 9.70913 14.6048C9.11913 14.5862 8.5635 14.4243 8.07823 14.1539C8.07796 14.1692 8.07796 14.1845 8.07796 14.1995C8.07796 15.9443 9.31974 17.3996 10.9668 17.7302C10.6649 17.8129 10.3461 17.8566 10.0182 17.8566C9.78567 17.8566 9.56036 17.8343 9.34068 17.7925C9.79883 19.2227 11.1284 20.2639 12.7045 20.2932C11.4719 21.2592 9.91941 21.8347 8.23184 21.8347C7.94181 21.8347 7.65446 21.8177 7.37329 21.7842C8.96606 22.8063 10.8593 23.4022 12.8928 23.4022C19.5163 23.4022 23.1385 17.9152 23.1385 13.1562C23.1385 13.0002 23.135 12.8447 23.128 12.6906C23.8321 12.183 24.4426 11.549 24.9251 10.8268Z" fill="white"/>
</svg>
