<svg width="28" height="26" viewBox="0 0 28 26" fill="none" xmlns="http://www.w3.org/2000/svg">
<path d="M1.54 3.25759C1.54 2.2407 2.35484 1.41634 3.36 1.41634H7.95575C8.50998 1.41634 8.95927 1.87088 8.95927 2.43158C8.95927 2.92845 9.35741 3.33124 9.84855 3.33124H25.2C25.8959 3.33124 26.46 3.90194 26.46 4.60595V5.30279C26.46 5.6939 26.7734 6.01096 27.16 6.01096C27.5466 6.01096 27.86 5.6939 27.86 5.30279V4.60595C27.86 3.11972 26.6691 1.9149 25.2 1.9149H10.3049C10.0707 0.820171 9.10792 0 7.95575 0H3.36C1.58164 0 0.14 1.45847 0.14 3.25759V7.36498C0.14 7.75609 0.453401 8.07315 0.84 8.07315C1.2266 8.07315 1.54 7.75609 1.54 7.36498V3.25759Z" fill="#2B8FC3"/>
<path d="M25.8226 11.511C25.927 11.3547 25.984 11.175 25.9937 10.9719H25.2655C25.26 11.1376 25.2127 11.2585 25.1236 11.3347C25.0346 11.4108 24.9059 11.4489 24.7376 11.4489C24.5387 11.4489 24.3982 11.3821 24.3161 11.2485C24.2354 11.1149 24.1951 10.8925 24.1951 10.5812V10.3747C24.1993 10.0875 24.2438 9.87842 24.3286 9.7475C24.4135 9.61657 24.547 9.5511 24.7293 9.5511C24.9087 9.5511 25.0423 9.58985 25.1299 9.66733C25.2175 9.74482 25.2641 9.87241 25.2697 10.0501H26C25.9694 9.72278 25.8421 9.46627 25.6182 9.28056C25.3942 9.09352 25.0979 9 24.7293 9C24.4733 9 24.248 9.05878 24.0532 9.17635C23.8585 9.29259 23.7089 9.45825 23.6046 9.67335C23.5017 9.88711 23.4502 10.1369 23.4502 10.4228V10.5671C23.4502 11.0227 23.5649 11.3754 23.7945 11.6253C24.024 11.8751 24.3384 12 24.7376 12C24.9797 12 25.1946 11.9572 25.3824 11.8717C25.5716 11.7862 25.7183 11.666 25.8226 11.511Z" fill="#2B8FC3"/>
<path fill-rule="evenodd" clip-rule="evenodd" d="M19.9614 11.4148H18.9577L18.7825 11.9599H18L19.1142 9.04208H19.8028L20.9254 11.9599H20.1388L19.9614 11.4148ZM19.133 10.8717H19.7861L19.4585 9.85972L19.133 10.8717Z" fill="#2B8FC3"/>
<path d="M23.2833 9.58517H22.3714V11.9599H21.639V9.58517H20.7439V9.04208H23.2833V9.58517Z" fill="#2B8FC3"/>
<path d="M9.3613 17.7778H8.6387V19.2485H7.19355V19.9838H8.6387V21.4545H9.3613V19.9838H10.8065V19.2485H9.3613V17.7778Z" fill="#2B8FC3"/>
<path fill-rule="evenodd" clip-rule="evenodd" d="M2.24 5.41408V8.77751C0.980013 8.91809 0 9.99619 0 11.3053V23.4567C0 24.8613 1.12824 26 2.52 26H25.48C26.8718 26 28 24.8613 28 23.4567V7.91422C28 7.2119 27.4359 6.64256 26.74 6.64256H26.04V5.41408C26.04 4.84887 25.6113 4.39066 25.0825 4.39066H3.19747C2.66867 4.39066 2.24 4.84886 2.24 5.41408ZM3.60782 5.85269V8.76199H15.4L17.4197 6.9865C17.6532 6.76553 17.9613 6.64256 18.2815 6.64256H24.6722V5.85269H3.60782ZM26.6 8.05552H18.3368L15.96 10.1749H2.52C1.90144 10.1749 1.4 10.681 1.4 11.3053V23.4567C1.4 24.081 1.90144 24.5871 2.52 24.5871H5.01182C5.00408 24.5509 5 24.5133 5 24.4747V17.7778C5 16.5036 5.81053 15.4222 6.93548 15.0382V14.6263H6.67742C6.46363 14.6263 6.29032 14.4499 6.29032 14.2323V12.3939C6.29032 12.1764 6.46363 12 6.67742 12H11.3226C11.5364 12 11.7097 12.1764 11.7097 12.3939V14.2323C11.7097 14.4499 11.5364 14.6263 11.3226 14.6263H11.0645V15.0382C12.1895 15.4222 13 16.5036 13 17.7778V24.4747C13 24.5133 12.9959 24.5509 12.9882 24.5871H25.48C26.0986 24.5871 26.6 24.081 26.6 23.4567V8.05552ZM6.93548 13.9697V12.6566H11.0645V13.9697H6.93548ZM7.58065 14.6263V15.3203C7.58065 15.5226 7.42996 15.6921 7.23206 15.7122L6.93548 15.7424C6.63763 15.8796 6.37525 16.0829 6.1662 16.3333H11.8338C11.6247 16.0829 11.3624 15.88 11.0645 15.7429L10.7679 15.7122C10.57 15.6921 10.4194 15.5226 10.4194 15.3203V14.6263H7.58065ZM5.78569 16.9899C5.69486 17.2349 5.64516 17.5004 5.64516 17.7778V22.3737H12.3548V17.7778C12.3548 17.5004 12.3051 17.2349 12.2143 16.9899H5.78569ZM5.64516 24.3434V23.0303H12.3548V24.3434H5.64516Z" fill="#2B8FC3"/>
</svg>
