<svg width="15" height="30" viewBox="0 0 15 30" fill="none" xmlns="http://www.w3.org/2000/svg">
<path d="M4.38462 17.5385H6.69231V19.9615H8.07692V17.5385H10.5V16.1538H8.07692V13.8462H6.69231V16.1538H4.38462V17.5385Z" fill="#2B8FC3"/>
<path fill-rule="evenodd" clip-rule="evenodd" d="M3.69231 0.461538C3.69231 0.206638 3.89895 0 4.15385 0H10.8462C11.1011 0 11.3077 0.206638 11.3077 0.461538V4.64074C13.3846 4.87033 15 6.63113 15 8.76923V27.6923C15 28.9668 13.9668 30 12.6923 30H2.30769C1.03319 30 0 28.9668 0 27.6923V8.76923C0 6.63113 1.61541 4.87033 3.69231 4.64074V0.461538ZM5.07692 4.38462V3.69231H9.92308V4.38462H5.07692ZM9.92308 2.30769H5.07692V1.38462H9.92308V2.30769ZM4.15385 6H10.8462C12.3756 6 13.6154 7.23983 13.6154 8.76923V13.1538H12.6923V11.3077C12.6923 11.0528 12.4857 10.8462 12.2308 10.8462H2.76923C2.51433 10.8462 2.30769 11.0528 2.30769 11.3077V13.1538H1.38462V8.76923C1.38462 7.23983 2.62444 6 4.15385 6ZM2.30769 14.5385H1.38462V27.6923C1.38462 28.2021 1.79789 28.6154 2.30769 28.6154H12.6923C13.2021 28.6154 13.6154 28.2021 13.6154 27.6923V14.5385H12.6923V24C12.6923 24.2549 12.4857 24.4615 12.2308 24.4615H2.76923C2.51433 24.4615 2.30769 24.2549 2.30769 24V14.5385ZM3.69231 23.0769V12.2308H11.3077V23.0769H3.69231Z" fill="#2B8FC3"/>
</svg>
