<svg width="16" height="26" viewBox="0 0 16 26" fill="none" xmlns="http://www.w3.org/2000/svg">
<path d="M7.27741 11.5556H8.72259V14.497H11.6129V15.9677H8.72259V18.9091H7.27741V15.9677H4.3871V14.497H7.27741V11.5556Z" fill="#2B8FC3"/>
<path fill-rule="evenodd" clip-rule="evenodd" d="M3.35484 0C2.92726 0 2.58065 0.352744 2.58065 0.787879V4.46465C2.58065 4.89978 2.92726 5.25253 3.35484 5.25253H3.87097V6.07639C1.62106 6.84431 0 9.00728 0 11.5556V24.9495C0 25.5297 0.462166 26 1.03226 26H14.9677C15.5378 26 16 25.5297 16 24.9495V11.5556C16 9.00728 14.3789 6.84431 12.129 6.07639V5.25253H12.6452C13.0727 5.25253 13.4194 4.89978 13.4194 4.46465V0.787879C13.4194 0.352744 13.0727 0 12.6452 0H3.35484ZM3.87097 1.31313V3.93939H12.129V1.31313H3.87097ZM5.16129 6.64051V5.25253H10.8387V6.64051C10.8387 7.04529 11.1401 7.38421 11.5359 7.42448L12.129 7.48485V7.48576C12.7247 7.76004 13.2495 8.1658 13.6676 8.66667H2.33241C2.7505 8.1658 3.27526 7.76004 3.87097 7.48576V7.48485L4.46412 7.42448C4.85991 7.38421 5.16129 7.04529 5.16129 6.64051ZM1.29032 11.5556C1.29032 11.0009 1.38971 10.4698 1.57138 9.9798H14.4286C14.6103 10.4698 14.7097 11.0009 14.7097 11.5556V20.7475H1.29032V11.5556ZM1.29032 22.0606V24.6869H14.7097V22.0606H1.29032Z" fill="#2B8FC3"/>
</svg>
