<svg width="19" height="24" viewBox="0 0 19 24" fill="none" xmlns="http://www.w3.org/2000/svg">
<path fill-rule="evenodd" clip-rule="evenodd" d="M15.675 9.67164C15.675 13.0348 12.9635 15.7612 9.61875 15.7612C6.27398 15.7612 3.5625 13.0348 3.5625 9.67164C3.5625 6.30847 6.27398 3.58209 9.61875 3.58209C12.9635 3.58209 15.675 6.30847 15.675 9.67164ZM14.0125 9.67164C14.0125 12.1116 12.0454 14.0896 9.61875 14.0896C7.19215 14.0896 5.225 12.1116 5.225 9.67164C5.225 7.2317 7.19215 5.25373 9.61875 5.25373C12.0454 5.25373 14.0125 7.2317 14.0125 9.67164Z" fill="#2B8FC3"/>
<path fill-rule="evenodd" clip-rule="evenodd" d="M19 9.55224C19 14.8278 13.775 20.5373 9.5 24C5.4625 20.5373 0 14.8278 0 9.55224C0 4.27668 4.25329 0 9.5 0C14.7467 0 19 4.27668 19 9.55224ZM17.1 9.55224C17.1 11.5926 16.0669 13.9362 14.3218 16.325C12.9409 18.2153 11.217 19.9934 9.52868 21.4807C7.88888 19.9828 6.16163 18.2034 4.75859 16.3132C2.9718 13.9061 1.9 11.5711 1.9 9.55224C1.9 5.33179 5.30264 1.91045 9.5 1.91045C13.6974 1.91045 17.1 5.33179 17.1 9.55224Z" fill="#2B8FC3"/>
</svg>
