<svg width="20" height="24" viewBox="0 0 20 24" fill="none" xmlns="http://www.w3.org/2000/svg">
<path fill-rule="evenodd" clip-rule="evenodd" d="M15.5556 10.08C15.5556 13.1286 13.013 15.6 9.87654 15.6C6.7401 15.6 4.19753 13.1286 4.19753 10.08C4.19753 7.03139 6.7401 4.56 9.87654 4.56C13.013 4.56 15.5556 7.03139 15.5556 10.08ZM9.38272 13.0262V14.2978C9.11553 13.9286 8.88256 13.531 8.68872 13.1101C8.91797 13.0708 9.14959 13.0427 9.38272 13.0262ZM10.3704 13.0255V14.2978C10.6379 13.9281 10.8711 13.5299 11.0651 13.1084C10.8356 13.0694 10.6037 13.0417 10.3704 13.0255ZM11.3535 12.3788C11.0297 12.3171 10.7013 12.2757 10.3704 12.2552V10.8H11.6884C11.6348 11.3473 11.5208 11.876 11.3535 12.3788ZM11.9321 13.3132C11.7679 13.6951 11.5755 14.061 11.3576 14.4081C11.8882 14.2366 12.3767 13.9756 12.8041 13.6434C12.5211 13.514 12.2297 13.4037 11.9321 13.3132ZM13.4114 13.0782C13.3245 13.0343 13.2369 12.9921 13.1486 12.9516C12.8414 12.8107 12.5254 12.69 12.2027 12.5902C12.3856 12.0196 12.5079 11.4201 12.5616 10.8H14.5098C14.3687 11.6643 13.9779 12.4477 13.4114 13.0782ZM9.38272 12.2558C9.05198 12.2768 8.72382 12.3186 8.40028 12.3807C8.23256 11.8774 8.11832 11.348 8.06467 10.8H9.38272V12.2558ZM7.55136 12.5932C7.36788 12.0217 7.24525 11.4212 7.19149 10.8H5.24333C5.38464 11.666 5.77674 12.4507 6.34503 13.0819C6.43237 13.0376 6.52051 12.9951 6.60938 12.9542C6.91528 12.8136 7.22998 12.6931 7.55136 12.5932ZM6.95294 13.6465C7.37941 13.9772 7.86651 14.2372 8.39544 14.4081C8.17814 14.0619 7.98614 13.6969 7.82219 13.316C7.5255 13.4067 7.23505 13.5171 6.95294 13.6465ZM11.7196 9.84H10.3704V8.3845C10.7471 8.36083 11.1205 8.31016 11.4876 8.23333C11.6221 8.74778 11.7017 9.28574 11.7196 9.84ZM10.3704 5.8622V7.61416C10.6672 7.59335 10.9616 7.55384 11.2518 7.49615C11.0281 6.90836 10.7303 6.35955 10.3704 5.8622ZM12.5892 9.84C12.5711 9.20779 12.4819 8.59419 12.3296 8.00759C12.6085 7.91587 12.8821 7.80847 13.149 7.68577C13.3304 7.60239 13.5087 7.51195 13.6834 7.41457C14.195 8.1036 14.5133 8.93706 14.5615 9.84H12.5892ZM12.1006 7.2715C12.4641 7.15045 12.8176 6.99963 13.157 6.82014C12.6539 6.34184 12.0407 5.97263 11.3576 5.75191C11.655 6.22567 11.905 6.73463 12.1006 7.2715ZM8.50128 7.49615C8.79147 7.55384 9.08589 7.59334 9.38272 7.61416V5.8622C9.02282 6.35955 8.72501 6.90836 8.50128 7.49615ZM9.38272 8.3845C9.00597 8.36083 8.63257 8.31016 8.26547 8.23333C8.13103 8.74778 8.0514 9.28574 8.03349 9.84H9.38272V8.3845ZM8.39544 5.75191C8.09804 6.22567 7.84807 6.73463 7.65251 7.27149C7.28894 7.15045 6.93551 6.99963 6.59614 6.82014C7.09916 6.34183 7.71243 5.97263 8.39544 5.75191ZM6.60978 7.68838C6.42643 7.60428 6.24623 7.51296 6.06967 7.41457C5.55813 8.1036 5.23974 8.93706 5.19158 9.84H7.16391C7.18198 9.20779 7.2712 8.59419 7.4235 8.00758C7.14658 7.91652 6.87488 7.80999 6.60978 7.68838Z" fill="#2B8FC3"/>
<path d="M4.44444 18C4.03534 18 3.7037 18.3224 3.7037 18.72C3.7037 19.1176 4.03534 19.44 4.44444 19.44H15.3086C15.7177 19.44 16.0494 19.1176 16.0494 18.72C16.0494 18.3224 15.7177 18 15.3086 18H4.44444Z" fill="#2B8FC3"/>
<path fill-rule="evenodd" clip-rule="evenodd" d="M0.740741 0C0.331639 0 0 0.322354 0 0.72V23.28C0 23.6776 0.331639 24 0.740741 24H15.8025C18.1207 24 20 22.1733 20 19.92V4.08C20 1.82668 18.1207 0 15.8025 0H0.740741ZM1.23457 1.2V22.8H15.8025C17.4389 22.8 18.7654 21.5106 18.7654 19.92V4.08C18.7654 2.48942 17.4389 1.2 15.8025 1.2H1.23457Z" fill="#2B8FC3"/>
</svg>
