<svg width="28" height="26" viewBox="0 0 28 26" fill="none" xmlns="http://www.w3.org/2000/svg">
<path fill-rule="evenodd" clip-rule="evenodd" d="M26.6192 2.35106C26.6192 2.88572 26.1864 3.31915 25.6526 3.31915C25.1187 3.31915 24.686 2.88572 24.686 2.35106C24.686 1.81641 25.1187 1.38298 25.6526 1.38298C26.1864 1.38298 26.6192 1.81641 26.6192 2.35106ZM28 2.35106C28 3.64952 26.949 4.70213 25.6526 4.70213C25.3036 4.70213 24.9724 4.62585 24.6747 4.48905L23.7678 5.39736C24.0016 5.85218 24.1336 6.36809 24.1336 6.91489C24.1336 8.74802 22.6499 10.234 20.8196 10.234C20.4511 10.234 20.0965 10.1738 19.7653 10.0626L19.2671 10.9269C19.5488 11.3148 19.715 11.7922 19.715 12.3085C19.715 13.607 18.664 14.6596 17.3675 14.6596C16.0711 14.6596 15.0201 13.607 15.0201 12.3085C15.0201 11.0101 16.0711 9.95745 17.3675 9.95745C17.6432 9.95745 17.9079 10.0051 18.1536 10.0925L18.5768 9.35844C17.9183 8.75183 17.5056 7.88163 17.5056 6.91489C17.5056 6.89052 17.5059 6.86621 17.5064 6.84196C17.5069 6.82121 17.5075 6.80049 17.5083 6.77983L15.4055 6.2155C14.9791 6.80673 14.285 7.19149 13.5012 7.19149C12.2047 7.19149 11.1537 6.13888 11.1537 4.84043C11.1537 3.54197 12.2047 2.48936 13.5012 2.48936C14.7976 2.48936 15.8486 3.54197 15.8486 4.84043C15.8486 4.86117 15.8483 4.88184 15.8478 4.90245L17.85 5.43978C18.3923 4.34684 19.5184 3.59574 20.8196 3.59574C21.6023 3.59574 22.3217 3.86751 22.8887 4.32198L23.6429 3.56666C23.4285 3.21195 23.3051 2.79593 23.3051 2.35106C23.3051 1.05261 24.3561 0 25.6526 0C26.949 0 28 1.05261 28 2.35106ZM22.7528 6.91489C22.7528 7.9842 21.8873 8.85106 20.8196 8.85106C19.752 8.85106 18.8864 7.9842 18.8864 6.91489C18.8864 5.84558 19.752 4.97872 20.8196 4.97872C21.8873 4.97872 22.7528 5.84558 22.7528 6.91489ZM13.5012 5.80851C14.035 5.80851 14.4678 5.37508 14.4678 4.84043C14.4678 4.30577 14.035 3.87234 13.5012 3.87234C12.9673 3.87234 12.5346 4.30577 12.5346 4.84043C12.5346 5.37508 12.9673 5.80851 13.5012 5.80851ZM18.3341 12.3085C18.3341 12.8432 17.9013 13.2766 17.3675 13.2766C16.8337 13.2766 16.4009 12.8432 16.4009 12.3085C16.4009 11.7739 16.8337 11.3404 17.3675 11.3404C17.9013 11.3404 18.3341 11.7739 18.3341 12.3085ZM1.65701 4.32506L4.93995 2.42671L8.22292 4.32506V8.12174L4.93995 10.0201L1.65701 8.12174V4.32506ZM4.93995 0.829787L9.60376 3.5266V8.48239L13.4701 10.7181V15.5142L17.0914 17.6082L21.2339 15.2128L25.8977 17.9096V23.3032L21.2339 26L17.0914 23.6046L12.9488 26L8.8063 23.6046L4.66378 26L0 23.3032V17.9096L4.14252 15.5142V11.1559L0.276168 8.92021V3.5266L4.93995 0.829787ZM5.52337 11.5165L8.8063 9.6182L12.0893 11.5165V15.3132L8.8063 17.2116L5.52337 15.3132V11.5165ZM4.66378 16.8097L1.38084 18.708V22.5047L4.66378 24.4031L7.94675 22.5047V18.708L4.66378 16.8097ZM9.66589 18.708L12.9488 16.8097L16.2318 18.708V22.5047L12.9488 24.4031L9.66589 22.5047V18.708ZM21.2339 16.8097L17.9509 18.708V22.5047L21.2339 24.4031L24.5168 22.5047V18.708L21.2339 16.8097Z" fill="#2B8FC3"/>
</svg>
