<svg width="24" height="22" viewBox="0 0 24 22" fill="none" xmlns="http://www.w3.org/2000/svg">
<path d="M10.664 2.14943C10.664 3.02101 10.1666 3.77143 9.45162 4.10876V10.115C9.45162 11.7908 10.7543 13.1494 12.3613 13.1494C13.9683 13.1494 15.271 11.7908 15.271 10.115V4.10876C14.556 3.77143 14.0586 3.02101 14.0586 2.14943C14.0586 0.962332 14.9813 0 16.1196 0C17.2579 0 18.1807 0.962332 18.1807 2.14943C18.1807 3.02101 17.6832 3.77143 16.9683 4.10876V10.115C16.9683 12.4215 15.4098 14.3484 13.3312 14.8129V16.4368C13.3312 18.5317 14.9596 20.2299 16.9683 20.2299C18.977 20.2299 20.6054 18.5317 20.6054 16.4368V16.2264C19.749 15.8362 19.1505 14.945 19.1505 13.9081C19.1505 12.5115 20.2361 11.3793 21.5753 11.3793C22.9144 11.3793 24 12.5115 24 13.9081C24 15.0403 23.2864 15.9988 22.3027 16.321V16.4368C22.3027 19.5093 19.9144 22 16.9683 22C14.0222 22 11.6339 19.5093 11.6339 16.4368V14.86C9.43515 14.4963 7.75428 12.5103 7.75428 10.115V4.10876C7.03935 3.77143 6.54193 3.02101 6.54193 2.14943C6.54193 0.962332 7.46469 0 8.60297 0C9.74121 0 10.664 0.962332 10.664 2.14943Z" fill="#2B8FC3"/>
<path fill-rule="evenodd" clip-rule="evenodd" d="M3.30612 3.26857C1.48021 3.26857 0 4.78825 0 6.66286V18.48C0 20.3546 1.48021 21.8743 3.30612 21.8743C5.13204 21.8743 6.61225 20.3546 6.61225 18.48V6.66286C6.61225 4.78825 5.13204 3.26857 3.30612 3.26857ZM3.30612 5.02857C2.42698 5.02857 1.71429 5.76027 1.71429 6.66286V11.8172H4.89796V6.66286C4.89796 5.76027 4.18527 5.02857 3.30612 5.02857ZM1.71429 18.48V13.3257H4.89796V18.48C4.89796 19.3826 4.18527 20.1143 3.30612 20.1143C2.42698 20.1143 1.71429 19.3826 1.71429 18.48Z" fill="#2B8FC3"/>
</svg>
