<svg width="117" height="24" viewBox="0 0 117 24" fill="none" xmlns="http://www.w3.org/2000/svg">
<path d="M27.4042 12.5351H23.2162L21.1428 14.399C21.0506 14.4823 20.9408 14.5435 20.8215 14.5782C20.7021 14.6129 20.5765 14.6201 20.454 14.5993C20.3314 14.5785 20.2153 14.5302 20.1142 14.458C20.0131 14.3859 19.9298 14.2918 19.8705 14.1828L17.6607 10.152L14.0736 17.1949C14.0051 17.3299 13.9004 17.4433 13.7711 17.5225C13.6419 17.6017 13.4931 17.6437 13.3415 17.6437H13.3037C13.1458 17.6365 12.9933 17.584 12.8646 17.4925C12.7359 17.4009 12.6364 17.2743 12.5781 17.1277L9.09275 8.39294L6.33471 12.5335C6.25982 12.6458 6.1583 12.7379 6.03916 12.8016C5.92002 12.8653 5.78695 12.8987 5.65177 12.8987H1.03369C1.38129 13.5137 1.80852 14.0804 2.30436 14.5841V14.5841C2.50708 14.7909 2.72081 14.9866 2.94462 15.1705C4.49438 16.5676 8.74636 19.9793 14.1245 23.1813C19.5011 19.9858 23.7531 16.5676 25.3077 15.1721C25.5316 14.9883 25.7453 14.7925 25.948 14.5857V14.5857C26.5383 13.9827 27.0297 13.2907 27.4042 12.5351V12.5351Z" fill="url(#paint0_linear)"/>
<path d="M5.20995 11.2623L8.59183 6.18494C8.67475 6.06048 8.79023 5.96103 8.92576 5.89736C9.06129 5.8337 9.2117 5.80825 9.36068 5.82377C9.50967 5.8393 9.65156 5.8952 9.77098 5.98542C9.8904 6.07565 9.9828 6.19675 10.0382 6.33562L13.4315 14.8444L16.9021 8.02263C16.9696 7.88945 17.0723 7.77721 17.1991 7.69803C17.3259 7.61886 17.472 7.57576 17.6216 7.5734C17.7712 7.57104 17.9185 7.60951 18.0478 7.68464C18.177 7.75977 18.2833 7.86872 18.355 7.9997L20.8175 12.4891L22.3541 11.1084C22.5049 10.9725 22.7009 10.8972 22.9041 10.8971H27.839L18.1629 1.24675C16.5906 1.663 15.1822 2.54605 14.1243 3.7789C12.93 2.38335 11.2912 1.43962 9.48257 1.10576C7.67393 0.771907 5.80522 1.06821 4.18943 1.94503C2.57365 2.82186 1.30892 4.22597 0.607057 5.92218C-0.0948018 7.61839 -0.191159 9.50371 0.334122 11.2623H5.20995Z" fill="url(#paint1_linear)"/>
<g style="mix-blend-mode:multiply" opacity="0.2">
<path d="M18.2004 1.27639C18.0904 1.50078 17.9147 2.3623 17.8228 2.81435C16.7507 8.03917 21.116 13.1526 26.8898 11.7801C27.3396 11.6736 27.8847 11.3395 27.9996 11.0529L18.2004 1.27639Z" fill="black"/>
</g>
<path d="M18.2008 1.27639C18.0023 2.49543 18.0719 3.74296 18.4047 4.9325C18.7376 6.12204 19.3258 7.22513 20.1285 8.16529C20.9312 9.10545 21.9293 9.86019 23.0535 10.3772C24.1778 10.8942 25.4012 11.1611 26.6391 11.1593C27.0944 11.1587 27.549 11.122 27.9985 11.0496L18.2008 1.27639Z" fill="url(#paint2_linear)"/>
<path d="M33.125 18V4.39941H36.4927L38.5151 13.6768L40.519 4.39941H43.896V18H41.8086V7.29395L39.5913 18H37.4204L35.2217 7.29395V18H33.125ZM50.8169 14.8643L52.9414 15.3003C52.6569 16.2899 52.2147 17.0259 51.6147 17.5083C51.0148 17.9845 50.285 18.2227 49.4253 18.2227C48.2316 18.2227 47.3101 17.8237 46.6606 17.0259C45.8937 16.0981 45.5103 14.7993 45.5103 13.1294C45.5103 11.4842 45.8968 10.1668 46.6699 9.17725C47.3255 8.34229 48.1729 7.9248 49.2119 7.9248C50.3685 7.9248 51.2746 8.35156 51.9302 9.20508C52.6847 10.1823 53.062 11.6234 53.062 13.5283L53.0527 13.8252H47.6997C47.7121 14.6045 47.8853 15.2075 48.2192 15.6343C48.5594 16.061 48.9676 16.2744 49.4438 16.2744C50.1304 16.2744 50.5881 15.8044 50.8169 14.8643ZM50.9375 12.2295C50.9189 11.4626 50.755 10.8874 50.4458 10.5039C50.1366 10.1143 49.7686 9.91943 49.3418 9.91943C48.8903 9.91943 48.5099 10.1204 48.2007 10.5225C47.8853 10.9307 47.7306 11.4997 47.7368 12.2295H50.9375ZM62.2095 18H60.2148V16.5527C59.887 17.1094 59.5005 17.5269 59.0552 17.8052C58.6099 18.0835 58.1522 18.2227 57.6821 18.2227C56.7791 18.2227 55.9906 17.7743 55.3164 16.8774C54.6484 15.9744 54.3145 14.688 54.3145 13.0181C54.3145 11.3358 54.6423 10.0679 55.2979 9.21436C55.9535 8.35465 56.7606 7.9248 57.7192 7.9248C58.1707 7.9248 58.5913 8.03923 58.981 8.26807C59.3768 8.49691 59.7386 8.84017 60.0664 9.29785V4.39941H62.2095V18ZM56.5039 12.8604C56.5039 13.751 56.5781 14.4159 56.7266 14.855C56.8812 15.2879 57.0977 15.6157 57.376 15.8384C57.6605 16.0549 57.979 16.1631 58.3315 16.1631C58.8016 16.1631 59.2098 15.9095 59.5562 15.4023C59.9025 14.8952 60.0757 14.1313 60.0757 13.1108C60.0757 11.979 59.9056 11.1657 59.5654 10.6709C59.2314 10.1699 58.8047 9.91943 58.2852 9.91943C57.7904 9.91943 57.3698 10.1637 57.0234 10.6523C56.6771 11.141 56.5039 11.877 56.5039 12.8604Z" fill="#2C8FC3"/>
<path d="M64.3247 18V4.39941H67.9429C69.2912 4.39941 70.1725 4.46436 70.5869 4.59424C71.2487 4.80452 71.793 5.25293 72.2197 5.93945C72.6527 6.62598 72.8691 7.51042 72.8691 8.59277C72.8691 9.57617 72.6836 10.4019 72.3125 11.0698C71.9414 11.7316 71.4775 12.1986 70.9209 12.4707C70.3643 12.7367 69.4056 12.8696 68.0449 12.8696H66.5698V18H64.3247ZM66.5698 6.7002V10.5596H67.813C68.6479 10.5596 69.2139 10.5008 69.5107 10.3833C69.8138 10.2658 70.0612 10.0555 70.2529 9.75244C70.4447 9.4432 70.5405 9.06592 70.5405 8.62061C70.5405 8.16911 70.4416 7.78874 70.2437 7.47949C70.0457 7.17025 69.8014 6.96305 69.5107 6.85791C69.2201 6.75277 68.6047 6.7002 67.6646 6.7002H66.5698ZM76.7563 18H74.6133V8.14746H76.5986V9.54834C76.9388 8.89274 77.2419 8.4598 77.5078 8.24951C77.7799 8.03304 78.0923 7.9248 78.4448 7.9248C78.9334 7.9248 79.4004 8.0887 79.8457 8.4165L79.1777 10.6895C78.8252 10.4049 78.4912 10.2627 78.1758 10.2627C77.8789 10.2627 77.616 10.374 77.3872 10.5967C77.1646 10.8132 77.0037 11.209 76.9048 11.7842C76.8058 12.3594 76.7563 13.417 76.7563 14.957V18ZM82.3691 11.1533L80.4302 10.7266C80.6652 9.73079 81.0518 9.01644 81.5898 8.5835C82.1341 8.14437 82.9134 7.9248 83.9277 7.9248C84.8307 7.9248 85.5203 8.0516 85.9966 8.30518C86.4728 8.55876 86.813 8.90511 87.0171 9.34424C87.2212 9.77718 87.3232 10.5688 87.3232 11.7192L87.3047 14.7622C87.3047 15.6157 87.3387 16.2528 87.4067 16.6733C87.4748 17.0877 87.6016 17.5299 87.7871 18H85.6719L85.3936 16.9238C85.0286 17.3568 84.6359 17.6815 84.2153 17.8979C83.8009 18.1144 83.3587 18.2227 82.8887 18.2227C82.1032 18.2227 81.46 17.9598 80.959 17.4341C80.458 16.9022 80.2075 16.1971 80.2075 15.3188C80.2075 14.7622 80.3096 14.2767 80.5137 13.8623C80.7178 13.4479 81.0054 13.117 81.3765 12.8696C81.7476 12.6222 82.3413 12.4027 83.1577 12.2109C84.1473 11.9821 84.8369 11.7687 85.2266 11.5708C85.2266 11.0265 85.1864 10.6709 85.106 10.5039C85.0317 10.3307 84.8895 10.1916 84.6792 10.0864C84.4751 9.9751 84.1844 9.91943 83.8071 9.91943C83.4237 9.91943 83.1206 10.006 82.8979 10.1792C82.6815 10.3524 82.5052 10.6771 82.3691 11.1533ZM85.2266 13.2686C84.9544 13.3799 84.5308 13.5098 83.9556 13.6582C83.2938 13.8314 82.8608 14.0231 82.6567 14.2334C82.4526 14.4437 82.3506 14.7158 82.3506 15.0498C82.3506 15.4271 82.4619 15.7456 82.6846 16.0054C82.9134 16.259 83.1979 16.3857 83.5381 16.3857C83.8411 16.3857 84.1411 16.2837 84.438 16.0796C84.7349 15.8693 84.939 15.6219 85.0503 15.3374C85.1678 15.0529 85.2266 14.5365 85.2266 13.7881V13.2686ZM91.6558 18L88.3994 8.14746H90.6445L92.166 13.1758L92.6021 14.855L93.0566 13.1758L94.5967 8.14746H96.7861L93.5762 18H91.6558ZM105.516 18H103.521V16.5527C103.194 17.1094 102.807 17.5269 102.362 17.8052C101.917 18.0835 101.459 18.2227 100.989 18.2227C100.086 18.2227 99.2972 17.7743 98.623 16.8774C97.9551 15.9744 97.6211 14.688 97.6211 13.0181C97.6211 11.3358 97.9489 10.0679 98.6045 9.21436C99.2601 8.35465 100.067 7.9248 101.026 7.9248C101.477 7.9248 101.898 8.03923 102.288 8.26807C102.683 8.49691 103.045 8.84017 103.373 9.29785V4.39941H105.516V18ZM99.8105 12.8604C99.8105 13.751 99.8848 14.4159 100.033 14.855C100.188 15.2879 100.404 15.6157 100.683 15.8384C100.967 16.0549 101.286 16.1631 101.638 16.1631C102.108 16.1631 102.516 15.9095 102.863 15.4023C103.209 14.8952 103.382 14.1313 103.382 13.1108C103.382 11.979 103.212 11.1657 102.872 10.6709C102.538 10.1699 102.111 9.91943 101.592 9.91943C101.097 9.91943 100.676 10.1637 100.33 10.6523C99.9837 11.141 99.8105 11.877 99.8105 12.8604ZM109.218 11.1533L107.279 10.7266C107.514 9.73079 107.9 9.01644 108.438 8.5835C108.983 8.14437 109.762 7.9248 110.776 7.9248C111.679 7.9248 112.369 8.0516 112.845 8.30518C113.321 8.55876 113.662 8.90511 113.866 9.34424C114.07 9.77718 114.172 10.5688 114.172 11.7192L114.153 14.7622C114.153 15.6157 114.187 16.2528 114.255 16.6733C114.323 17.0877 114.45 17.5299 114.636 18H112.521L112.242 16.9238C111.877 17.3568 111.485 17.6815 111.064 17.8979C110.65 18.1144 110.207 18.2227 109.737 18.2227C108.952 18.2227 108.309 17.9598 107.808 17.4341C107.307 16.9022 107.056 16.1971 107.056 15.3188C107.056 14.7622 107.158 14.2767 107.362 13.8623C107.566 13.4479 107.854 13.117 108.225 12.8696C108.596 12.6222 109.19 12.4027 110.006 12.2109C110.996 11.9821 111.686 11.7687 112.075 11.5708C112.075 11.0265 112.035 10.6709 111.955 10.5039C111.88 10.3307 111.738 10.1916 111.528 10.0864C111.324 9.9751 111.033 9.91943 110.656 9.91943C110.272 9.91943 109.969 10.006 109.747 10.1792C109.53 10.3524 109.354 10.6771 109.218 11.1533ZM112.075 13.2686C111.803 13.3799 111.379 13.5098 110.804 13.6582C110.142 13.8314 109.709 14.0231 109.505 14.2334C109.301 14.4437 109.199 14.7158 109.199 15.0498C109.199 15.4271 109.311 15.7456 109.533 16.0054C109.762 16.259 110.047 16.3857 110.387 16.3857C110.69 16.3857 110.99 16.2837 111.287 16.0796C111.583 15.8693 111.788 15.6219 111.899 15.3374C112.016 15.0529 112.075 14.5365 112.075 13.7881V13.2686Z" fill="#4793FF"/>
<defs>
<linearGradient id="paint0_linear" x1="8.52473" y1="18.6952" x2="21.8586" y2="5.3302" gradientUnits="userSpaceOnUse">
<stop stop-color="#4793FF"/>
<stop offset="1" stop-color="#0494D4"/>
</linearGradient>
<linearGradient id="paint1_linear" x1="1138.06" y1="1228.25" x2="2063.05" y2="-628.043" gradientUnits="userSpaceOnUse">
<stop stop-color="#2C8FC3"/>
<stop offset="1" stop-color="#2C8FC3"/>
</linearGradient>
<linearGradient id="paint2_linear" x1="1261.56" y1="463.996" x2="1455.36" y2="269.698" gradientUnits="userSpaceOnUse">
<stop stop-color="#2D9CDB"/>
<stop offset="1" stop-color="#1569A3"/>
</linearGradient>
</defs>
</svg>
