<svg width="28" height="26" viewBox="0 0 28 26" fill="none" xmlns="http://www.w3.org/2000/svg">
<path fill-rule="evenodd" clip-rule="evenodd" d="M8.72069 18.9364C8.65874 18.9984 8.5996 19.0575 8.54415 19.1166C8.32022 19.3555 8.1564 19.5952 8.11007 20.024C7.84802 19.8622 7.60733 19.8262 7.33827 19.8197C7.2565 19.8178 7.17211 19.8185 7.08369 19.8193C6.95776 19.8205 6.82368 19.8217 6.67742 19.8152C6.6838 19.9641 6.6826 20.1005 6.68147 20.2287C6.68068 20.3186 6.67992 20.4045 6.68185 20.4878C6.69111 20.8872 6.76226 21.2252 7.18839 21.6589C7.59463 22.0723 7.96505 22.1596 8.33914 22.175C8.44461 22.1794 8.55038 22.178 8.65732 22.1766C8.7699 22.1752 8.88378 22.1737 9 22.1789C9.11622 22.1737 9.2301 22.1752 9.34268 22.1766C9.44962 22.178 9.55539 22.1794 9.66086 22.175C10.0349 22.1596 10.4054 22.0723 10.8116 21.6589C11.2377 21.2252 11.3089 20.8872 11.3181 20.4878C11.3201 20.4045 11.3193 20.3187 11.3185 20.2287C11.3174 20.1005 11.3162 19.9641 11.3226 19.8152C11.1763 19.8217 11.0422 19.8205 10.9163 19.8193C10.8279 19.8185 10.7435 19.8178 10.6617 19.8197C10.3927 19.8262 10.152 19.8622 9.88993 20.024C9.8436 19.5952 9.67978 19.3555 9.45585 19.1166C9.4004 19.0575 9.34127 18.9984 9.27932 18.9364C9.19109 18.8482 9.09714 18.7543 9 18.6465C8.90287 18.7543 8.80892 18.8482 8.72069 18.9364ZM9 22.1789C9.00039 22.1881 9.00038 22.1698 9 22.1789ZM9 19.5863C8.95391 19.6362 8.91839 19.6786 8.8887 19.7199C8.81515 19.8223 8.74626 19.956 8.74626 20.2879C8.74626 20.6387 8.82359 20.7912 9 20.985C9.17641 20.7912 9.25373 20.6387 9.25373 20.2879C9.25373 19.956 9.18485 19.8223 9.1113 19.7199C9.08161 19.6786 9.04609 19.6362 9 19.5863ZM10.6577 20.4919C10.5891 20.4941 10.5336 20.4986 10.483 20.5066C10.3576 20.5264 10.2134 20.5722 9.9786 20.8111C9.73038 21.0637 9.67815 21.2302 9.66809 21.499C9.93219 21.4887 10.0958 21.4356 10.344 21.183C10.5788 20.944 10.6237 20.7973 10.6432 20.6697C10.6511 20.6182 10.6555 20.5616 10.6577 20.4919ZM7.51703 20.5066C7.4664 20.4986 7.41085 20.4941 7.34234 20.4919C7.34448 20.5616 7.34889 20.6182 7.35676 20.6697C7.37625 20.7973 7.42121 20.944 7.65602 21.183C7.90424 21.4356 8.06781 21.4887 8.33191 21.499C8.32185 21.2302 8.26961 21.0637 8.0214 20.8111C7.78658 20.5722 7.64243 20.5264 7.51703 20.5066Z" fill="#2B8FC3"/>
<path fill-rule="evenodd" clip-rule="evenodd" d="M6.29032 13.3939C6.29032 13.1764 6.46363 13 6.67742 13H11.3226C11.5364 13 11.7097 13.1764 11.7097 13.3939V15.2323C11.7097 15.4499 11.5364 15.6263 11.3226 15.6263H11.0645V16.0382C12.1895 16.4222 13 17.5036 13 18.7778V25.4747C13 25.7648 12.7689 26 12.4839 26H5.51613C5.23108 26 5 25.7648 5 25.4747V18.7778C5 17.5036 5.81053 16.4222 6.93548 16.0382V15.6263H6.67742C6.46363 15.6263 6.29032 15.4499 6.29032 15.2323V13.3939ZM6.93548 14.9697V13.6566H11.0645V14.9697H6.93548ZM7.58065 15.6263V16.3203C7.58065 16.5226 7.42996 16.6921 7.23206 16.7122L6.93548 16.7424C6.63763 16.8796 6.37525 17.0829 6.1662 17.3333H11.8338C11.6247 17.0829 11.3624 16.88 11.0645 16.7429L10.7679 16.7122C10.57 16.6921 10.4194 16.5226 10.4194 16.3203V15.6263H7.58065ZM5.78569 17.9899C5.69486 18.2349 5.64516 18.5004 5.64516 18.7778V23.3737H12.3548V18.7778C12.3548 18.5004 12.3051 18.2349 12.2143 17.9899H5.78569ZM5.64516 25.3434V24.0303H12.3548V25.3434H5.64516Z" fill="#2B8FC3"/>
<path d="M3.36 1.41634C2.35484 1.41634 1.54 2.2407 1.54 3.25759V7.36498C1.54 7.75609 1.2266 8.07315 0.84 8.07315C0.453401 8.07315 0.14 7.75609 0.14 7.36498V3.25759C0.14 1.45847 1.58164 0 3.36 0H7.95575C9.10792 0 10.0707 0.820171 10.3049 1.9149H25.2C26.6691 1.9149 27.86 3.11972 27.86 4.60595V5.30279C27.86 5.6939 27.5466 6.01096 27.16 6.01096C26.7734 6.01096 26.46 5.6939 26.46 5.30279V4.60595C26.46 3.90194 25.8959 3.33124 25.2 3.33124H9.84855C9.35741 3.33124 8.95927 2.92845 8.95927 2.43158C8.95927 1.87088 8.50998 1.41634 7.95575 1.41634H3.36Z" fill="#2B8FC3"/>
<path d="M25.9937 10.9719C25.984 11.175 25.927 11.3547 25.8226 11.511C25.7183 11.666 25.5716 11.7862 25.3824 11.8717C25.1946 11.9572 24.9797 12 24.7376 12C24.3384 12 24.024 11.8751 23.7945 11.6253C23.5649 11.3754 23.4502 11.0227 23.4502 10.5671V10.4228C23.4502 10.1369 23.5017 9.88711 23.6046 9.67335C23.7089 9.45825 23.8585 9.29259 24.0532 9.17635C24.248 9.05878 24.4733 9 24.7293 9C25.0979 9 25.3942 9.09352 25.6182 9.28056C25.8421 9.46627 25.9694 9.72278 26 10.0501H25.2697C25.2641 9.87241 25.2175 9.74482 25.1299 9.66733C25.0423 9.58985 24.9087 9.5511 24.7293 9.5511C24.547 9.5511 24.4135 9.61657 24.3286 9.7475C24.2438 9.87842 24.1993 10.0875 24.1951 10.3747V10.5812C24.1951 10.8925 24.2354 11.1149 24.3161 11.2485C24.3982 11.3821 24.5387 11.4489 24.7376 11.4489C24.9059 11.4489 25.0346 11.4108 25.1236 11.3347C25.2127 11.2585 25.26 11.1376 25.2655 10.9719H25.9937Z" fill="#2B8FC3"/>
<path fill-rule="evenodd" clip-rule="evenodd" d="M18.9577 11.4148H19.9614L20.1388 11.9599H20.9254L19.8028 9.04208H19.1142L18 11.9599H18.7825L18.9577 11.4148ZM19.7861 10.8717H19.133L19.4585 9.85972L19.7861 10.8717Z" fill="#2B8FC3"/>
<path d="M22.3714 9.58517H23.2833V9.04208H20.7439V9.58517H21.639V11.9599H22.3714V9.58517Z" fill="#2B8FC3"/>
<path fill-rule="evenodd" clip-rule="evenodd" d="M2.24 8.77751V5.41408C2.24 4.84886 2.66867 4.39066 3.19747 4.39066H25.0825C25.6113 4.39066 26.04 4.84887 26.04 5.41408V6.64256H26.74C27.4359 6.64256 28 7.2119 28 7.91422V23.4567C28 24.8613 26.8718 26 25.48 26H2.52C1.12824 26 0 24.8613 0 23.4567V11.3053C0 9.99619 0.980013 8.91809 2.24 8.77751ZM3.60782 8.76199V5.85269H24.6722V6.64256H18.2815C17.9613 6.64256 17.6532 6.76553 17.4197 6.9865L15.4 8.76199H3.60782ZM18.3368 8.05552H26.6V23.4567C26.6 24.081 26.0986 24.5871 25.48 24.5871H2.52C1.90144 24.5871 1.4 24.081 1.4 23.4567V11.3053C1.4 10.681 1.90144 10.1749 2.52 10.1749H15.96L18.3368 8.05552Z" fill="#2B8FC3"/>
</svg>
