<svg width="28" height="26" viewBox="0 0 28 26" fill="none" xmlns="http://www.w3.org/2000/svg">
<path d="M1.54 3.25759C1.54 2.2407 2.35484 1.41634 3.36 1.41634H7.95575C8.50998 1.41634 8.95927 1.87088 8.95927 2.43158C8.95927 2.92845 9.35741 3.33124 9.84855 3.33124H25.2C25.8959 3.33124 26.46 3.90194 26.46 4.60595V5.30279C26.46 5.6939 26.7734 6.01096 27.16 6.01096C27.5466 6.01096 27.86 5.6939 27.86 5.30279V4.60595C27.86 3.11972 26.6691 1.9149 25.2 1.9149H10.3049C10.0707 0.820171 9.10792 0 7.95575 0H3.36C1.58164 0 0.14 1.45847 0.14 3.25759V7.36498C0.14 7.75609 0.453401 8.07315 0.84 8.07315C1.2266 8.07315 1.54 7.75609 1.54 7.36498V3.25759Z" fill="#2B8FC3"/>
<path d="M25.8226 11.511C25.927 11.3547 25.984 11.175 25.9937 10.9719H25.2655C25.26 11.1376 25.2127 11.2585 25.1236 11.3347C25.0346 11.4108 24.9059 11.4489 24.7376 11.4489C24.5387 11.4489 24.3982 11.3821 24.3161 11.2485C24.2354 11.1149 24.1951 10.8925 24.1951 10.5812V10.3747C24.1993 10.0875 24.2438 9.87842 24.3286 9.7475C24.4135 9.61657 24.547 9.5511 24.7293 9.5511C24.9087 9.5511 25.0423 9.58985 25.1299 9.66733C25.2175 9.74482 25.2641 9.87241 25.2697 10.0501H26C25.9694 9.72278 25.8421 9.46627 25.6182 9.28056C25.3942 9.09352 25.0979 9 24.7293 9C24.4733 9 24.248 9.05878 24.0532 9.17635C23.8585 9.29259 23.7089 9.45825 23.6046 9.67335C23.5017 9.88711 23.4502 10.1369 23.4502 10.4228V10.5671C23.4502 11.0227 23.5649 11.3754 23.7945 11.6253C24.024 11.8751 24.3384 12 24.7376 12C24.9797 12 25.1946 11.9572 25.3824 11.8717C25.5716 11.7862 25.7183 11.666 25.8226 11.511Z" fill="#2B8FC3"/>
<path fill-rule="evenodd" clip-rule="evenodd" d="M19.9614 11.4148H18.9577L18.7825 11.9599H18L19.1142 9.04208H19.8028L20.9254 11.9599H20.1388L19.9614 11.4148ZM19.133 10.8717H19.7861L19.4585 9.85972L19.133 10.8717Z" fill="#2B8FC3"/>
<path d="M23.2833 9.58517H22.3714V11.9599H21.639V9.58517H20.7439V9.04208H23.2833V9.58517Z" fill="#2B8FC3"/>
<path fill-rule="evenodd" clip-rule="evenodd" d="M12.2895 13.012C12.9182 12.8359 13.3486 12.4775 13.3486 12.064C13.3486 11.4764 12.4793 11 11.4069 11C10.3345 11 9.46515 11.4764 9.46515 12.064C9.46515 12.4775 9.89557 12.8359 10.5243 13.012L10.5243 14.584C10.5243 14.7077 10.6297 14.808 10.7596 14.808L12.0541 14.808C12.1841 14.808 12.2895 14.7077 12.2895 14.584L12.2895 13.012ZM12.4863 12.3311C12.7492 12.187 12.7602 12.0723 12.7602 12.064C12.7602 12.0557 12.7492 11.941 12.4863 11.7969C12.2393 11.6616 11.8589 11.56 11.4069 11.56C10.9549 11.56 10.5745 11.6616 10.3275 11.7969C10.0646 11.941 10.0536 12.0557 10.0536 12.064C10.0536 12.0723 10.0646 12.187 10.3275 12.3311C10.5745 12.4664 10.9549 12.568 11.4069 12.568C11.8589 12.568 12.2393 12.4664 12.4863 12.3311ZM11.7011 13.1159C11.6052 13.1239 11.5069 13.128 11.4069 13.128C11.3069 13.128 11.2086 13.1239 11.1127 13.1159V14.248L11.7011 14.248V13.1159Z" fill="#2B8FC3"/>
<path d="M6.69594 15.2265C6.79454 15.2265 6.87446 15.1505 6.87446 15.0567C6.87446 14.963 6.79454 14.887 6.69594 14.887C6.59735 14.887 6.51742 14.963 6.51742 15.0567C6.51742 15.1505 6.59735 15.2265 6.69594 15.2265Z" fill="#2B8FC3"/>
<path d="M6.24964 15.6509C6.34824 15.6509 6.42816 15.5749 6.42816 15.4812C6.42816 15.3874 6.34824 15.3114 6.24964 15.3114C6.15105 15.3114 6.07112 15.3874 6.07112 15.4812C6.07112 15.5749 6.15105 15.6509 6.24964 15.6509Z" fill="#2B8FC3"/>
<path d="M7.14225 20.7442C7.04365 20.7442 6.96373 20.8202 6.96373 20.914C6.96373 21.0078 7.04365 21.0838 7.14225 21.0838C7.24084 21.0838 7.32077 21.0078 7.32077 20.914C7.32077 20.8202 7.24084 20.7442 7.14225 20.7442Z" fill="#2B8FC3"/>
<path d="M6.42816 16.3301C6.42816 16.4238 6.34824 16.4998 6.24964 16.4998C6.15105 16.4998 6.07112 16.4238 6.07112 16.3301C6.07112 16.2363 6.15105 16.1603 6.24964 16.1603C6.34824 16.1603 6.42816 16.2363 6.42816 16.3301Z" fill="#2B8FC3"/>
<path d="M7.14225 19.8953C7.04365 19.8953 6.96373 19.9714 6.96373 20.0651C6.96373 20.1589 7.04365 20.2349 7.14225 20.2349C7.24084 20.2349 7.32077 20.1589 7.32077 20.0651C7.32077 19.9714 7.24084 19.8953 7.14225 19.8953Z" fill="#2B8FC3"/>
<path d="M7.32077 15.4812C7.32077 15.5749 7.24084 15.6509 7.14225 15.6509C7.04365 15.6509 6.96373 15.5749 6.96373 15.4812C6.96373 15.3874 7.04365 15.3114 7.14225 15.3114C7.24084 15.3114 7.32077 15.3874 7.32077 15.4812Z" fill="#2B8FC3"/>
<path d="M6.24964 20.7442C6.15105 20.7442 6.07112 20.8202 6.07112 20.914C6.07112 21.0078 6.15105 21.0838 6.24964 21.0838C6.34824 21.0838 6.42816 21.0078 6.42816 20.914C6.42816 20.8202 6.34824 20.7442 6.24964 20.7442Z" fill="#2B8FC3"/>
<path d="M7.32077 16.3301C7.32077 16.4238 7.24084 16.4998 7.14225 16.4998C7.04365 16.4998 6.96373 16.4238 6.96373 16.3301C6.96373 16.2363 7.04365 16.1603 7.14225 16.1603C7.24084 16.1603 7.32077 16.2363 7.32077 16.3301Z" fill="#2B8FC3"/>
<path d="M6.24964 19.8953C6.15105 19.8953 6.07112 19.9714 6.07112 20.0651C6.07112 20.1589 6.15105 20.2349 6.24964 20.2349C6.34824 20.2349 6.42816 20.1589 6.42816 20.0651C6.42816 19.9714 6.34824 19.8953 6.24964 19.8953Z" fill="#2B8FC3"/>
<path d="M6.69594 21.1687C6.59735 21.1687 6.51742 21.2447 6.51742 21.3384C6.51742 21.4322 6.59735 21.5082 6.69594 21.5082C6.79454 21.5082 6.87446 21.4322 6.87446 21.3384C6.87446 21.2447 6.79454 21.1687 6.69594 21.1687Z" fill="#2B8FC3"/>
<path d="M6.87446 15.9056C6.87446 15.9994 6.79454 16.0754 6.69594 16.0754C6.59735 16.0754 6.51742 15.9994 6.51742 15.9056C6.51742 15.8118 6.59735 15.7358 6.69594 15.7358C6.79454 15.7358 6.87446 15.8118 6.87446 15.9056Z" fill="#2B8FC3"/>
<path d="M6.69594 20.3198C6.59735 20.3198 6.51742 20.3958 6.51742 20.4896C6.51742 20.5833 6.59735 20.6593 6.69594 20.6593C6.79454 20.6593 6.87446 20.5833 6.87446 20.4896C6.87446 20.3958 6.79454 20.3198 6.69594 20.3198Z" fill="#2B8FC3"/>
<path d="M5.98186 15.9056C5.98186 15.9994 5.90194 16.0754 5.80334 16.0754C5.70475 16.0754 5.62482 15.9994 5.62482 15.9056C5.62482 15.8118 5.70475 15.7358 5.80334 15.7358C5.90194 15.7358 5.98186 15.8118 5.98186 15.9056Z" fill="#2B8FC3"/>
<path d="M7.58855 20.3198C7.48995 20.3198 7.41003 20.3958 7.41003 20.4896C7.41003 20.5833 7.48995 20.6593 7.58855 20.6593C7.68714 20.6593 7.76707 20.5833 7.76707 20.4896C7.76707 20.3958 7.68714 20.3198 7.58855 20.3198Z" fill="#2B8FC3"/>
<path d="M7.76707 15.9056C7.76707 15.9994 7.68714 16.0754 7.58855 16.0754C7.48995 16.0754 7.41003 15.9994 7.41003 15.9056C7.41003 15.8118 7.48995 15.7358 7.58855 15.7358C7.68714 15.7358 7.76707 15.8118 7.76707 15.9056Z" fill="#2B8FC3"/>
<path d="M5.80334 20.3198C5.70475 20.3198 5.62482 20.3958 5.62482 20.4896C5.62482 20.5833 5.70475 20.6593 5.80334 20.6593C5.90194 20.6593 5.98186 20.5833 5.98186 20.4896C5.98186 20.3958 5.90194 20.3198 5.80334 20.3198Z" fill="#2B8FC3"/>
<path fill-rule="evenodd" clip-rule="evenodd" d="M5.80334 17.1789C5.70475 17.1789 5.62482 17.2549 5.62482 17.3487V19.0465C5.62482 19.1402 5.70475 19.2162 5.80334 19.2162H7.58855C7.68714 19.2162 7.76707 19.1402 7.76707 19.0465V17.3487C7.76707 17.2549 7.68714 17.1789 7.58855 17.1789H5.80334ZM6.07112 17.6034V18.7918H7.32077V17.6034H6.07112Z" fill="#2B8FC3"/>
<path fill-rule="evenodd" clip-rule="evenodd" d="M5 15.5661C5 14.6753 5.7593 13.9532 6.69594 13.9532C7.63259 13.9532 8.39189 14.6753 8.39189 15.5661V20.8291C8.39189 21.7199 7.63259 22.442 6.69594 22.442C5.7593 22.442 5 21.7199 5 20.8291V15.5661ZM7.94559 15.5661V20.8291C7.94559 21.4855 7.3861 22.0175 6.69594 22.0175C6.00579 22.0175 5.4463 21.4855 5.4463 20.8291V15.5661C5.4463 14.9097 6.00579 14.3776 6.69594 14.3776C7.3861 14.3776 7.94559 14.9097 7.94559 15.5661Z" fill="#2B8FC3"/>
<path fill-rule="evenodd" clip-rule="evenodd" d="M2.24 5.41408V8.77751C0.980013 8.91809 0 9.99619 0 11.3053V23.4567C0 24.8613 1.12824 26 2.52 26H25.48C26.8718 26 28 24.8613 28 23.4567V7.91422C28 7.2119 27.4359 6.64256 26.74 6.64256H26.04V5.41408C26.04 4.84887 25.6113 4.39066 25.0825 4.39066H3.19747C2.66867 4.39066 2.24 4.84886 2.24 5.41408ZM3.60782 5.85269V8.76199H15.4L17.4197 6.9865C17.6532 6.76553 17.9613 6.64256 18.2815 6.64256H24.6722V5.85269H3.60782ZM26.6 8.05552H18.3368L15.96 10.1749H2.52C1.90144 10.1749 1.4 10.681 1.4 11.3053V23.4567C1.4 24.081 1.90144 24.5871 2.52 24.5871H11.1127L11.1127 22.984H10.995C10.865 22.984 10.7596 22.8837 10.7596 22.76L10.7596 21.8982C10.4918 21.8588 10.227 21.7948 9.96902 21.7062L9.58283 21.5736V15.9218C9.05327 15.8661 8.64138 15.4388 8.64138 14.92C8.64138 14.3633 9.11557 13.912 9.70051 13.912C9.8305 13.912 9.93588 14.0123 9.93588 14.136V14.248C9.93588 14.3717 9.8305 14.472 9.70051 14.472C9.44054 14.472 9.22979 14.6726 9.22979 14.92C9.22979 15.1674 9.44054 15.368 9.70051 15.368H13.1133C13.3733 15.368 13.584 15.1674 13.584 14.92C13.584 14.6726 13.3733 14.472 13.1133 14.472C12.9833 14.472 12.8779 14.3717 12.8779 14.248V14.136C12.8779 14.0123 12.9833 13.912 13.1133 13.912C13.6982 13.912 14.1724 14.3633 14.1724 14.92C14.1724 15.4388 13.7605 15.8661 13.231 15.9218V21.5736L12.8448 21.7062C12.5868 21.7948 12.322 21.8588 12.0541 21.8982V22.76C12.0541 22.8837 11.9488 22.984 11.8188 22.984H11.7011V24.5871H25.48C26.0986 24.5871 26.6 24.081 26.6 23.4567V8.05552ZM12.6426 16.04V21.1803C11.8439 21.454 10.9699 21.454 10.1712 21.1803V20.52H11.1127V20.072H10.1712V19.736H11.7011V19.288H10.1712V18.952H11.1127V18.504H10.1712V18.168H11.7011V17.72H10.1712V17.384H11.1127L11.1127 16.936H10.1712V16.04H12.6426ZM11.3481 22.424V22.2H11.4657V22.424H11.3481Z" fill="#2B8FC3"/>
</svg>
