<svg width="28" height="25" viewBox="0 0 28 25" fill="none" xmlns="http://www.w3.org/2000/svg">
<path fill-rule="evenodd" clip-rule="evenodd" d="M5.74 0.65842C5.74 0.294785 6.03549 0 6.4 0H27.02C27.4839 0 27.86 0.37518 27.86 0.837989V6.98324C27.86 7.36891 27.5466 7.68156 27.16 7.68156C26.7734 7.68156 26.46 7.36891 26.46 6.98324V1.39665H7.14C7.14 1.47378 7.07732 1.53631 7 1.53631H6.44C6.0534 1.53631 5.74 1.22366 5.74 0.837989V0.65842ZM3.5 2.61373C3.5 2.25009 3.79549 1.95531 4.16 1.95531H24.78C25.2439 1.95531 25.62 2.33049 25.62 2.7933V6.98324C25.62 7.36891 25.3066 7.68156 24.92 7.68156C24.5334 7.68156 24.22 7.36891 24.22 6.98324V3.35196H4.9C4.9 3.42909 4.83732 3.49162 4.76 3.49162H4.2C3.8134 3.49162 3.5 3.17897 3.5 2.7933V2.61373ZM1.4 7.26257H9.66319L12.04 9.35754H25.48C26.0986 9.35754 26.6 9.85778 26.6 10.4749V22.486C26.6 23.1031 26.0986 23.6034 25.48 23.6034H2.52C1.90144 23.6034 1.4 23.1031 1.4 22.486V7.26257ZM12.6 7.96089L10.5803 6.20589C10.3468 5.98747 10.0387 5.86592 9.71855 5.86592H1.26C0.564121 5.86592 0 6.42869 0 7.1229V22.486C0 23.8745 1.12824 25 2.52 25H25.48C26.8718 25 28 23.8745 28 22.486V10.4749C28 9.08644 26.8718 7.96089 25.48 7.96089H12.6ZM1.92 3.91061C1.55549 3.91061 1.26 4.2054 1.26 4.56903V4.7486C1.26 5.13428 1.5734 5.44693 1.96 5.44693H2.52C2.59732 5.44693 2.66 5.3844 2.66 5.30726H21.98V6.98324C21.98 7.36891 22.2934 7.68156 22.68 7.68156C23.0666 7.68156 23.38 7.36891 23.38 6.98324V4.7486C23.38 4.28579 23.0039 3.91061 22.54 3.91061H1.92ZM24.0445 20.5918C24.2495 20.2727 24.3616 19.9058 24.3808 19.4911H22.9493C22.9384 19.8294 22.8454 20.0763 22.6704 20.2318C22.4954 20.3872 22.2425 20.465 21.9116 20.465C21.5206 20.465 21.2445 20.3286 21.0831 20.0558C20.9245 19.783 20.8452 19.3288 20.8452 18.6933V18.2718C20.8534 17.6853 20.9409 17.2584 21.1077 16.9911C21.2745 16.7238 21.537 16.5901 21.8952 16.5901C22.248 16.5901 22.5105 16.6692 22.6827 16.8274C22.855 16.9856 22.9466 17.2461 22.9575 17.6089H24.3931C24.3329 16.9406 24.0827 16.4169 23.6425 16.0377C23.2023 15.6558 22.6198 15.4649 21.8952 15.4649C21.3921 15.4649 20.9491 15.5849 20.5663 15.8249C20.1835 16.0623 19.8896 16.4005 19.6845 16.8397C19.4821 17.2762 19.381 17.7863 19.381 18.37V18.6646C19.381 19.5948 19.6066 20.315 20.0577 20.8251C20.5089 21.3352 21.1269 21.5902 21.9116 21.5902C22.3874 21.5902 22.8099 21.5029 23.179 21.3283C23.5509 21.1538 23.8394 20.9083 24.0445 20.5918ZM12.5232 20.3954H10.5503L10.2058 21.5084H8.6677L10.8579 15.5508H12.2114L14.4181 21.5084H12.8718L12.5232 20.3954ZM10.8948 19.2866H12.1786L11.5347 17.2202L10.8948 19.2866ZM19.0529 16.6597H17.2605V21.5084H15.8208V16.6597H14.0612V15.5508H19.0529V16.6597Z" fill="#2B8FC3"/>
</svg>
