<svg width="16" height="26" viewBox="0 0 16 26" fill="none" xmlns="http://www.w3.org/2000/svg">
<path fill-rule="evenodd" clip-rule="evenodd" d="M7.44138 11.8729C7.31749 11.9967 7.19919 12.115 7.0883 12.2333C6.64044 12.7111 6.3128 13.1904 6.22013 14.048C5.69604 13.7245 5.21466 13.6524 4.67655 13.6395C4.513 13.6355 4.34421 13.6371 4.16739 13.6387C3.91553 13.641 3.64736 13.6434 3.35484 13.6304C3.36761 13.9281 3.3652 14.201 3.36294 14.4573C3.36135 14.6373 3.35984 14.8091 3.3637 14.9755C3.38222 15.7744 3.52452 16.4504 4.37677 17.3177C5.18926 18.1446 5.9301 18.3192 6.67827 18.35C6.88922 18.3587 7.10076 18.356 7.31464 18.3532C7.5398 18.3503 7.76756 18.3474 7.99999 18.3577C8.23243 18.3474 8.4602 18.3503 8.68535 18.3532C8.89924 18.356 9.11077 18.3587 9.32172 18.35C10.0699 18.3192 10.8107 18.1446 11.6232 17.3177C12.4755 16.4504 12.6178 15.7744 12.6363 14.9755C12.6402 14.8091 12.6386 14.6373 12.6371 14.4574C12.6348 14.2011 12.6324 13.9281 12.6452 13.6304C12.3526 13.6434 12.0845 13.641 11.8326 13.6387C11.6558 13.6371 11.487 13.6355 11.3234 13.6395C10.7853 13.6524 10.304 13.7245 9.77987 14.048C9.6872 13.1904 9.35956 12.7111 8.9117 12.2333C8.80081 12.115 8.68254 11.9967 8.55864 11.8729C8.38217 11.6965 8.19428 11.5087 8 11.2929C7.80574 11.5087 7.61784 11.6965 7.44138 11.8729ZM7.99999 18.3577C8.00079 18.3761 8.00077 18.3396 7.99999 18.3577V18.3577ZM8 13.1726C7.90781 13.2724 7.83678 13.3572 7.7774 13.4399C7.6303 13.6447 7.49253 13.912 7.49253 14.5758C7.49253 15.2774 7.64717 15.5825 8 15.97C8.35283 15.5825 8.50747 15.2774 8.50747 14.5758C8.50747 13.912 8.3697 13.6447 8.2226 13.4399C8.16322 13.3572 8.09219 13.2724 8 13.1726ZM11.3153 14.9838C11.1783 14.9881 11.0672 14.9971 10.9659 15.0131C10.7151 15.0528 10.4268 15.1443 9.9572 15.6222C9.46077 16.1275 9.3563 16.4604 9.33618 16.9979C9.86438 16.9774 10.1915 16.8711 10.688 16.3659C11.1576 15.888 11.2475 15.5946 11.2865 15.3394C11.3022 15.2363 11.311 15.1232 11.3153 14.9838ZM5.03406 15.0131C4.93281 14.9971 4.8217 14.9881 4.68468 14.9838C4.68895 15.1232 4.69777 15.2363 4.71351 15.3394C4.7525 15.5946 4.84241 15.888 5.31204 16.3659C5.80847 16.8711 6.13562 16.9774 6.66381 16.9979C6.64369 16.4604 6.53923 16.1275 6.0428 15.6222C5.57317 15.1443 5.28487 15.0528 5.03406 15.0131Z" fill="#F53866"/>
<path fill-rule="evenodd" clip-rule="evenodd" d="M2.58065 0.787879C2.58065 0.352744 2.92726 0 3.35484 0H12.6452C13.0727 0 13.4194 0.352744 13.4194 0.787879V4.46465C13.4194 4.89978 13.0727 5.25253 12.6452 5.25253H12.129V6.07639C14.3789 6.84431 16 9.00728 16 11.5556V24.9495C16 25.5297 15.5378 26 14.9677 26H1.03226C0.462166 26 0 25.5297 0 24.9495V11.5556C0 9.00728 1.62106 6.84431 3.87097 6.07639V5.25253H3.35484C2.92726 5.25253 2.58065 4.89978 2.58065 4.46465V0.787879ZM3.87097 3.93939V1.31313H12.129V3.93939H3.87097ZM5.16129 5.25253V6.64051C5.16129 7.04529 4.85991 7.38421 4.46412 7.42448L3.87097 7.48485V7.48576C3.27526 7.76004 2.7505 8.1658 2.33241 8.66667H13.6676C13.2495 8.1658 12.7247 7.76004 12.129 7.48576V7.48485L11.5359 7.42448C11.1401 7.38421 10.8387 7.04529 10.8387 6.64051V5.25253H5.16129ZM1.57138 9.9798C1.38971 10.4698 1.29032 11.0009 1.29032 11.5556V20.7475H14.7097V11.5556C14.7097 11.0009 14.6103 10.4698 14.4286 9.9798H1.57138ZM1.29032 24.6869V22.0606H14.7097V24.6869H1.29032Z" fill="#F53866"/>
</svg>
