<svg width="19" height="29" viewBox="0 0 19 29" fill="none" xmlns="http://www.w3.org/2000/svg">
<path fill-rule="evenodd" clip-rule="evenodd" d="M17.2936 2.204C17.2936 3.06049 16.402 3.80288 15.0997 4.16768L15.0997 7.424C15.0997 7.68026 14.8814 7.888 14.6122 7.888L11.9307 7.888C11.6614 7.888 11.4432 7.68026 11.4432 7.424L11.4432 4.16768C10.1408 3.80288 9.24924 3.06049 9.24924 2.204C9.24924 0.986764 11.05 0 13.2714 0C15.4928 0 17.2936 0.986764 17.2936 2.204ZM16.0748 2.204C16.0748 2.22112 16.0519 2.45883 15.5074 2.75718C14.9957 3.03757 14.2078 3.248 13.2714 3.248C12.3351 3.248 11.5472 3.03757 11.0355 2.75718C10.491 2.45883 10.4681 2.22112 10.4681 2.204C10.4681 2.18688 10.491 1.94917 11.0355 1.65082C11.5472 1.37043 12.3351 1.16 13.2714 1.16C14.2078 1.16 14.9957 1.37043 15.5074 1.65082C16.0519 1.94917 16.0748 2.18688 16.0748 2.204ZM13.2714 4.408C13.4786 4.408 13.6821 4.39942 13.8809 4.38286V6.728L12.662 6.728V4.38286C12.8607 4.39942 13.0643 4.408 13.2714 4.408Z" fill="#F53866"/>
<path fill-rule="evenodd" clip-rule="evenodd" d="M17.0498 21.9025L16.2499 22.1772C15.7154 22.3607 15.1669 22.4933 14.6122 22.5749V24.36C14.6122 24.6163 14.3939 24.824 14.1246 24.824H13.8809V28.536C13.8809 28.7923 13.6626 29 13.3933 29H13.1495C12.8803 29 12.662 28.7923 12.662 28.536L12.662 24.824H12.4182C12.149 24.824 11.9307 24.6163 11.9307 24.36L11.9307 22.5749C11.3759 22.4933 10.8274 22.3607 10.293 22.1772L9.49301 21.9025L9.49301 10.1953C8.39606 10.0798 7.54286 9.19475 7.54286 8.12C7.54286 6.96683 8.52511 6.032 9.73678 6.032C10.006 6.032 10.2243 6.23974 10.2243 6.496V6.728C10.2243 6.98426 10.006 7.192 9.73678 7.192C9.19826 7.192 8.7617 7.60748 8.7617 8.12C8.7617 8.63252 9.19826 9.048 9.73678 9.048L16.8061 9.048C17.3446 9.048 17.7812 8.63252 17.7812 8.12C17.7812 7.60748 17.3446 7.192 16.8061 7.192C16.5368 7.192 16.3185 6.98426 16.3185 6.728V6.496C16.3185 6.23974 16.5368 6.032 16.8061 6.032C18.0177 6.032 19 6.96683 19 8.12C19 9.19475 18.1468 10.0799 17.0498 10.1953V21.9025ZM15.831 21.0878V10.44H10.7119L10.7119 12.296H12.662L12.662 13.224H10.7119V13.92H13.8809V14.848H10.7119V15.544L12.662 15.544V16.472H10.7119L10.7119 17.168H13.8809V18.096H10.7119L10.7119 18.792H12.662V19.72H10.7119V21.0878C12.3663 21.6547 14.1766 21.6547 15.831 21.0878ZM13.1495 23.2V23.664H13.3933V23.2H13.1495Z" fill="#F53866"/>
<path d="M3.51303 8.75491C3.71726 8.75491 3.88282 8.59746 3.88282 8.40323C3.88282 8.20901 3.71726 8.05156 3.51303 8.05156C3.3088 8.05156 3.14324 8.20901 3.14324 8.40323C3.14324 8.59746 3.3088 8.75491 3.51303 8.75491Z" fill="#F53866"/>
<path d="M2.95834 9.28243C2.95834 9.47666 2.79278 9.63411 2.58855 9.63411C2.38432 9.63411 2.21875 9.47666 2.21875 9.28243C2.21875 9.0882 2.38432 8.93075 2.58855 8.93075C2.79278 8.93075 2.95834 9.0882 2.95834 9.28243Z" fill="#F53866"/>
<path d="M4.43751 20.1845C4.23328 20.1845 4.06772 20.3419 4.06772 20.5361C4.06772 20.7304 4.23328 20.8878 4.43751 20.8878C4.64174 20.8878 4.8073 20.7304 4.8073 20.5361C4.8073 20.3419 4.64174 20.1845 4.43751 20.1845Z" fill="#F53866"/>
<path d="M2.58855 11.3925C2.79278 11.3925 2.95834 11.2351 2.95834 11.0408C2.95834 10.8466 2.79278 10.6891 2.58855 10.6891C2.38432 10.6891 2.21875 10.8466 2.21875 11.0408C2.21875 11.2351 2.38432 11.3925 2.58855 11.3925Z" fill="#F53866"/>
<path d="M4.43751 18.4261C4.23328 18.4261 4.06772 18.5835 4.06772 18.7777C4.06772 18.972 4.23328 19.1294 4.43751 19.1294C4.64174 19.1294 4.8073 18.972 4.8073 18.7777C4.8073 18.5835 4.64174 18.4261 4.43751 18.4261Z" fill="#F53866"/>
<path d="M4.43751 9.63411C4.64174 9.63411 4.8073 9.47666 4.8073 9.28243C4.8073 9.0882 4.64174 8.93075 4.43751 8.93075C4.23328 8.93075 4.06772 9.0882 4.06772 9.28243C4.06772 9.47666 4.23328 9.63411 4.43751 9.63411Z" fill="#F53866"/>
<path d="M2.58855 20.1845C2.38432 20.1845 2.21875 20.3419 2.21875 20.5361C2.21875 20.7304 2.38432 20.8878 2.58855 20.8878C2.79278 20.8878 2.95834 20.7304 2.95834 20.5361C2.95834 20.3419 2.79278 20.1845 2.58855 20.1845Z" fill="#F53866"/>
<path d="M4.43751 11.3925C4.64174 11.3925 4.8073 11.2351 4.8073 11.0408C4.8073 10.8466 4.64174 10.6891 4.43751 10.6891C4.23328 10.6891 4.06772 10.8466 4.06772 11.0408C4.06772 11.2351 4.23328 11.3925 4.43751 11.3925Z" fill="#F53866"/>
<path d="M2.58855 18.4261C2.38432 18.4261 2.21875 18.5835 2.21875 18.7777C2.21875 18.972 2.38432 19.1294 2.58855 19.1294C2.79278 19.1294 2.95834 18.972 2.95834 18.7777C2.95834 18.5835 2.79278 18.4261 2.58855 18.4261Z" fill="#F53866"/>
<path d="M3.14324 21.4153C3.14324 21.2211 3.3088 21.0637 3.51303 21.0637C3.71726 21.0637 3.88282 21.2211 3.88282 21.4153C3.88282 21.6096 3.71726 21.767 3.51303 21.767C3.3088 21.767 3.14324 21.6096 3.14324 21.4153Z" fill="#F53866"/>
<path d="M3.88282 10.1616C3.88282 10.3559 3.71726 10.5133 3.51303 10.5133C3.3088 10.5133 3.14324 10.3559 3.14324 10.1616C3.14324 9.9674 3.3088 9.80995 3.51303 9.80995C3.71726 9.80995 3.88282 9.9674 3.88282 10.1616Z" fill="#F53866"/>
<path d="M3.14324 19.6569C3.14324 19.4627 3.3088 19.3053 3.51303 19.3053C3.71726 19.3053 3.88282 19.4627 3.88282 19.6569C3.88282 19.8512 3.71726 20.0086 3.51303 20.0086C3.3088 20.0086 3.14324 19.8512 3.14324 19.6569Z" fill="#F53866"/>
<path d="M2.03386 10.1616C2.03386 10.3559 1.8683 10.5133 1.66407 10.5133C1.45984 10.5133 1.29427 10.3559 1.29427 10.1616C1.29427 9.9674 1.45984 9.80995 1.66407 9.80995C1.8683 9.80995 2.03386 9.9674 2.03386 10.1616Z" fill="#F53866"/>
<path d="M4.9922 19.6569C4.9922 19.4627 5.15776 19.3053 5.36199 19.3053C5.56622 19.3053 5.73178 19.4627 5.73178 19.6569C5.73178 19.8512 5.56622 20.0086 5.36199 20.0086C5.15776 20.0086 4.9922 19.8512 4.9922 19.6569Z" fill="#F53866"/>
<path d="M5.73178 10.1616C5.73178 10.3559 5.56622 10.5133 5.36199 10.5133C5.15776 10.5133 4.9922 10.3559 4.9922 10.1616C4.9922 9.9674 5.15776 9.80995 5.36199 9.80995C5.56622 9.80995 5.73178 9.9674 5.73178 10.1616Z" fill="#F53866"/>
<path d="M1.29427 19.6569C1.29427 19.4627 1.45984 19.3053 1.66407 19.3053C1.8683 19.3053 2.03386 19.4627 2.03386 19.6569C2.03386 19.8512 1.8683 20.0086 1.66407 20.0086C1.45984 20.0086 1.29427 19.8512 1.29427 19.6569Z" fill="#F53866"/>
<path fill-rule="evenodd" clip-rule="evenodd" d="M1.66407 12.7992C1.45984 12.7992 1.29427 12.9567 1.29427 13.1509V16.6677C1.29427 16.8619 1.45984 17.0194 1.66407 17.0194H5.36199C5.56622 17.0194 5.73178 16.8619 5.73178 16.6677V13.1509C5.73178 12.9567 5.56622 12.7992 5.36199 12.7992H1.66407ZM2.21875 13.6784V16.1402H4.8073V13.6784H2.21875Z" fill="#F53866"/>
<path fill-rule="evenodd" clip-rule="evenodd" d="M3.51303 6.11732C1.57284 6.11732 0 7.61312 0 9.45827V20.3603C0 22.2055 1.57284 23.7012 3.51303 23.7012C5.45322 23.7012 7.02606 22.2055 7.02606 20.3603V9.45827C7.02606 7.61312 5.45322 6.11732 3.51303 6.11732ZM6.10157 20.3603V9.45827C6.10157 8.09868 4.94264 6.99652 3.51303 6.99652C2.08341 6.99652 0.924481 8.09868 0.924481 9.45827V20.3603C0.924481 21.7199 2.08341 22.8221 3.51303 22.8221C4.94264 22.8221 6.10157 21.7199 6.10157 20.3603Z" fill="#F53866"/>
</svg>
