<svg width="27" height="22" viewBox="0 0 27 22" fill="none" xmlns="http://www.w3.org/2000/svg">
<path d="M12.4517 4.10876C13.1666 3.77142 13.6641 3.021 13.6641 2.14941C13.6641 0.962341 12.7412 0 11.603 0C10.4647 0 9.54199 0.962341 9.54199 2.14941C9.54199 3.021 10.0394 3.77142 10.7544 4.10876V10.1149C10.7544 12.5103 12.4352 14.4963 14.6339 14.86V16.4368C14.6339 19.5093 17.0222 22 19.9684 22C22.9144 22 25.3027 19.5093 25.3027 16.4368V16.321C26.2865 15.9988 27 15.0403 27 13.9081C27 12.5115 25.9144 11.3793 24.5753 11.3793C23.2362 11.3793 22.1506 12.5115 22.1506 13.9081C22.1506 14.945 22.749 15.8362 23.6055 16.2264V16.4368C23.6055 18.5317 21.9771 20.2299 19.9684 20.2299C17.9596 20.2299 16.3313 18.5317 16.3313 16.4368V14.8129C18.4099 14.3484 19.9684 12.4214 19.9684 10.1149V4.10876C20.6832 3.77142 21.1807 3.021 21.1807 2.14941C21.1807 0.962341 20.2579 0 19.1196 0C17.9814 0 17.0587 0.962341 17.0587 2.14941C17.0587 3.021 17.5562 3.77142 18.271 4.10876V10.1149C18.271 11.7908 16.9684 13.1494 15.3613 13.1494C13.7544 13.1494 12.4517 11.7908 12.4517 10.1149V4.10876Z" fill="#2B8FC3"/>
<path d="M5.45166 13.1111H4.54834V14.9212H2.74194V15.8262H4.54834V17.6364H5.45166V15.8262H7.25806V14.9212H5.45166V13.1111Z" fill="#2B8FC3"/>
<path fill-rule="evenodd" clip-rule="evenodd" d="M1.61292 6.48486C1.61292 6.2171 1.82959 6 2.0968 6H7.9032C8.17041 6 8.38708 6.2171 8.38708 6.48486V8.7475C8.38708 9.01526 8.17041 9.2323 7.9032 9.2323H7.58069V9.73932C8.98682 10.2119 10 11.543 10 13.1111V21.3535C10 21.7106 9.71118 22 9.35486 22H0.645142C0.288818 22 0 21.7106 0 21.3535V13.1111C0 11.543 1.01318 10.2119 2.41931 9.73932V9.2323H2.0968C1.82959 9.2323 1.61292 9.01526 1.61292 8.7475V6.48486ZM2.41931 8.42426V6.80811H7.58069V8.42426H2.41931ZM3.22583 9.2323V10.0865C3.22583 10.3356 3.03748 10.5441 2.79004 10.5689L2.41931 10.6061C2.047 10.7754 1.71912 11.0251 1.45776 11.3333H8.54224C8.28088 11.0251 7.953 10.7754 7.58069 10.6061L7.20996 10.5689C6.96252 10.5441 6.77417 10.3356 6.77417 10.0865V9.2323H3.22583ZM0.982056 12.1414C0.86853 12.4429 0.806396 12.7698 0.806396 13.1111V18.7677H9.1936V13.1111C9.1936 12.7698 9.13147 12.4429 9.01794 12.1414H0.982056ZM0.806396 21.1919V19.5757H9.1936V21.1919H0.806396Z" fill="#2B8FC3"/>
</svg>
