<svg width="27" height="22" viewBox="0 0 27 22" fill="none" xmlns="http://www.w3.org/2000/svg">
<path d="M13.664 2.14943C13.664 3.02101 13.1666 3.77143 12.4517 4.10876V10.115C12.4517 11.7908 13.7544 13.1494 15.3613 13.1494C16.9683 13.1494 18.271 11.7908 18.271 10.115V4.10876C17.5561 3.77143 17.0587 3.02101 17.0587 2.14943C17.0587 0.962332 17.9814 0 19.1197 0C20.258 0 21.1807 0.962332 21.1807 2.14943C21.1807 3.02101 20.6833 3.77143 19.9683 4.10876V10.115C19.9683 12.4215 18.4099 14.3484 16.3312 14.8129V16.4368C16.3312 18.5317 17.9596 20.2299 19.9683 20.2299C21.977 20.2299 23.6054 18.5317 23.6054 16.4368V16.2264C22.7491 15.8362 22.1506 14.945 22.1506 13.9081C22.1506 12.5115 23.2362 11.3793 24.5753 11.3793C25.9145 11.3793 27.0001 12.5115 27.0001 13.9081C27.0001 15.0403 26.2865 15.9988 25.3028 16.321V16.4368C25.3028 19.5093 22.9145 22 19.9683 22C17.0222 22 14.6339 19.5093 14.6339 16.4368V14.86C12.4352 14.4963 10.7543 12.5103 10.7543 10.115V4.10876C10.0394 3.77143 9.54199 3.02101 9.54199 2.14943C9.54199 0.962332 10.4648 0 11.603 0C12.7413 0 13.664 0.962332 13.664 2.14943Z" fill="#2B8FC3"/>
<path fill-rule="evenodd" clip-rule="evenodd" d="M4.65086 13.3064C4.57343 13.3826 4.4995 13.4554 4.43019 13.5282C4.15028 13.8222 3.9455 14.1172 3.88758 14.6449C3.56003 14.4458 3.25916 14.4015 2.92284 14.3935C2.82062 14.3911 2.71513 14.392 2.60462 14.393C2.44721 14.3945 2.2796 14.396 2.09677 14.388C2.10475 14.5712 2.10325 14.7391 2.10184 14.8968C2.10085 15.0076 2.0999 15.1133 2.10231 15.2157C2.11389 15.7073 2.20283 16.1233 2.73548 16.6571C3.24329 17.1659 3.70631 17.2733 4.17392 17.2923C4.30576 17.2977 4.43797 17.296 4.57165 17.2943C4.71237 17.2925 4.85473 17.2907 5 17.2971C5.14527 17.2907 5.28762 17.2925 5.42834 17.2943C5.56202 17.296 5.69423 17.2977 5.82608 17.2923C6.29368 17.2733 6.75671 17.1659 7.26451 16.6571C7.79717 16.1233 7.88611 15.7073 7.89769 15.2157C7.9001 15.1133 7.89915 15.0076 7.89816 14.8968C7.89675 14.7391 7.89524 14.5711 7.90322 14.388C7.7204 14.396 7.5528 14.3945 7.39539 14.393C7.28487 14.392 7.17937 14.3911 7.07715 14.3935C6.74083 14.4015 6.43997 14.4458 6.11242 14.6449C6.0545 14.1172 5.84972 13.8222 5.56981 13.5282C5.5005 13.4554 5.42659 13.3826 5.34915 13.3064C5.23886 13.1978 5.12142 13.0823 5 12.9495C4.87858 13.0823 4.76115 13.1978 4.65086 13.3064ZM5 17.2971C5.00049 17.3084 5.00048 17.2859 5 17.2971ZM5 14.1062C4.94238 14.1677 4.89799 14.2198 4.86087 14.2707C4.76894 14.3967 4.68283 14.5612 4.68283 14.9697C4.68283 15.4015 4.77948 15.5892 5 15.8277C5.22052 15.5892 5.31717 15.4015 5.31717 14.9697C5.31717 14.5612 5.23106 14.3967 5.13913 14.2707C5.10201 14.2198 5.05762 14.1677 5 14.1062ZM7.07207 15.2208C6.98643 15.2235 6.91699 15.229 6.85371 15.2389C6.69695 15.2633 6.51677 15.3196 6.22325 15.6137C5.91298 15.9246 5.84769 16.1295 5.83511 16.4603C6.16524 16.4477 6.3697 16.3822 6.67997 16.0713C6.97349 15.7772 7.02968 15.5967 7.05405 15.4396C7.06389 15.3762 7.0694 15.3066 7.07207 15.2208ZM3.14629 15.2389C3.083 15.229 3.01356 15.2235 2.92793 15.2208C2.93059 15.3066 2.93611 15.3762 2.94595 15.4396C2.97031 15.5967 3.02651 15.7772 3.32003 16.0713C3.63029 16.3822 3.83476 16.4477 4.16488 16.4603C4.15231 16.1295 4.08702 15.9246 3.77675 15.6137C3.48323 15.3196 3.30304 15.2633 3.14629 15.2389Z" fill="#2B8FC3"/>
<path fill-rule="evenodd" clip-rule="evenodd" d="M1.6129 6.48485C1.6129 6.21707 1.82954 6 2.09677 6H7.90323C8.17046 6 8.3871 6.21707 8.3871 6.48485V8.74747C8.3871 9.01525 8.17046 9.23232 7.90323 9.23232H7.58065V9.73932C8.98684 10.2119 10 11.5429 10 13.1111V21.3535C10 21.7106 9.71115 22 9.35484 22H0.645161C0.288854 22 0 21.7106 0 21.3535V13.1111C0 11.5429 1.01316 10.2119 2.41935 9.73932V9.23232H2.09677C1.82954 9.23232 1.6129 9.01525 1.6129 8.74747V6.48485ZM2.41935 8.42424V6.80808H7.58065V8.42424H2.41935ZM3.22581 9.23232V10.0865C3.22581 10.3356 3.03744 10.5441 2.79007 10.5689L2.41935 10.6061C2.04704 10.7748 1.71907 11.0251 1.45776 11.3333H8.54224C8.28093 11.0251 7.95296 10.7754 7.58065 10.6066L7.20993 10.5689C6.96256 10.5441 6.77419 10.3356 6.77419 10.0865V9.23232H3.22581ZM0.982115 12.1414C0.86857 12.4429 0.806452 12.7698 0.806452 13.1111V18.7677H9.19355V13.1111C9.19355 12.7698 9.13143 12.4429 9.01789 12.1414H0.982115ZM0.806452 21.1919V19.5758H9.19355V21.1919H0.806452Z" fill="#2B8FC3"/>
</svg>
