<?xml version="1.0" encoding="utf-8"?>
<!-- Generator: Adobe Illustrator 22.1.0, SVG Export Plug-In . SVG Version: 6.00 Build 0)  -->
<svg version="1.1" id="Слой_1" xmlns="http://www.w3.org/2000/svg" xmlns:xlink="http://www.w3.org/1999/xlink" x="0px" y="0px"
	 viewBox="0 0 95.6 44" style="enable-background:new 0 0 95.6 44;" xml:space="preserve">
<style type="text/css">
	.st0{stroke:#00A849;fill:#00A849;stroke-width:2;stroke-miterlimit:10;}
</style>
<g transform="translate(0,-952.36218)">
	<path class="st0" d="M94,974.4c0-0.6-0.2-1.1-0.5-1.4l-18-19c-0.8-0.8-2.1-0.8-2.8-0.1c-0.8,0.7-0.8,2.1-0.1,2.8l14.8,15.6H3
		c-1.1,0-2,0.9-2,2s0.9,2,2,2h84.3L72.5,992c-0.7,0.8-0.7,2.1,0.1,2.8c0.8,0.8,2.1,0.7,2.8-0.1l18-19
		C93.9,975.3,93.9,974.8,94,974.4L94,974.4z"/>
</g>
</svg>
