<svg preserveAspectRatio="none" id="Слой_1" data-name="Слой 1" xmlns="http://www.w3.org/2000/svg" viewBox="0 0 1862.75 118.2">
  <defs>
    <style>
      .cls-1 {
        fill: #2b2f30;
      }
    </style>
  </defs>
  <title>desktop</title>
  <g>
    <path class="cls-1" d="M16-.44a10.36,10.36,0,0,1,6.51,2.06,15,15,0,0,1,4.35,5.59,30.83,30.83,0,0,1,2.44,8.32,63.86,63.86,0,0,1,.77,10.08v7.95H28v-8.1a60.84,60.84,0,0,0-.62-8.91,27.84,27.84,0,0,0-2-7.29,13,13,0,0,0-3.68-4.93A8.6,8.6,0,0,0,16.09,2.5a8.75,8.75,0,0,0-5.65,1.84A13,13,0,0,0,6.77,9.27a27.71,27.71,0,0,0-2,7.29,60.63,60.63,0,0,0-.62,8.91v52.7A59.11,59.11,0,0,0,4.76,87a27.67,27.67,0,0,0,2,7.21,13,13,0,0,0,3.68,4.93A8.73,8.73,0,0,0,16.09,101a8.59,8.59,0,0,0,5.55-1.84,13,13,0,0,0,3.68-4.93,27.8,27.8,0,0,0,2-7.21A59.3,59.3,0,0,0,28,78.16V66.83h2.1V78A63.84,63.84,0,0,1,29.3,88.1a30.81,30.81,0,0,1-2.44,8.32A15,15,0,0,1,22.51,102,10.36,10.36,0,0,1,16,104.07,10.16,10.16,0,0,1,9.54,102a15.2,15.2,0,0,1-4.31-5.59A30.68,30.68,0,0,1,2.8,88.1,63.67,63.67,0,0,1,2,78V25.61A63.68,63.68,0,0,1,2.8,15.53,30.7,30.7,0,0,1,5.24,7.21,15.23,15.23,0,0,1,9.54,1.62,10.16,10.16,0,0,1,16-.44Z" transform="translate(-2.03 0.44)"/>
    <path class="cls-1" d="M43.08,79l-3.92,24.29H37.24L53.41.15h3L72.93,103.33h-2.1L66.9,79Zm.38-2.94H66.52L54.84,4Z" transform="translate(-2.03 0.44)"/>
    <path class="cls-1" d="M101.15,103H98.76L82.21,5.15v98.18H80.29V.29h3.25L100,98,116.46.29h3.25v103h-2.1V5.15Z" transform="translate(-2.03 0.44)"/>
    <path class="cls-1" d="M127.27,25.61A63.32,63.32,0,0,1,128,15.46a29.58,29.58,0,0,1,2.49-8.24,15.44,15.44,0,0,1,4.4-5.59,10.36,10.36,0,0,1,6.51-2.06A10.56,10.56,0,0,1,148,1.62a15.22,15.22,0,0,1,4.45,5.59A30.71,30.71,0,0,1,155,15.46a59.85,59.85,0,0,1,.81,10.16V78A59.81,59.81,0,0,1,155,88.17a30.69,30.69,0,0,1-2.54,8.24A15.19,15.19,0,0,1,148,102a10.56,10.56,0,0,1-6.55,2.06,10.36,10.36,0,0,1-6.51-2.06,15.42,15.42,0,0,1-4.4-5.59A29.56,29.56,0,0,1,128,88.17,63.29,63.29,0,0,1,127.27,78Zm2.1,52.55a60.61,60.61,0,0,0,.62,8.91,26.5,26.5,0,0,0,2.06,7.29,13.41,13.41,0,0,0,3.73,4.93,8.73,8.73,0,0,0,5.65,1.84,8.93,8.93,0,0,0,5.69-1.84,13.17,13.17,0,0,0,3.78-4.93,27.65,27.65,0,0,0,2.1-7.29,56.56,56.56,0,0,0,.67-8.91V25.46a56.58,56.58,0,0,0-.67-8.91,27.67,27.67,0,0,0-2.1-7.29,13.2,13.2,0,0,0-3.78-4.93,9,9,0,0,0-5.69-1.84,8.75,8.75,0,0,0-5.65,1.84,13.44,13.44,0,0,0-3.73,4.93A26.51,26.51,0,0,0,130,16.56a60.63,60.63,0,0,0-.62,8.91Z" transform="translate(-2.03 0.44)"/>
    <path class="cls-1" d="M176,3.38l-1.91,75.07q-.19,4.56-.48,9a38.18,38.18,0,0,1-1.29,7.95,13.8,13.8,0,0,1-3.06,5.74,7.76,7.76,0,0,1-5.6,2.36H163v-3.09a6.38,6.38,0,0,0,5-2,12.58,12.58,0,0,0,2.63-5.08,32,32,0,0,0,1.05-7q.19-3.9.29-7.87L174,.29h23.25v103H195V3.38Z" transform="translate(-2.03 0.44)"/>
    <path class="cls-1" d="M207,.29v103h-2.1V.29Z" transform="translate(-2.03 0.44)"/>
    <path class="cls-1" d="M221.8,52.11l-5.07,11.78v39.45h-2.1V.29h2.1V58.44L241.61.29h2.3L223.14,49l22.48,54.32h-2.3Z" transform="translate(-2.03 0.44)"/>
    <path class="cls-1" d="M267.54,86.85q-.77,3.83-1.67,6.92a19.85,19.85,0,0,1-2.3,5.23,9.66,9.66,0,0,1-3.35,3.24,10,10,0,0,1-4.93,1.1v-2.94a7.54,7.54,0,0,0,4-1A8.57,8.57,0,0,0,262,96.71a16.87,16.87,0,0,0,1.91-4.27q.76-2.5,1.53-5.59l3.83-16.78L252.61.29h2.2l15.5,65.5,6.41-29L284.85.29h2.3Z" transform="translate(-2.03 0.44)"/>
    <path class="cls-1" d="M307.82.29q7.27,0,10.09,5.52t2.82,15.82v6.62a70.88,70.88,0,0,1-.38,7.73,22.52,22.52,0,0,1-1.44,6,12.18,12.18,0,0,1-2.82,4.27,9.2,9.2,0,0,1-4.64,2.28,11.12,11.12,0,0,1,8.28,7.14q2.34,5.82,2.34,14.79v9.13q0,10.9-3.3,17.3t-10.86,6.4H294.42V.29ZM305.23,47.1a21.52,21.52,0,0,0,6-.74,8.27,8.27,0,0,0,4.21-2.8,13.26,13.26,0,0,0,2.44-5.67,45.55,45.55,0,0,0,.77-9.2V21.79q0-9.13-2.25-13.76t-8.56-4.64H296.53V47.1Zm2.68,53.14q6.6,0,9.33-5.45T320,79.63V70.36q0-11.19-3.44-15.75T306.19,50h-9.66v50.2Z" transform="translate(-2.03 0.44)"/>
    <path class="cls-1" d="M335.08,79l-3.92,24.29h-1.91L345.42.15h3l16.55,103.19h-2.1L358.91,79Zm.38-2.94h23.06L346.85,4Z" transform="translate(-2.03 0.44)"/>
    <path class="cls-1" d="M374.41,53.29v50h-2.1V.29h2.1v50h24.21V.29h2.1v103h-2.1v-50Z" transform="translate(-2.03 0.44)"/>
    <path class="cls-1" d="M410.48,53.29v50h-2.1V.29h2.1v50h24.21V.29h2.1v103h-2.1v-50Z" transform="translate(-2.03 0.44)"/>
    <path class="cls-1" d="M462.82,55.79a18.89,18.89,0,0,0-5.93.88,10.83,10.83,0,0,0-4.64,3,14.25,14.25,0,0,0-3,5.81,35,35,0,0,0-1.05,9.42V91.12q0,3.39-.29,6.55a19,19,0,0,1-1.34,5.67h-2.3a18.44,18.44,0,0,0,1.48-5.89q.33-3.39.33-6.33V74.92q0-8.53,2.49-13.91a11.45,11.45,0,0,1,8.13-6.7,12.52,12.52,0,0,1-8.08-6.84q-2.54-5.22-2.54-14.79V23.4q0-10.6,3.16-16.85T459.85.29h13.3v103H471V55.79Zm-2.87-52.4q-6.51,0-9.14,5.45T448.18,23.7v9.42a39,39,0,0,0,1,9.79,15.23,15.23,0,0,0,2.87,6,9.4,9.4,0,0,0,4.59,3,21.67,21.67,0,0,0,6.17.81H471V3.38Z" transform="translate(-2.03 0.44)"/>
    <path class="cls-1" d="M516.49,103H514.1L497.55,5.15v98.18h-1.91V.29h3.25L515.34,98,531.8.29h3.25v103h-2.1V5.15Z" transform="translate(-2.03 0.44)"/>
    <path class="cls-1" d="M542.61,25.61a63.32,63.32,0,0,1,.77-10.16,29.58,29.58,0,0,1,2.49-8.24,15.44,15.44,0,0,1,4.4-5.59,10.36,10.36,0,0,1,6.51-2.06,10.56,10.56,0,0,1,6.55,2.06,15.22,15.22,0,0,1,4.45,5.59,30.71,30.71,0,0,1,2.54,8.24,59.85,59.85,0,0,1,.81,10.16V78a59.81,59.81,0,0,1-.81,10.16,30.69,30.69,0,0,1-2.54,8.24,15.19,15.19,0,0,1-4.45,5.59,10.56,10.56,0,0,1-6.55,2.06,10.36,10.36,0,0,1-6.51-2.06,15.42,15.42,0,0,1-4.4-5.59,29.56,29.56,0,0,1-2.49-8.24A63.29,63.29,0,0,1,542.61,78Zm2.1,52.55a60.61,60.61,0,0,0,.62,8.91,26.5,26.5,0,0,0,2.06,7.29,13.41,13.41,0,0,0,3.73,4.93,8.73,8.73,0,0,0,5.65,1.84,8.93,8.93,0,0,0,5.69-1.84,13.17,13.17,0,0,0,3.78-4.93,27.65,27.65,0,0,0,2.1-7.29,56.56,56.56,0,0,0,.67-8.91V25.46a56.58,56.58,0,0,0-.67-8.91,27.67,27.67,0,0,0-2.1-7.29,13.2,13.2,0,0,0-3.78-4.93,9,9,0,0,0-5.69-1.84,8.75,8.75,0,0,0-5.65,1.84,13.44,13.44,0,0,0-3.73,4.93,26.51,26.51,0,0,0-2.06,7.29,60.63,60.63,0,0,0-.62,8.91Z" transform="translate(-2.03 0.44)"/>
    <path class="cls-1" d="M611.21,49.61,606,62.71v40.63h-2.1V62.71l-5.07-13.1L580.5,103.33h-2.2l19.14-56.67L579.35.29h2.2l18.18,46.37,4.11,10.89V.29H606V57.55l4.21-11.19L628.34.29h2.3L612.55,46.66l19,56.67h-2.2Z" transform="translate(-2.03 0.44)"/>
    <path class="cls-1" d="M660.77,49.61v2.94H641.06v47.69h23.44v3.09H639V.29h25.55V3.38H641.06V49.61Z" transform="translate(-2.03 0.44)"/>
    <path class="cls-1" d="M699.71,45.19q7.75,0,11.63,4.86t3.88,17.22V79.19q0,11.48-3.35,17.81t-11.1,6.33h-14V.29h26.12V3.38h-24v41.8Zm1.05,55.05q6.79,0,9.57-5.45t2.77-15.46V67.12q0-11-3.35-14.94t-10-3.9H688.9v52Z" transform="translate(-2.03 0.44)"/>
    <path class="cls-1" d="M737.32,86.85q-.77,3.83-1.67,6.92a19.85,19.85,0,0,1-2.3,5.23,9.66,9.66,0,0,1-3.35,3.24,10,10,0,0,1-4.93,1.1v-2.94a7.54,7.54,0,0,0,4-1,8.57,8.57,0,0,0,2.73-2.72,16.87,16.87,0,0,0,1.91-4.27q.76-2.5,1.53-5.59L739,70.07,722.39.29h2.2l15.5,65.5,6.41-29L754.63.29h2.3Z" transform="translate(-2.03 0.44)"/>
    <path class="cls-1" d="M778.46,103.33V3.38H763.82V.29H795.2V3.38H780.56v99.95Z" transform="translate(-2.03 0.44)"/>
    <path class="cls-1" d="M816.83,54.46l-11.77,48.87h-2.58V.29h2V97.15L828.12.29H831v103h-2V5.3Z" transform="translate(-2.03 0.44)"/>
    <path class="cls-1" d="M855.57.29v99.95H874.9V.29H877v99.95h19.33V.29h2.1v103h-45V.29Z" transform="translate(-2.03 0.44)"/>
    <path class="cls-1" d="M913.27,52.11,908.2,63.88v39.45h-2.1V.29h2.1V58.44L933.07.29h2.3L914.61,49l22.48,54.32H934.8Z" transform="translate(-2.03 0.44)"/>
    <path class="cls-1" d="M946.56.29v103h-2.11V.29Z" transform="translate(-2.03 0.44)"/>
    <path class="cls-1" d="M991.53,117.76V103.33H956v14.43h-2.11V100.24h4.78a18.64,18.64,0,0,0,2.77-7.95q.57-4.56.77-9.71L965,.29h22.68v99.95h5.93v17.52Zm-27.17-35q-.19,5.15-.67,9.57a19.45,19.45,0,0,1-2.58,7.95H985.6V3.38H967Z" transform="translate(-2.03 0.44)"/>
    <path class="cls-1" d="M1013.73,3.38l-1.91,75.07q-.19,4.56-.48,9a38.15,38.15,0,0,1-1.29,7.95,13.81,13.81,0,0,1-3.06,5.74,7.76,7.76,0,0,1-5.6,2.36h-.67v-3.09a6.38,6.38,0,0,0,5-2,12.58,12.58,0,0,0,2.63-5.08,32,32,0,0,0,1.05-7q.19-3.9.29-7.87l2-78.16H1035v103h-2.2V3.38Z" transform="translate(-2.03 0.44)"/>
    <path class="cls-1" d="M1057,54.46l-11.77,48.87h-2.58V.29h2V97.15L1068.27.29h2.87v103h-2V5.3Z" transform="translate(-2.03 0.44)"/>
    <path class="cls-1" d="M1092.19.29q7.27,0,10.09,5.52t2.82,15.82v6.62a71,71,0,0,1-.38,7.73,22.54,22.54,0,0,1-1.44,6,12.19,12.19,0,0,1-2.82,4.27,9.21,9.21,0,0,1-4.64,2.28,11.12,11.12,0,0,1,8.28,7.14q2.34,5.82,2.34,14.79v9.13q0,10.9-3.3,17.3t-10.86,6.4h-13.49V.29ZM1089.6,47.1a21.53,21.53,0,0,0,6-.74,8.27,8.27,0,0,0,4.21-2.8,13.25,13.25,0,0,0,2.44-5.67,45.59,45.59,0,0,0,.77-9.2V21.79q0-9.13-2.25-13.76t-8.56-4.64H1080.9V47.1Zm2.68,53.14q6.6,0,9.33-5.45t2.73-15.16V70.36q0-11.19-3.44-15.75T1090.56,50h-9.66v50.2Z" transform="translate(-2.03 0.44)"/>
    <path class="cls-1" d="M1128.26,54.46l-11.77,48.87h-2.58V.29h2V97.15L1139.55.29h2.87v103h-2V5.3Z" transform="translate(-2.03 0.44)"/>
    <path class="cls-1" d="M1170.93,103h-2.39L1152,5.15v98.18h-1.91V.29h3.25L1169.78,98,1186.24.29h3.25v103h-2.1V5.15Z" transform="translate(-2.03 0.44)"/>
    <path class="cls-1" d="M1249.29,117.76V103.33h-35.5v14.43h-2.11V100.24h4.78a18.64,18.64,0,0,0,2.77-7.95q.57-4.56.77-9.71L1222.78.29h22.68v99.95h5.93v17.52Zm-27.17-35q-.19,5.15-.67,9.57a19.45,19.45,0,0,1-2.58,7.95h24.49V3.38h-18.56Z" transform="translate(-2.03 0.44)"/>
    <path class="cls-1" d="M1271.48,3.38l-1.91,75.07q-.19,4.56-.48,9a38.15,38.15,0,0,1-1.29,7.95,13.81,13.81,0,0,1-3.06,5.74,7.76,7.76,0,0,1-5.6,2.36h-.67v-3.09a6.38,6.38,0,0,0,5-2,12.58,12.58,0,0,0,2.63-5.08,32,32,0,0,0,1.05-7q.19-3.9.29-7.87l2-78.16h23.25v103h-2.2V3.38Z" transform="translate(-2.03 0.44)"/>
    <path class="cls-1" d="M1318.75,55.79a18.89,18.89,0,0,0-5.93.88,10.83,10.83,0,0,0-4.64,3,14.26,14.26,0,0,0-3,5.81,35,35,0,0,0-1.05,9.42V91.12q0,3.39-.29,6.55a19,19,0,0,1-1.34,5.67h-2.3a18.45,18.45,0,0,0,1.48-5.89q.33-3.39.33-6.33V74.92q0-8.53,2.49-13.91a11.45,11.45,0,0,1,8.13-6.7,12.52,12.52,0,0,1-8.08-6.84Q1302,42.25,1302,32.68V23.4q0-10.6,3.16-16.85T1315.78.29h13.3v103H1327V55.79Zm-2.87-52.4q-6.51,0-9.14,5.45t-2.63,14.87v9.42a39,39,0,0,0,1,9.79,15.23,15.23,0,0,0,2.87,6,9.39,9.39,0,0,0,4.59,3,21.67,21.67,0,0,0,6.17.81H1327V3.38Z" transform="translate(-2.03 0.44)"/>
    <path class="cls-1" d="M1365,.29q7.27,0,10.09,5.52t2.82,15.82v6.62a71,71,0,0,1-.38,7.73,22.54,22.54,0,0,1-1.44,6,12.19,12.19,0,0,1-2.82,4.27,9.21,9.21,0,0,1-4.64,2.28,11.12,11.12,0,0,1,8.28,7.14q2.34,5.82,2.34,14.79v9.13q0,10.9-3.3,17.3t-10.86,6.4h-13.49V.29Zm-2.58,46.81a21.53,21.53,0,0,0,6-.74,8.27,8.27,0,0,0,4.21-2.8A13.25,13.25,0,0,0,1375,37.9a45.59,45.59,0,0,0,.77-9.2V21.79q0-9.13-2.25-13.76T1365,3.38h-11.29V47.1Zm2.68,53.14q6.6,0,9.33-5.45t2.73-15.16V70.36q0-11.19-3.44-15.75T1363.33,50h-9.66v50.2Z" transform="translate(-2.03 0.44)"/>
    <path class="cls-1" d="M1392.23,79l-3.92,24.29h-1.91L1402.56.15h3l16.55,103.19H1420L1416.05,79Zm.38-2.94h23.06L1404,4Z" transform="translate(-2.03 0.44)"/>
    <path class="cls-1" d="M1431.55.29v99.95h19.33V.29h2.1v99.95h19.33V.29h2.11v103h-45V.29Z" transform="translate(-2.03 0.44)"/>
    <path class="cls-1" d="M1482,25.61a63.26,63.26,0,0,1,.77-10.16,29.61,29.61,0,0,1,2.49-8.24,15.45,15.45,0,0,1,4.4-5.59,10.36,10.36,0,0,1,6.51-2.06,10.57,10.57,0,0,1,6.55,2.06,15.23,15.23,0,0,1,4.45,5.59,30.68,30.68,0,0,1,2.54,8.24,59.9,59.9,0,0,1,.81,10.16V78a59.86,59.86,0,0,1-.81,10.16,30.66,30.66,0,0,1-2.54,8.24,15.2,15.2,0,0,1-4.45,5.59,10.57,10.57,0,0,1-6.55,2.06,10.36,10.36,0,0,1-6.51-2.06,15.42,15.42,0,0,1-4.4-5.59,29.59,29.59,0,0,1-2.49-8.24A63.23,63.23,0,0,1,1482,78Zm2.11,52.55a60.68,60.68,0,0,0,.62,8.91,26.5,26.5,0,0,0,2.06,7.29,13.41,13.41,0,0,0,3.73,4.93,8.73,8.73,0,0,0,5.65,1.84,8.93,8.93,0,0,0,5.69-1.84,13.18,13.18,0,0,0,3.78-4.93,27.67,27.67,0,0,0,2.11-7.29,56.62,56.62,0,0,0,.67-8.91V25.46a56.64,56.64,0,0,0-.67-8.91,27.69,27.69,0,0,0-2.11-7.29,13.21,13.21,0,0,0-3.78-4.93,9,9,0,0,0-5.69-1.84,8.75,8.75,0,0,0-5.65,1.84,13.44,13.44,0,0,0-3.73,4.93,26.51,26.51,0,0,0-2.06,7.29,60.7,60.7,0,0,0-.62,8.91Z" transform="translate(-2.03 0.44)"/>
    <path class="cls-1" d="M1520.15,3.38v99.95H1518V.29h24.88V3.38Z" transform="translate(-2.03 0.44)"/>
    <path class="cls-1" d="M1550.38,25.61a63.26,63.26,0,0,1,.77-10.16,29.61,29.61,0,0,1,2.49-8.24,15.45,15.45,0,0,1,4.4-5.59,10.36,10.36,0,0,1,6.51-2.06,10.57,10.57,0,0,1,6.55,2.06,15.23,15.23,0,0,1,4.45,5.59,30.68,30.68,0,0,1,2.54,8.24,59.9,59.9,0,0,1,.81,10.16V78a59.86,59.86,0,0,1-.81,10.16,30.66,30.66,0,0,1-2.54,8.24,15.2,15.2,0,0,1-4.45,5.59,10.57,10.57,0,0,1-6.55,2.06A10.36,10.36,0,0,1,1558,102a15.42,15.42,0,0,1-4.4-5.59,29.59,29.59,0,0,1-2.49-8.24,63.23,63.23,0,0,1-.77-10.16Zm2.11,52.55a60.68,60.68,0,0,0,.62,8.91,26.5,26.5,0,0,0,2.06,7.29,13.41,13.41,0,0,0,3.73,4.93,8.73,8.73,0,0,0,5.65,1.84,8.93,8.93,0,0,0,5.69-1.84,13.18,13.18,0,0,0,3.78-4.93,27.67,27.67,0,0,0,2.11-7.29,56.62,56.62,0,0,0,.67-8.91V25.46a56.64,56.64,0,0,0-.67-8.91A27.69,27.69,0,0,0,1574,9.27a13.21,13.21,0,0,0-3.78-4.93,9,9,0,0,0-5.69-1.84,8.75,8.75,0,0,0-5.65,1.84,13.44,13.44,0,0,0-3.73,4.93,26.51,26.51,0,0,0-2.06,7.29,60.7,60.7,0,0,0-.62,8.91Z" transform="translate(-2.03 0.44)"/>
    <path class="cls-1" d="M1615.25-.44a10.36,10.36,0,0,1,6.51,2.06,14.63,14.63,0,0,1,4.31,5.59,32,32,0,0,1,2.39,8.24,63.49,63.49,0,0,1,.77,10.16v2.65a32.51,32.51,0,0,1-2.58,13.32q-2.58,5.82-7.18,7.88,4.88,1.77,7.32,7.43a33.1,33.1,0,0,1,2.44,13.17V78a63.45,63.45,0,0,1-.77,10.16,32,32,0,0,1-2.39,8.24,14.6,14.6,0,0,1-4.31,5.59,11.3,11.3,0,0,1-13,0,15,15,0,0,1-4.35-5.59,30.69,30.69,0,0,1-2.44-8.24,63.23,63.23,0,0,1-.77-10.16V70.51h2.11v7.66a60.68,60.68,0,0,0,.62,8.91,27.67,27.67,0,0,0,2,7.29,13.21,13.21,0,0,0,3.64,4.93,8.53,8.53,0,0,0,5.6,1.84,8.73,8.73,0,0,0,5.64-1.84,12.87,12.87,0,0,0,3.68-5,29,29,0,0,0,2-7.36,60.82,60.82,0,0,0,.62-8.91V70.07q0-8.24-3.11-13.62t-8.47-5.37h-4.31V48.13h4.4a7.36,7.36,0,0,0,4.59-1.62,14.36,14.36,0,0,0,3.64-4.27,23.37,23.37,0,0,0,2.39-6.18,31,31,0,0,0,.86-7.36V25.61a61.92,61.92,0,0,0-.62-9.05,27.84,27.84,0,0,0-2-7.29,13,13,0,0,0-3.68-4.93,9.58,9.58,0,0,0-11.29,0,13,13,0,0,0-3.68,4.93,27.69,27.69,0,0,0-2,7.29,60.7,60.7,0,0,0-.62,8.91v4.42h-1.91V25.46a62.27,62.27,0,0,1,.77-10,31.91,31.91,0,0,1,2.39-8.24,14.6,14.6,0,0,1,4.31-5.59A10.36,10.36,0,0,1,1615.25-.44Z" transform="translate(-2.03 0.44)"/>
    <path class="cls-1" d="M1674.1,117.76V103.33h-35.5v14.43h-2.11V100.24h4.78a18.64,18.64,0,0,0,2.77-7.95q.57-4.56.77-9.71L1647.59.29h22.68v99.95h5.93v17.52Zm-27.17-35q-.19,5.15-.67,9.57a19.45,19.45,0,0,1-2.58,7.95h24.49V3.38H1649.6Z" transform="translate(-2.03 0.44)"/>
    <path class="cls-1" d="M1683.57,25.61a63.26,63.26,0,0,1,.77-10.16,29.61,29.61,0,0,1,2.49-8.24,15.45,15.45,0,0,1,4.4-5.59,10.36,10.36,0,0,1,6.51-2.06,10.57,10.57,0,0,1,6.55,2.06,15.23,15.23,0,0,1,4.45,5.59,30.68,30.68,0,0,1,2.54,8.24,59.9,59.9,0,0,1,.81,10.16V78a59.86,59.86,0,0,1-.81,10.16,30.66,30.66,0,0,1-2.54,8.24,15.2,15.2,0,0,1-4.45,5.59,10.57,10.57,0,0,1-6.55,2.06,10.36,10.36,0,0,1-6.51-2.06,15.42,15.42,0,0,1-4.4-5.59,29.59,29.59,0,0,1-2.49-8.24,63.23,63.23,0,0,1-.77-10.16Zm2.11,52.55a60.68,60.68,0,0,0,.62,8.91,26.5,26.5,0,0,0,2.06,7.29,13.41,13.41,0,0,0,3.73,4.93,8.73,8.73,0,0,0,5.65,1.84,8.93,8.93,0,0,0,5.69-1.84,13.18,13.18,0,0,0,3.78-4.93,27.67,27.67,0,0,0,2.11-7.29,56.62,56.62,0,0,0,.67-8.91V25.46a56.64,56.64,0,0,0-.67-8.91,27.69,27.69,0,0,0-2.11-7.29,13.21,13.21,0,0,0-3.78-4.93,9,9,0,0,0-5.69-1.84,8.75,8.75,0,0,0-5.65,1.84,13.44,13.44,0,0,0-3.73,4.93,26.51,26.51,0,0,0-2.06,7.29,60.7,60.7,0,0,0-.62,8.91Z" transform="translate(-2.03 0.44)"/>
    <path class="cls-1" d="M1732.84.29a11.22,11.22,0,0,1,6.51,1.84,13.1,13.1,0,0,1,4.31,5.15,27.58,27.58,0,0,1,2.34,7.88,64.76,64.76,0,0,1,.72,10v10.3q0,12.36-3.68,18.25t-11.72,5.89h-9.57v43.72h-2.11V.29Zm-1.53,56.23q7.08,0,10.19-4.93t3.11-16V25a60.92,60.92,0,0,0-.57-8.68,23.39,23.39,0,0,0-2-6.84A11.64,11.64,0,0,0,1738.44,5a9.34,9.34,0,0,0-5.6-1.62h-11.1V56.52Z" transform="translate(-2.03 0.44)"/>
    <path class="cls-1" d="M1753.89,25.61a63.26,63.26,0,0,1,.77-10.16,29.61,29.61,0,0,1,2.49-8.24,15.45,15.45,0,0,1,4.4-5.59,10.36,10.36,0,0,1,6.51-2.06,10.57,10.57,0,0,1,6.55,2.06,15.23,15.23,0,0,1,4.45,5.59,30.68,30.68,0,0,1,2.54,8.24,59.9,59.9,0,0,1,.81,10.16V78a59.86,59.86,0,0,1-.81,10.16,30.66,30.66,0,0,1-2.54,8.24,15.2,15.2,0,0,1-4.45,5.59,10.57,10.57,0,0,1-6.55,2.06,10.36,10.36,0,0,1-6.51-2.06,15.42,15.42,0,0,1-4.4-5.59,29.59,29.59,0,0,1-2.49-8.24,63.23,63.23,0,0,1-.77-10.16ZM1756,78.16a60.68,60.68,0,0,0,.62,8.91,26.5,26.5,0,0,0,2.06,7.29,13.41,13.41,0,0,0,3.73,4.93,8.73,8.73,0,0,0,5.65,1.84,8.93,8.93,0,0,0,5.69-1.84,13.18,13.18,0,0,0,3.78-4.93,27.67,27.67,0,0,0,2.11-7.29,56.62,56.62,0,0,0,.67-8.91V25.46a56.64,56.64,0,0,0-.67-8.91,27.69,27.69,0,0,0-2.11-7.29,13.21,13.21,0,0,0-3.78-4.93,9,9,0,0,0-5.69-1.84,8.75,8.75,0,0,0-5.65,1.84,13.44,13.44,0,0,0-3.73,4.93,26.51,26.51,0,0,0-2.06,7.29,60.7,60.7,0,0,0-.62,8.91Z" transform="translate(-2.03 0.44)"/>
    <path class="cls-1" d="M1803.36.29q7.27,0,10.09,5.52t2.82,15.82v6.62a71,71,0,0,1-.38,7.73,22.54,22.54,0,0,1-1.44,6,12.19,12.19,0,0,1-2.82,4.27,9.21,9.21,0,0,1-4.64,2.28,11.12,11.12,0,0,1,8.28,7.14q2.34,5.82,2.34,14.79v9.13q0,10.9-3.3,17.3t-10.86,6.4H1790V.29Zm-2.58,46.81a21.53,21.53,0,0,0,6-.74,8.27,8.27,0,0,0,4.21-2.8,13.25,13.25,0,0,0,2.44-5.67,45.59,45.59,0,0,0,.77-9.2V21.79q0-9.13-2.25-13.76t-8.56-4.64h-11.29V47.1Zm2.68,53.14q6.6,0,9.33-5.45t2.73-15.16V70.36q0-11.19-3.44-15.75T1801.73,50h-9.66v50.2Z" transform="translate(-2.03 0.44)"/>
    <path class="cls-1" d="M1826.32,22.08h-1.05l1.05-9.86V.29h2.1V12.07Z" transform="translate(-2.03 0.44)"/>
    <path class="cls-1" d="M1854.45,55.79a18.89,18.89,0,0,0-5.93.88,10.83,10.83,0,0,0-4.64,3,14.26,14.26,0,0,0-3,5.81,35,35,0,0,0-1.05,9.42V91.12q0,3.39-.29,6.55a19,19,0,0,1-1.34,5.67h-2.3a18.45,18.45,0,0,0,1.48-5.89q.33-3.39.33-6.33V74.92q0-8.53,2.49-13.91a11.45,11.45,0,0,1,8.13-6.7,12.52,12.52,0,0,1-8.08-6.84q-2.54-5.22-2.54-14.79V23.4q0-10.6,3.16-16.85T1851.48.29h13.3v103h-2.11V55.79Zm-2.87-52.4q-6.51,0-9.14,5.45t-2.63,14.87v9.42a39,39,0,0,0,1,9.79,15.23,15.23,0,0,0,2.87,6,9.39,9.39,0,0,0,4.59,3,21.67,21.67,0,0,0,6.17.81h8.23V3.38Z" transform="translate(-2.03 0.44)"/>
  </g>
</svg>
