<svg preserveAspectRatio="none"  id="Слой_1" data-name="Слой 1" xmlns="http://www.w3.org/2000/svg" viewBox="0 0 528.52 136.86">
  <defs>
    <style>
      .cls-1 {
        fill: #2b2f30;
      }
    </style>
  </defs>
  <title>mobile</title>
  <g>
    <path class="cls-1" d="M14.63,1.68A6.72,6.72,0,0,1,18.78,3a9.39,9.39,0,0,1,2.78,3.48,18.77,18.77,0,0,1,1.55,5.17,38.7,38.7,0,0,1,.49,6.27v4.94H22.25v-5a37,37,0,0,0-.4-5.54,17,17,0,0,0-1.28-4.53,8.09,8.09,0,0,0-2.35-3.07,5.57,5.57,0,0,0-3.54-1.14,5.66,5.66,0,0,0-3.6,1.14A8.09,8.09,0,0,0,8.74,7.72a16.9,16.9,0,0,0-1.28,4.53,36.82,36.82,0,0,0-.4,5.54V50.54A35.87,35.87,0,0,0,7.46,56a16.89,16.89,0,0,0,1.28,4.48,8.09,8.09,0,0,0,2.35,3.07,5.66,5.66,0,0,0,3.6,1.14,5.57,5.57,0,0,0,3.54-1.14,8.09,8.09,0,0,0,2.35-3.07A17,17,0,0,0,21.86,56a36,36,0,0,0,.4-5.49v-7H23.6v7a38.7,38.7,0,0,1-.49,6.27,18.78,18.78,0,0,1-1.55,5.17,9.38,9.38,0,0,1-2.78,3.48,6.72,6.72,0,0,1-4.15,1.28,6.58,6.58,0,0,1-4.12-1.28,9.49,9.49,0,0,1-2.75-3.48,18.75,18.75,0,0,1-1.56-5.17,38.59,38.59,0,0,1-.49-6.27V17.88a38.59,38.59,0,0,1,.49-6.27A18.74,18.74,0,0,1,7.77,6.44,9.5,9.5,0,0,1,10.51,3,6.58,6.58,0,0,1,14.63,1.68Z" transform="translate(-5.72 -1.68)"/>
    <path class="cls-1" d="M31.89,51.09l-2.5,15.1H28.17L38.48,2h1.89L50.92,66.19H49.58l-2.5-15.1Zm.24-1.83h14.7L39.4,4.42Z" transform="translate(-5.72 -1.68)"/>
    <path class="cls-1" d="M68.92,66H67.39L56.84,5.16v61H55.62v-64h2.07L68.19,62.89,78.68,2.14h2.07v64H79.41v-61Z" transform="translate(-5.72 -1.68)"/>
    <path class="cls-1" d="M85.57,17.88a38.37,38.37,0,0,1,.49-6.31,18,18,0,0,1,1.59-5.12A9.64,9.64,0,0,1,90.45,3,6.72,6.72,0,0,1,94.6,1.68,6.85,6.85,0,0,1,98.78,3a9.51,9.51,0,0,1,2.84,3.48,18.71,18.71,0,0,1,1.62,5.12,36.25,36.25,0,0,1,.52,6.31V50.45a36.23,36.23,0,0,1-.52,6.31,18.72,18.72,0,0,1-1.62,5.12,9.5,9.5,0,0,1-2.84,3.48,6.85,6.85,0,0,1-4.18,1.28,6.72,6.72,0,0,1-4.15-1.28,9.63,9.63,0,0,1-2.81-3.48,18,18,0,0,1-1.59-5.12,38.36,38.36,0,0,1-.49-6.31Zm1.34,32.67a36.79,36.79,0,0,0,.4,5.54,16.21,16.21,0,0,0,1.31,4.53A8.37,8.37,0,0,0,91,63.67a5.66,5.66,0,0,0,3.6,1.14,5.79,5.79,0,0,0,3.63-1.14,8.22,8.22,0,0,0,2.41-3.06A16.91,16.91,0,0,0,102,56.08a34.31,34.31,0,0,0,.43-5.54V17.78a34.33,34.33,0,0,0-.43-5.54,16.89,16.89,0,0,0-1.34-4.53,8.23,8.23,0,0,0-2.41-3.07A5.8,5.8,0,0,0,94.6,3.51,5.67,5.67,0,0,0,91,4.65a8.38,8.38,0,0,0-2.38,3.07,16.2,16.2,0,0,0-1.31,4.53,36.82,36.82,0,0,0-.4,5.54Z" transform="translate(-5.72 -1.68)"/>
    <path class="cls-1" d="M116.62,4.06,115.4,50.72q-.12,2.84-.31,5.58a23.21,23.21,0,0,1-.82,4.94,8.51,8.51,0,0,1-2,3.57,5,5,0,0,1-3.57,1.46h-.43V64.36a4.12,4.12,0,0,0,3.2-1.24A7.75,7.75,0,0,0,113.2,60a19.43,19.43,0,0,0,.67-4.35q.12-2.42.18-4.89l1.28-48.59h14.82v64h-1.4V4.06Z" transform="translate(-5.72 -1.68)"/>
    <path class="cls-1" d="M136.38,2.14v64H135v-64Z" transform="translate(-5.72 -1.68)"/>
    <path class="cls-1" d="M145.84,34.35l-3.23,7.32V66.19h-1.34v-64h1.34V38.28L158.46,2.14h1.46L146.69,32.42,161,66.19h-1.46Z" transform="translate(-5.72 -1.68)"/>
    <path class="cls-1" d="M175,55.94q-.49,2.38-1.07,4.3a12.2,12.2,0,0,1-1.46,3.25,6.09,6.09,0,0,1-2.13,2,6.47,6.47,0,0,1-3.14.69V64.36a4.9,4.9,0,0,0,2.53-.59,5.39,5.39,0,0,0,1.74-1.69,10.3,10.3,0,0,0,1.22-2.65q.49-1.56,1-3.48l2.44-10.43L165.48,2.14h1.4l9.88,40.72,4.09-18L186,2.14h1.46Z" transform="translate(-5.72 -1.68)"/>
    <path class="cls-1" d="M200.68,2.14q4.63,0,6.43,3.43t1.8,9.84v4.12a43,43,0,0,1-.24,4.8,13.71,13.71,0,0,1-.92,3.75,7.55,7.55,0,0,1-1.8,2.65,5.93,5.93,0,0,1-3,1.42,7,7,0,0,1,5.28,4.44,24.27,24.27,0,0,1,1.5,9.2v5.67q0,6.77-2.1,10.75a7.24,7.24,0,0,1-6.92,4h-8.6v-64ZM199,31.23a14.07,14.07,0,0,0,3.81-.46A5.29,5.29,0,0,0,205.52,29a8.13,8.13,0,0,0,1.56-3.52,27.63,27.63,0,0,0,.49-5.72V15.5q0-5.67-1.43-8.56t-5.46-2.88h-7.2V31.23Zm1.71,33a6.14,6.14,0,0,0,5.95-3.38q1.74-3.38,1.74-9.42V45.69q0-7-2.2-9.79t-6.59-2.84h-6.16v31.2Z" transform="translate(-5.72 -1.68)"/>
    <path class="cls-1" d="M218.06,51.09l-2.5,15.1h-1.22L224.65,2h1.89l10.55,64.14h-1.34l-2.5-15.1Zm.24-1.83H233L225.56,4.42Z" transform="translate(-5.72 -1.68)"/>
    <path class="cls-1" d="M243.13,35.08V66.19h-1.34v-64h1.34V33.25h15.43V2.14h1.34v64h-1.34V35.08Z" transform="translate(-5.72 -1.68)"/>
    <path class="cls-1" d="M266.13,35.08V66.19h-1.34v-64h1.34V33.25h15.43V2.14h1.34v64h-1.34V35.08Z" transform="translate(-5.72 -1.68)"/>
    <path class="cls-1" d="M299.5,36.63a12.3,12.3,0,0,0-3.78.55,6.92,6.92,0,0,0-3,1.88,8.79,8.79,0,0,0-1.92,3.61,21.24,21.24,0,0,0-.67,5.86V58.59q0,2.11-.18,4.07a11.54,11.54,0,0,1-.85,3.52h-1.46a11.26,11.26,0,0,0,.95-3.66,39.29,39.29,0,0,0,.21-3.93V48.53a20.23,20.23,0,0,1,1.59-8.65,7.26,7.26,0,0,1,5.18-4.16,7.93,7.93,0,0,1-5.15-4.25q-1.62-3.25-1.62-9.2V16.5q0-6.59,2-10.48a7,7,0,0,1,6.77-3.89h8.48v64h-1.34V36.63ZM297.67,4.06a6,6,0,0,0-5.83,3.38,21.1,21.1,0,0,0-1.68,9.24v5.86a23.61,23.61,0,0,0,.64,6.08,9.37,9.37,0,0,0,1.83,3.71,6,6,0,0,0,2.93,1.88,14.1,14.1,0,0,0,3.93.5h5.25V4.06Z" transform="translate(-5.72 -1.68)"/>
    <path class="cls-1" d="M333.72,66h-1.53L321.64,5.16v61h-1.22v-64h2.07L333,62.89,343.48,2.14h2.07v64h-1.34v-61Z" transform="translate(-5.72 -1.68)"/>
    <path class="cls-1" d="M350.37,17.88a38.37,38.37,0,0,1,.49-6.31,18,18,0,0,1,1.59-5.12A9.64,9.64,0,0,1,355.25,3a6.72,6.72,0,0,1,4.15-1.28A6.85,6.85,0,0,1,363.58,3a9.51,9.51,0,0,1,2.84,3.48A18.71,18.71,0,0,1,368,11.56a36.25,36.25,0,0,1,.52,6.31V50.45a36.23,36.23,0,0,1-.52,6.31,18.72,18.72,0,0,1-1.62,5.12,9.5,9.5,0,0,1-2.84,3.48,6.85,6.85,0,0,1-4.18,1.28,6.72,6.72,0,0,1-4.15-1.28,9.63,9.63,0,0,1-2.81-3.48,18,18,0,0,1-1.59-5.12,38.36,38.36,0,0,1-.49-6.31Zm1.34,32.67a36.79,36.79,0,0,0,.4,5.54,16.21,16.21,0,0,0,1.31,4.53,8.37,8.37,0,0,0,2.38,3.06,5.66,5.66,0,0,0,3.6,1.14A5.79,5.79,0,0,0,363,63.67a8.22,8.22,0,0,0,2.41-3.06,16.91,16.91,0,0,0,1.34-4.53,34.31,34.31,0,0,0,.43-5.54V17.78a34.33,34.33,0,0,0-.43-5.54,16.89,16.89,0,0,0-1.34-4.53A8.23,8.23,0,0,0,363,4.65a5.8,5.8,0,0,0-3.63-1.14,5.67,5.67,0,0,0-3.6,1.14,8.38,8.38,0,0,0-2.38,3.07,16.2,16.2,0,0,0-1.31,4.53,36.82,36.82,0,0,0-.4,5.54Z" transform="translate(-5.72 -1.68)"/>
    <path class="cls-1" d="M394.1,32.79l-3.35,8.14V66.19h-1.34V40.93l-3.23-8.14-11.65,33.4h-1.4L385.32,31,373.79,2.14h1.4L386.79,31l2.62,6.77V2.14h1.34V37.73l2.68-7L405,2.14h1.46L395,31,407.1,66.19h-1.4Z" transform="translate(-5.72 -1.68)"/>
    <path class="cls-1" d="M425.7,32.79v1.83H413.14V64.27h14.94v1.92H411.79v-64h16.29V4.06H413.14V32.79Z" transform="translate(-5.72 -1.68)"/>
    <path class="cls-1" d="M450.53,30q4.94,0,7.41,3t2.47,10.71v7.41q0,7.14-2.13,11.07t-7.08,3.93h-8.91v-64h16.65V4.06H443.64V30Zm.67,34.22q4.33,0,6.1-3.38t1.77-9.61V43.68q0-6.86-2.13-9.29T450.53,32h-6.89v32.3Z" transform="translate(-5.72 -1.68)"/>
    <path class="cls-1" d="M474.5,55.94q-.49,2.38-1.07,4.3A12.2,12.2,0,0,1,472,63.49a6.09,6.09,0,0,1-2.13,2,6.47,6.47,0,0,1-3.14.69V64.36a4.9,4.9,0,0,0,2.53-.59A5.39,5.39,0,0,0,471,62.07a10.3,10.3,0,0,0,1.22-2.65q.49-1.56,1-3.48l2.44-10.43L465,2.14h1.4l9.88,40.72,4.09-18,5.18-22.69H487Z" transform="translate(-5.72 -1.68)"/>
    <path class="cls-1" d="M500.73,66.19V4.06H491.4V2.14h20V4.06h-9.33V66.19Z" transform="translate(-5.72 -1.68)"/>
    <path class="cls-1" d="M525.19,35.81l-7.5,30.38H516v-64h1.28V62.34L532.39,2.14h1.83v64h-1.28V5.25Z" transform="translate(-5.72 -1.68)"/>
    <path class="cls-1" d="M6.86,78.69v50.92H17V78.69h1.1v50.92h10.1V78.69h1.1v52.5H5.76V78.69Z" transform="translate(-5.72 -1.68)"/>
    <path class="cls-1" d="M37,105.09l-2.65,6v20.1h-1.1V78.69h1.1v29.63l13-29.63h1.2L37.71,103.51l11.75,27.67h-1.2Z" transform="translate(-5.72 -1.68)"/>
    <path class="cls-1" d="M54.4,78.69v52.5h-1.1V78.69Z" transform="translate(-5.72 -1.68)"/>
    <path class="cls-1" d="M77.9,138.54v-7.35H59.35v7.35h-1.1v-8.92h2.5a9.34,9.34,0,0,0,1.45-4q.3-2.32.4-5l1.45-41.92H75.9v50.92H79v8.92ZM63.7,120.69q-.1,2.63-.35,4.88a9.73,9.73,0,0,1-1.35,4h12.8V80.26H65.1Z" transform="translate(-5.72 -1.68)"/>
    <path class="cls-1" d="M89.5,80.26l-1,38.25q-.1,2.32-.25,4.58a18.94,18.94,0,0,1-.67,4,7,7,0,0,1-1.6,2.92,4.1,4.1,0,0,1-2.92,1.2H82.7v-1.58a3.38,3.38,0,0,0,2.63-1,6.35,6.35,0,0,0,1.38-2.59,15.91,15.91,0,0,0,.55-3.56q.1-2,.15-4l1-39.83H100.6v52.5H99.45V80.26Z" transform="translate(-5.72 -1.68)"/>
    <path class="cls-1" d="M112.1,106.29,106,131.19H104.6V78.69h1V128L118,78.69h1.5v52.5h-1.05v-50Z" transform="translate(-5.72 -1.68)"/>
    <path class="cls-1" d="M130.5,78.69q3.8,0,5.28,2.81t1.47,8.06v3.38a35.25,35.25,0,0,1-.2,3.94,11.25,11.25,0,0,1-.75,3.08,6.2,6.2,0,0,1-1.47,2.17,4.86,4.86,0,0,1-2.42,1.16,5.77,5.77,0,0,1,4.32,3.64,19.9,19.9,0,0,1,1.23,7.54v4.65a19,19,0,0,1-1.73,8.81,5.93,5.93,0,0,1-5.67,3.26h-7V78.69Zm-1.35,23.85a11.52,11.52,0,0,0,3.13-.37,4.32,4.32,0,0,0,2.2-1.42,6.67,6.67,0,0,0,1.28-2.89,22.64,22.64,0,0,0,.4-4.69V89.64a16.31,16.31,0,0,0-1.18-7q-1.17-2.36-4.47-2.36h-5.9v22.27Zm1.4,27.08a5,5,0,0,0,4.88-2.77,17.16,17.16,0,0,0,1.42-7.73v-4.72q0-5.7-1.8-8a6.41,6.41,0,0,0-5.4-2.33H124.6v25.58Z" transform="translate(-5.72 -1.68)"/>
    <path class="cls-1" d="M149.35,106.29l-6.15,24.9h-1.35V78.69h1V128l12.35-49.35h1.5v52.5H155.7v-50Z" transform="translate(-5.72 -1.68)"/>
    <path class="cls-1" d="M171.65,131H170.4l-8.65-49.87v50h-1V78.69h1.7l8.6,49.8,8.6-49.8h1.7v52.5h-1.1v-50Z" transform="translate(-5.72 -1.68)"/>
    <path class="cls-1" d="M212.6,138.54v-7.35H194.05v7.35H193v-8.92h2.5a9.34,9.34,0,0,0,1.45-4q.3-2.32.4-5l1.45-41.92H210.6v50.92h3.1v8.92Zm-14.2-17.85q-.1,2.63-.35,4.88a9.73,9.73,0,0,1-1.35,4h12.8V80.26h-9.7Z" transform="translate(-5.72 -1.68)"/>
    <path class="cls-1" d="M224.2,80.26l-1,38.25q-.1,2.32-.25,4.58a18.94,18.94,0,0,1-.67,4,7,7,0,0,1-1.6,2.92,4.1,4.1,0,0,1-2.92,1.2h-.35v-1.58a3.38,3.38,0,0,0,2.63-1,6.35,6.35,0,0,0,1.38-2.59,15.91,15.91,0,0,0,.55-3.56q.1-2,.15-4l1-39.83H235.3v52.5h-1.15V80.26Z" transform="translate(-5.72 -1.68)"/>
    <path class="cls-1" d="M248.9,107a10.1,10.1,0,0,0-3.1.45,5.67,5.67,0,0,0-2.42,1.54,7.2,7.2,0,0,0-1.58,3,17.42,17.42,0,0,0-.55,4.8V125q0,1.73-.15,3.34a9.43,9.43,0,0,1-.7,2.89h-1.2a9.22,9.22,0,0,0,.77-3,32.18,32.18,0,0,0,.17-3.22v-8.25a16.59,16.59,0,0,1,1.3-7.09,6,6,0,0,1,4.25-3.41,6.5,6.5,0,0,1-4.23-3.49,17.27,17.27,0,0,1-1.33-7.54V90.46a18.82,18.82,0,0,1,1.65-8.59,5.75,5.75,0,0,1,5.55-3.19h7v52.5h-1.1V107Zm-1.5-26.7A4.89,4.89,0,0,0,242.63,83a17.28,17.28,0,0,0-1.37,7.58v4.8a19.4,19.4,0,0,0,.52,5,7.7,7.7,0,0,0,1.5,3,4.92,4.92,0,0,0,2.4,1.54,11.59,11.59,0,0,0,3.22.41h4.3V80.26Z" transform="translate(-5.72 -1.68)"/>
    <path class="cls-1" d="M273,78.69q3.8,0,5.28,2.81t1.47,8.06v3.38a35.25,35.25,0,0,1-.2,3.94,11.25,11.25,0,0,1-.75,3.08,6.2,6.2,0,0,1-1.47,2.17,4.86,4.86,0,0,1-2.42,1.16,5.77,5.77,0,0,1,4.32,3.64,19.9,19.9,0,0,1,1.23,7.54v4.65a19,19,0,0,1-1.73,8.81,5.93,5.93,0,0,1-5.67,3.26h-7V78.69Zm-1.35,23.85a11.52,11.52,0,0,0,3.13-.37,4.32,4.32,0,0,0,2.2-1.42,6.67,6.67,0,0,0,1.28-2.89,22.64,22.64,0,0,0,.4-4.69V89.64a16.31,16.31,0,0,0-1.18-7q-1.17-2.36-4.47-2.36h-5.9v22.27Zm1.4,27.08a5,5,0,0,0,4.88-2.77,17.16,17.16,0,0,0,1.42-7.73v-4.72q0-5.7-1.8-8a6.41,6.41,0,0,0-5.4-2.33h-5.05v25.58Z" transform="translate(-5.72 -1.68)"/>
    <path class="cls-1" d="M287.3,118.81l-2.05,12.37h-1l8.45-52.58h1.55l8.65,52.58h-1.1l-2.05-12.37Zm.2-1.5h12.05l-6.1-36.75Z" transform="translate(-5.72 -1.68)"/>
    <path class="cls-1" d="M307.85,78.69v50.92h10.1V78.69H319v50.92h10.1V78.69h1.1v52.5h-23.5V78.69Z" transform="translate(-5.72 -1.68)"/>
    <path class="cls-1" d="M334.2,91.59a31.55,31.55,0,0,1,.4-5.18,14.77,14.77,0,0,1,1.3-4.2,7.9,7.9,0,0,1,2.3-2.85,5.51,5.51,0,0,1,3.4-1,5.62,5.62,0,0,1,3.43,1,7.79,7.79,0,0,1,2.32,2.85,15.32,15.32,0,0,1,1.33,4.2,29.74,29.74,0,0,1,.42,5.18v26.7a29.72,29.72,0,0,1-.42,5.18,15.31,15.31,0,0,1-1.33,4.2,7.78,7.78,0,0,1-2.32,2.85,5.62,5.62,0,0,1-3.43,1,5.51,5.51,0,0,1-3.4-1,7.89,7.89,0,0,1-2.3-2.85,14.76,14.76,0,0,1-1.3-4.2,31.52,31.52,0,0,1-.4-5.18Zm1.1,26.77a30.19,30.19,0,0,0,.33,4.54,13.26,13.26,0,0,0,1.08,3.71,6.86,6.86,0,0,0,2,2.51,4.64,4.64,0,0,0,2.95.94,4.75,4.75,0,0,0,3-.94,6.75,6.75,0,0,0,2-2.51,13.86,13.86,0,0,0,1.1-3.71,28.19,28.19,0,0,0,.35-4.54V91.51a28.2,28.2,0,0,0-.35-4.54,13.86,13.86,0,0,0-1.1-3.71,6.76,6.76,0,0,0-2-2.51,4.75,4.75,0,0,0-3-.94,4.64,4.64,0,0,0-2.95.94,6.86,6.86,0,0,0-2,2.51A13.26,13.26,0,0,0,335.62,87a30.2,30.2,0,0,0-.33,4.54Z" transform="translate(-5.72 -1.68)"/>
    <path class="cls-1" d="M354.15,80.26v50.92H353V78.69h13v1.58Z" transform="translate(-5.72 -1.68)"/>
    <path class="cls-1" d="M369.95,91.59a31.55,31.55,0,0,1,.4-5.18,14.77,14.77,0,0,1,1.3-4.2,7.9,7.9,0,0,1,2.3-2.85,5.51,5.51,0,0,1,3.4-1,5.62,5.62,0,0,1,3.43,1,7.79,7.79,0,0,1,2.32,2.85,15.32,15.32,0,0,1,1.33,4.2,29.74,29.74,0,0,1,.42,5.18v26.7a29.72,29.72,0,0,1-.42,5.18,15.31,15.31,0,0,1-1.33,4.2,7.78,7.78,0,0,1-2.32,2.85,5.62,5.62,0,0,1-3.43,1,5.51,5.51,0,0,1-3.4-1,7.89,7.89,0,0,1-2.3-2.85,14.76,14.76,0,0,1-1.3-4.2,31.52,31.52,0,0,1-.4-5.18Zm1.1,26.77a30.19,30.19,0,0,0,.33,4.54,13.26,13.26,0,0,0,1.08,3.71,6.86,6.86,0,0,0,2,2.51,4.64,4.64,0,0,0,2.95.94,4.75,4.75,0,0,0,3-.94,6.75,6.75,0,0,0,2-2.51,13.86,13.86,0,0,0,1.1-3.71,28.19,28.19,0,0,0,.35-4.54V91.51A28.2,28.2,0,0,0,383.4,87a13.86,13.86,0,0,0-1.1-3.71,6.76,6.76,0,0,0-2-2.51,4.75,4.75,0,0,0-3-.94,4.64,4.64,0,0,0-2.95.94,6.86,6.86,0,0,0-2,2.51A13.26,13.26,0,0,0,371.37,87a30.2,30.2,0,0,0-.33,4.54Z" transform="translate(-5.72 -1.68)"/>
    <path class="cls-1" d="M403.85,78.31a5.51,5.51,0,0,1,3.4,1,7.48,7.48,0,0,1,2.25,2.85,16,16,0,0,1,1.25,4.2,31.55,31.55,0,0,1,.4,5.18v1.35a16.2,16.2,0,0,1-1.35,6.79,7.5,7.5,0,0,1-3.75,4,6.55,6.55,0,0,1,3.83,3.79,16.49,16.49,0,0,1,1.27,6.71v4a31.52,31.52,0,0,1-.4,5.18,16,16,0,0,1-1.25,4.2,7.47,7.47,0,0,1-2.25,2.85,6,6,0,0,1-6.8,0,7.67,7.67,0,0,1-2.28-2.85,15.32,15.32,0,0,1-1.28-4.2,31.52,31.52,0,0,1-.4-5.18v-3.82h1.1v3.9a30.19,30.19,0,0,0,.33,4.54,13.86,13.86,0,0,0,1,3.71,6.75,6.75,0,0,0,1.9,2.51,4.53,4.53,0,0,0,2.92.94,4.64,4.64,0,0,0,3-.94,6.58,6.58,0,0,0,1.92-2.55,14.47,14.47,0,0,0,1-3.75,30.17,30.17,0,0,0,.33-4.54v-4a13.43,13.43,0,0,0-1.62-6.94,5,5,0,0,0-4.42-2.74h-2.25v-1.5H404a3.91,3.91,0,0,0,2.4-.83,7.36,7.36,0,0,0,1.9-2.17,11.73,11.73,0,0,0,1.25-3.15,15.41,15.41,0,0,0,.45-3.75V91.59a30.73,30.73,0,0,0-.33-4.61,13.89,13.89,0,0,0-1-3.71,6.65,6.65,0,0,0-1.92-2.51,5.11,5.11,0,0,0-5.9,0,6.64,6.64,0,0,0-1.92,2.51,13.82,13.82,0,0,0-1,3.71,30.07,30.07,0,0,0-.33,4.54v2.25h-1V91.51a30.94,30.94,0,0,1,.4-5.1,15.89,15.89,0,0,1,1.25-4.2,7.46,7.46,0,0,1,2.25-2.85A5.51,5.51,0,0,1,403.85,78.31Z" transform="translate(-5.72 -1.68)"/>
    <path class="cls-1" d="M434.6,138.54v-7.35H416v7.35h-1.1v-8.92h2.5a9.34,9.34,0,0,0,1.45-4q.3-2.32.4-5l1.45-41.92H432.6v50.92h3.1v8.92Zm-14.2-17.85q-.1,2.63-.35,4.88a9.73,9.73,0,0,1-1.35,4h12.8V80.26h-9.7Z" transform="translate(-5.72 -1.68)"/>
    <path class="cls-1" d="M439.54,91.59a31.55,31.55,0,0,1,.4-5.18,14.77,14.77,0,0,1,1.3-4.2,7.9,7.9,0,0,1,2.3-2.85,5.51,5.51,0,0,1,3.4-1,5.62,5.62,0,0,1,3.43,1,7.79,7.79,0,0,1,2.32,2.85,15.32,15.32,0,0,1,1.33,4.2,29.74,29.74,0,0,1,.42,5.18v26.7a29.72,29.72,0,0,1-.42,5.18,15.31,15.31,0,0,1-1.33,4.2,7.78,7.78,0,0,1-2.32,2.85,5.62,5.62,0,0,1-3.43,1,5.51,5.51,0,0,1-3.4-1,7.89,7.89,0,0,1-2.3-2.85,14.76,14.76,0,0,1-1.3-4.2,31.52,31.52,0,0,1-.4-5.18Zm1.1,26.77a30.19,30.19,0,0,0,.33,4.54,13.26,13.26,0,0,0,1.08,3.71,6.86,6.86,0,0,0,2,2.51,4.64,4.64,0,0,0,2.95.94,4.75,4.75,0,0,0,3-.94,6.75,6.75,0,0,0,2-2.51,13.86,13.86,0,0,0,1.1-3.71,28.19,28.19,0,0,0,.35-4.54V91.51A28.2,28.2,0,0,0,453,87a13.86,13.86,0,0,0-1.1-3.71,6.76,6.76,0,0,0-2-2.51,4.75,4.75,0,0,0-3-.94,4.64,4.64,0,0,0-2.95.94,6.86,6.86,0,0,0-2,2.51A13.26,13.26,0,0,0,441,87a30.2,30.2,0,0,0-.33,4.54Z" transform="translate(-5.72 -1.68)"/>
    <path class="cls-1" d="M465.29,78.69a6,6,0,0,1,3.4.94,6.72,6.72,0,0,1,2.25,2.63,13.79,13.79,0,0,1,1.23,4,32.13,32.13,0,0,1,.38,5.1v5.25q0,6.3-1.93,9.3t-6.12,3h-5v22.28h-1.1V78.69Zm-.8,28.65q3.7,0,5.33-2.51t1.63-8.14v-5.4a30.27,30.27,0,0,0-.3-4.42,11.7,11.7,0,0,0-1-3.49,6,6,0,0,0-1.9-2.29,5,5,0,0,0-2.92-.83h-5.8v27.08Z" transform="translate(-5.72 -1.68)"/>
    <path class="cls-1" d="M476.29,91.59a31.55,31.55,0,0,1,.4-5.18,14.77,14.77,0,0,1,1.3-4.2,7.9,7.9,0,0,1,2.3-2.85,5.51,5.51,0,0,1,3.4-1,5.62,5.62,0,0,1,3.43,1,7.79,7.79,0,0,1,2.32,2.85,15.32,15.32,0,0,1,1.33,4.2,29.74,29.74,0,0,1,.42,5.18v26.7a29.72,29.72,0,0,1-.42,5.18,15.31,15.31,0,0,1-1.33,4.2,7.78,7.78,0,0,1-2.32,2.85,5.62,5.62,0,0,1-3.43,1,5.51,5.51,0,0,1-3.4-1,7.89,7.89,0,0,1-2.3-2.85,14.76,14.76,0,0,1-1.3-4.2,31.52,31.52,0,0,1-.4-5.18Zm1.1,26.77a30.19,30.19,0,0,0,.33,4.54,13.26,13.26,0,0,0,1.08,3.71,6.86,6.86,0,0,0,2,2.51,4.64,4.64,0,0,0,2.95.94,4.75,4.75,0,0,0,3-.94,6.75,6.75,0,0,0,2-2.51,13.86,13.86,0,0,0,1.1-3.71,28.19,28.19,0,0,0,.35-4.54V91.51a28.2,28.2,0,0,0-.35-4.54,13.86,13.86,0,0,0-1.1-3.71,6.76,6.76,0,0,0-2-2.51,4.75,4.75,0,0,0-3-.94,4.64,4.64,0,0,0-2.95.94,6.86,6.86,0,0,0-2,2.51A13.26,13.26,0,0,0,477.72,87a30.2,30.2,0,0,0-.33,4.54Z" transform="translate(-5.72 -1.68)"/>
    <path class="cls-1" d="M502.14,78.69q3.8,0,5.28,2.81t1.47,8.06v3.38a35.25,35.25,0,0,1-.2,3.94,11.25,11.25,0,0,1-.75,3.08,6.2,6.2,0,0,1-1.47,2.17,4.86,4.86,0,0,1-2.42,1.16,5.77,5.77,0,0,1,4.32,3.64,19.9,19.9,0,0,1,1.23,7.54v4.65a19,19,0,0,1-1.73,8.81,5.93,5.93,0,0,1-5.67,3.26h-7V78.69Zm-1.35,23.85a11.52,11.52,0,0,0,3.13-.37,4.32,4.32,0,0,0,2.2-1.42,6.67,6.67,0,0,0,1.28-2.89,22.64,22.64,0,0,0,.4-4.69V89.64a16.31,16.31,0,0,0-1.18-7q-1.17-2.36-4.47-2.36h-5.9v22.27Zm1.4,27.08a5,5,0,0,0,4.88-2.77,17.16,17.16,0,0,0,1.42-7.73v-4.72q0-5.7-1.8-8a6.41,6.41,0,0,0-5.4-2.33h-5.05v25.58Z" transform="translate(-5.72 -1.68)"/>
    <path class="cls-1" d="M514.14,89.79h-.55l.55-5V78.69h1.1v6Z" transform="translate(-5.72 -1.68)"/>
    <path class="cls-1" d="M528.84,107a10.1,10.1,0,0,0-3.1.45,5.67,5.67,0,0,0-2.42,1.54,7.2,7.2,0,0,0-1.58,3,17.42,17.42,0,0,0-.55,4.8V125q0,1.73-.15,3.34a9.43,9.43,0,0,1-.7,2.89h-1.2a9.22,9.22,0,0,0,.77-3,32.18,32.18,0,0,0,.17-3.22v-8.25a16.59,16.59,0,0,1,1.3-7.09,6,6,0,0,1,4.25-3.41,6.5,6.5,0,0,1-4.23-3.49,17.27,17.27,0,0,1-1.33-7.54V90.46a18.82,18.82,0,0,1,1.65-8.59,5.75,5.75,0,0,1,5.55-3.19h7v52.5h-1.1V107Zm-1.5-26.7A4.89,4.89,0,0,0,522.57,83a17.28,17.28,0,0,0-1.37,7.58v4.8a19.4,19.4,0,0,0,.52,5,7.7,7.7,0,0,0,1.5,3,4.92,4.92,0,0,0,2.4,1.54,11.59,11.59,0,0,0,3.22.41h4.3V80.26Z" transform="translate(-5.72 -1.68)"/>
  </g>
</svg>
