<svg width="254" height="182" viewBox="0 0 254 182" fill="none" xmlns="http://www.w3.org/2000/svg">
<path d="M158.212 62.721V166.196C158.213 167.918 157.873 169.623 157.211 171.214C156.55 172.804 155.581 174.25 154.359 175.468C153.137 176.685 151.687 177.651 150.09 178.31C148.493 178.969 146.782 179.308 145.054 179.308H54.0558C51.0835 179.308 48.2329 178.132 46.1311 176.038C44.0294 173.944 42.8486 171.104 42.8486 168.143V62.721C42.8483 55.9417 44.919 49.3229 48.7855 43.7444C52.652 38.1658 58.1311 33.8918 64.4946 31.4904C66.2732 30.8221 67.8054 29.6301 68.8872 28.0729C69.9691 26.5157 70.5493 24.6672 70.5506 22.7734V12.5252H130.51V22.9772C130.507 24.8104 131.066 26.6008 132.113 28.1084C133.16 29.6161 134.644 30.7688 136.367 31.412C142.78 33.7862 148.311 38.0585 152.216 43.6552C156.121 49.2519 158.213 55.905 158.212 62.721Z" fill="#6FA9C9"/>
<path d="M125.911 62.721V166.196C125.911 169.674 124.523 173.009 122.053 175.468C119.582 177.927 116.232 179.308 112.739 179.308H54.0648C51.0901 179.308 48.2372 178.132 46.1338 176.038C44.0303 173.944 42.8486 171.104 42.8486 168.143V62.721C42.8483 55.9417 44.9206 49.3229 48.7902 43.7444C52.6598 38.1658 58.1433 33.8918 64.5118 31.4904C66.2919 30.8221 67.8253 29.6301 68.908 28.0729C69.9907 26.5157 70.5713 24.6672 70.5727 22.7734V12.5252H98.1865V22.9772C98.1823 24.8101 98.7413 26.6005 99.7885 28.1082C100.836 29.6159 102.321 30.7687 104.045 31.412C110.464 33.7858 115.999 38.0579 119.908 43.6546C123.816 49.2514 125.911 55.9047 125.911 62.721Z" fill="#8DC3D9"/>
<path d="M133.823 4.2125V20.4359H67.9004V4.2125C67.9004 3.65865 68.0109 3.11024 68.2257 2.59865C68.4404 2.08706 68.7552 1.62233 69.1519 1.23107C69.5486 0.839801 70.0196 0.529671 70.5377 0.318431C71.0559 0.107191 71.6111 -0.00101407 72.1717 7.16169e-06H129.559C130.69 0.000693075 131.774 0.44473 132.573 1.23458C133.372 2.02442 133.822 3.09549 133.823 4.2125Z" fill="#0B1A3B"/>
<path d="M133.823 4.0643V20.4359H67.9004V4.0643C67.9004 3.80663 67.924 3.5495 67.9711 3.29614H133.752C133.799 3.5495 133.823 3.80663 133.823 4.0643Z" fill="#0B1A3B"/>
<path d="M158.212 67.8998H42.8486V129.867H158.212V67.8998Z" fill="#0B1A3B"/>
<path d="M125.911 67.8998H42.8486V129.867H125.911V67.8998Z" fill="#0B1A3B"/>
<path d="M82.5543 81.3736C81.7008 80.2278 80.681 79.2139 79.528 78.3649C76.06 75.7712 71.5048 74.4925 64.5113 74.4925C60.7911 74.4789 57.0754 74.7477 53.3965 75.2966V110.872C54.1805 110.975 55.1004 111.076 56.1981 111.165L56.7495 111.206C58.409 111.328 60.4083 111.408 62.7786 111.408C68.468 111.408 73.3708 110.457 77.074 108.467C78.0012 107.975 78.8766 107.392 79.6874 106.727C83.1554 103.767 85.6982 98.9795 85.6982 92.0388C85.7113 87.5725 84.5483 84.0451 82.5543 81.3736ZM64.5218 105.007C63.547 105.007 62.3552 105.007 61.647 104.844V81.1194C62.8793 80.8794 64.1339 80.7707 65.3894 80.7952C72.5449 80.7952 76.9903 84.7765 76.9903 92.3085C76.9825 100.971 72.0484 105.062 64.5113 105.007H64.5218Z" fill="white"/>
<path d="M104.438 79.7658L102.525 85.0547L100.622 79.7658H98.8828L101.787 87.0172H103.244L106.134 79.7658H104.438Z" fill="white"/>
<path d="M107.503 79.8058V87.0172H108.724V79.8058H107.503ZM107.452 77.1289V78.7016H108.771V77.1399L107.452 77.1289Z" fill="white"/>
<path d="M114.704 81.1582V79.7499H112.713V77.7881H111.028V79.7499H110.09V81.1582H111.028V84.919C111.028 86.4873 111.91 87.0164 113.157 87.0164C113.691 87.0284 114.218 86.9019 114.685 86.6501V85.3097C114.36 85.4712 114 85.555 113.634 85.5539C113.073 85.5539 112.724 85.2826 112.724 84.6612V81.1582H114.704Z" fill="white"/>
<path d="M119.076 79.7663C118.218 79.7545 117.368 79.9535 116.593 80.3482L117.003 81.6343C117.59 81.3495 118.226 81.2009 118.87 81.1985C119.91 81.1985 120.478 81.73 120.478 82.6973V82.8301C119.896 82.6243 119.285 82.5246 118.671 82.5352C117.152 82.5352 116.022 83.2792 116.022 84.8284C116.022 86.2581 117.112 87.0154 118.351 87.0154C118.752 87.0308 119.151 86.9481 119.517 86.7736C119.884 86.5991 120.208 86.3373 120.466 86.0083V86.8666H121.955V82.7212C121.948 80.8531 121.007 79.7663 119.076 79.7663ZM120.498 84.3368C120.498 85.2137 119.754 85.809 118.761 85.809C118.056 85.809 117.497 85.437 117.497 84.7779C117.497 84.0738 118.056 83.6619 118.986 83.6619C119.494 83.6594 119.999 83.7539 120.476 83.9409L120.498 84.3368Z" fill="white"/>
<path d="M132.068 79.7683C131.605 79.7647 131.148 79.8764 130.737 80.0937C130.327 80.311 129.974 80.6273 129.711 81.015C129.523 80.6241 129.227 80.2977 128.859 80.0762C128.491 79.8546 128.068 79.7476 127.641 79.7683C127.045 79.7551 126.468 79.9792 126.032 80.393C125.84 80.573 125.669 80.7734 125.519 80.9908V79.9137H123.934V87.0011H125.519V83.0158C125.503 82.7571 125.541 82.498 125.629 82.2549C125.717 82.0119 125.854 81.7904 126.032 81.6048C126.299 81.3572 126.649 81.2241 127.01 81.2332C127.882 81.2466 128.41 81.874 128.41 82.9511V86.9903H129.996V83.005C129.996 81.8633 130.614 81.2466 131.486 81.2466C132.359 81.2466 132.895 81.8498 132.895 82.9781V87.0172H134.481V82.4934C134.507 80.7485 133.585 79.7683 132.068 79.7683Z" fill="white"/>
<path d="M136.509 79.8058V87.0172H137.726V79.8058H136.509ZM136.458 77.1289V78.7016H137.776V77.1399L136.458 77.1289Z" fill="white"/>
<path d="M143.735 79.7659C143.271 79.7622 142.815 79.8753 142.411 80.0941C142.008 80.3129 141.67 80.6297 141.433 81.013V79.9113H139.755V87.001H141.433V83.0037C141.433 81.9019 142.115 81.2447 143.092 81.2447C144.068 81.2447 144.669 81.875 144.669 82.9767V87.0172H146.347V82.4919C146.355 80.8406 145.393 79.7659 143.735 79.7659Z" fill="white"/>
<path d="M146.348 93.6094H100.861V95.5871H146.348V93.6094Z" fill="white"/>
<path d="M116.023 98.224H100.861V99.5424H116.023V98.224Z" fill="white"/>
<path d="M133.163 98.224H118.001V99.5424H133.163V98.224Z" fill="white"/>
<path d="M146.348 104.157H100.861V106.135H146.348V104.157Z" fill="white"/>
<path d="M116.023 108.772H100.861V110.749H116.023V108.772Z" fill="white"/>
<path d="M133.163 108.772H118.001V110.749H133.163V108.772Z" fill="white"/>
<path opacity="0.4" d="M66.964 49.9827C65.5201 51.6348 64.6431 54.6267 63.0467 55.7397C59.9932 57.8749 57.2311 57.8749 55.1802 55.8278C52.0571 52.7077 53.1266 46.1366 57.6722 41.618C62.2179 37.0994 68.456 36.3494 71.5764 39.4668C73.9188 41.8048 73.5551 44.271 71.3251 46.1793C70.3304 47.0201 68.8143 47.8688 66.964 49.9827Z" fill="#F9DEB1"/>
<path d="M202.381 22.5995C202.381 22.5995 205.737 17.7989 207.701 17.7989C209.666 17.7989 214.362 17.8892 215.868 19.6035C217.374 21.3178 217.792 23.7539 217.41 24.834C217.027 25.914 202.381 22.5995 202.381 22.5995Z" fill="#FF154D"/>
<path d="M191.293 25.067C191.99 21.7388 195.057 20.1612 200.899 19.8235C203.757 19.656 206.921 19.9802 211.575 20.1315C221.962 20.4691 228.19 27.9251 228.09 33.1416C228.029 36.3455 223.56 38.3094 218.236 38.8146C215.138 39.1117 211.609 38.512 207.811 38.0717C196.071 36.7128 190.255 30.0214 191.293 25.067Z" fill="#FF154D"/>
<path d="M207.376 31.8103C207.376 31.8103 203.268 34.3012 205.789 39.125C205.789 39.125 202.192 38.4483 201.414 37.3424C201.46 37.582 201.535 37.8146 201.637 38.0349C201.637 38.0349 198.33 37.2634 197.247 35.8442C196.164 34.4249 201.473 17.4126 210.069 21.823C210.069 21.823 217.93 23.3239 214.85 32.3027C211.771 41.2815 214.681 42.074 214.681 42.074C214.681 42.074 213.768 42.2636 213.376 42.1583C213.376 42.1583 212.864 41.7791 212.833 41.4237C212.82 41.6745 212.85 41.9257 212.92 42.1662C212.92 42.1662 209.7 41.6159 208.446 39.9702C207.192 38.3245 206.439 33.5824 207.376 31.8103Z" fill="#56130F"/>
<path d="M212.055 45.2988C213.136 45.5659 201.721 46.1455 201.062 46.1455C201.531 45.9399 202.966 41.5248 203.412 39.8314C203.859 38.1834 204.235 36.4233 204.353 35.8036C204.364 35.7341 204.379 35.6654 204.4 35.598L211.822 36.0547L212.269 36.0787C212.01 36.9969 211.806 37.9288 211.658 38.8699C211.654 38.9859 211.638 39.1014 211.611 39.2144C211.59 39.32 211.582 39.4275 211.586 39.5349C211.505 40.7157 211.497 41.9002 211.562 43.0819C211.63 44.2465 211.795 45.2294 212.055 45.2988Z" fill="#FFE0C2"/>
<path d="M203.347 35.0493C203.347 35.0493 202.175 31.5201 202.413 28.8156C202.58 26.8827 205.478 20.2948 212.438 23.098C213.841 23.6567 215.095 24.5074 216.106 25.5874C217.395 26.989 219.057 29.7365 214.859 35.067L213.639 36.9164L203.347 35.0493Z" fill="#56130F"/>
<path d="M211.61 39.3105C211.606 39.4262 211.591 39.5413 211.564 39.654C211.543 39.7592 211.535 39.8663 211.539 39.9734C211.459 41.1503 211.45 42.3308 211.515 43.5086C206.505 41.9593 204.358 36.2572 204.358 36.2572C206.543 36.3237 209.387 37.8065 211.61 39.3105Z" fill="#E27452"/>
<path d="M211.818 41.5158C211.818 41.5158 203.09 39.2918 204.516 33.7068C205.942 28.1218 205.789 24.0729 211.41 25.2571C217.032 26.4413 217.577 28.8649 217.541 30.85C217.506 32.8351 214.125 41.9517 211.818 41.5158Z" fill="#FFE0C2"/>
<path d="M215.565 26.166C215.565 26.166 211.288 31.6695 207.205 31.6425C203.123 31.6156 201.722 30.271 201.722 30.271C204.054 29.2076 205.91 27.4344 206.973 25.2549C206.973 25.2549 214.52 22.8008 215.565 26.166Z" fill="#56130F"/>
<path d="M214.905 26.3867C214.905 26.3867 216.377 28.2777 216.449 29.7711C216.521 31.2646 215.935 34.1572 216.831 34.2795C216.831 34.2795 219.916 30.4337 218.479 27.4545C216.957 24.2994 214.905 26.3867 214.905 26.3867Z" fill="#56130F"/>
<path d="M214.901 26.5061C214.901 26.5061 211.471 33.2859 206.336 34.2795C206.336 34.2795 211.984 31.1457 213.526 26.4615C215.067 21.7774 214.901 26.5061 214.901 26.5061Z" fill="#56130F"/>
<path d="M210.291 37.5853C210.291 37.5853 210.398 38.673 210.913 38.9281C211.427 39.1832 212.798 39.6498 212.935 39.5357C213.169 39.2355 213.387 38.9136 213.587 38.5722C213.587 38.5722 211.43 37.4611 210.291 37.5853Z" fill="white"/>
<path d="M207.34 123.062L206.993 124.484C206.301 127.307 205.658 129.924 205.255 132.106C204.721 134.957 204.604 137.078 205.295 137.969C208.138 141.649 205.295 170.754 205.295 170.754L202.06 174.034C202.06 174.034 196.438 145.294 194.917 140.792C194.223 138.745 193.214 129.998 192.319 121.08C192.273 120.633 192.229 120.187 192.186 119.74C192.031 118.179 191.919 116.62 191.74 115.104C190.192 101.268 192.314 89.6541 192.314 89.6541C192.314 89.6541 196.318 95.2944 201.724 94.8345C204.927 94.5716 207.919 95.5599 209.401 99.4234C211.56 105.032 209.371 114.736 207.34 123.062Z" fill="#FFE0C2"/>
<path d="M207.327 122.615C202.05 115.921 196.114 102.235 193.843 93.1192C193.408 88.5875 197.583 95.9856 201.685 94.6175C204.903 94.357 207.908 95.3368 209.396 99.1674C211.566 104.739 209.367 114.36 207.327 122.615Z" fill="#FFE0C2"/>
<path d="M223.164 67.8998L244.571 73.3476V75.8105C244.571 75.8105 223.269 75.552 221.894 73.2261C220.519 70.9002 223.164 67.8998 223.164 67.8998Z" fill="#FFE0C2"/>
<path d="M195.228 80.3513C187.646 78.4554 179.309 66.8887 179.309 66.8887L181.445 65.0782C183.655 67.6414 192.847 72.0616 192.847 72.0616C192.797 69.7157 192.847 67.5793 193.01 65.6317C194.031 52.4019 199.103 47.9945 200.487 47.0272C200.599 46.9459 200.717 46.8716 200.839 46.8047C200.839 46.8047 200.839 46.9005 200.839 47.0841C200.86 47.4772 200.897 48.2687 200.934 49.3576C201.228 57.4326 201.565 81.9394 195.228 80.3513Z" fill="#FFE0C2"/>
<path d="M229.517 74.9917C229.517 74.9917 221.831 74.811 220.106 71.9209C219.207 70.413 214.976 60.9258 214.976 60.9258C214.976 60.9258 213.185 68.0779 212.566 71.7298C212.042 74.8582 213.413 77.7169 213.413 77.7169C213.413 77.7169 205.176 83.4579 196.475 78.2221C196.475 78.2221 191.775 60.1274 193.555 56.5932C193.922 55.8655 195.39 54.9126 195.762 52.7345C196.449 48.7265 198.025 46.7736 201.737 45.7081C202.232 45.5667 211.148 45.3861 211.822 45.5536C212.967 45.8416 217.547 47.2841 218.218 47.9359C219.529 49.2187 220.913 51.9753 222.489 57.2503C223.231 59.7321 224.277 64.6563 225.661 67.1092C228.112 71.4601 231.384 73.0335 229.517 74.9917Z" fill="#FFE0C2"/>
<path d="M244.57 72.8974C244.57 72.8974 248.325 70.9065 249.807 70.7121C251.289 70.5176 253.799 70.4419 253.799 70.7121C253.799 70.9822 251.119 72.7677 250.403 72.8974C249.687 73.027 248.318 74.1211 248.736 74.248C249.154 74.375 251.356 73.8293 251.386 74.248C251.416 74.6667 250.045 74.9233 249.807 75.2448C249.569 75.5663 248.736 75.9525 247.394 75.758C246.052 75.5636 244.57 75.469 244.57 75.469V72.8974Z" fill="#FFE0C2"/>
<path d="M181.262 65.338L179.197 67.2406C179.197 67.2406 175.529 64.4108 175.354 63.2505V63.1353C175.354 61.9294 177.68 59.4239 179.613 59.3301C179.798 59.3266 179.98 59.3746 180.141 59.4695C181.171 60.1501 181.293 62.9825 181.285 64.451C181.293 64.9843 181.262 65.338 181.262 65.338Z" fill="#FFE0C2"/>
<path d="M205.59 175.608C204.593 175.785 203.321 176.98 203.289 177.106C202.813 179.026 196.752 178.611 196.752 178.611C196.431 178.452 195.578 178.043 195.837 177.789C196.48 177.162 197.962 176.653 199.639 175.383C200.59 174.661 200.934 172.992 201.289 172.027C201.512 171.412 201.416 169.42 201.416 169.42C201.481 169.387 201.898 170.846 203.865 171.251C204.88 171.458 205.303 169.42 205.303 169.42C205.303 169.42 207.967 171.085 208.303 173.399C208.464 174.492 206.816 175.396 205.59 175.608Z" fill="#FFE0C2"/>
<path d="M248.296 150.523C248.313 151.048 248.478 151.558 248.772 151.994C249.066 152.43 249.477 152.775 249.958 152.989C251.718 153.871 253.502 158.538 251.786 157.366C250.193 156.276 245.412 155.096 244.495 154.641C243.913 154.351 241.996 153.37 241.996 153.37C241.97 153.302 240.117 152.229 240.747 150.363C241.073 149.397 240.976 149.166 240.976 149.166C240.976 149.166 241.935 150.027 242.437 149.656C243.472 148.894 245.313 147.701 246.881 147.666C247.982 147.64 248.225 149.305 248.296 150.523Z" fill="#FFE0C2"/>
<path d="M212.929 45.7322L212.103 45.4863C211.956 45.5665 200.359 57.9068 200.404 61.1623C200.404 61.1623 205.685 64.4044 211.744 62.8755C211.744 62.8755 212.305 59.0962 210.468 54.5898C209.847 53.0577 209.747 51.3624 210.184 49.7674C210.621 48.1724 211.569 46.767 212.882 45.7696L212.929 45.7322Z" fill="#BA0631"/>
<path d="M201.722 45.4863C201.44 45.5473 201.164 45.636 200.898 45.7514C200.824 45.7992 198.122 50.2221 197.246 51.1184C191.37 57.1455 193.547 61.7674 193.547 61.7674C195.28 62.4276 198.987 61.237 198.987 61.237C197.023 53.3007 201.702 45.5048 201.722 45.4863Z" fill="#BA0631"/>
<path d="M213.859 64.6036C203.111 60.7379 193.596 63.034 193.497 63.0543L193.152 61.1112C193.253 61.0909 203.342 59.2215 214.247 63.1432L213.859 64.6036Z" fill="#BA0631"/>
<path d="M213.56 77.7881C213.56 77.7881 224.197 87.9275 218.503 99.4187C218.503 99.4187 217.474 89.0983 208.786 90.3726C200.833 91.533 200.807 100.861 200.807 100.861C200.807 100.861 192.75 93.4663 192.492 89.6669L196.592 78.2947C196.592 78.2947 205.723 80.4063 213.56 77.7881Z" fill="#BA0631"/>
<path d="M244.571 150.103L243.562 154.258C243.562 154.258 214.323 139.223 210.542 136.322C209.024 135.161 207.016 128.862 205.156 121.735C202.388 111.113 199.744 100.251 199.744 100.251C199.744 100.251 203.784 80.7323 218.339 89.1043C222.718 91.6259 220.564 109.388 219.844 118.003C219.364 123.782 219.02 128.456 221.197 129.667C225.436 132.027 237.908 142.897 241.861 150.378L244.571 150.103Z" fill="#FFE0C2"/>
<path d="M200.074 74.492C200.256 74.492 200.403 74.1969 200.403 73.8328C200.403 73.4687 200.256 73.1736 200.074 73.1736C199.892 73.1736 199.744 73.4687 199.744 73.8328C199.744 74.1969 199.892 74.492 200.074 74.492Z" fill="#E27452"/>
<path d="M200.404 25.597C200.404 25.597 201.805 23.1904 205.597 23.8065C209.389 24.4226 211.992 24.0431 213.871 24.7664C215.452 25.3801 216.872 26.3814 218.013 27.6873L218.862 24.4061C218.862 24.4061 208.974 19.4554 205.482 20.6106C201.991 21.7658 200.412 24.8737 200.404 25.597Z" fill="#FF154D"/>
<path d="M0 124.815V169.851C0 172.185 0.926931 174.422 2.57688 176.072C4.22683 177.722 6.46463 178.649 8.79801 178.649H81.5258C83.8573 178.646 86.0925 177.718 87.7401 176.068C89.3878 174.419 90.3133 172.183 90.3133 169.851V161.397C88.2475 160.729 86.5828 158.938 86.5828 156.747C86.5828 154.44 87.7835 151.708 90.3133 151.412V125.298C89.5098 125.084 88.7829 124.647 88.216 124.039C87.0285 122.752 87.2146 120.6 88.2921 119.203C87.4677 118.208 86.4338 117.407 85.2642 116.857C84.0946 116.307 82.8181 116.022 81.5258 116.023H8.79801C7.64298 116.023 6.4992 116.25 5.43196 116.691C4.36473 117.133 3.39494 117.781 2.57797 118.597C1.761 119.413 1.11284 120.383 0.670515 121.45C0.228187 122.517 0.000344219 123.66 0 124.815Z" fill="#BA0631"/>
<path d="M35.5977 123.069V171.597C35.5977 173.467 36.3464 175.259 37.6794 176.582C39.0123 177.904 40.8204 178.648 42.7062 178.649H90.3077V161.397C88.2238 160.729 86.5446 158.938 86.5446 156.747C86.5446 154.44 87.7558 151.708 90.3077 151.412V146.088C89.4676 145.999 88.653 145.749 87.9091 145.351C85.5529 144.119 83.7017 141.543 83.7017 138.706C83.7017 135.366 86.9439 132.892 90.313 132.645V125.305C89.5025 125.091 88.7693 124.655 88.1974 124.047C86.9994 122.76 87.1872 120.608 88.2741 119.211C88.4085 119.035 88.5581 118.872 88.721 118.723C89.1689 118.312 89.715 118.022 90.3077 117.879V116.023H42.7062C40.8213 116.024 39.014 116.767 37.6812 118.088C36.3484 119.409 35.5991 121.201 35.5977 123.069Z" fill="#FF154D"/>
<path d="M62.625 140.717C62.625 143.629 64.423 146.275 66.7116 147.54C67.8168 148.175 69.0833 148.435 70.3355 148.282C71.5877 148.13 72.7637 147.573 73.7006 146.689C74.3644 146.076 74.8958 145.322 75.2594 144.477C75.6231 143.632 75.8106 142.715 75.8094 141.788C75.8094 138.174 73.0148 134.481 69.5653 134.481C66.1157 134.481 62.625 137.105 62.625 140.717Z" fill="#F86A8C"/>
<path d="M63.2852 141.904C63.2852 144.219 64.6202 146.342 66.4279 147.534C67.5768 148.174 68.8934 148.435 70.1951 148.282C71.4968 148.129 72.7193 147.568 73.6932 146.678C74.6354 145.626 75.1555 144.253 75.1511 142.831C75.1511 139.682 72.6332 136.459 69.5305 136.459C66.4279 136.459 63.2852 138.752 63.2852 141.904Z" fill="#BA0631"/>
<path d="M81.1095 129.131C82.2703 128.112 82.6355 126.471 82.2599 125.119C82.0883 124.457 81.7049 123.862 81.1627 123.417C80.6206 122.971 79.9466 122.698 79.234 122.633C78.7343 122.584 78.2292 122.636 77.7524 122.787C77.2756 122.938 76.8381 123.184 76.4689 123.508C75.0264 124.774 74.6429 127.177 75.9472 128.549C77.2515 129.921 79.6696 130.393 81.1095 129.131Z" fill="#F86A8C"/>
<path d="M81.2244 128.542C81.68 128.118 82.02 127.594 82.215 127.016C82.41 126.438 82.4539 125.823 82.343 125.225C82.1631 124.53 81.7611 123.905 81.1927 123.437C80.6243 122.97 79.9175 122.683 79.1704 122.615C78.3693 122.619 77.5986 122.909 77.0097 123.427C75.7024 124.575 75.3413 126.762 76.5447 128.012C77.7482 129.263 79.917 129.68 81.2244 128.542Z" fill="#BA0631"/>
<path d="M49.7149 131.41C51.0601 132.921 53.2837 133.445 55.1368 133.021C56.0464 132.827 56.8717 132.361 57.498 131.688C58.1243 131.014 58.5204 130.167 58.6314 129.263C58.7165 128.631 58.6625 127.988 58.4731 127.377C58.2838 126.767 57.9634 126.203 57.5333 125.723C55.8642 123.844 52.6057 123.254 50.6867 124.883C48.7678 126.512 48.0458 129.534 49.7149 131.41Z" fill="#F86A8C"/>
<path d="M50.9013 131.123C51.4365 131.638 52.1059 132.028 52.851 132.261C53.5961 132.493 54.3941 132.56 55.1752 132.456C56.0847 132.28 56.9099 131.858 57.5361 131.248C58.1623 130.638 58.5585 129.87 58.6695 129.051C58.6918 128.174 58.3433 127.32 57.6923 126.658C56.2484 125.187 53.4267 124.713 51.7632 125.999C50.0998 127.286 49.4575 129.652 50.9013 131.123Z" fill="#BA0631"/>
<path d="M47.7504 154.586C48.6163 156.938 50.8985 158.532 53.16 158.817C54.2625 158.979 55.3867 158.784 56.3771 158.261C57.3676 157.737 58.1752 156.91 58.6885 155.893C59.0551 155.183 59.2703 154.401 59.3198 153.599C59.3693 152.796 59.2519 151.992 58.9754 151.24C57.9002 148.317 54.4885 146.191 51.6351 147.31C48.7817 148.428 46.6752 151.652 47.7504 154.586Z" fill="#F86A8C"/>
<path d="M49.0399 155.12C49.7398 157.046 51.4817 158.394 53.3112 158.815C54.4422 158.983 55.5954 158.781 56.6114 158.239C57.6274 157.697 58.4559 156.84 58.9824 155.788C59.4343 154.612 59.4457 153.302 59.0142 152.118C58.0597 149.487 55.0372 147.602 52.4946 148.593C49.9519 149.583 48.0748 152.489 49.0399 155.12Z" fill="#BA0631"/>
<path d="M56.7618 167.291C56.6279 168.019 56.6941 168.769 56.9535 169.464C57.2129 170.159 57.6562 170.774 58.2382 171.247C58.7725 171.698 59.4371 171.976 60.1398 172.042C60.8426 172.107 61.5488 171.958 62.1608 171.613C62.5927 171.376 62.968 171.051 63.2616 170.66C63.5552 170.27 63.7604 169.822 63.8635 169.348C64.2676 167.502 63.1495 165.29 61.261 164.894C59.3724 164.499 57.1686 165.443 56.7618 167.291Z" fill="#F86A8C"/>
<path d="M57.4077 167.758C57.3063 168.375 57.3427 169.011 57.5137 169.609C57.6847 170.208 57.9851 170.75 58.3887 171.19C58.8928 171.673 59.5196 171.97 60.1825 172.041C60.8454 172.111 61.5116 171.951 62.0889 171.582C62.6668 171.123 63.0692 170.441 63.2173 169.67C63.5477 167.958 62.6328 165.91 61.0902 165.546C59.5476 165.183 57.7381 166.051 57.4077 167.758Z" fill="#BA0631"/>
<path d="M40.4815 133.946C40.0578 134.436 39.7647 135.036 39.6323 135.685C39.5 136.334 39.5331 137.009 39.7284 137.64C39.899 138.233 40.2401 138.755 40.7043 139.134C41.1685 139.512 41.7327 139.728 42.3183 139.751C42.729 139.773 43.1392 139.701 43.5218 139.542C43.9043 139.383 44.2504 139.139 44.5368 138.827C45.6563 137.613 45.8689 135.412 44.7213 134.22C43.5736 133.028 41.5985 132.719 40.4815 133.946Z" fill="#F86A8C"/>
<path d="M40.379 135.098C40.0336 135.456 39.7853 135.89 39.6556 136.361C39.5259 136.831 39.5187 137.325 39.6348 137.799C39.81 138.349 40.1601 138.832 40.6366 139.183C41.1131 139.533 41.6921 139.733 42.2932 139.755C42.9335 139.719 43.5365 139.456 43.9839 139.017C44.9779 138.043 45.1672 136.278 44.147 135.329C43.1267 134.38 41.3598 134.124 40.379 135.098Z" fill="#BA0631"/>
<path d="M78.3807 173.354C80.7275 173.569 82.9901 172.14 84.1772 170.173C84.7692 169.222 85.0698 168.097 85.0374 166.954C85.005 165.812 84.6411 164.708 83.9962 163.797C83.55 163.152 82.9803 162.616 82.3252 162.225C81.6701 161.834 80.9446 161.598 80.1972 161.53C77.2828 161.265 74.1058 163.516 73.8555 166.632C73.6052 169.749 75.4688 173.086 78.3807 173.354Z" fill="#F86A8C"/>
<path d="M79.2416 172.698C81.1653 172.861 83.0247 171.888 84.1435 170.468C84.7579 169.553 85.0699 168.471 85.0362 167.373C85.0026 166.274 84.625 165.213 83.9558 164.336C83.151 163.475 82.0501 162.943 80.8696 162.846C78.2514 162.624 75.3941 164.5 75.1703 167.094C74.9466 169.688 76.6234 172.474 79.2416 172.698Z" fill="#FC8A85"/>
<path d="M112.664 168.326C112.664 168.326 116.809 166.894 117.342 167.675C116.976 168.092 116.553 168.446 116.089 168.725C114.849 169.512 113.66 169.84 111.624 171.649C108.549 174.405 103.498 175.353 103.498 175.353L112.664 168.326Z" fill="#C62E45"/>
<path d="M24.9676 169.244C30.3693 170.023 53.7172 178.588 74.2946 179.257C87.7661 179.693 98.5328 177.294 104.833 174.802C108.157 173.481 110.234 172.16 110.815 171.191C112.493 168.409 116.177 165.239 117.017 164.383C117.858 163.527 116.797 162.626 116.797 162.626C115.69 161.888 114.552 161.19 113.383 160.531C111.715 159.59 109.99 158.726 108.215 157.939C89.8328 149.789 66.3772 149.836 50.5843 156.285C32.2022 163.796 23.6572 165.463 23.6572 165.463C23.5285 165.463 23.3946 165.463 23.279 165.463C20.4167 165.627 19.7891 168.496 24.9676 169.244Z" fill="#EF1536"/>
<path d="M85.0409 152.142C85.0409 152.142 82.7743 146.261 71.8564 145.029C71.8564 145.029 73.056 145.995 73.3718 147.406C73.7334 149.031 72.6077 149.992 73.252 152.28L85.0409 152.142Z" fill="#9B1F2E"/>
<path d="M23.7314 165.221C24.1364 166.258 24.6825 167.067 25.4193 167.34C28.2543 168.377 49.7187 161.207 64.6667 160.312C79.6147 159.418 87.8895 161.747 94.8658 159.82C101.842 157.892 104.457 160.017 108.714 161.205C112.97 162.393 113.386 160.37 113.386 160.37C111.726 159.446 110.01 158.598 108.243 157.825C89.9537 149.822 66.6158 149.869 50.9023 156.201C32.6125 163.576 24.1103 165.213 24.1103 165.213C23.977 165.213 23.8595 165.213 23.7314 165.221Z" fill="#D30023"/>
<path d="M92.9192 161.185C92.9192 161.185 87.6999 158.109 80.5406 162.778C80.5406 162.778 80.1998 163.163 80.6828 163.3C81.6273 163.569 83.8492 163.803 84.8126 164.751C86.267 166.182 88.3386 166.23 89.683 166.049C91.3226 165.827 91.0918 165.058 90.8691 163.572C90.6463 162.085 93.2546 161.982 92.9192 161.185Z" fill="#9B1F2E"/>
<path d="M109.431 164.805C110.159 164.805 110.749 164.363 110.749 163.817C110.749 163.27 110.159 162.828 109.431 162.828C108.703 162.828 108.112 163.27 108.112 163.817C108.112 164.363 108.703 164.805 109.431 164.805Z" fill="#9B1F2E"/>
<path d="M101.826 161.572C101.826 161.572 96.4616 160.929 96.0007 163.746C95.5399 166.563 95.162 171.557 96.6103 172.359C98.0586 173.162 102.179 172.359 102.179 172.359C102.179 172.359 98.0586 172.159 97.6002 171.274C97.1418 170.389 96.9516 164.189 97.6758 163.263C98.3999 162.336 100.86 161.572 101.826 161.572Z" fill="#B0243B"/>
<path d="M26.1375 165.129C26.1375 165.129 21.9176 156.177 11.3118 154.258C11.3118 154.258 14.5168 158.428 14.6637 161.104C14.8106 163.779 19.1159 165.387 18.4563 166.965C17.7966 168.542 16.2422 169.018 15.0536 172.728C13.8651 176.438 10.5694 181.096 11.3145 181.28C12.0597 181.464 20.1015 177.173 22.8577 173.186C24.4175 170.933 25.4377 168.881 26.3912 168.144C26.7046 167.927 26.9216 167.599 26.9976 167.229C27.0736 166.859 27.0028 166.474 26.7999 166.154L26.1375 165.129Z" fill="#9B1F2E"/>
<path d="M191.173 173.046C191.168 174.53 190.577 175.952 189.53 177.002C188.484 178.051 187.066 178.643 185.585 178.649H159.186C157.704 178.649 156.282 178.059 155.234 177.008C154.186 175.957 153.598 174.532 153.598 173.046C153.598 171.559 154.186 170.134 155.234 169.083C156.282 168.033 157.704 167.442 159.186 167.442H185.577C187.059 167.444 188.48 168.035 189.529 169.085C190.578 170.135 191.169 171.559 191.173 173.046Z" fill="#EF073F"/>
<path d="M177.989 173.046C177.984 174.53 177.383 175.953 176.317 177.002C175.251 178.052 173.806 178.644 172.299 178.649H159.288C157.779 178.649 156.331 178.059 155.264 177.008C154.197 175.957 153.598 174.532 153.598 173.046C153.598 171.559 154.197 170.134 155.264 169.083C156.331 168.033 157.779 167.442 159.288 167.442H172.301C173.809 167.447 175.253 168.039 176.318 169.089C177.384 170.139 177.985 171.561 177.989 173.046Z" fill="#FC8A85"/>
<path opacity="0.4" d="M186.418 168.761H160.991C160.549 168.761 160.19 169.159 160.19 169.65V169.849C160.19 170.34 160.549 170.738 160.991 170.738H186.418C186.86 170.738 187.219 170.34 187.219 169.849V169.65C187.219 169.159 186.86 168.761 186.418 168.761Z" fill="white"/>
<path d="M165.053 160.581C165.631 162.021 165.6 163.625 164.968 165.042C164.336 166.46 163.155 167.577 161.68 168.149L135.368 178.261C133.894 178.813 132.256 178.775 130.81 178.156C129.364 177.537 128.228 176.387 127.648 174.956C127.069 173.525 127.093 171.929 127.716 170.515C128.338 169.102 129.509 167.985 130.973 167.408L157.285 157.296C158.763 156.734 160.409 156.763 161.865 157.379C163.32 157.994 164.467 159.145 165.053 160.581Z" fill="#EF073F"/>
<path d="M151.214 165.845C151.785 167.279 151.755 168.877 151.13 170.289C150.505 171.702 149.336 172.814 147.879 173.384L135.278 178.262C133.82 178.812 132.2 178.774 130.77 178.157C129.34 177.541 128.217 176.394 127.644 174.969C127.071 173.543 127.094 171.952 127.71 170.543C128.326 169.135 129.484 168.022 130.932 167.447L143.532 162.569C144.994 162.008 146.622 162.037 148.062 162.651C149.501 163.265 150.635 164.413 151.214 165.845Z" fill="#FC8A85"/>
<path opacity="0.4" d="M158.988 160.053L133.741 170.02C133.53 170.103 133.295 170.098 133.087 170.008C132.879 169.917 132.716 169.748 132.632 169.537L132.563 169.358C132.48 169.146 132.485 168.911 132.575 168.703C132.665 168.495 132.834 168.331 133.045 168.247L158.292 158.272C158.503 158.189 158.738 158.194 158.946 158.284C159.154 158.375 159.317 158.544 159.401 158.755L159.47 158.935C159.512 159.04 159.533 159.152 159.532 159.265C159.53 159.379 159.507 159.49 159.462 159.594C159.417 159.698 159.352 159.792 159.271 159.871C159.19 159.95 159.094 160.012 158.988 160.053Z" fill="white"/>
</svg>
