<svg width="253" height="180" viewBox="0 0 253 180" fill="none" xmlns="http://www.w3.org/2000/svg">
<path opacity="0.5" d="M205.577 177.96L169.724 177.95H150.76C147.213 177.937 143.816 176.518 141.31 174.005C138.804 171.491 137.392 168.085 137.383 164.532L137.426 31.7948C137.436 28.2417 138.849 24.8371 141.358 22.3253C143.866 19.8134 147.265 18.3986 150.811 18.3901H167.63H205.63C209.176 18.4014 212.574 19.8185 215.081 22.3318C217.588 24.8451 219 28.2502 219.009 31.8034L218.971 164.541C218.962 168.097 217.548 171.506 215.038 174.02C212.528 176.535 209.126 177.952 205.577 177.96Z" fill="#C0D8FB"/>
<path d="M213.178 140.329L212.226 133.344L211.274 126.354C211.034 124.637 210.126 123.084 208.748 122.034C207.37 120.985 205.633 120.525 203.917 120.754C203.72 120.782 203.528 120.82 203.337 120.863C203.971 119.945 204.358 118.879 204.461 117.768C205.091 119.287 206.27 120.512 207.761 121.199C209.253 121.886 210.948 121.985 212.509 121.476C214.071 120.967 215.383 119.887 216.185 118.452C216.988 117.017 217.221 115.332 216.838 113.732L215.202 106.873L213.563 100.014C213.144 98.3431 212.084 96.9048 210.613 96.0117C209.142 95.1185 207.379 94.8424 205.707 95.2433C204.034 95.6442 202.587 96.6898 201.678 98.1532C200.77 99.6166 200.475 101.38 200.856 103.06L203.325 113.393C202.745 112.555 201.976 111.866 201.081 111.382C200.185 110.898 199.188 110.632 198.171 110.607C198.916 109.644 199.378 108.492 199.506 107.281C199.634 106.069 199.423 104.846 198.896 103.748C199.27 102.512 199.271 101.193 198.901 99.9557C198.53 98.7187 197.804 97.6185 196.813 96.7928L185.962 87.8077C184.68 86.747 183.043 86.2161 181.383 86.3232C179.724 86.4304 178.168 87.1676 177.032 88.3846C175.897 89.6016 175.267 91.2066 175.272 92.8725C175.277 94.5384 175.916 96.1398 177.059 97.3501C176.472 97.342 175.887 97.4142 175.319 97.5644L168.529 99.4249L161.741 101.285C160.618 101.596 159.597 102.202 158.786 103.041C157.974 103.879 157.401 104.92 157.125 106.054L156.412 104.34L153.7 97.8345C153.024 96.2446 151.748 94.9871 150.15 94.3361C148.552 93.6851 146.763 93.6936 145.171 94.3596C143.58 95.0256 142.316 96.2951 141.655 97.8913C140.994 99.4875 140.989 101.281 141.643 102.88L144.356 109.385L146.095 113.554C144.93 114.016 143.922 114.804 143.191 115.823C142.459 116.842 142.035 118.049 141.968 119.303L141.613 126.344L141.258 133.389C141.201 134.437 141.398 135.483 141.831 136.438C142.264 137.393 142.92 138.23 143.745 138.877C144.569 139.524 145.537 139.962 146.567 140.154C147.597 140.346 148.657 140.286 149.659 139.98C148.98 141.35 148.797 142.914 149.141 144.404C147.895 145.118 146.92 146.227 146.371 147.557L143.669 154.098L140.98 160.616C140.392 162.037 140.322 163.619 140.783 165.086C141.243 166.552 142.205 167.81 143.499 168.636C144.793 169.463 146.337 169.806 147.858 169.606C149.38 169.406 150.782 168.675 151.819 167.542C152.256 168.582 152.956 169.489 153.85 170.176C155.227 171.226 156.964 171.688 158.68 171.459C160.396 171.231 161.952 170.331 163.008 168.956L167.286 163.358L171.565 157.757C172.127 157.019 172.524 156.169 172.729 155.264C174.266 155.423 175.809 155.028 177.082 154.15L178.203 153.376L176.65 155.408L172.371 161.006C171.85 161.689 171.468 162.468 171.246 163.298C171.025 164.129 170.97 164.995 171.083 165.847C171.196 166.699 171.475 167.521 171.905 168.265C172.334 169.009 172.906 169.661 173.588 170.183C174.269 170.706 175.046 171.089 175.875 171.31C176.704 171.532 177.569 171.588 178.419 171.475C179.27 171.361 180.09 171.082 180.832 170.651C181.575 170.22 182.225 169.647 182.747 168.965L187.025 163.366L191.304 157.766C191.36 157.693 191.405 157.618 191.456 157.551C191.797 158.103 192.219 158.601 192.707 159.028L191.184 161.021C190.663 161.704 190.28 162.483 190.059 163.313C189.838 164.144 189.782 165.01 189.895 165.862C190.008 166.714 190.288 167.536 190.717 168.28C191.147 169.024 191.719 169.676 192.4 170.198C193.082 170.721 193.859 171.104 194.688 171.325C195.517 171.547 196.381 171.603 197.232 171.49C198.082 171.376 198.902 171.097 199.645 170.666C200.388 170.235 201.038 169.662 201.56 168.98L210.117 157.781C210.734 156.979 211.156 156.044 211.35 155.051C211.544 154.057 211.504 153.032 211.234 152.057C210.964 151.081 210.472 150.182 209.795 149.431C209.118 148.679 208.276 148.095 207.336 147.726C207.415 147.726 207.494 147.726 207.573 147.707C209.292 147.471 210.848 146.562 211.898 145.179C212.949 143.796 213.409 142.052 213.178 140.329ZM154.303 134.083L154.425 131.681C155.005 132.675 155.846 133.491 156.857 134.038L153.862 136.107C154.117 135.46 154.266 134.776 154.303 134.081V134.083ZM198.329 128.125L199.613 137.519C199.004 136.28 198.021 135.265 196.803 134.619C195.585 133.972 194.194 133.727 192.829 133.918C193.516 133.502 194.12 132.961 194.609 132.324L198.282 127.516C198.287 127.715 198.302 127.919 198.329 128.123V128.125ZM183.459 102.743L185.107 104.106L183.412 105.276C183.594 104.443 183.61 103.582 183.459 102.743ZM184.88 123.501C184.716 122.495 184.32 121.541 183.722 120.715C184.219 120.531 184.691 120.286 185.128 119.986L190.277 116.428L184.88 123.501ZM189.158 135.751C188.48 135.185 187.694 134.761 186.849 134.506C186.004 134.25 185.116 134.168 184.238 134.263L184.377 132.502C185.085 133.374 186.008 134.046 187.054 134.452C188.1 134.858 189.234 134.983 190.343 134.816C189.915 135.08 189.519 135.393 189.163 135.749L189.158 135.751ZM175.995 110.976C175.271 112.065 174.889 113.348 174.898 114.657C174.906 115.966 175.306 117.243 176.045 118.323C176.072 118.364 176.107 118.4 176.134 118.441C175.661 118.62 175.21 118.854 174.791 119.138C175.204 117.852 175.211 116.471 174.81 115.182C174.41 113.893 173.621 112.759 172.553 111.936L172.534 111.923L175.995 110.976ZM169.492 126.714L172.012 123.416C171.976 123.619 171.948 123.825 171.931 124.035L171.454 130.09C170.523 129.249 169.372 128.694 168.136 128.489L169.492 126.712V126.714ZM157.696 154.381L158.436 152.587C158.955 151.326 159.065 149.932 158.749 148.605C158.898 148.519 159.048 148.431 159.191 148.33L170.78 140.323C170.855 140.271 170.921 140.213 170.994 140.158C171.149 140.788 171.397 141.392 171.73 141.95L169.667 143.375C168.331 144.3 167.389 145.694 167.028 147.28C165.921 147.169 164.804 147.342 163.783 147.783C162.762 148.225 161.87 148.92 161.192 149.803L157.696 154.381ZM188.437 146.311L188.799 147.825C188.224 147.566 187.614 147.392 186.989 147.31L188.437 146.311ZM202.238 147.84L201.735 145.73L201.639 145.33C202.348 146.201 203.267 146.877 204.309 147.293C203.595 147.362 202.897 147.547 202.242 147.842L202.238 147.84ZM162.661 114.116L159.116 118.756L154.838 124.355C154.819 124.38 154.804 124.408 154.784 124.434L154.998 119.995C154.998 119.881 154.998 119.77 154.998 119.656C155.199 119.594 155.401 119.523 155.597 119.442C156.864 118.907 157.931 117.986 158.647 116.81C159.363 115.635 159.692 114.263 159.587 112.89C160.493 113.555 161.553 113.977 162.668 114.116H162.661Z" fill="#AFCDFB"/>
<path opacity="0.5" d="M169.724 177.95H150.76C147.213 177.937 143.816 176.518 141.31 174.004C138.804 171.491 137.392 168.085 137.383 164.532L137.426 31.7948C137.436 28.2417 138.849 24.8371 141.358 22.3253C143.866 19.8134 147.265 18.3986 150.811 18.3901H167.63C169.081 20.9102 169.839 23.7712 169.825 26.6807L169.769 176.604C169.769 177.059 169.754 177.508 169.724 177.95Z" fill="#AFCDFB"/>
<path d="M218.115 24.6595L167.2 24.6381H138.301C137.611 24.637 136.949 24.3617 136.462 23.8727C135.974 23.3837 135.7 22.7209 135.699 22.0296V9.52516C135.701 8.83424 135.977 8.1723 136.464 7.68394C136.952 7.19559 137.613 6.92052 138.303 6.91882H167.161L218.117 6.93383C218.806 6.93609 219.467 7.21171 219.955 7.70047C220.442 8.18922 220.716 8.85139 220.718 9.54231V22.0425C220.719 22.7353 220.445 23.3999 219.957 23.8906C219.469 24.3813 218.806 24.6578 218.115 24.6595Z" fill="#FF154D"/>
<path d="M167.2 24.6381H138.301C137.611 24.6369 136.949 24.3617 136.462 23.8727C135.974 23.3837 135.7 22.7209 135.699 22.0296V9.52516C135.701 8.83424 135.977 8.1723 136.464 7.68394C136.952 7.19559 137.613 6.92052 138.303 6.91882H167.162C167.853 6.91996 168.516 7.19625 169.005 7.68698C169.494 8.17771 169.768 8.84273 169.767 9.53587V22.036C169.764 22.72 169.493 23.3754 169.013 23.8618C168.534 24.3482 167.883 24.6269 167.2 24.6381Z" fill="#FF154D"/>
<path d="M34.8228 5.27271C34.8078 4.84404 34.4763 0.242202 27.4787 0C27.4787 0 30.9208 0.411528 31.5155 1.92904C31.5155 1.92904 29.1623 0.0557294 27.2626 0.658018C25.363 1.26031 24.2334 4.61041 24.2227 5.7121C24.212 6.8138 25.271 10.3654 26.4839 10.6676C26.9682 10.7659 27.4672 10.7659 27.9515 10.6676C27.6061 11.209 27.2925 11.77 27.0123 12.348C24.2184 18.0922 27.1001 23.7079 29.4639 23.0863C30.9807 22.6876 31.4085 25.2811 31.4085 25.2811L46.1417 13.3318C46.1417 13.3318 40.7293 2.11552 34.8228 5.27271Z" fill="#2C3A64"/>
<path d="M60.0424 66.2689C59.5531 67.425 58.9625 68.5353 58.2775 69.5869C57.4624 70.815 56.3906 72.0582 55.1242 72.699C54.1508 72.2275 52.3966 71.5352 51.6521 71.0765C48.9609 69.4304 45.1252 64.76 41.9912 59.7552C41.512 58.9922 41.052 58.2205 40.6135 57.4511C40.5248 57.3137 40.4455 57.1705 40.376 57.0224C39.2615 55.0312 38.3608 53.0486 37.8389 51.2353L43.5336 39.0438C43.555 39.0652 45.3028 40.1004 46.8452 44.5415C49.1385 51.1495 52.8587 60.5354 55.4408 63.4032C56.0419 64.072 57.8068 65.0836 59.9333 66.1596C59.9846 66.2325 60.0231 66.2689 60.0424 66.2689Z" fill="#ABDDDA"/>
<path d="M58.2775 69.5847C57.4624 70.8129 56.3906 72.056 55.1242 72.6969C54.1508 72.2254 52.3966 71.5331 51.6522 71.0744C48.961 69.4283 45.1252 64.7579 41.9912 59.7531C42.1089 58.1798 50.3344 66.2625 51.374 67.7264C52.1613 68.8324 56.2302 69.379 58.2775 69.5847Z" fill="#91CECF"/>
<path d="M72.0276 165.683L70.8788 176.329C70.7673 177.344 70.2593 178.273 69.4658 178.913C68.6723 179.552 67.6581 179.851 66.6452 179.744L56.0194 178.595C55.0065 178.483 54.0791 177.974 53.4403 177.178C52.8016 176.383 52.5035 175.366 52.6115 174.351L53.7582 163.705C53.8613 162.778 54.2957 161.921 54.9812 161.29C55.6667 160.66 56.5568 160.299 57.487 160.275C57.6562 160.271 57.8256 160.278 57.994 160.297L68.6176 161.446C69.6296 161.557 70.5565 162.065 71.1956 162.859C71.8346 163.653 72.1338 164.669 72.0276 165.683Z" fill="#0B1A3B"/>
<path d="M66.0464 165.383C58.5268 165.812 56.9908 178.702 56.0175 178.597C55.0046 178.485 54.0772 177.976 53.4384 177.181C52.7996 176.385 52.5016 175.368 52.6096 174.353L53.7562 163.707C53.8593 162.78 54.2938 161.923 54.9793 161.292C55.6647 160.662 56.5548 160.301 57.485 160.278C64.1082 162.689 69.8265 165.171 66.0464 165.383Z" fill="#0B1A3B"/>
<path d="M99.2091 35.3679L84.8888 116.255L76.8088 161.887C76.5836 163.155 75.8864 164.291 74.8579 165.064C73.8294 165.837 72.5464 166.19 71.2681 166.052L58.2185 164.641L55.2727 164.324C53.4894 164.131 51.8468 163.263 50.6804 161.897C49.514 160.532 48.9116 158.772 48.9961 156.977L51.0905 112.609L54.9604 30.5924L82.2361 33.5439L99.2091 35.3679Z" fill="#FFDAD8"/>
<path opacity="0.5" d="M82.2391 33.533L68.3338 113.125L59.8708 161.566C59.6712 162.741 59.0917 163.819 58.2214 164.633L55.2757 164.316C53.4923 164.122 51.8498 163.254 50.6834 161.889C49.5169 160.523 48.9145 158.763 48.999 156.968L51.0934 112.6L54.9633 30.5837L82.2391 33.533Z" fill="#FFDAD8"/>
<path d="M99.8037 29.8423L99.2091 35.3679L82.2403 33.5332L54.9668 30.5817L55.5615 25.0583L83.0083 28.0268L99.8037 29.8423Z" fill="#FF154D"/>
<path d="M84.8887 116.255L76.7594 162.183C76.549 163.371 75.8961 164.435 74.9327 165.16C73.9692 165.885 72.7672 166.216 71.5695 166.086L59.2837 164.757L54.1622 164.202C52.6813 164.042 51.3173 163.322 50.3487 162.188C49.3802 161.054 48.8802 159.593 48.9509 158.102L51.0902 112.6L68.5767 114.493L84.8887 116.255Z" fill="#FF154D"/>
<path d="M68.5812 114.491L60.0412 162.736C59.9159 163.451 59.6583 164.135 59.2817 164.755L54.1603 164.2C52.6794 164.04 51.3153 163.319 50.3468 162.186C49.3782 161.052 48.8782 159.591 48.949 158.1L51.0883 112.598L68.5812 114.491Z" fill="#FF154D"/>
<path d="M83.0084 28.0268L82.2404 33.5332L54.9668 30.5817L55.5615 25.0583L83.0084 28.0268Z" fill="#FF154D"/>
<path d="M39.9521 174.503L36.8223 175.671C36.8223 175.671 23.2272 156.782 21.5564 140.166C21.2569 137.2 21.8709 130.909 21.6377 129.565C21.5308 128.937 21.3982 128.183 21.2463 127.317C20.8034 124.779 20.1959 121.315 19.5006 117.356C17.9004 108.262 15.8296 96.6341 14.2188 88.0863L15.0616 87.8141L24.1856 84.8648L26.0703 78.8634L32.8647 77.0715C32.8647 77.0715 34.3814 80.0465 35.7398 94.0964C35.9901 95.9397 36.2169 97.9716 36.3816 100.175C37.0082 108.38 36.7932 116.627 35.7398 124.787C35.4275 127.229 34.1354 136.829 34.2851 139.791C34.9761 153.391 39.9521 174.503 39.9521 174.503Z" fill="#0B1A3B"/>
<path d="M36.3928 100.179L21.6319 129.563C21.5249 128.935 21.3923 128.18 21.2404 127.315C20.7975 124.777 20.19 121.313 19.4948 117.354C17.8946 108.26 15.8238 96.632 14.2129 88.0842L15.0558 87.812L24.1797 84.8627L26.0644 78.8613L32.8587 77.0694C32.8587 77.0694 34.3755 80.0444 35.7339 94.0943C35.9949 95.9419 36.2217 97.9759 36.3928 100.179Z" fill="#0B1A3B"/>
<path d="M29.9026 80.8461L29.5603 77.9118C23.8378 79.4336 8.55267 73.6572 8.55267 73.6572C8.55267 73.6572 3.00981 78.5376 3.73716 90.2405C4.09228 95.9526 4.74048 120.222 5.41863 127.402C5.66251 130.004 3.97675 136.703 3.30074 138.512C-3.35026 156.269 4.32546 178.138 4.32546 178.138L6.31711 177.335C6.31711 177.335 18.9196 131.561 20.2224 126.71C22.6783 117.543 24.6571 105.615 25.9728 96.4091C26.1482 96.4156 29.9026 80.8461 29.9026 80.8461Z" fill="#0B1A3B"/>
<path d="M34.2439 46.8007C24.4032 47.3408 26.5682 32.6543 27.1693 32.725C28.3737 32.0949 30.5344 29.0363 31.7837 23.92L32.2115 24.1172L39.3097 27.4609C39.3097 27.4609 38.5566 29.7758 37.9983 31.9899C37.5704 33.7217 37.2517 35.3979 37.5127 35.8651C38.0732 36.0923 38.4069 36.2359 38.4069 36.2359C38.4775 36.4267 36.8666 46.6592 34.2439 46.8007Z" fill="#EACDB0"/>
<path d="M39.3055 27.461C39.3055 27.461 38.5504 29.7822 37.9899 31.9899C33.8418 30.8304 32.5818 26.46 32.2031 24.1194L39.3055 27.461Z" fill="#EACDB0"/>
<path d="M40.1774 29.9087C40.1774 29.9087 30.2513 27.6067 31.7765 21.4359C33.3018 15.2651 33.0494 10.8111 39.4501 12.02C45.8508 13.2288 46.4968 15.8781 46.4861 18.0707C46.4754 20.2634 42.8002 30.348 40.1774 29.9087Z" fill="#EACDB0"/>
<path d="M47.0468 14.5642C45.9772 12.3265 44.7236 12.4465 43.9385 12.8495C39.2749 8.52631 34.7011 12.0586 34.7011 12.0586C33.5928 14.6464 31.6213 16.7679 29.124 18.06C29.124 18.06 30.6493 19.6247 35.069 19.5904C36.4189 19.5904 37.7774 18.9581 39.0117 18.1029C37.4698 19.6186 35.7288 20.9166 33.8368 21.961C39.369 20.9 43.0785 14.4828 43.4635 13.8012C43.932 14.4956 44.8284 15.9703 44.9033 17.2177C45.006 18.911 44.4241 22.2011 45.3932 22.3254C45.3868 22.3339 48.647 17.9229 47.0468 14.5642Z" fill="#2C3A64"/>
<path d="M15.9047 179.767H0.142544C0.142544 179.767 -0.236091 177.36 0.587529 175.534C1.37692 173.783 2.61127 172.986 2.31605 170.866C3.31723 171.899 4.94949 173.056 7.23638 172.75C7.51662 173.204 9.03765 175.631 9.97037 176.301C10.9929 177.032 15.586 176.777 15.9047 179.767Z" fill="#233862"/>
<path d="M49.7551 179.767H33.9929C33.9929 179.767 33.4047 177.249 34.4379 175.534C35.3535 174.017 35.0027 173.153 34.3245 171.89C35.1612 172.253 36.0682 172.425 36.9794 172.392C37.7645 172.347 38.5945 171.989 39.3326 171.567C40.0107 172.343 42.9158 175.639 43.825 176.293C44.8348 177.032 49.4299 176.777 49.7551 179.767Z" fill="#233862"/>
<path d="M43.5321 39.0437L40.9478 73.8201L39.3669 95.1145C36.9345 95.8711 34.622 96.4648 32.425 96.9192C32.2853 95.5959 32.0443 94.2853 31.704 92.999C31.7297 94.1178 30.4205 96.2612 29.6461 97.4272C9.462 100.666 0 91.8544 0 91.8544C0.785114 84.0461 4.18655 68.2516 8.25759 55.0119C9.1133 52.2577 9.98184 49.6149 10.8696 47.1757C12.887 41.6329 14.1705 38.7372 15.2573 36.4953C17.3281 32.2299 26.5805 32.4978 26.5805 32.4978C28.3625 38.928 33.2593 42.9447 33.2593 42.9447C35.8692 41.4079 37.8138 36.0066 37.8138 36.0066L43.5321 39.0437Z" fill="#ABDDDA"/>
<path d="M59.7302 75.4662C58.4253 75.4662 56.3673 75.3697 55.1779 74.9132C55.1779 74.9132 58.9793 74.8596 58.1729 73.655C58.0252 73.4407 56.1363 73.6015 54.027 73.6015C53.1713 73.6015 51.032 74.7889 51.1347 74.8446C49.6073 74.6431 48.2168 74.3452 47.7675 74.2488C47.7109 74.2396 47.6556 74.2238 47.6028 74.2016L46.2529 78.1411C46.2529 78.1411 46.5375 78.2119 47.0338 78.3062C49.1638 78.8185 51.26 79.4628 53.3103 80.2352C56.7203 81.5877 59.2296 79.9051 60.3699 78.7156C61.0908 77.9611 61.6534 76.9601 61.6213 76.2335C61.5721 75.4362 60.5239 75.4705 59.7302 75.4662Z" fill="#EACDB0"/>
<path d="M28.6207 31.2976C28.6207 31.2976 26.9414 31.4112 26.582 32.4872C26.582 32.4872 28.7726 41.3243 33.2608 42.934L28.6207 31.2976Z" fill="#6BB7BF"/>
<path d="M33.2617 42.9318C33.2617 42.9318 37.4482 35.953 37.4311 34.9049C37.4311 34.9049 39.1618 35.5779 39.0527 36.6539C39.0591 36.656 35.4438 42.4496 33.2617 42.9318Z" fill="#6BB7BF"/>
<path d="M21.7666 39.7896C21.8885 40.2183 36.9983 64.3785 37.3277 69.1926C37.6572 74.0066 30.9741 71.2845 30.8692 70.6565C30.7644 70.0285 21.7666 39.7896 21.7666 39.7896Z" fill="#91CECF"/>
<path d="M40.947 73.8179L39.3661 95.1124C17.7595 88.873 16.5615 43.1719 16.5615 43.1719L29.9213 67.3363L40.8315 73.655L40.947 73.8179Z" fill="#91CECF"/>
<path d="M50.5619 75.7684L49.7319 78.8056L47.0321 78.3083C46.5358 78.2119 46.2513 78.1411 46.2513 78.1411C44.9249 77.8818 43.3397 77.526 41.6112 77.1444H41.5855C38.6248 76.4328 35.311 75.5798 32.5171 74.6281L31.7855 74.3645C30.134 73.7536 33.3279 65.3515 34.7805 66.3953C35.1634 66.674 35.5741 66.9612 36.0041 67.2527C38.4001 68.8838 41.4486 70.6993 44.159 72.2297C45.4854 72.9884 46.7412 73.6786 47.783 74.2466C49.4473 75.1747 50.5619 75.7684 50.5619 75.7684Z" fill="#EACDB0"/>
<path d="M35.9864 67.2549C35.9864 67.2549 36.1597 72.9927 30.7987 75.7834C24.5948 73.5436 21.2875 64.2842 18.7289 57.9248C18.3738 57.0481 18.0422 56.1694 17.7128 55.3163C16.5959 52.3801 15.6936 49.3664 15.013 46.2991C14.6784 44.891 14.4637 43.4569 14.3712 42.0123C14.3398 41.6102 14.332 41.2065 14.3477 40.8035C14.3926 33.9232 19.2509 33.2116 19.8884 33.994C20.6928 34.9671 21.5442 36.566 22.4213 38.4779C23.7712 41.5365 25.1917 45.5018 26.518 49.4392C27.2539 51.5997 27.9642 53.758 28.6744 55.7514C29.0766 56.9603 29.4809 58.1091 29.8596 59.1444C30.5955 61.1377 31.2565 62.7517 31.847 63.7719C32.2277 64.4385 33.3145 65.3623 34.7606 66.4061C35.1457 66.6741 35.5564 66.9613 35.9864 67.2549Z" fill="#ABDDDA"/>
<path d="M60.074 66.2303C60.074 66.2559 60.0633 66.2687 60.042 66.2687L60.0612 66.226C60.0804 66.1876 60.0846 66.1876 60.074 66.2303Z" fill="#ABDDDA"/>
<path d="M152.04 110.26V169.316C152.041 170.713 151.767 172.095 151.234 173.385C150.701 174.676 149.919 175.848 148.934 176.836C147.948 177.823 146.778 178.606 145.491 179.141C144.203 179.675 142.823 179.95 141.429 179.949H113.078C111.684 179.95 110.304 179.675 109.016 179.141C107.728 178.606 106.558 177.823 105.573 176.836C104.587 175.848 103.805 174.676 103.272 173.386C102.739 172.095 102.465 170.713 102.465 169.316V110.26C102.464 108.863 102.738 107.48 103.271 106.189C103.804 104.899 104.586 103.726 105.571 102.738C106.557 101.75 107.727 100.967 109.015 100.433C110.303 99.8983 111.684 99.6236 113.078 99.6242C113.438 99.6256 113.794 99.5556 114.127 99.4184C114.46 99.2812 114.762 99.0793 115.016 98.8245C115.271 98.5697 115.473 98.267 115.61 97.9337C115.747 97.6005 115.817 97.2433 115.816 96.8828V91.31C115.814 91.0588 115.859 90.8095 115.949 90.5748C116.098 90.1714 116.366 89.8232 116.718 89.5773C117.071 89.3313 117.49 89.1992 117.919 89.1988H136.862C137.348 89.1988 137.815 89.3923 138.158 89.7368C138.502 90.0813 138.695 90.5485 138.695 91.0357V96.8785C138.695 97.2386 138.766 97.5952 138.903 97.9279C139.041 98.2606 139.242 98.563 139.496 98.8176C139.75 99.0722 140.052 99.2741 140.384 99.4118C140.716 99.5495 141.072 99.6202 141.432 99.6199C142.826 99.6202 144.206 99.8956 145.493 100.431C146.781 100.965 147.951 101.749 148.936 102.737C149.921 103.726 150.703 104.898 151.235 106.189C151.768 107.48 152.041 108.863 152.04 110.26Z" fill="#5A98E2"/>
<path d="M152.04 110.26V169.316C152.04 170.713 151.766 172.095 151.233 173.385C150.7 174.676 149.919 175.848 148.933 176.836C147.948 177.823 146.778 178.606 145.49 179.141C144.203 179.675 142.823 179.95 141.429 179.949H122.524C121.13 179.95 119.75 179.675 118.462 179.141C117.175 178.606 116.005 177.823 115.019 176.836C114.033 175.848 113.252 174.676 112.718 173.386C112.185 172.095 111.911 170.713 111.911 169.316V110.26C111.911 108.863 112.185 107.48 112.718 106.189C113.251 104.899 114.033 103.726 115.018 102.739C116.004 101.751 117.174 100.968 118.462 100.433C119.75 99.8988 121.13 99.6239 122.524 99.6242C122.884 99.6253 123.24 99.5552 123.573 99.4178C123.905 99.2805 124.208 99.0786 124.462 98.8239C124.717 98.5691 124.918 98.2665 125.056 97.9334C125.193 97.6002 125.263 97.2432 125.262 96.8828V91.31C125.262 91.0589 125.307 90.8098 125.395 90.5748C125.544 90.1714 125.813 89.8232 126.165 89.5773C126.517 89.3313 126.936 89.1992 127.365 89.1988H136.859C137.346 89.1988 137.812 89.3923 138.156 89.7368C138.5 90.0813 138.693 90.5485 138.693 91.0357V96.8785C138.692 97.2386 138.763 97.5952 138.9 97.9279C139.038 98.2606 139.239 98.563 139.493 98.8176C139.748 99.0722 140.049 99.2741 140.381 99.4118C140.713 99.5495 141.069 99.6202 141.429 99.6199C142.823 99.6199 144.203 99.8951 145.491 100.43C146.779 100.965 147.949 101.749 148.935 102.737C149.92 103.725 150.702 104.898 151.234 106.189C151.767 107.479 152.041 108.863 152.04 110.26Z" fill="#7BABEF"/>
<path d="M117.678 87.6191H136.008C137.034 87.6191 138.018 88.0277 138.744 88.7548C139.47 89.482 139.878 90.4682 139.878 91.4965V96.4777H113.811V91.4944C113.811 90.4666 114.218 89.4809 114.943 88.7542C115.669 88.0274 116.653 87.6191 117.678 87.6191Z" fill="#FF154D"/>
<path d="M152.042 119.528H102.465V141.251H152.042V119.528Z" fill="#0B1A3B"/>
<path d="M225.762 164.873C225.759 166.706 225.069 168.472 223.83 169.821C222.591 171.17 220.892 172.005 219.068 172.16L138.037 179.056C136.602 179.178 135.163 178.873 133.901 178.178C132.638 177.483 131.609 176.43 130.943 175.15C130.083 173.501 129.882 171.585 130.381 169.792C130.406 169.696 130.434 169.601 130.466 169.511C130.613 169.046 130.808 168.598 131.048 168.174C131.632 167.131 132.462 166.248 133.466 165.601C134.469 164.954 135.616 164.562 136.805 164.461L217.836 157.566C219.611 157.414 221.379 157.917 222.81 158.98C224.24 160.043 225.234 161.593 225.604 163.338C225.669 163.636 225.714 163.937 225.739 164.241C225.749 164.455 225.762 164.665 225.762 164.873Z" fill="#FFDAD8"/>
<path d="M135.026 172.212C135.025 172.675 134.911 173.131 134.693 173.54C134.476 173.948 134.162 174.298 133.779 174.557C133.381 174.827 132.919 174.99 132.44 175.028L130.942 175.155L124.971 175.663C124.411 175.711 123.85 175.59 123.359 175.317C122.868 175.043 122.469 174.63 122.214 174.128C122.046 173.803 121.945 173.447 121.916 173.082C121.885 172.712 121.927 172.338 122.039 171.984C122.152 171.63 122.333 171.301 122.572 171.017C122.812 170.733 123.105 170.498 123.435 170.328C123.764 170.157 124.124 170.053 124.494 170.021L130.328 169.524L130.465 169.513L131.962 169.387C132.048 169.387 132.131 169.376 132.213 169.376C132.919 169.379 133.598 169.647 134.117 170.126C134.636 170.606 134.958 171.263 135.017 171.968C135.024 172.049 135.027 172.13 135.026 172.212Z" fill="#FFDAD8"/>
<path d="M225.602 163.343C225.202 164.78 224.373 166.061 223.226 167.014C222.079 167.966 220.669 168.544 219.185 168.671L138.153 175.571C136.378 175.722 134.61 175.22 133.179 174.157C131.748 173.094 130.754 171.544 130.383 169.798C130.364 169.711 130.345 169.618 130.332 169.528L130.469 169.518C130.616 169.053 130.811 168.604 131.051 168.18C131.635 167.138 132.465 166.254 133.469 165.607C134.472 164.96 135.618 164.569 136.808 164.468L217.839 157.573C219.612 157.422 221.38 157.925 222.809 158.987C224.239 160.05 225.232 161.598 225.602 163.343Z" fill="#FFDAD8"/>
<path d="M132.521 170.667C132.519 171.311 132.298 171.936 131.895 172.438C131.491 172.941 130.929 173.29 130.3 173.429C130.18 173.455 130.058 173.474 129.935 173.485L122.462 174.128C122.376 174.128 122.295 174.139 122.212 174.139C122.044 173.813 121.943 173.458 121.914 173.093C121.883 172.722 121.925 172.349 122.037 171.995C122.15 171.64 122.331 171.312 122.57 171.027C122.81 170.743 123.103 170.509 123.433 170.338C123.762 170.167 124.122 170.063 124.492 170.032L130.326 169.535L130.463 169.524C130.61 169.059 130.805 168.611 131.045 168.187C131.546 168.46 131.953 168.878 132.213 169.387C132.38 169.712 132.482 170.068 132.51 170.433C132.518 170.511 132.521 170.589 132.521 170.667Z" fill="#FEDDDB"/>
<path d="M252.679 161.982C252.707 164.138 251.921 166.225 250.478 167.826C249.035 169.426 247.042 170.421 244.898 170.611L218.014 172.902L217.729 155.826H217.824L243.456 153.644C245.325 153.49 247.193 153.958 248.77 154.975C250.346 155.992 251.544 157.502 252.178 159.27C252.428 159.961 252.586 160.682 252.647 161.414C252.664 161.6 252.672 161.789 252.679 161.982Z" fill="#0B1A3B"/>
<path d="M252.18 159.262C251.633 160.8 250.657 162.149 249.368 163.149C248.079 164.148 246.53 164.756 244.907 164.901L218.022 167.192L217.832 155.817L243.465 153.635C245.333 153.483 247.199 153.951 248.774 154.968C250.35 155.985 251.547 157.494 252.18 159.262Z" fill="#0B1A3B"/>
<path d="M214.297 175.071L212.545 154.411C212.499 153.862 212.561 153.308 212.727 152.783C212.894 152.257 213.163 151.77 213.517 151.348C213.872 150.927 214.306 150.579 214.795 150.326C215.284 150.073 215.818 149.918 216.366 149.871L216.918 149.824C217.466 149.778 218.019 149.84 218.543 150.007C219.068 150.174 219.554 150.443 219.975 150.798C220.396 151.154 220.742 151.589 220.995 152.078C221.248 152.568 221.402 153.103 221.449 153.652L223.201 174.312C223.248 174.862 223.186 175.415 223.019 175.941C222.852 176.466 222.584 176.954 222.229 177.375C221.874 177.797 221.44 178.144 220.951 178.398C220.462 178.651 219.929 178.805 219.38 178.852L218.828 178.899C218.28 178.946 217.728 178.884 217.203 178.717C216.679 178.55 216.192 178.281 215.772 177.925C215.351 177.57 215.004 177.135 214.751 176.645C214.498 176.156 214.344 175.621 214.297 175.071Z" fill="#FF154D"/>
</svg>
