<svg width="230" height="200" viewBox="0 0 230 200" fill="none" xmlns="http://www.w3.org/2000/svg">
<path d="M62.0893 194.68C61.1873 194.71 60.3188 194.507 59.4336 194.426C58.977 185.639 59.8066 176.432 60.1657 167.603L66.9385 167.965C65.3697 172.687 64.2512 177.547 63.598 182.48C63.4839 183.259 62.2173 194.674 62.0893 194.68Z" fill="#E5D1BD"/>
<path d="M59.1596 192.72C58.6028 192.62 58.2744 192.868 57.9013 193.207C57.6842 193.405 57.5394 193.683 57.2778 193.825C57.0167 193.95 56.7321 194.019 56.4427 194.026C54.8142 194.19 51.0617 194.12 53.0604 196.845C54.8754 199.32 59.6968 198.334 62.4806 197.661C62.6678 197.641 62.845 197.566 62.99 197.446C63.1262 197.286 63.2216 197.095 63.2684 196.89C63.5857 195.726 64.02 194.273 62.5892 193.786C61.9795 193.578 61.4172 193.981 60.7714 193.758C60.2592 193.58 59.7163 192.82 59.1596 192.72Z" fill="#20252D"/>
<path d="M55.1125 172.9L68.9227 172.621C72.6473 154.895 75.9256 137.081 78.7576 119.18C78.9775 117.788 79.1919 116.349 78.791 115.005C78.0338 112.458 75.3086 111.005 72.6974 110.518C68.6387 109.761 61.1839 110.816 59.1016 115.035C56.9025 119.489 57.2727 127.458 56.7382 132.384C55.2815 145.837 54.7384 159.373 55.1125 172.9Z" fill="#0B1A3B"/>
<path d="M88.4147 194.68C89.3166 194.71 90.1852 194.507 91.0704 194.426C91.5269 185.639 90.6974 176.432 90.3383 167.603L83.5654 167.965C85.1342 172.687 86.2527 177.547 86.9059 182.48C87.0201 183.259 88.2867 194.674 88.4147 194.68Z" fill="#E5D1BD"/>
<path d="M91.346 192.72C91.9028 192.62 92.2313 192.868 92.6043 193.207C92.8214 193.405 92.9662 193.683 93.2278 193.825C93.4889 193.95 93.7736 194.019 94.063 194.026C95.6915 194.19 99.4439 194.12 97.4452 196.845C95.6302 199.32 90.8088 198.334 88.025 197.661C87.8379 197.641 87.6607 197.566 87.5156 197.446C87.3795 197.286 87.284 197.095 87.2372 196.89C86.9199 195.726 86.4856 194.273 87.9165 193.786C88.5261 193.578 89.0884 193.981 89.7342 193.758C90.2465 193.58 90.7893 192.82 91.346 192.72Z" fill="#20252D"/>
<path d="M95.4023 172.9L81.5922 172.621C77.8676 154.895 74.5892 137.081 71.7573 119.18C71.5373 117.788 71.323 116.349 71.7239 115.005C72.481 112.458 75.2063 111.005 77.8174 110.518C81.8761 109.761 89.331 110.816 91.4132 115.035C93.6124 119.489 93.2421 127.458 93.7766 132.384C95.2333 145.837 95.7765 159.373 95.4023 172.9Z" fill="#0B1A3B"/>
<path d="M38.3183 59.6374C38.4053 59.6598 38.4887 59.6945 38.566 59.7404C39.2453 60.1885 39.3316 60.8315 39.8605 61.4466C40.0971 61.725 41.0213 61.5941 40.8069 62.3206C40.729 62.5989 40.4423 63.2196 40.2669 63.7875C40.0136 64.6225 40.1945 65.8249 40.5146 66.7546C41.7729 70.412 43.9943 73.6268 46.2881 76.7359C46.4056 76.923 46.5659 77.0794 46.7558 77.1923C47.1093 77.3649 47.5297 77.2174 47.8971 77.0726C49.6024 76.4089 51.3655 75.9048 53.164 75.5668C54.7674 75.2634 56.4432 75.0992 58.0216 75.5167C59.6 75.9342 61.0837 77.0365 61.5653 78.5924C61.7459 79.1781 61.7851 79.7984 61.6797 80.4022C61.5742 81.006 61.327 81.5762 60.9584 82.0661C59.1072 84.4654 54.8342 83.3325 52.2314 83.1516C49.7774 82.9802 47.3384 82.637 44.9324 82.1245C44.6315 82.0796 44.3428 81.9745 44.0834 81.8156C43.8322 81.6103 43.6273 81.3542 43.4821 81.064C41.4049 77.4512 39.5259 73.728 37.8534 69.9109C37.3802 68.8644 37.5193 67.7009 37.0712 66.7379C36.7928 66.1227 36.1219 65.8444 35.7238 65.3239C35.2997 64.7434 34.9777 64.0949 34.7718 63.4061C34.4266 62.1759 35.2395 61.1377 35.863 60.1607C35.975 59.9384 36.1453 59.7508 36.3557 59.6179C36.7371 59.4008 37.1602 59.4565 37.5806 59.4982C37.8304 59.5204 38.0775 59.567 38.3183 59.6374Z" fill="#E5D1BD"/>
<path d="M53.2021 82.5003L51.4512 75.3581C51.4874 75.5112 62.0962 72.0486 62.7337 71.8649C65.1694 71.1607 67.6999 70.4509 70.208 70.8267C75.5639 71.6339 77.2648 78.5562 72.4628 81.4454C67.2517 84.5795 60.4037 85.9907 54.3685 85.3421C54.236 85.3391 54.1065 85.3017 53.9927 85.2336C53.8592 85.109 53.7735 84.9416 53.7505 84.7604L53.2021 82.5003Z" fill="#BCBEC0"/>
<path d="M83.5941 75.706C87.2468 79.2536 90.0265 83.6002 91.7143 88.4039C94.6623 96.679 94.7207 105.516 94.7458 114.175C94.7458 117.057 94.7551 119.939 94.7736 122.821C94.7736 125.657 94.5314 126.267 91.4499 125.882C85.7376 125.189 79.8027 124.012 74.6277 121.473C72.1641 120.265 69.8647 118.74 67.2814 117.791C63.5262 116.399 59.6763 117.034 55.96 116.121C56.9036 113.274 58.3122 110.671 58.9664 107.682C59.5817 104.68 59.9734 101.637 60.1384 98.5772C60.5002 93.2387 61.1628 87.9307 61.5636 82.6144C61.842 78.804 61.3493 75.6865 65.3996 73.187C67.6043 71.826 71.6185 69.499 74.7307 70.1253C78.0378 70.8156 81.5314 73.7354 83.5941 75.706Z" fill="#BCBEC0"/>
<path d="M70.2788 63.5564C70.9747 65.079 72.116 66.3398 73.0458 67.7315C73.9756 69.1232 74.2762 70.3145 74.5156 71.8871C74.6882 73.0228 75.0946 73.9107 76.4642 74.1139C79.0447 74.4813 78.3071 72.3492 78.8916 70.7988C79.5597 69.0258 81.0017 67.6341 81.9872 66.0476C84.8711 61.4772 84.0471 52.4423 78.0537 50.5162C71.498 48.4064 68.1631 58.9332 70.2788 63.5564Z" fill="#E5D1BD"/>
<path d="M80.7229 59.1337C81.4661 59.1643 82.2846 59.2227 82.8385 59.721C83.3925 60.2192 83.3312 61.3103 82.6019 61.4272C81.9422 61.533 81.0875 60.8455 80.6839 61.3493C80.4473 61.6443 80.6561 62.0729 80.8342 62.4181C81.5185 63.7246 81.7206 65.2304 81.4049 66.6711C81.6833 66.9216 82.1008 66.6711 82.3402 66.3928C83.5229 65.0961 84.4453 63.5842 85.0572 61.9393C85.3016 62.3419 85.6458 62.6746 86.0565 62.9052C85.8088 62.2873 85.9647 61.6137 86.1178 60.9846C86.6745 58.6716 87.0587 55.9745 85.4441 54.0734C84.5811 53.0631 83.2672 52.4813 81.9449 52.2364C80.6227 51.9915 79.2781 52.0527 77.9447 52.1111C77.388 52.1362 76.6725 52.2587 76.5361 52.7875C77.786 53.2885 79.0777 54.2655 79.704 55.4484C79.8878 55.8131 80.6505 59.1309 80.7229 59.1337Z" fill="#0B1A3B"/>
<path d="M78.0867 53.5808L78.2203 53.681C78.7771 54.1124 79.3171 54.6357 80.0019 54.8277C80.9901 55.1061 82.0507 54.6273 83.025 54.9641C84.1135 55.3399 84.8261 56.6342 85.6195 57.4107C86.9332 58.6683 88.5264 59.5964 90.2683 60.119C91.1541 60.3893 92.069 60.5529 92.9936 60.6061C93.4551 60.6734 93.924 60.6734 94.3855 60.6061C94.9422 60.4586 94.9144 60.2108 94.3298 60.0216C92.5009 59.4343 91.9247 56.8652 92.0638 55.1617C92.1724 53.8174 92.6373 52.4117 92.1251 51.1648C91.7326 50.2128 90.8919 49.7202 90.079 49.1746C89.1827 48.5734 88.2084 48.7349 87.1895 48.4454C86.1261 48.1448 85.2604 47.307 84.1775 47.0927C83.0334 46.8672 81.8893 47.371 80.7424 47.5964C79.7923 47.7801 78.8147 47.7678 77.8696 47.5603C77.0344 47.3738 76.1993 47.0342 75.3391 47.0426C74.0642 47.0426 72.895 47.8497 72.1518 48.8824C71.0995 50.3465 70.4203 52.8487 70.7905 54.7748C70.732 54.477 71.7398 53.3831 71.9458 53.1605C72.3828 52.6678 72.9089 52.2085 73.577 52.1278C75.083 51.9469 76.873 52.6984 78.0867 53.5808Z" fill="#3B455A"/>
<path d="M85.1785 92.4064L98.2454 103.103C99.2584 103.926 100.099 104.94 100.72 106.088C101.341 107.236 101.73 108.494 101.865 109.792C101.999 111.09 101.876 112.402 101.504 113.653C101.131 114.903 100.516 116.068 99.693 117.081C98.8625 118.088 97.8417 118.921 96.6891 119.534C95.5365 120.146 94.2746 120.525 92.9753 120.65C91.6761 120.774 90.3651 120.642 89.1171 120.26C87.8691 119.878 86.7086 119.253 85.7019 118.423L72.6211 107.715L85.1785 92.4064Z" fill="#FF154D"/>
<path d="M85.5383 92.7098L72.4714 82.0132C71.4647 81.1827 70.3042 80.5585 69.0562 80.1765C67.8082 79.7944 66.4972 79.6619 65.198 79.7864C63.8988 79.911 62.6368 80.2903 61.4842 80.9025C60.3316 81.5148 59.3109 82.3481 58.4804 83.3548C57.6575 84.3676 57.0421 85.5326 56.6695 86.7833C56.2969 88.0339 56.1743 89.3457 56.3087 90.6437C56.4431 91.9417 56.8319 93.2005 57.4529 94.3483C58.0739 95.496 58.9149 96.5103 59.9279 97.333L72.9948 108.03L85.5383 92.7098Z" fill="#0B1A3B"/>
<path opacity="0.66" d="M64.4486 83.2546C65.6318 82.9437 66.8758 82.9476 68.0571 83.266C69.2383 83.5843 70.3158 84.206 71.1825 85.0694C72.0677 85.935 73.3065 84.4848 72.424 83.6192C71.3018 82.5396 69.9174 81.7712 68.4074 81.39C66.8975 81.0088 65.3142 81.0279 63.8139 81.4454C62.628 81.771 63.2655 83.5802 64.4486 83.2546Z" fill="white"/>
<path opacity="0.66" d="M60.8008 83.121C60.8413 83.3561 60.9697 83.567 61.1599 83.7111L61.1989 83.7417C61.3921 83.8806 61.6311 83.9403 61.867 83.9087C61.9847 83.8931 62.0982 83.854 62.2006 83.7939C62.3031 83.7338 62.3925 83.6538 62.4636 83.5586C62.5346 83.4634 62.5859 83.355 62.6145 83.2397C62.643 83.1244 62.6482 83.0045 62.6297 82.8872C62.5892 82.6521 62.4608 82.4412 62.2706 82.2971L62.2316 82.2665C62.0384 82.1276 61.7994 82.0679 61.5635 82.0995C61.4473 82.1168 61.3356 82.1569 61.2349 82.2176C61.1343 82.2783 61.0466 82.3583 60.977 82.453C60.9074 82.5477 60.8572 82.6552 60.8294 82.7694C60.8015 82.8835 60.7965 83.0021 60.8147 83.1182L60.8008 83.121Z" fill="white"/>
<g opacity="0.18">
<path opacity="0.66" d="M62.5031 95.4681L75.197 105.859L75.57 106.165L88.2638 116.555C89.6745 117.714 91.376 118.464 93.1832 118.723C94.9904 118.982 96.834 118.74 98.5136 118.025C96.742 119.614 94.4597 120.515 92.0804 120.566C89.7011 120.617 87.3823 119.815 85.5441 118.303L72.8503 107.913L72.4772 107.607L59.7834 97.2161C58.7704 96.3933 57.9294 95.3791 57.3084 94.2314C56.6874 93.0836 56.2986 91.8248 56.1642 90.5268C56.0298 89.2288 56.1524 87.917 56.525 86.6664C56.8976 85.4157 57.5129 84.2507 58.3358 83.2379C59.3372 82.0171 60.6189 81.0564 62.0716 80.4378C61.0134 81.3977 60.1756 82.5754 59.6157 83.8898C59.0558 85.2042 58.7871 86.6242 58.8281 88.0522C58.8691 89.4803 59.2188 90.8826 59.8532 92.1627C60.4875 93.4428 61.3916 94.5705 62.5031 95.4681Z" fill="white"/>
</g>
<path d="M79.4439 112.962C79.4302 112.87 79.4302 112.776 79.4439 112.684C79.5636 111.876 80.1092 111.528 80.4432 110.788C80.5935 110.457 80.0869 109.675 80.8357 109.561C81.1141 109.519 81.8045 109.51 82.3946 109.427C83.2548 109.304 84.2709 108.631 84.9779 107.946C85.9603 107.028 86.874 106.039 87.7116 104.987C89.4412 102.703 90.9564 100.263 92.2379 97.7005C90.2494 96.5639 88.6084 94.9067 87.4915 92.9072C86.3746 90.9077 85.8242 88.6415 85.8993 86.3525C85.8899 85.869 86.0009 85.3908 86.2223 84.9608C86.4455 84.6228 86.7473 84.3439 87.1019 84.1481C90.7458 81.9214 92.6917 85.473 94.3814 88.2647C95.4477 90.0129 96.3837 91.8373 97.1818 93.723C98.2953 96.3561 97.4129 98.6552 95.8902 100.979C94.2756 103.445 92.5942 105.911 90.4842 107.988C89.457 108.995 88.3156 109.739 87.1799 110.596C86.0441 111.453 86.4951 111.896 85.7017 112.889C85.2591 113.446 84.9111 114.092 84.3711 114.56C83.4023 115.395 82.1162 115.094 80.9666 114.946C80.7173 114.939 80.4748 114.864 80.2651 114.729C79.906 114.476 79.7779 114.07 79.6387 113.669C79.5514 113.44 79.4861 113.203 79.4439 112.962Z" fill="#E5D1BD"/>
<path d="M93.8594 89.8012L88.1249 94.4105C88.2474 94.3131 80.6088 86.1689 80.1857 85.6678C78.5154 83.7584 76.8006 81.7711 76.0824 79.3356C74.5486 74.1418 80.1021 69.6716 84.751 72.8002C89.7979 76.1959 93.9707 81.8017 95.936 87.5522C95.9896 87.6737 96.0107 87.807 95.9973 87.9391C95.9411 88.1129 95.8259 88.2616 95.6716 88.3594L93.8594 89.8012Z" fill="#BCBEC0"/>
<path d="M133.419 70.8684C134.291 70.334 135.308 70.0824 136.329 70.1482C137.35 70.2139 138.326 70.5939 139.122 71.2358L148.072 78.4476C150.856 80.6744 153.083 83.4578 156.86 83.5385C159.399 83.5858 165.162 85.3338 165.963 88.1895C166.091 88.8093 166.091 89.4486 165.963 90.0683C165.871 90.7447 165.532 91.6215 164.85 91.5241C164.531 91.4333 164.258 91.2268 164.084 90.9451C163.488 90.1992 162.793 89.4115 161.857 89.2751C160.298 89.0301 158.238 90.0906 156.568 90.1685C154.143 90.2799 151.713 90.5415 149.291 90.7252L133.121 79.1407C132.453 78.6644 131.914 78.0299 131.551 77.2941C131.189 76.5583 131.015 75.7441 131.044 74.9245C131.074 74.1048 131.306 73.3053 131.72 72.5974C132.135 71.8896 132.718 71.2955 133.419 70.8684Z" fill="#EACDB0"/>
<path d="M129.598 69.14C131.401 67.0051 134.202 65.9279 137.222 67.1777C138.414 67.6694 139.586 68.2057 140.738 68.7865C141.788 69.3153 149.727 77.2758 149.454 77.6126L140.863 88.1896C137.846 86.4666 134.8 84.7242 132.256 82.3444C129.472 79.7475 126.736 76.0957 127.93 72.2045C128.275 71.0816 128.842 70.0395 129.598 69.14Z" fill="#FF154D"/>
<path d="M135.86 159.024L136.075 172.04C135.988 175.658 136.311 179.251 136.531 182.85C136.734 186.19 136.061 189.639 137.645 192.737C138.143 193.708 139.201 194.385 140.005 193.263C140.626 192.397 140.339 190.903 140.492 189.898C141.645 182.352 143.788 174.995 144.86 167.436C145.985 159.517 142.92 159.726 135.86 159.024Z" fill="#EACDB0"/>
<path d="M136.598 190.51L135.763 192.681L139.88 196.305L143.652 196.461L144.871 194.471L139.799 190.059L136.598 190.51Z" fill="#20252D"/>
<path d="M126.638 159.15L124.263 171.953C123.428 177.679 121.569 183.254 120.747 188.979C120.558 190.296 120.653 191.735 120.104 192.976C119.556 194.218 118.512 194.24 117.582 193.416C116.335 192.303 116.911 190.338 116.934 188.832C117.087 178.784 116.296 168.878 116.099 158.816C116.088 158.75 116.092 158.684 116.11 158.62C116.129 158.557 116.161 158.498 116.204 158.448C116.296 158.391 116.407 158.37 116.513 158.39C117.496 158.448 126.588 159.428 126.638 159.15Z" fill="#EACDB0"/>
<path d="M116.902 191.045L115.597 192.971L118.792 197.43L122.431 198.435L124.07 196.77L120.123 191.329L116.902 191.045Z" fill="#20252D"/>
<path d="M149.275 167.305L147.499 148.698L146.642 136.61L143.763 126.734L128.216 124.321L108.992 127.616L108.07 131.349L111.767 165.916L130.31 167.305L130.056 145.792L132.918 159.125L132.795 167.305H149.275Z" fill="#0B1A3B"/>
<path d="M112.366 87.1653C112.34 87.7944 112.321 88.4216 112.31 89.0469C112.084 101.809 112.789 114.735 112.867 127.605C119.461 126.574 126.119 126.006 132.793 125.905C134.338 125.882 141.358 126.965 142.335 126.044C143.66 124.794 142.202 125.028 142.299 123.4C142.424 121.29 141.411 119.564 141.795 117.065C142.246 114.128 143.14 111.219 143.655 108.286C145.069 100.253 144.732 92.7627 143.688 84.6881C143.081 79.9925 142.266 74.8961 139.699 70.8129C137.865 67.8931 134.112 66.6378 130.763 66.2926C123.932 65.5661 117.123 69.14 114.506 75.617C113.042 79.266 112.53 83.2213 112.366 87.1653Z" fill="white"/>
<path d="M132.812 70.604L127.891 79.5721L128.662 106.749L129.018 119.275C129.06 120.725 129.096 122.175 129.141 123.622C129.16 124.274 128.982 125.367 129.352 125.899C130.157 127.051 133.102 126.692 134.388 126.793C136.392 126.951 138.424 127.113 140.312 127.806C141.567 128.265 142.759 128.961 144.084 129.145C144.23 129.181 144.382 129.187 144.531 129.162C144.68 129.138 144.822 129.084 144.949 129.003C145.211 128.791 145.256 128.415 145.281 128.081C145.89 119.862 145.331 111.553 145.512 103.309C145.698 94.7918 145.729 86.1382 143.466 77.8548C142.611 74.729 141.381 71.6033 139.39 69.0175C136.991 65.9001 135.159 65.4881 131.384 65.3517C130.287 65.3128 129.127 65.1235 129.561 66.7156C129.909 67.9793 131.944 69.5825 132.812 70.604Z" fill="#FF154D"/>
<path d="M122.106 71.4474L127.027 80.4155C126.924 80.4155 126.404 102.404 126.362 103.88L125.88 120.797C125.836 122.364 126.047 124.201 125.741 125.743C125.313 127.895 123.047 127.472 121.115 127.647C116.892 128.028 112.443 128.76 108.209 128.535C106.987 128.474 108.596 102.981 108.593 100.601C108.593 92.0446 106.82 82.5504 111.166 74.793C112.429 72.5357 114.659 68.9173 117.12 67.8011C119.414 66.7629 122.688 66.5848 125.193 66.0031L125.324 67.6174L122.106 71.4474Z" fill="#FF154D"/>
<path d="M128.437 50.0152C129.434 51.2269 130.129 52.6578 130.466 54.1903C130.561 54.5939 130.678 55.0615 131.053 55.2396C131.429 55.4178 131.251 56.0552 131.454 55.6599C131.657 55.2647 132.342 53.8925 132.289 53.4499C132.192 52.4131 131.996 51.3879 131.705 50.3882C131.451 49.517 131.095 48.6263 130.385 48.0585C129.948 47.7446 129.463 47.5022 128.949 47.3403C128.234 47.0257 127.468 46.8419 126.688 46.7976C125.344 46.7976 124.637 47.4183 125.954 48.1058C126.898 48.574 127.742 49.2227 128.437 50.0152Z" fill="#3B455A"/>
<path d="M123.617 68.9535C123.745 69.5798 123.74 70.2561 124.385 70.6374C124.71 70.7997 125.073 70.8682 125.435 70.8351C126.371 70.8063 127.289 70.5646 128.118 70.1281C128.467 69.9641 128.773 69.7211 129.012 69.4183C129.274 69.0481 129.235 68.7531 129.176 68.3467C129.104 67.8707 129.109 67.3697 129.082 66.8798C129.018 65.8055 128.878 64.7338 128.709 63.6706C130.215 63.1139 131.949 62.2622 132.172 60.5309C132.213 59.9774 132.17 59.4208 132.043 58.8804L130.813 52.1C130.671 51.3179 130.521 50.5135 130.117 49.8399C129.407 48.6569 128.071 48.1253 126.813 47.8692C123.6 47.2179 120.132 47.9221 117.707 50.1739C117.023 50.7646 116.507 51.5262 116.212 52.3811C115.795 53.745 116.168 55.2592 116.538 56.6703L117.568 60.5671C117.963 62.0646 118.52 63.7708 119.854 64.3497C120.561 64.6559 121.385 64.5835 122.028 65.0317C123.141 65.8166 122.974 67.3363 123.472 68.4497C123.539 68.6116 123.588 68.7806 123.617 68.9535Z" fill="#EACDB0"/>
<path d="M132.418 57.8756C132.312 57.4608 131.898 56.2695 131.416 57.1602C131.308 57.4111 131.282 57.69 131.344 57.9563C131.405 58.2225 131.429 58.4962 131.413 58.769C131.33 59.3869 130.737 59.771 130.163 59.8824C129.934 59.9304 129.697 59.9198 129.473 59.8518C129.258 59.7627 129.06 59.6386 128.886 59.4844L127.547 58.4294C126.778 57.8254 125.598 58.3738 124.763 58.6466C123.78 58.9301 122.894 59.4801 122.205 60.2359C122.135 60.3166 122.071 60.4001 122.004 60.4836C121.853 60.6912 121.675 60.8783 121.475 61.0403C120.788 61.5524 119.78 61.3437 119.118 60.7619C118.814 60.4836 118.511 60.1273 118.124 60.1468C117.97 60.1698 117.827 60.2375 117.711 60.3414C117.596 60.4454 117.514 60.581 117.475 60.7313C117.099 61.8836 117.659 64.1911 118.552 64.9621C119.246 65.5577 120.125 65.9585 120.651 66.7073C121.005 67.2111 121.189 67.8596 121.692 68.2159C122.277 68.6278 123.062 68.4942 123.777 68.4942C124.493 68.4942 125.359 68.8505 125.395 69.5658L126.558 70.0696C126.635 70.1096 126.72 70.1333 126.806 70.1392C127.037 70.1392 127.193 69.8859 127.213 69.6549C127.232 69.4239 127.171 69.1901 127.196 68.9618C127.268 68.305 127.978 67.957 128.557 67.6397C129.724 67 130.694 66.054 131.363 64.9036C131.605 64.4833 131.363 64.1855 131.488 63.8125C131.614 63.4396 131.887 63.2559 132.07 62.9413C132.506 62.0659 132.721 61.0966 132.694 60.119C132.698 59.3625 132.605 58.6085 132.418 57.8756ZM126.572 62.7298C125.946 62.9052 125.233 63.0081 124.699 63.4062C124.345 63.6678 124.009 63.0777 124.357 62.8189C124.938 62.3874 125.709 62.2622 126.391 62.0757C126.476 62.0599 126.563 62.0764 126.635 62.122C126.708 62.1675 126.76 62.2388 126.782 62.3215C126.804 62.4042 126.795 62.4922 126.755 62.5679C126.715 62.6436 126.648 62.7014 126.567 62.7298H126.572Z" fill="#3B455A"/>
<path d="M129.634 45.4587C129.578 45.005 129.517 44.5625 129.188 44.2702C128.86 43.978 128.42 43.939 128.184 43.6133C128.072 43.4602 128.025 43.2654 127.905 43.1235C127.688 42.8785 127.312 42.8674 126.987 42.8897C126.248 42.9549 125.513 43.0571 124.785 43.1958C124.203 43.296 123.721 43.6801 123.131 43.7525C122.382 43.8432 121.639 43.9733 120.904 44.1422C119.465 44.4763 118.129 45.1523 117.007 46.1128C115.103 47.7829 114.087 49.9539 114.223 52.4896C114.357 54.914 115.715 57.856 117.452 59.5595C117.324 58.9304 116.681 57.5164 116.717 56.8874C116.7 56.2703 116.787 55.6547 116.976 55.067C117.363 53.8926 118.047 52.8379 118.961 52.0053C120.395 50.6776 122.187 49.7786 124.027 49.1579C125.553 48.6429 127.148 48.1252 128.76 48.0863C130.018 48.0557 131.182 48.0863 130.018 46.6639C129.78 46.3062 129.646 45.8885 129.634 45.4587Z" fill="#3B455A"/>
<path d="M170.379 135.683C171.144 134.206 171.589 132.584 171.685 130.924C171.781 129.264 171.526 127.602 170.936 126.047L166.047 113.212L156.095 108.071L145.186 102.427L135.234 97.2856L121.936 100.723C120.326 101.139 118.821 101.891 117.52 102.928C116.22 103.966 115.153 105.266 114.389 106.744L89.0212 155.835H89.0435C88.9795 155.935 88.9127 156.032 88.8598 156.138C85.9675 161.733 96.1588 172.744 111.62 180.732C127.081 188.72 141.965 190.677 144.846 185.094C144.902 184.988 144.941 184.877 144.988 184.768H145.011L170.379 135.683Z" fill="#0B1A3B"/>
<g opacity="0.2">
<path opacity="0.2" d="M109.771 120.928L116.433 108.041C116.973 106.995 117.715 106.066 118.614 105.307C119.514 104.548 120.554 103.973 121.676 103.616C122.797 103.259 123.978 103.126 125.151 103.225C126.324 103.324 127.466 103.654 128.512 104.194L136.532 108.339C136.532 108.339 122.866 102.88 109.771 120.928Z" fill="white"/>
</g>
<path d="M184.532 100.727L134.724 74.9891C134.198 74.7174 133.551 74.9233 133.279 75.4491L122.334 96.6254C122.062 97.1512 122.268 97.7977 122.794 98.0694L172.603 123.808C173.129 124.079 173.776 123.873 174.047 123.348L184.993 102.171C185.264 101.646 185.058 100.999 184.532 100.727Z" fill="#3B455A"/>
<path d="M134.535 78.2086L132.418 77.1147L123.195 94.9578L125.312 96.0517L134.535 78.2086Z" fill="#BCBEC0"/>
<path d="M139.06 80.5475L136.943 79.4536L127.721 97.2967L129.838 98.3906L139.06 80.5475Z" fill="#BCBEC0"/>
<path d="M143.543 82.8651L141.426 81.7712L132.203 99.6143L134.32 100.708L143.543 82.8651Z" fill="#BCBEC0"/>
<path d="M148.066 85.204L145.949 84.1101L136.727 101.953L138.844 103.047L148.066 85.204Z" fill="#BCBEC0"/>
<path d="M152.59 87.5401L150.473 86.4463L141.25 104.289L143.367 105.383L152.59 87.5401Z" fill="#BCBEC0"/>
<path d="M157.115 89.8765L154.998 88.7827L145.776 106.626L147.892 107.72L157.115 89.8765Z" fill="#BCBEC0"/>
<path d="M161.511 92.1512L159.395 91.0573L150.172 108.9L152.289 109.994L161.511 92.1512Z" fill="#BCBEC0"/>
<path d="M166.037 94.4875L163.92 93.3936L154.697 111.237L156.814 112.331L166.037 94.4875Z" fill="#BCBEC0"/>
<path d="M170.559 96.8237L168.442 95.7298L159.22 113.573L161.337 114.667L170.559 96.8237Z" fill="#BCBEC0"/>
<path d="M175.084 99.1626L172.967 98.0687L163.744 115.912L165.861 117.006L175.084 99.1626Z" fill="#BCBEC0"/>
<path d="M179.608 101.501L177.491 100.408L168.269 118.251L170.386 119.345L179.608 101.501Z" fill="#BCBEC0"/>
<path d="M184.13 103.838L182.013 102.744L172.79 120.587L174.907 121.681L184.13 103.838Z" fill="#BCBEC0"/>
<g opacity="0.1">
<path opacity="0.1" d="M125.944 99.6962L170.924 126.047L169.451 122.181L125.944 99.6962Z" fill="#272525"/>
</g>
<path d="M112.545 110.326L92.5049 149.098L148.494 178.029L168.534 139.257L112.545 110.326Z" fill="#D7E8F4"/>
<g opacity="0.05">
<path opacity="0.05" d="M89.75 162.74C92.865 168.346 100.996 175.266 111.616 180.746C127.077 188.735 141.959 190.677 144.846 185.083C144.901 184.977 144.94 184.866 144.988 184.757H145.01L166.812 142.572C166.812 142.572 137.886 187.613 89.75 162.74Z" fill="#272525"/>
</g>
<path d="M118.673 77.3594C119.61 77.7718 120.396 78.4637 120.924 79.3402C121.451 80.2167 121.695 81.235 121.621 82.2554L120.786 93.7174C120.63 95.8634 119.932 98.5634 120.491 100.601C121.479 104.2 123.921 107.913 125.658 111.206C126.54 112.876 127.398 115.35 128.776 116.658C129.035 116.903 132.008 118.376 131.983 118.467L131.827 119.283L131.017 119.113L130.532 119.436L132.695 120.597L131.253 122.979L128.018 123.004C127.089 121.184 126.607 119.091 125.263 117.518C124.706 116.853 124.021 116.285 123.397 115.673C122.326 114.618 121.404 113.427 120.436 112.28C119.467 111.133 118.345 110.237 117.44 109.132C115.419 106.666 113.415 104.186 111.402 101.711L111.714 81.8295C111.726 81.0105 111.94 80.2071 112.337 79.491C112.735 78.7749 113.304 78.1684 113.993 77.7256C114.682 77.2829 115.471 77.0178 116.287 76.9539C117.104 76.89 117.924 77.0293 118.673 77.3594Z" fill="#EACDB0"/>
<path d="M117.919 73.2343C120.703 73.5127 123.18 75.1827 123.876 78.3836C124.149 79.6436 124.375 80.9119 124.555 82.1885C124.72 83.352 122.696 94.4104 122.262 94.377L108.671 93.3444C108.368 89.8846 108.067 86.3859 108.565 82.9512C109.122 79.1769 110.559 74.8571 114.436 73.6212C115.559 73.2594 116.744 73.1278 117.919 73.2343Z" fill="#FF154D"/>
<path d="M162.326 90.3912C162.326 90.5947 162.297 90.7971 162.24 90.9925C162.032 91.7106 161.791 92.4176 161.516 93.1134C162.255 93.2789 162.979 93.508 163.679 93.7981C164.452 93.1055 165.154 92.3382 165.775 91.5074C165.958 91.2776 166.096 91.0163 166.184 90.7364C166.463 89.7093 166.037 88.1562 165.015 87.8639C164.439 87.6997 163.852 87.6162 163.278 87.4074C162.819 87.2404 162.237 86.8508 161.728 86.9649C160.879 87.1402 160.714 88.3287 160.614 89.0274C160.556 89.4477 160.16 91.9778 161.171 91.0203C161.388 90.8143 161.505 90.5221 161.728 90.3133C162.184 89.9014 162.318 90.0823 162.326 90.3912Z" fill="#EACDB0"/>
<path d="M46.3708 182.967C46.2973 182.784 46.2039 182.61 46.0925 182.447C45.455 181.511 44.4083 180.891 43.3922 180.303C40.8396 178.834 38.2228 177.378 35.3194 176.643C30.9656 175.53 26.4114 176.17 22.1273 177.256C18.2551 178.241 13.7176 179.182 10.1071 180.779C8.77366 181.37 7.379 182.463 7.6017 183.808C7.72947 184.325 7.98284 184.803 8.33939 185.199C9.30575 186.427 10.4077 187.54 11.6242 188.52C12.4137 189.193 13.3043 189.736 14.2632 190.132C15.399 190.566 16.6461 190.688 17.8821 190.766C23.5358 191.156 29.2954 190.925 34.8183 189.653C37.5269 189.032 47.8518 186.672 46.3708 182.967Z" fill="#BCBEC0"/>
<path d="M22.0481 135.271C23.4928 135.109 24.9654 135.084 26.3824 134.993C27.9357 134.892 29.6505 133.743 31.0535 134.213C31.9805 134.522 32.7237 135.207 33.4197 135.883C44.6688 146.978 50.6315 163.213 49.2369 178.948C49.0782 180.729 48.7692 182.678 47.7671 184.203C45.9242 187.009 41.7041 183.794 39.2878 183.118L34.1184 181.67C32.4251 181.162 30.7049 180.749 28.9657 180.432C22.9918 179.455 16.9622 180.793 11.2667 182.555C9.94717 182.964 8.24352 183.922 6.87949 184C5.6797 184.067 5.62959 184.2 5.62402 182.909C5.62402 181.222 6.91011 179.388 7.49191 177.843C9.5618 172.34 11.0127 166.624 11.8178 160.8C12.7003 154.415 12.8116 147.857 14.6962 141.65C15.3448 139.513 15.8988 137.278 18.0367 136.287C19.3099 135.733 20.6647 135.39 22.0481 135.271Z" fill="#0B1A3B"/>
<path d="M18.5383 126.325C22.1822 127.586 26.5221 125.768 29.9711 127.461C32.2148 128.555 33.5009 130.973 33.5566 133.32C33.6039 135.268 33.423 137.859 31.5161 139.095C30.2161 139.93 28.5793 140.234 26.9953 140.487C25.5478 140.729 24 140.952 22.6388 140.431C21.4417 139.975 20.5816 139.009 19.8829 138.026C18.491 136.053 17.294 132.76 17.4526 130.425C17.5501 129.019 18.04 127.661 18.5383 126.325Z" fill="#EBCEB1"/>
<path d="M27.5717 127.513C27.4288 127.489 27.285 127.469 27.1402 127.452C25.0555 127.207 22.9424 127.412 20.9436 128.053C19.5796 128.488 18.1153 129.325 17.9233 130.898C17.8758 131.613 17.9454 132.332 18.1293 133.025L18.686 135.658C18.7321 135.813 18.7378 135.978 18.7027 136.136C18.5552 136.604 17.837 136.551 17.4723 136.225C16.1472 135.029 14.4102 133.069 13.7337 131.427C13.177 130.088 13.3663 128.365 12.5256 127.16C11.9688 126.367 11.5374 125.136 10.7022 124.655C9.55535 124.015 8.38061 123.33 7.60951 122.267C6.83842 121.203 6.57953 119.653 7.35062 118.59C8.08553 117.579 9.4774 117.312 10.7273 117.323C11.9772 117.335 13.2661 117.538 14.4547 117.151C14.9697 116.984 15.4541 116.708 15.9914 116.633C17.7507 116.388 20.4147 117.067 21.9541 117.964C23.3905 118.799 24.7379 119.862 26.3747 120.218C27.6775 120.496 29.0387 120.304 30.361 120.496C31.4623 120.674 32.5103 121.094 33.429 121.727C34.3476 122.359 35.114 123.188 35.6724 124.154C36.9251 126.308 37.3065 129.25 35.9508 131.391C35.301 132.479 34.7334 133.614 34.2527 134.786C34.0745 135.19 32.9054 136.779 32.7439 135.382C32.6186 134.299 32.8441 133.194 32.7105 132.112C32.3764 129.49 30.0325 127.911 27.5717 127.513Z" fill="#3B455A"/>
<path d="M41.4088 97.4944C37.3919 95.3707 32.1918 93.7452 26.4044 93.0159C20.617 92.2867 15.1748 92.5678 10.757 93.6283L1.30902 92.437L0.106445 102.864C0.507304 109.043 10.5065 115.111 23.4119 116.731C36.3173 118.35 47.5107 114.971 49.4315 109.085L50.8568 98.6857L41.4088 97.4944Z" fill="#D7E8F4"/>
<g opacity="0.1">
<path opacity="0.1" d="M41.685 106.424C41.685 106.424 33.6789 118.014 16.5283 115.383C18.7901 115.992 21.0912 116.443 23.4153 116.733C36.3207 118.362 47.5141 114.974 49.4349 109.087L50.8602 98.6886C50.4203 102.148 46.9156 104.879 41.685 106.424Z" fill="#272525"/>
</g>
<path d="M27.5776 83.7028C13.8956 81.977 2.13425 85.8877 1.30748 92.4371C0.692275 97.3219 6.33492 102.293 14.9172 105.21L33.0839 84.6909C31.2678 84.2619 29.4296 83.932 27.5776 83.7028Z" fill="#EAF3F9"/>
<path d="M36.5472 85.6678L18.3359 106.237C20.3926 106.76 22.4798 107.154 24.5854 107.417C38.2675 109.143 50.0288 105.232 50.8556 98.683C51.493 93.6701 45.5219 88.5598 36.5472 85.6678Z" fill="#EAF3F9"/>
<path d="M33.1212 84.7159L14.9629 105.235C16.03 105.606 17.1435 105.936 18.3034 106.223L36.5118 85.6567C35.4243 85.3097 34.2941 84.9961 33.1212 84.7159Z" fill="#D7E8F4"/>
<path d="M9.86892 154.023C7.64193 159.698 7.14086 166.236 7.62244 172.524C7.90791 175.926 8.39405 179.308 9.07834 182.653C9.68798 185.745 10.782 188.912 11.0826 192.022C12.9951 191.988 14.9158 192.595 16.8004 192.269C16.908 192.258 17.0112 192.221 17.1011 192.161C17.1992 192.068 17.2687 191.949 17.3015 191.818C17.7246 190.619 18.1923 189.625 18.4595 188.359C18.7658 186.909 19.0441 185.455 19.2947 183.994C19.805 181.062 20.2096 178.114 20.5084 175.149C21.1104 169.197 21.29 163.211 21.0456 157.235C21.0234 156.696 20.9983 156.159 20.9705 155.623C20.4777 146.343 12.8225 146.532 9.86892 154.023Z" fill="#BCBEC0"/>
<path d="M10.8964 195.98C10.9384 196.075 10.9958 196.162 11.0662 196.238C11.8735 197.101 13.6523 198.006 14.7157 198.538C15.0267 198.748 15.3577 198.927 15.7039 199.072C16.539 199.392 17.466 199.3 18.354 199.194C19.1891 199.091 20.2414 198.796 20.3722 197.956C20.4502 197.458 20.1495 196.987 19.86 196.564C19.7025 196.297 19.4876 196.069 19.2309 195.896C19.054 195.808 18.8671 195.741 18.6741 195.698C17.995 195.507 17.3478 195.216 16.7534 194.836C16.8013 193.535 16.7576 192.233 16.6225 190.939C16.642 191.128 13.4184 190.975 13.1317 190.939C11.8206 190.769 11.7983 191.532 11.481 192.737C11.2471 193.653 10.5094 195.128 10.8964 195.98Z" fill="#20252D"/>
<path d="M21.9445 154.112C20.4134 160.015 20.7224 166.565 21.9667 172.76C23.3057 179.424 25.6802 185.806 28.1076 192.122L34.2347 191.217C35.2006 185.614 35.209 179.622 35.0976 173.935C34.9776 167.912 34.4278 161.905 33.4524 155.96C33.3652 155.425 33.2724 154.891 33.1741 154.357C31.5428 145.199 23.9682 146.318 21.9445 154.112Z" fill="#BCBEC0"/>
<path d="M34.6625 195.428L30.7013 197.934C30.3903 198.144 30.0593 198.323 29.7131 198.468C28.8779 198.788 27.9509 198.696 27.0629 198.59C26.2278 198.487 25.1756 198.192 25.0447 197.352C24.9668 196.854 25.2674 196.383 25.5569 195.96C25.7144 195.693 25.9293 195.465 26.1861 195.292C26.3629 195.204 26.5499 195.137 26.7428 195.094C27.4228 194.904 28.0709 194.614 28.6664 194.234C28.6184 192.934 28.6622 191.632 28.7972 190.338C30.2305 190.528 31.6853 190.482 33.1037 190.201C33.46 192.108 34.1142 193.764 34.6625 195.428Z" fill="#20252D"/>
<path d="M4.2984 110.22C4.46773 110.003 4.7137 109.859 4.98599 109.817C5.75174 109.628 6.49197 109.347 7.19071 108.982C7.36755 108.869 7.5672 108.797 7.7753 108.77C7.92057 108.768 8.06451 108.798 8.19696 108.858C8.32941 108.917 8.44715 109.005 8.5419 109.116C8.63665 109.226 8.7061 109.355 8.74535 109.495C8.7846 109.635 8.79271 109.782 8.76909 109.925C8.6132 110.496 7.85602 110.855 7.483 111.247C7.10998 111.64 7.52476 112.336 8.05367 112.269C8.19473 112.242 8.32834 112.185 8.44551 112.102C8.56268 112.019 8.66068 111.911 8.7329 111.787C8.80806 111.673 8.87766 111.54 9.01128 111.492C9.92434 111.144 8.95282 113.538 8.6132 113.797C8.07933 114.23 7.64296 114.77 7.33268 115.383C7.02647 115.94 6.46972 116.909 6.5421 117.521C6.3361 117.71 6.41683 117.989 6.30548 118.286C5.47194 117.799 4.53551 117.515 3.57185 117.457C3.40496 115.324 3.55505 113.178 4.01725 111.089C4.05802 110.785 4.15326 110.49 4.2984 110.22Z" fill="#EBCEB1"/>
<path d="M2.88125 117.805C2.44698 120.31 1.72321 122.815 1.31957 125.306C0.807361 128.46 0.420422 131.63 0.103075 134.809C-0.0220871 135.7 -0.0333122 136.603 0.0696704 137.498C0.314639 139.065 1.51721 140.473 2.73928 141.411C6.28296 144.134 10.0776 146.513 14.0719 148.517C14.2834 148.623 16.2766 143.554 16.4297 143.087C17.0588 141.172 17.3372 139.287 17.6518 137.311C17.6824 137.198 17.6736 137.078 17.6267 136.971C17.5764 136.912 17.5131 136.864 17.4418 136.832C17.3704 136.801 17.2928 136.785 17.2147 136.788C14.6166 136.482 12.0342 136.084 9.46758 135.596C8.39862 135.393 7.04015 135.446 6.47784 134.372C6.05471 133.565 6.18555 132.596 6.2969 131.73C6.48248 130.222 6.64486 128.71 6.78405 127.196C7.05314 124.107 7.19326 121.01 7.20439 117.905C7.20439 117.432 3.53264 116.494 3.08446 116.474C3.026 116.92 2.95919 117.362 2.88125 117.805Z" fill="#0B1A3B"/>
<path d="M46.8749 112.7C46.6975 112.472 46.4395 112.321 46.1539 112.277C45.352 112.077 44.5772 111.78 43.8462 111.395C43.6618 111.277 43.4537 111.201 43.2365 111.172C42.5935 111.144 42.0423 111.815 42.1954 112.38C42.3485 112.945 43.1502 113.354 43.54 113.772C43.9297 114.189 43.4954 114.91 42.9414 114.841C42.794 114.812 42.6544 114.752 42.532 114.666C42.4095 114.579 42.3071 114.467 42.2316 114.337C42.1536 114.217 42.0813 114.078 41.9532 114.028C40.9956 113.663 42.0145 116.171 42.3708 116.438C42.9301 116.894 43.3864 117.463 43.7098 118.108C44.0299 118.687 44.6145 119.706 44.5449 120.335C44.762 120.533 44.6757 120.825 44.7926 121.137C45.6657 120.64 46.6428 120.354 47.646 120.302C47.8211 118.069 47.6644 115.822 47.1811 113.635C47.1379 113.307 47.034 112.99 46.8749 112.7Z" fill="#EBCEB1"/>
<path d="M47.3184 120.176C47.7137 122.445 48.3706 124.725 48.7409 126.999C49.2058 129.865 49.5593 132.752 49.8544 135.641C49.9686 136.453 49.9789 137.276 49.885 138.09C49.6623 139.516 48.5683 140.796 47.4576 141.65C44.2369 144.126 40.7881 146.29 37.1577 148.113C36.9657 148.211 35.1534 143.602 35.0143 143.176C34.7359 142.31 34.3823 141.458 34.1179 140.612C33.8534 139.766 34.1179 138.878 33.6085 138.138C33.28 137.67 32.7177 137.422 32.3279 137.005C32.1219 136.785 31.9828 136.401 32.2166 136.212C32.3157 136.146 32.4319 136.111 32.5506 136.111C33.4219 136.038 34.2982 136.171 35.1089 136.498C36.1612 136.924 36.7791 137.127 37.9205 136.952C39.0618 136.777 40.2059 136.579 41.3445 136.362C42.3188 136.178 43.552 136.226 44.0642 135.249C44.4484 134.514 44.3426 133.634 44.2284 132.846C44.0521 131.475 43.9046 130.1 43.7858 128.721C43.5409 125.912 43.4137 123.095 43.4044 120.271C43.4044 119.84 46.7449 118.988 47.1514 118.968C47.1987 119.372 47.2627 119.776 47.3184 120.176Z" fill="#0B1A3B"/>
<path d="M186.561 191.384C185.706 191.44 184.924 191.142 184.095 191.047C184.129 188.145 184.46 185.254 185.083 182.419C186.372 183.85 187.457 183.017 187.413 185.706C187.396 186.583 186.394 190.062 186.561 191.384Z" fill="#E5D1BD"/>
<path d="M183.907 189.592C182.936 189.244 182.716 191.565 182.707 192.111C182.73 192.438 182.714 192.767 182.657 193.09C182.538 193.434 182.348 193.748 182.101 194.015L180.689 195.79C180.463 196.045 180.28 196.336 180.149 196.65C179.871 197.444 180.333 198.387 181.085 198.766C183.693 200.085 186.079 196.893 186.652 194.786C186.738 194.463 186.802 194.134 186.866 193.806C186.997 193.127 187.512 191.646 187.242 190.983C186.928 190.21 185.976 190.769 185.349 190.48C184.77 190.207 184.3 189.734 183.907 189.592Z" fill="#20252D"/>
<path d="M202.446 143.164C200.013 149.786 197.207 156.263 195.606 163.205C193.63 171.769 190.439 180.12 188.803 188.701C187.745 188.736 186.686 188.691 185.635 188.567C184.429 188.425 182.52 188.1 182.083 186.786C181.86 186.115 182.083 185.021 182.13 184.323C182.239 182.096 182.408 179.852 182.561 177.62C183.026 171.302 183.346 164.908 184.51 158.693C185.732 152.141 186.904 145.567 187.979 139.017C188.535 135.633 189.22 132.267 190.061 128.941C190.278 128.084 192.538 119.249 192.981 119.322C198.198 120.127 203.214 121.922 207.757 124.61C208.202 124.875 208.634 125.189 208.787 125.66C208.94 126.13 208.801 126.536 208.659 126.962C207.289 131.034 205.461 134.853 203.999 138.909C203.487 140.303 202.977 141.714 202.446 143.164Z" fill="#0B1A3B"/>
<path d="M206.039 190.263C206.857 190.516 207.687 190.407 208.517 190.51C209.16 187.677 209.512 184.786 209.566 181.882C207.979 182.973 207.119 181.912 206.535 184.534C206.345 185.397 206.51 189.016 206.039 190.263Z" fill="#E5D1BD"/>
<path d="M209.294 189.611C209.403 191.195 210.764 192.815 211.549 194.193C211.694 194.379 211.767 194.612 211.753 194.848C211.74 195.084 211.642 195.307 211.477 195.476C211.303 195.822 211.035 196.112 210.703 196.311C210.345 196.439 209.958 196.461 209.589 196.372C208.964 196.277 208.343 196.155 207.727 196.005C207.572 195.976 207.424 195.918 207.29 195.835C207.145 195.716 207.027 195.568 206.945 195.401C206.463 194.566 206.059 193.99 206.018 193.035C205.976 192.08 206.018 191.02 205.787 190.054C205.667 189.586 205.508 188.988 205.895 188.701C206.196 188.478 206.789 188.718 207.134 188.751C207.744 188.81 208.297 188.734 208.874 189.013C208.994 189.064 209.1 189.143 209.183 189.244C209.255 189.353 209.293 189.481 209.294 189.611Z" fill="#20252D"/>
<path d="M201.816 139.669C202.651 146.674 203.859 153.627 203.8 160.742C203.728 169.529 204.883 178.394 204.477 187.12C205.498 187.4 206.538 187.603 207.589 187.727C208.794 187.869 210.729 188.005 211.458 186.819C211.831 186.218 211.856 185.099 211.987 184.412C212.402 182.213 212.767 180.003 213.129 177.793C214.148 171.541 215.328 165.248 215.648 158.921C215.985 152.266 216.377 145.6 216.859 138.978C217.107 135.558 217.226 132.126 217.182 128.694C217.182 127.809 217.031 118.693 216.583 118.657C211.32 118.23 206.024 118.813 200.98 120.374C200.485 120.527 199.995 120.733 199.733 121.153C199.472 121.574 199.516 121.988 199.555 122.45C199.939 126.729 200.827 130.867 201.303 135.154C201.473 136.646 201.646 138.138 201.816 139.669Z" fill="#0B1A3B"/>
<path d="M200.073 82.581L199.817 82.6729C198.4 83.2101 197.195 84.1787 196.017 85.1306C194.247 86.5613 193.376 87.1876 192.691 89.3057C192.091 91.3067 191.615 93.3424 191.263 95.4014C189.259 105.85 188.872 116.252 187.432 126.779C187.04 129.643 186.739 133.014 188.858 134.981C192.619 132.056 197.345 131.886 201.905 131.883C205.109 131.883 208.238 130.842 211.451 131.202C214.513 131.544 217.199 130.776 220.311 130.979C221.063 131.029 222.018 131.021 222.315 130.328C222.463 129.98 221.792 128.401 221.711 127.964C221.55 127.11 221.433 126.247 221.355 125.381C221.054 122.267 220.623 119.236 220.178 116.138C219.992 115.054 219.894 113.958 219.885 112.859C219.935 111.877 220.037 110.899 220.189 109.928C220.879 104.333 220.261 98.6162 218.688 93.2025C218.36 92.0724 218.229 90.7615 217.786 89.7038C217.33 88.715 216.77 87.7773 216.116 86.9064C214.83 85.0917 213.151 83.5302 211.036 82.7508C208.23 81.7154 204.931 81.7071 202.005 82.1441C201.35 82.2316 200.703 82.3779 200.073 82.581Z" fill="#0B1A3B"/>
<path d="M180.288 60.6367C180.454 60.6356 180.615 60.6852 180.752 60.7788C180.888 60.8723 180.993 61.0053 181.051 61.16C181.201 61.597 181.034 62.0729 180.87 62.5043C180.21 64.2356 179.392 65.8945 179.222 67.7288C179.13 68.728 179.389 70.4927 178.036 70.7683C177.712 70.8549 177.374 70.8832 177.04 70.8518C176.771 70.8025 176.512 70.7084 176.274 70.5734C176.085 70.4732 175.762 70.3563 175.701 70.1587C175.364 69.0453 175.779 67.0663 175.673 65.8333C175.609 65.0818 174.969 56.0635 175.378 56.0608L177.237 56.0107C177.357 55.9971 177.478 56.0163 177.588 56.0663C177.708 56.1547 177.793 56.2815 177.83 56.4254C178.292 57.6582 178.527 58.9642 178.524 60.2804C178.487 60.628 178.542 60.9791 178.682 61.2991C178.855 61.5997 179.297 61.7751 179.559 61.5496C179.773 61.3631 179.768 61.018 179.957 60.8065C179.998 60.7569 180.048 60.7162 180.105 60.687C180.162 60.6578 180.224 60.6406 180.288 60.6367Z" fill="#E5D1BD"/>
<path d="M174.136 83.7612C174.198 77.93 174.487 67.7455 175.67 67.676C177.547 67.5676 179.427 67.8315 181.201 68.4525C181.121 72.5581 180.645 76.9809 181.908 80.9639C182.941 84.2177 186.362 84.1676 189.199 83.9644C193.158 83.6861 196.899 83.4078 200.857 82.7815C201.116 82.711 201.391 82.7276 201.64 82.8288C201.879 83.0008 202.043 83.2593 202.096 83.5497C202.263 84.1456 202.379 84.7546 202.444 85.3701C202.722 87.6719 202.53 90.0823 201.506 92.1616C200.482 94.2408 198.522 95.9331 196.217 96.2504C194.897 96.4313 193.561 96.1641 192.256 95.8997C189.427 95.3235 186.908 94.0793 184.183 93.1163C180.995 91.9634 177.898 90.5733 174.918 88.9579C174.655 88.8744 174.43 88.7002 174.282 88.4663C174.135 88.2324 174.075 87.9539 174.114 87.6803C174.12 87.3212 174.114 85.8098 174.136 83.7612Z" fill="#0B1A3B"/>
<path d="M202.456 82.4335C202.513 82.5428 202.586 82.6425 202.674 82.7285C203.058 83.085 203.545 83.3119 204.065 83.377C204.746 83.4419 205.433 83.3939 206.098 83.2351C207.002 83.0625 206.972 82.5309 207.103 81.7098C207.175 81.2617 207.219 80.808 207.253 80.3543C207.272 80.1066 207.175 79.2159 207.334 79.0405C207.442 78.9236 207.89 78.9626 208.071 78.8624C208.376 78.6831 208.63 78.4305 208.812 78.1276C209.085 77.6553 209.292 77.1477 209.427 76.6189L210.262 73.8996C210.576 72.9833 210.796 72.0377 210.919 71.0772C211.055 69.6243 210.822 67.5729 209.725 66.5124C208.725 65.5438 207.264 65.2042 205.928 65.0344C204.147 64.7867 202.334 65.1529 200.789 66.0726C200.138 66.4416 199.596 66.9765 199.219 67.623C198.662 68.6668 198.698 69.9694 198.76 71.1885L198.927 74.562C198.991 75.8563 199.152 77.3454 200.121 78.0468C200.636 78.4198 201.31 78.4977 201.749 78.9765C202.306 79.5749 202.264 80.4712 202.289 81.231C202.306 81.6653 202.273 82.0744 202.456 82.4335Z" fill="#EACDB0"/>
<path d="M208.066 67.8929C208.127 67.9974 208.177 68.1074 208.217 68.2214C208.423 68.817 208.283 69.4906 208.495 70.0891C208.815 71.0382 209.92 71.606 210.087 72.5941C210.224 73.4013 209.672 74.1667 209.625 74.9851C209.575 75.8785 210.146 76.7219 210.057 77.6042C209.91 78.4899 209.561 79.33 209.038 80.0592C209.18 79.8699 210.46 79.9367 210.792 79.7335C211.301 79.4218 211.348 79.227 211.51 78.6953C211.671 78.1637 211.543 77.6488 211.788 77.1088C212.066 76.4463 212.668 75.962 212.874 75.255C213.152 74.292 212.643 73.276 212.684 72.2712C212.746 70.7515 214.057 69.3208 213.581 67.879C213.302 67.044 212.467 66.4873 212.016 65.7302C211.666 65.1513 211.535 64.4694 211.293 63.8375C211.05 63.2057 210.63 62.5739 209.981 62.3818C209.613 62.3193 209.241 62.2757 208.868 62.251C208.228 62.1313 207.699 61.6943 207.081 61.4828C206.201 61.185 204.645 62.0756 204.13 62.8216C203.615 63.5675 203.877 64.1938 204.408 64.8479C205.249 65.9362 207.348 66.6516 208.066 67.8929Z" fill="#3B455A"/>
<path d="M194.996 61.3492C194.562 61.5979 194.148 61.877 193.754 62.1842C192.184 63.4034 190.97 65.246 190.97 67.225C190.97 68.4525 191.382 69.769 190.814 70.8573C190.104 72.2184 188.203 72.5274 187.346 73.8077C185.584 76.4325 189.595 80.2402 187.875 82.8928C186.953 84.3151 184.654 84.7465 184.378 86.4193C184.234 87.2989 184.768 88.1562 185.428 88.7546C186.071 89.3287 186.839 89.7464 187.67 89.9753C188.502 90.2041 189.375 90.2379 190.221 90.0739C191.043 89.9069 192.841 89.1944 193.478 90.0266C193.661 90.3134 193.797 90.6271 193.882 90.9563C194.361 92.3257 195.686 93.5393 197.12 93.3194C197.636 93.1939 198.141 93.0206 198.625 92.8017C199.21 92.5957 199.836 92.4983 200.374 92.1921C200.911 91.8859 201.351 91.2736 201.209 90.6752C201.17 90.5249 201.097 90.3968 201.056 90.2354C200.841 89.4644 201.487 88.7407 201.676 87.9641C201.985 86.6838 200.691 85.306 200.491 84.02C200.24 82.4196 201.136 80.8219 200.41 79.2688C200.157 78.7121 199.405 77.7184 199.981 77.1283C200.343 76.6385 201.2 76.4798 201.223 75.8702C201.188 75.5846 201.066 75.3165 200.875 75.102C200.582 74.6293 200.406 74.0939 200.361 73.5397C200.316 72.9856 200.403 72.4287 200.616 71.915C201.058 70.886 201.864 70.0557 202.879 69.5825C204.048 69.0259 203.859 68.7308 204.201 67.6119C204.513 66.582 205.098 66.3399 206.027 65.9641C206.863 65.6273 207.141 65.4074 207.436 64.6364C207.661 64.0797 207.937 63.3839 207.611 62.7465C206.904 61.3548 204.636 59.3118 203.099 59.0919C201.766 58.9026 200.424 59.2728 199.138 59.6764C197.701 60.0843 196.312 60.6451 194.996 61.3492Z" fill="#3B455A"/>
<path opacity="0.04" d="M208.72 72.2156C208.737 72.2757 208.737 72.3393 208.72 72.3994C208.5 73.0201 207.269 73.3903 206.724 73.0869C206.423 72.9199 206.264 72.5302 206.637 72.327C206.81 72.2323 207.225 72.327 207.425 72.3103C207.727 72.2758 208.023 72.197 208.302 72.0765C208.376 72.0352 208.46 72.0159 208.544 72.0208C208.589 72.0327 208.63 72.0575 208.661 72.0921C208.692 72.1267 208.713 72.1696 208.72 72.2156Z" fill="black"/>
<path opacity="0.04" d="M203.207 72.7472C203.21 72.8093 203.196 72.8711 203.165 72.9254C202.84 73.4987 201.565 73.6463 201.08 73.251C200.802 73.0339 200.724 72.6275 201.131 72.4884C201.317 72.4244 201.707 72.5969 201.91 72.6108C202.214 72.6303 202.519 72.605 202.815 72.5357C202.896 72.5121 202.982 72.5121 203.062 72.5357C203.104 72.5536 203.14 72.583 203.166 72.6205C203.191 72.6579 203.206 72.7019 203.207 72.7472Z" fill="black"/>
<path d="M206.484 128.337C217.485 128.297 226.369 119.348 226.329 108.349C226.289 97.3502 217.339 88.4666 206.338 88.5069C195.338 88.5472 186.454 97.4962 186.494 108.495C186.534 119.494 195.484 128.377 206.484 128.337Z" fill="#FF154D"/>
<path d="M192.275 94.3938C191.844 94.828 191.44 95.2789 191.062 95.7381L219.211 123.678C219.67 123.294 220.115 122.887 220.547 122.453C220.978 122.019 221.382 121.568 221.761 121.109L193.611 93.1691C193.155 93.5532 192.707 93.9596 192.275 94.3938Z" fill="#FC3A69"/>
<path opacity="0.05" d="M216.255 91.1121C217.721 94.5513 218.451 98.2591 218.398 101.997C218.344 105.735 217.509 109.421 215.946 112.817C214.383 116.213 212.126 119.244 209.321 121.716C206.516 124.188 203.224 126.045 199.658 127.168C204.35 128.852 209.503 128.716 214.1 126.786C218.696 124.857 222.402 121.275 224.486 116.747C226.571 112.219 226.881 107.075 225.357 102.329C223.834 97.5828 220.586 93.5806 216.255 91.1121Z" fill="#272525"/>
<path d="M204.346 106.323C204.35 106.163 204.401 106.007 204.494 105.876C204.587 105.745 204.716 105.645 204.867 105.589C205.279 105.461 205.702 105.65 206.103 105.836C207.675 106.579 209.165 107.481 210.868 107.743C211.793 107.885 213.438 107.715 213.63 109.079C213.695 109.408 213.705 109.746 213.66 110.078C213.599 110.343 213.496 110.595 213.354 110.827C213.251 111.011 213.132 111.325 212.942 111.384C211.887 111.662 210.081 111.15 208.931 111.194C207.099 111.267 204.814 111.751 203.21 110.638C202.989 110.499 202.805 110.308 202.676 110.081C202.448 109.622 202.584 109.059 202.723 108.558C202.74 108.456 202.783 108.36 202.848 108.28C202.902 108.232 202.966 108.197 203.035 108.177C203.625 107.971 204.338 108.255 204.869 107.966C205.021 107.888 205.136 107.753 205.188 107.59C205.24 107.428 205.226 107.252 205.148 107.1C204.986 106.877 204.663 106.866 204.477 106.666C204.39 106.573 204.343 106.45 204.346 106.323Z" fill="#E5D1BD"/>
<path d="M223.615 114.164C218.212 113.811 208.775 113.004 208.775 111.826C208.76 109.953 209.092 108.093 209.752 106.34C209.824 106.151 213.24 106.652 213.599 106.68C214.993 106.81 216.395 106.852 217.794 106.805C220.475 106.682 223.128 105.455 225.8 106.323C227.192 106.777 228.481 107.852 228.943 109.341C229.327 110.579 229.202 113.627 227.891 114.281C227.682 114.365 227.455 114.394 227.231 114.367C226.914 114.359 225.514 114.29 223.615 114.164Z" fill="#0B1A3B"/>
<path d="M32.6348 33.7379L50.2419 18.2705C55.9848 13.2242 64.6534 13.7029 69.6028 19.3365C74.5523 24.9701 73.9093 33.6265 68.1637 38.6728L50.5565 54.1402L32.6348 33.7379Z" fill="#E3E4E5"/>
<path d="M33.1381 33.2925L15.531 48.7599C9.7881 53.8062 9.14227 62.4626 14.0918 68.0962C19.0413 73.7298 27.7098 74.2197 33.4527 69.1622L51.0598 53.6949L33.1381 33.2925Z" fill="#FF154D"/>
<path opacity="0.66" d="M15.3467 59.9464C15.0071 56.5395 16.6133 53.2105 19.3859 51.1731C20.7778 50.1571 19.0853 48.1531 17.7157 49.169C15.987 50.4557 14.6209 52.1677 13.7501 54.1388C12.8794 56.1098 12.5337 58.2726 12.7467 60.4168C12.8998 62.1063 15.5137 61.6303 15.3467 59.9464Z" fill="white"/>
<path opacity="0.66" d="M14.3137 64.8841C14.6433 64.8794 14.9592 64.7513 15.1989 64.5251L15.249 64.4777C15.4833 64.2457 15.6207 63.9332 15.6332 63.6037C15.6373 63.4419 15.6089 63.281 15.5497 63.1303C15.4905 62.9797 15.4017 62.8425 15.2886 62.7267C15.1754 62.611 15.0402 62.5191 14.8909 62.4565C14.7417 62.3939 14.5814 62.3619 14.4195 62.3623C14.0899 62.367 13.774 62.4951 13.5343 62.7214L13.4842 62.7687C13.2501 63.0009 13.1128 63.3133 13.1 63.6427C13.0959 63.8045 13.1243 63.9655 13.1835 64.1161C13.2427 64.2668 13.3315 64.404 13.4446 64.5197C13.5578 64.6355 13.693 64.7273 13.8423 64.7899C13.9915 64.8525 14.1518 64.8845 14.3137 64.8841Z" fill="white"/>
<g opacity="0.18">
<path opacity="0.66" d="M31.6805 65.1124L48.7838 50.082L49.2876 49.6394L66.3909 34.6091C68.2951 32.9507 69.7106 30.8041 70.4847 28.4007C71.2588 25.9973 71.3621 23.4282 70.7837 20.9704C74.3524 26.5372 73.3419 34.1025 68.1252 38.684L51.0191 53.7171L50.5153 54.1597L33.412 69.1901C27.6663 74.2392 18.9978 73.7576 14.0483 68.1296C12.6127 66.4982 11.5987 64.5401 11.0947 62.4264C11.4596 62.9973 11.8672 63.5398 12.314 64.0491C17.2663 69.6827 25.9348 70.1587 31.6805 65.1124Z" fill="white"/>
</g>
<path d="M159.605 69.7718L130.665 25.6048C130.32 25.0774 130.083 24.4872 129.966 23.868C129.849 23.2487 129.856 22.6125 129.985 21.9957C130.114 21.379 130.364 20.7937 130.719 20.2734C131.075 19.7532 131.529 19.3081 132.057 18.9636L159.814 0.782387C160.341 0.437409 160.932 0.199746 161.551 0.0829824C162.17 -0.0337809 162.806 -0.0273548 163.423 0.101894C164.04 0.231142 164.626 0.480678 165.146 0.836238C165.666 1.1918 166.111 1.64641 166.456 2.17409L195.407 46.3272C195.752 46.8545 195.989 47.4447 196.106 48.064C196.223 48.6832 196.217 49.3194 196.087 49.9362C195.958 50.553 195.708 51.1382 195.353 51.6585C194.997 52.1788 194.543 52.6239 194.015 52.9684L166.25 71.1607C165.723 71.5062 165.132 71.7444 164.513 71.8616C163.893 71.9789 163.257 71.9728 162.639 71.8438C162.022 71.7148 161.437 71.4654 160.916 71.1098C160.395 70.7543 159.95 70.2996 159.605 69.7718Z" fill="#A3AAB0"/>
<path d="M159.049 70.1392L130.098 25.9861C129.753 25.4588 129.515 24.8686 129.398 24.2494C129.282 23.6301 129.288 22.9939 129.417 22.3771C129.547 21.7603 129.796 21.1751 130.152 20.6548C130.507 20.1345 130.962 19.6894 131.49 19.3449L159.258 1.14707C159.785 0.800829 160.375 0.561939 160.995 0.444072C161.614 0.326205 162.251 0.331675 162.868 0.460168C163.486 0.58866 164.072 0.837654 164.593 1.19289C165.114 1.54814 165.56 2.00265 165.905 2.53042L194.856 46.6835C195.201 47.2109 195.439 47.801 195.556 48.4203C195.672 49.0396 195.666 49.6758 195.537 50.2925C195.407 50.9093 195.158 51.4946 194.802 52.0148C194.447 52.5351 193.992 52.9802 193.464 53.3247L165.691 71.5309C165.163 71.8759 164.573 72.1136 163.954 72.2303C163.335 72.3471 162.698 72.3407 162.081 72.2114C161.465 72.0822 160.879 71.8326 160.359 71.4771C159.839 71.1215 159.393 70.6669 159.049 70.1392Z" fill="#D7E8F4"/>
<path opacity="0.03" d="M161.976 72.1766C162.606 72.3265 163.261 72.3466 163.9 72.2356C164.539 72.1245 165.149 71.8848 165.692 71.5309L193.465 53.3246C193.993 52.9802 194.448 52.5351 194.803 52.0148C195.159 51.4945 195.408 50.9092 195.538 50.2925C195.667 49.6757 195.673 49.0395 195.557 48.4202C195.44 47.801 195.202 47.2108 194.857 46.6834L165.906 2.53034C165.264 1.54856 164.283 0.837241 163.15 0.53186L161.976 72.1766Z" fill="#272525"/>
<path opacity="0.1" d="M148.365 31.0755C150.967 29.37 151.695 25.8779 149.989 23.2756C148.283 20.6733 144.791 19.9463 142.188 21.6518C139.585 23.3573 138.858 26.8494 140.564 29.4517C142.27 32.054 145.762 32.781 148.365 31.0755Z" fill="#272525"/>
<path d="M147.356 30.8635C149.959 29.1581 150.686 25.6659 148.98 23.0636C147.274 20.4614 143.782 19.7344 141.179 21.4398C138.577 23.1453 137.85 26.6375 139.555 29.2397C141.261 31.842 144.753 32.569 147.356 30.8635Z" fill="#FF154D"/>
<path d="M138.75 25.0091C138.713 25.1789 138.688 25.3459 138.669 25.5157L149.654 27.8037C149.704 27.6422 149.745 27.4752 149.782 27.3082C149.818 27.1412 149.843 26.9714 149.862 26.8017L138.878 24.5137C138.828 24.6751 138.786 24.8394 138.75 25.0091Z" fill="#E1473D"/>
<path opacity="0.1" d="M164.413 20.5561C167.015 18.8507 167.742 15.3585 166.037 12.7562C164.331 10.154 160.838 9.42697 158.236 11.1324C155.633 12.8379 154.906 16.3301 156.612 18.9323C158.318 21.5346 161.81 22.2616 164.413 20.5561Z" fill="#272525"/>
<path opacity="0.1" d="M158.739 46.9093C161.341 45.2038 162.069 41.7117 160.363 39.1094C158.657 36.5071 155.165 35.7801 152.562 37.4856C149.959 39.1911 149.232 42.6832 150.938 45.2855C152.644 47.8878 156.136 48.6148 158.739 46.9093Z" fill="#272525"/>
<path opacity="0.1" d="M174.791 36.39C177.393 34.6846 178.12 31.1924 176.415 28.5901C174.709 25.9879 171.216 25.2609 168.614 26.9663C166.011 28.6718 165.284 32.1639 166.99 34.7662C168.695 37.3685 172.188 38.0955 174.791 36.39Z" fill="#272525"/>
<path opacity="0.1" d="M168.721 62.1366C171.324 60.4311 172.051 56.939 170.345 54.3367C168.64 51.7344 165.147 51.0074 162.544 52.7129C159.942 54.4184 159.215 57.9105 160.92 60.5128C162.626 63.1151 166.119 63.8421 168.721 62.1366Z" fill="#272525"/>
<path opacity="0.1" d="M184.771 51.6185C187.374 49.913 188.101 46.4209 186.395 43.8186C184.689 41.2163 181.197 40.4893 178.594 42.1948C175.992 43.9003 175.265 47.3924 176.97 49.9947C178.676 52.597 182.169 53.324 184.771 51.6185Z" fill="#272525"/>
<path d="M163.403 20.3443C166.006 18.6388 166.733 15.1466 165.027 12.5444C163.321 9.94208 159.829 9.21508 157.226 10.9206C154.623 12.626 153.896 16.1182 155.602 18.7205C157.308 21.3227 160.8 22.0497 163.403 20.3443Z" fill="#FF154D"/>
<path d="M154.799 14.4906C154.763 14.6604 154.738 14.8274 154.719 14.9972L165.703 17.2852C165.753 17.1237 165.795 16.9567 165.831 16.7897C165.868 16.6227 165.893 16.4529 165.912 16.2831L154.928 13.9952C154.88 14.1566 154.836 14.3208 154.799 14.4906Z" fill="#E1473D"/>
<path d="M157.733 46.6997C160.336 44.9942 161.063 41.5021 159.357 38.8998C157.651 36.2976 154.159 35.5706 151.556 37.276C148.954 38.9815 148.226 42.4736 149.932 45.0759C151.638 47.6782 155.13 48.4052 157.733 46.6997Z" fill="#FF154D"/>
<path d="M149.131 40.8439C149.094 41.0137 149.069 41.1807 149.05 41.3505L160.034 43.6384C160.085 43.477 160.126 43.31 160.162 43.143C160.199 42.976 160.224 42.8062 160.243 42.6364L149.259 40.3568C149.203 40.5099 149.164 40.6741 149.131 40.8439Z" fill="#E1473D"/>
<path d="M173.784 36.1833C176.386 34.4778 177.113 30.9857 175.408 28.3834C173.702 25.7811 170.21 25.0541 167.607 26.7596C165.004 28.4651 164.277 31.9572 165.983 34.5595C167.689 37.1618 171.181 37.8887 173.784 36.1833Z" fill="#FF154D"/>
<path d="M165.182 30.3366C165.146 30.5064 165.121 30.6734 165.102 30.8432L176.086 33.12C176.136 32.9585 176.178 32.7915 176.214 32.6245C176.25 32.4575 176.276 32.2878 176.295 32.118L165.31 29.83C165.26 29.9915 165.216 30.1585 165.182 30.3366Z" fill="#E1473D"/>
<path d="M167.712 61.9298C170.315 60.2243 171.042 56.7322 169.336 54.1299C167.631 51.5276 164.138 50.8006 161.536 52.5061C158.933 54.2116 158.206 57.7037 159.912 60.306C161.617 62.9083 165.11 63.6353 167.712 61.9298Z" fill="#FF154D"/>
<path d="M159.11 56.0719C159.074 56.2417 159.049 56.4087 159.029 56.5785L170.014 58.8665C170.064 58.705 170.106 58.538 170.142 58.371C170.178 58.204 170.203 58.0342 170.223 57.8644L159.224 55.5765C159.188 55.7379 159.146 55.9021 159.11 56.0719Z" fill="#E1473D"/>
<path d="M184.519 51.2636C187.133 49.5523 187.865 46.0464 186.153 43.4329C184.442 40.8193 180.936 40.0879 178.322 41.7991C175.708 43.5104 174.976 47.0163 176.688 49.6298C178.399 52.2434 181.906 52.9748 184.519 51.2636Z" fill="#FF154D"/>
<path d="M175.162 45.5534C175.126 45.7232 175.101 45.8902 175.081 46.06L186.066 48.3479C186.116 48.1865 186.158 48.0195 186.194 47.8525C186.23 47.6855 186.255 47.5157 186.274 47.3459L175.29 45.058C175.24 45.2194 175.198 45.3836 175.162 45.5534Z" fill="#E1473D"/>
<path opacity="0.3" d="M149.032 25.0091C148.831 24.226 148.448 23.5015 147.913 22.8947C147.379 22.288 146.709 21.8161 145.957 21.5176C145.206 21.2191 144.394 21.1024 143.589 21.1771C142.784 21.2518 142.008 21.5157 141.324 21.9474C142.768 21.6176 144.278 21.7338 145.654 22.2805C147.031 22.8272 148.209 23.7786 149.032 25.0091Z" fill="white"/>
<path opacity="0.3" d="M165.215 14.4071C165.014 13.624 164.631 12.8995 164.096 12.2928C163.562 11.686 162.891 11.2141 162.14 10.9156C161.388 10.6171 160.577 10.5004 159.772 10.5751C158.967 10.6498 158.191 10.9138 157.507 11.3454C158.951 11.0156 160.46 11.1318 161.837 11.6785C163.213 12.2252 164.391 13.1767 165.215 14.4071Z" fill="white"/>
<path opacity="0.3" d="M159.536 41.0332C159.335 40.2501 158.952 39.5256 158.417 38.9188C157.883 38.312 157.213 37.8401 156.461 37.5416C155.71 37.2431 154.898 37.1265 154.093 37.2012C153.288 37.2759 152.512 37.5398 151.828 37.9714C153.272 37.6417 154.782 37.7578 156.158 38.3045C157.534 38.8512 158.712 39.8027 159.536 41.0332Z" fill="white"/>
<path opacity="0.3" d="M175.715 30.4312C175.514 29.648 175.13 28.9235 174.596 28.3168C174.062 27.71 173.391 27.2381 172.64 26.9396C171.888 26.6411 171.077 26.5245 170.272 26.5991C169.467 26.6738 168.691 26.9378 168.007 27.3694C169.451 27.0397 170.96 27.1558 172.337 27.7025C173.713 28.2492 174.891 29.2007 175.715 30.4312Z" fill="white"/>
<path opacity="0.3" d="M169.524 56.2611C169.322 55.478 168.939 54.7535 168.405 54.1468C167.87 53.54 167.2 53.0681 166.448 52.7696C165.697 52.4711 164.886 52.3544 164.08 52.4291C163.275 52.5038 162.499 52.7678 161.815 53.1994C163.259 52.8696 164.769 52.9858 166.145 53.5325C167.522 54.0792 168.7 55.0307 169.524 56.2611Z" fill="white"/>
<path opacity="0.3" d="M185.696 45.6453C185.495 44.8622 185.112 44.1377 184.578 43.5309C184.043 42.9241 183.373 42.4523 182.621 42.1538C181.87 41.8553 181.058 41.7386 180.253 41.8133C179.448 41.888 178.672 42.1519 177.988 42.5836C179.432 42.2538 180.942 42.37 182.318 42.9166C183.695 43.4633 184.873 44.4148 185.696 45.6453Z" fill="white"/>
</svg>
