<svg width="310" height="335" viewBox="0 0 310 335" fill="none" xmlns="http://www.w3.org/2000/svg">
<g filter="url(#filter0_d)">
<path d="M241.36 119.552C241.486 119.552 241.549 120.075 241.504 120.697C241.459 121.319 241.306 121.815 241.18 121.806C241.054 121.797 240.982 121.283 241.036 120.661C241.09 120.039 241.234 119.543 241.36 119.552Z" fill="#263238"/>
<path d="M241.585 110.387C241.818 111.129 241.898 111.911 241.819 112.685C241.889 113.457 241.806 114.234 241.576 114.974C241.348 114.234 241.271 113.455 241.35 112.685C241.278 111.911 241.358 111.13 241.585 110.387Z" fill="#263238"/>
<path d="M240.964 101.266C241.409 102.745 241.553 104.299 241.387 105.836C241.084 105.121 240.933 104.35 240.946 103.573C240.801 102.81 240.807 102.027 240.964 101.266Z" fill="#263238"/>
<path d="M239.439 92.1992C239.805 92.8839 240.031 93.6344 240.105 94.4073C240.327 95.1518 240.398 95.9333 240.312 96.7055C239.948 96.0201 239.722 95.27 239.646 94.4974C239.418 93.754 239.348 92.9714 239.439 92.1992Z" fill="#263238"/>
<path d="M236.945 83.376C237.706 84.7215 238.181 86.2095 238.341 87.7471C237.902 87.1086 237.596 86.3883 237.441 85.6291C237.124 84.9195 236.956 84.1529 236.945 83.376Z" fill="#263238"/>
<path d="M233.443 74.9131C233.959 75.4916 234.351 76.1694 234.596 76.9049C234.981 77.5796 235.229 78.3239 235.325 79.0949C234.815 78.5128 234.423 77.8361 234.173 77.1032C233.785 76.4295 233.537 75.6847 233.443 74.9131Z" fill="#263238"/>
<path d="M228.896 66.9551C229.005 66.883 229.653 67.6942 230.337 68.7577C230.795 69.3878 231.125 70.101 231.31 70.8576C231.193 70.9207 230.58 70.0915 229.932 69.001C229.454 68.3947 229.102 67.6992 228.896 66.9551Z" fill="#263238"/>
<path d="M223.287 59.7181C223.386 59.6279 224.124 60.3489 224.935 61.3223C225.486 61.8714 225.923 62.5237 226.222 63.242C226.114 63.3141 225.385 62.5931 224.575 61.6287C224.023 61.0836 223.585 60.4341 223.287 59.7181Z" fill="#263238"/>
<path d="M216.732 53.3372C216.813 53.238 217.632 53.8509 218.587 54.6981C219.541 55.5453 220.216 56.3203 220.126 56.4105C219.424 56.0839 218.794 55.6213 218.271 55.0496C217.317 54.2024 216.624 53.4363 216.732 53.3372Z" fill="#263238"/>
<path d="M209.284 47.9834C210.028 48.199 210.72 48.5639 211.319 49.0559C212.372 49.7589 213.174 50.4168 213.12 50.5249C212.377 50.3003 211.686 49.933 211.085 49.4434C210.013 48.7495 209.212 48.0915 209.284 47.9834Z" fill="#263238"/>
<path d="M201.129 43.8198C201.898 43.9186 202.64 44.1731 203.308 44.5679C204.04 44.8218 204.713 45.2202 205.289 45.7395C204.519 45.6407 203.778 45.3862 203.11 44.9915C202.379 44.7347 201.706 44.3366 201.129 43.8198Z" fill="#263238"/>
<path d="M192.422 41.053C193.198 41.0257 193.972 41.1513 194.7 41.4225C195.466 41.5509 196.198 41.833 196.852 42.2516C196.076 42.2752 195.303 42.1498 194.574 41.8821C193.809 41.749 193.078 41.4673 192.422 41.053Z" fill="#263238"/>
<path d="M183.316 39.8904C184.845 39.6331 186.414 39.7601 187.881 40.2599C186.35 40.3837 184.808 40.2589 183.316 39.8904Z" fill="#263238"/>
<path d="M174.186 40.5212C175.651 40.0305 177.202 39.8464 178.742 39.9804C178.033 40.3003 177.267 40.472 176.491 40.4851C175.732 40.6463 174.949 40.6585 174.186 40.5212Z" fill="#263238"/>
<path d="M165.346 42.8826C165.982 42.4412 166.702 42.1345 167.462 41.9814C168.172 41.6717 168.938 41.5122 169.713 41.5127C169.074 41.9496 168.354 42.2559 167.597 42.414C166.884 42.7145 166.119 42.8736 165.346 42.8826Z" fill="#263238"/>
<path d="M157.097 46.8568C157.034 46.7396 157.88 46.1628 159.006 45.559C159.645 45.1164 160.368 44.8097 161.131 44.6577C159.946 45.6498 158.574 46.3944 157.097 46.8478V46.8568Z" fill="#263238"/>
<path d="M149.785 52.3546C149.695 52.2645 150.415 51.5255 151.388 50.7053C151.936 50.1539 152.588 49.716 153.306 49.4165C153.378 49.5247 152.657 50.2637 151.694 51.0658C151.153 51.6219 150.503 52.0606 149.785 52.3546Z" fill="#263238"/>
<path d="M143.799 59.2766C144.03 58.5303 144.427 57.8462 144.96 57.2758C145.744 56.2664 146.509 55.5634 146.599 55.6445C146.689 55.7257 146.104 56.5458 145.33 57.5642C144.555 58.5826 143.907 59.3487 143.799 59.2766Z" fill="#263238"/>
<path d="M140.459 65.2156C140.342 65.1615 140.459 64.6658 140.738 64.098C141.017 63.5302 141.324 63.1247 141.441 63.1968C141.558 63.2689 141.441 63.7556 141.161 64.3143C140.882 64.8731 140.576 65.2787 140.459 65.2156Z" fill="#263238"/>
<path d="M83.2461 118.39C83.2461 118.264 83.7233 118.102 84.3356 118.02C84.9479 117.939 85.4611 118.02 85.4791 118.12C85.4971 118.219 85.0199 118.417 84.3896 118.489C83.7593 118.561 83.2551 118.543 83.2461 118.39Z" fill="#263238"/>
<path d="M74.332 117.398C75.0894 117.39 75.8432 117.503 76.5651 117.732C77.3189 117.81 78.0549 118.011 78.7441 118.327C77.2166 118.472 75.6805 118.158 74.332 117.425V117.398Z" fill="#263238"/>
<path d="M66.2644 113.406C66.9894 113.633 67.6712 113.981 68.2813 114.434C69.3438 115.065 70.1992 115.596 70.1452 115.722C69.386 115.587 68.6682 115.279 68.0472 114.821C66.9667 114.19 66.1924 113.514 66.2644 113.406Z" fill="#263238"/>
<path d="M59.5647 107.385C59.6638 107.304 60.4021 107.989 61.2755 108.873C62.1489 109.756 62.8242 110.504 62.7432 110.603C62.6622 110.702 61.8428 110.098 60.9424 109.206C60.042 108.314 59.4657 107.476 59.5647 107.385Z" fill="#263238"/>
<path d="M54.2705 100.085C54.3876 100.022 55.0269 100.806 55.7022 101.888C56.1792 102.482 56.5342 103.165 56.7466 103.897C56.6386 103.979 55.9993 103.185 55.315 102.14C54.8274 101.535 54.4717 100.835 54.2705 100.085Z" fill="#263238"/>
<path d="M50.3809 91.9468C50.8769 92.5268 51.2505 93.2012 51.4794 93.9295C51.8409 94.6038 52.0702 95.3411 52.1547 96.1016C51.654 95.5234 51.277 94.8486 51.0472 94.1188C50.6832 93.4463 50.4567 92.7079 50.3809 91.9468Z" fill="#263238"/>
<path d="M47.7968 83.2949C48.2031 83.9433 48.4756 84.6665 48.5981 85.4219C48.8644 86.1386 48.9808 86.9024 48.9403 87.666C48.5276 87.0209 48.2546 86.2963 48.1389 85.5391C47.8731 84.8222 47.7567 84.0585 47.7968 83.2949Z" fill="#263238"/>
<path d="M46.2294 74.3994C46.5591 75.0887 46.7518 75.8356 46.7966 76.5985C46.9855 77.3405 47.0223 78.1131 46.9047 78.8697C46.5669 78.1833 46.3738 77.4348 46.3374 76.6706C46.1431 75.9294 46.1063 75.1557 46.2294 74.3994Z" fill="#263238"/>
<path d="M45.3658 65.4141C45.7984 66.8746 45.9211 68.4096 45.7259 69.9204C45.4375 69.2144 45.2966 68.4568 45.3117 67.6942C45.1703 66.9388 45.1887 66.162 45.3658 65.4141Z" fill="#263238"/>
<path d="M44.9861 58.6455C45.1211 58.6455 45.2472 59.1412 45.2742 59.7631C45.3012 60.3849 45.2202 60.8897 45.0941 60.8987C44.9681 60.9077 44.833 60.403 44.806 59.7811C44.779 59.1592 44.86 58.6545 44.9861 58.6455Z" fill="#263238"/>
<path d="M78.8945 4.00021L4.02734 7.53418L6.40726 58.0477L81.2745 54.5137L78.8945 4.00021Z" fill="white"/>
<path d="M6.37709 58.069L4 7.53538L78.8964 4.00244L81.2735 54.5361L6.37709 58.069ZM4.04502 7.53538L6.42211 58.0059L81.2464 54.473L78.8693 4.00244L4.04502 7.53538Z" fill="#263238"/>
<path d="M79.1565 4.59668C78.9579 4.8523 78.7347 5.08776 78.4902 5.29966L76.4912 7.22836L69.0628 14.2311L44.2655 37.1862L44.0584 37.3755L43.8333 37.2133L43.293 36.8167L15.6233 16.6465C12.1477 14.0689 9.32042 11.969 7.28549 10.4729L5.04346 8.7605C4.77096 8.57597 4.51758 8.36463 4.28711 8.12962C4.57972 8.28123 4.85974 8.45603 5.12449 8.65235L7.44756 10.2386L15.9114 16.241L43.6892 36.2489L44.2384 36.6455H43.8062L68.7297 13.8436L76.3112 7.00305L78.4001 5.20053C78.6305 4.97335 78.884 4.77096 79.1565 4.59668Z" fill="#263238"/>
<path d="M6.66595 58.6455C6.52189 58.5284 11.8253 51.3363 18.5154 42.5851C25.2055 33.8339 30.752 26.8311 30.8961 26.9392C31.0401 27.0474 25.7457 34.2484 19.0556 42.9997C12.3656 51.7509 6.81902 58.7537 6.66595 58.6455Z" fill="#263238"/>
<path d="M55.7556 25.1365C55.8997 25.0104 61.7884 31.6256 68.9017 39.8992C76.0149 48.1727 81.6785 54.9862 81.5075 55.1124C81.3364 55.2386 75.4837 48.6234 68.3614 40.3408C61.2392 32.0582 55.6116 25.2627 55.7556 25.1365Z" fill="#263238"/>
</g>
<g clip-path="url(#clip0)">
<path d="M200.424 10.0166C200.424 10.0166 200.424 -7.7494 232.903 4.04082C261.013 14.2542 252.614 35.5859 263.287 70.0159C276.49 112.599 244.743 127.22 229.632 123.314L198.968 121.997L190.748 81.6001L200.424 10.0166Z" fill="black"/>
<path d="M206.294 13.833C206.294 13.833 200.331 2.89389 190.799 7.93788C181.072 13.0983 178.976 23.8224 180.578 39.9668C182.537 60.1159 151.089 94.6623 193.414 120.859L219.965 121.997L206.294 13.833Z" fill="black"/>
<path d="M222.725 130.194C222.725 130.194 211.004 157.421 128.669 200.972L106.114 174.703L186.728 117.123L222.725 130.194Z" fill="white"/>
<path d="M105.952 167.984L92.715 103.801L105.109 102.681L122.145 152.986C116.926 158.23 111.528 163.229 105.952 167.984Z" fill="#AF6F3B"/>
<path d="M106.421 100.862L106.293 97.4575C106.125 92.8951 104.937 88.4386 102.826 84.4489L99.1123 77.4159C98.9042 77.0246 98.6175 76.6858 98.2721 76.423C97.9267 76.1603 97.5309 75.98 97.1124 75.8947C96.6939 75.8094 96.2628 75.8211 95.8491 75.9292C95.4354 76.0372 95.049 76.2388 94.717 76.52C94.1316 77.0117 93.6989 77.6758 93.4744 78.4275C93.2498 79.1792 93.2435 79.9843 93.4564 80.7398L95.7903 88.9195L75.4835 68.6987C75.2555 68.4574 74.981 68.2703 74.6784 68.1498C74.3759 68.0294 74.0524 67.9786 73.7296 68.0006C73.4068 68.0227 73.0923 68.1172 72.8071 68.2778C72.5219 68.4384 72.2727 68.6613 72.0763 68.9316L71.5141 69.6932C71.1923 70.13 71.0248 70.6709 71.0404 71.2233C71.0559 71.7757 71.2535 72.3053 71.5993 72.7213L84.7596 86.832L67.4681 72.8199C67.2246 72.5931 66.9379 72.4237 66.6271 72.3229C66.3163 72.2222 65.9886 72.1925 65.666 72.2357C65.3434 72.279 65.0333 72.3942 64.7565 72.5738C64.4797 72.7533 64.2425 72.993 64.0609 73.2768L63.6861 73.8681C63.3741 74.3511 63.2408 74.9376 63.3114 75.5168C63.382 76.0961 63.6516 76.6282 64.0695 77.0128L78.6948 90.2992L65.5345 82.7735C65.2403 82.5945 64.9116 82.4873 64.5727 82.4595C64.2338 82.4318 63.8932 82.4843 63.5762 82.6133C63.2591 82.7422 62.9736 82.9442 62.7405 83.2045C62.5075 83.4648 62.3329 83.7767 62.2296 84.1174L62.1359 84.4041C61.9872 84.8891 61.9896 85.4114 62.1428 85.8948C62.296 86.3783 62.592 86.7977 62.9877 87.0918L76.182 95.9434L68.3966 93.0407C68.0565 92.852 67.6765 92.7574 67.2921 92.7658C66.9077 92.7742 66.5317 92.8853 66.1995 93.0888C65.8672 93.2922 65.5896 93.5812 65.3928 93.9285C65.196 94.2759 65.0865 94.6702 65.0746 95.0744C65.06 95.4864 65.1473 95.8953 65.328 96.2612C65.5086 96.6271 65.7765 96.9374 66.1053 97.1619L99.6063 119.004L104.053 110.851C105.717 107.821 106.538 104.359 106.421 100.862Z" fill="#AF6F3B"/>
<path d="M95.7559 88.9106C95.7559 88.9106 92.3487 94.4922 95.117 102.251" stroke="black" stroke-width="0.99" stroke-linecap="round" stroke-linejoin="round"/>
<path d="M134.53 175.868L115.484 116.469L91.037 126.261L102.485 190.032C103.092 192.575 104.212 194.95 105.769 196.997C107.326 199.044 109.284 200.715 111.509 201.895C113.735 203.076 116.176 203.739 118.666 203.839C121.157 203.939 123.639 203.475 125.944 202.476C134.76 198.669 139.002 188.088 134.53 175.868Z" fill="white"/>
<path d="M129.122 158.29L133.518 172.508" stroke="#CFDBF7" stroke-width="1.41" stroke-linecap="round" stroke-linejoin="round"/>
<path d="M234.727 110.592C234.727 110.592 254.787 118.449 261.397 123.914C268.007 129.379 269.378 141.429 264.097 158.111C258.816 174.793 240.323 231.809 240.323 231.809L264.003 334.373H152.256L167.367 233.278L165.774 203.534C165.774 203.534 155.331 172.912 165.34 148.382C179.19 114.426 203.96 106.856 203.96 106.856L234.727 110.592Z" fill="white"/>
<path d="M203.96 106.856C203.96 106.856 195.34 125.151 189.224 161.847C189.224 161.847 216.941 137.559 234.727 110.592L222.001 106.856H203.96Z" fill="#AF6F3B"/>
<path d="M241.959 132.407C241.959 132.407 196.524 120.698 174.079 126.512L171.967 171.308L202.674 179.765L226.184 140.291" fill="#90B2F9"/>
<path d="M189.225 161.847L179.037 188.357L176.431 334.373" stroke="#CFDBF7" stroke-width="1.41" stroke-linecap="round" stroke-linejoin="round"/>
<path d="M235.102 111.604L244.838 131.252L228.867 134.351L231.499 147.387L179.037 188.357L177.333 138.768L186.805 130.66L183.236 124.156L196.643 110.717" stroke="#CFDBF7" stroke-width="1.41" stroke-linecap="round" stroke-linejoin="round"/>
<path d="M161.012 182.614C161.012 182.614 160.552 157.439 169.266 141.456" stroke="#CFDBF7" stroke-width="1.41" stroke-linecap="round" stroke-linejoin="round"/>
<path d="M236.9 162.232L237.701 156.203C237.936 154.409 237.485 152.59 236.447 151.146C235.409 149.701 233.869 148.749 232.164 148.498V148.498C230.585 148.269 228.981 148.658 227.658 149.591C226.334 150.524 225.382 151.937 224.983 153.56L223.97 160.369" stroke="black" stroke-width="1.57" stroke-miterlimit="10"/>
<path d="M232.163 148.498C232.163 148.498 243.501 110.269 230.579 108.406" stroke="black" stroke-width="1.57" stroke-miterlimit="10"/>
<path d="M223.968 160.369C223.968 160.369 216.591 207.091 238.764 190.901" stroke="#CFDBF7" stroke-width="1.41" stroke-miterlimit="10"/>
<path d="M240.724 190.776C240.671 191.171 240.509 191.54 240.257 191.838C240.005 192.136 239.674 192.348 239.308 192.448C238.941 192.549 238.554 192.532 238.196 192.401C237.838 192.27 237.525 192.031 237.297 191.713C237.068 191.395 236.934 191.013 236.912 190.615C236.89 190.217 236.981 189.821 237.173 189.477C237.364 189.134 237.649 188.857 237.99 188.683C238.331 188.509 238.713 188.446 239.088 188.5C239.338 188.537 239.578 188.624 239.795 188.759C240.013 188.893 240.203 189.07 240.355 189.282C240.506 189.493 240.617 189.734 240.681 189.99C240.744 190.247 240.759 190.514 240.724 190.776Z" fill="black"/>
<path d="M236.883 162.232C236.883 162.232 231.874 209.304 214.736 187.372" stroke="#CFDBF7" stroke-width="1.41" stroke-miterlimit="10"/>
<path d="M212.896 186.709C212.844 187.104 212.905 187.506 213.07 187.864C213.235 188.223 213.498 188.522 213.825 188.724C214.152 188.925 214.528 189.021 214.906 188.997C215.285 188.974 215.648 188.833 215.95 188.593C216.252 188.353 216.48 188.024 216.605 187.647C216.729 187.271 216.745 186.864 216.649 186.478C216.554 186.092 216.352 185.745 216.069 185.48C215.786 185.215 215.435 185.044 215.06 184.989C214.81 184.952 214.556 184.967 214.312 185.034C214.069 185.101 213.84 185.217 213.639 185.377C213.438 185.537 213.269 185.737 213.141 185.965C213.014 186.194 212.93 186.446 212.896 186.709Z" fill="black"/>
<path d="M182.171 147.826C182.171 147.826 189.343 107.689 204.471 106.175" stroke="black" stroke-width="1.57" stroke-miterlimit="10"/>
<path d="M186.549 154.59C186.2 158.398 183.679 161.256 180.919 160.978C178.159 160.7 176.226 157.395 176.575 153.56C176.924 149.726 179.454 146.894 182.205 147.181C184.957 147.468 186.907 150.783 186.549 154.59Z" fill="black"/>
<path d="M183.295 154.25C183.065 156.704 181.711 158.568 180.271 158.416C178.832 158.263 177.852 156.167 178.082 153.721C178.312 151.275 179.658 149.403 181.097 149.555C182.537 149.707 183.516 151.804 183.295 154.25Z" fill="#CFDBF7"/>
<path d="M258.977 122.167C258.977 122.167 288.807 132.318 309.77 240.481L278.032 252.334L244.863 161.148L258.977 122.167Z" fill="white"/>
<path d="M255.801 193.401L248.126 171.03" stroke="#CFDBF7" stroke-width="1.41" stroke-linecap="round" stroke-linejoin="round"/>
<path d="M260.953 228.234L203.542 228.503L199.522 242.811L256.609 251.098L260.953 228.234Z" fill="#AF6F3B"/>
<path d="M289.557 221.291L227.615 224.624L229.932 255.542L292.249 260.227C303.604 260.227 311.449 252.29 309.762 240.517C308.254 229.856 299.685 219.75 289.557 221.291Z" fill="white"/>
<path d="M284.275 221.586L227.623 224.588L227.895 228.234" stroke="#CFDBF7" stroke-width="1.41" stroke-linecap="round" stroke-linejoin="round"/>
<path d="M229.369 247.899L229.94 255.542L251.115 257.844" stroke="#CFDBF7" stroke-width="1.41" stroke-linecap="round" stroke-linejoin="round"/>
<path d="M181.805 184.72L204.438 269.195C204.632 269.923 204.664 270.689 204.53 271.432C204.397 272.175 204.101 272.876 203.667 273.479C203.233 274.082 202.673 274.571 202.029 274.908C201.385 275.245 200.676 275.421 199.957 275.422H147.308C146.311 275.421 145.342 275.085 144.54 274.462C143.739 273.84 143.147 272.965 142.853 271.964L118.347 187.488C118.134 186.755 118.087 185.98 118.21 185.225C118.333 184.47 118.623 183.756 119.056 183.14C119.49 182.524 120.054 182.024 120.704 181.679C121.355 181.334 122.073 181.154 122.802 181.154H177.316C178.332 181.152 179.32 181.5 180.13 182.144C180.941 182.787 181.529 183.692 181.805 184.72Z" fill="black"/>
<path d="M156.029 178.439C156.029 178.439 152.281 172.804 143.525 173.503C133.78 174.273 135.365 183.358 135.365 183.358L156.029 178.439Z" fill="black"/>
<path d="M173.074 181.414L191.949 251.86C192.113 252.467 192.14 253.106 192.029 253.727C191.917 254.348 191.671 254.933 191.309 255.436C190.946 255.94 190.478 256.348 189.94 256.629C189.403 256.91 188.81 257.056 188.21 257.056H144.343C143.512 257.055 142.703 256.774 142.035 256.255C141.367 255.736 140.874 255.006 140.629 254.171L120.135 183.716C119.956 183.106 119.916 182.459 120.018 181.83C120.12 181.2 120.362 180.604 120.723 180.091C121.085 179.577 121.556 179.16 122.099 178.873C122.642 178.586 123.241 178.438 123.848 178.439H169.334C170.18 178.441 171.003 178.731 171.677 179.268C172.352 179.805 172.842 180.558 173.074 181.414Z" fill="black"/>
<path d="M178.823 184.72L201.455 269.195C201.65 269.924 201.681 270.689 201.548 271.432C201.414 272.175 201.119 272.876 200.685 273.479C200.251 274.082 199.69 274.571 199.046 274.908C198.403 275.245 197.694 275.421 196.975 275.422H144.368C143.372 275.421 142.402 275.085 141.6 274.463C140.799 273.84 140.207 272.965 139.913 271.964L115.33 187.488C115.117 186.755 115.07 185.98 115.194 185.225C115.317 184.47 115.607 183.756 116.04 183.14C116.473 182.524 117.038 182.024 117.688 181.679C118.338 181.334 119.057 181.154 119.785 181.154H174.3C175.321 181.145 176.317 181.489 177.134 182.133C177.951 182.777 178.545 183.686 178.823 184.72Z" fill="#EAB65B"/>
<path d="M209.072 231.047C209.072 231.047 206.985 222.133 189.48 213.201L192.036 223.101C192.036 223.101 183.654 221.784 172.087 216.041C171.534 215.766 170.901 215.734 170.326 215.951C169.751 216.167 169.281 216.615 169.02 217.196C168.759 217.777 168.728 218.444 168.935 219.048C169.141 219.653 169.567 220.147 170.119 220.422L174.174 222.518L167.359 220.726C166.824 220.588 166.258 220.665 165.774 220.942C165.289 221.219 164.921 221.676 164.74 222.224C164.558 222.772 164.578 223.371 164.795 223.904C165.012 224.437 165.41 224.866 165.911 225.107C168.327 226.194 170.798 227.139 173.313 227.938C173.313 227.938 170.068 227.535 166.737 226.908C166.173 226.789 165.586 226.912 165.107 227.248C164.628 227.584 164.295 228.106 164.182 228.7C164.093 229.199 164.168 229.715 164.394 230.164C164.62 230.613 164.983 230.969 165.426 231.173C168.406 232.521 171.457 233.688 174.565 234.667C171.499 234.479 168.1 233.843 167.623 235.043C167.146 236.244 167.231 237.417 175.869 239.997C184.506 242.578 196.158 246.708 203.722 244.746L213.254 240.598V229.497L209.072 231.047Z" fill="#AF6F3B"/>
<path d="M180.109 52.6172C179.079 57.267 182.154 62.3737 186.975 64.0312C191.796 65.6886 196.532 63.2517 197.563 58.6019C198.593 53.9521 195.518 48.8454 190.697 47.188C185.876 45.5305 181.14 47.9674 180.109 52.6172Z" fill="#965726"/>
<path d="M185.408 38.372C185.152 57.231 197.444 72.6765 216.745 72.9722C236.047 73.2678 251.907 58.2344 252.163 39.3485C252.418 20.4627 236.967 4.97234 217.665 4.68565C198.364 4.39896 185.638 19.522 185.408 38.372Z" fill="black"/>
<path d="M222.725 66.4414L227.623 111.882L204.173 114.749L206.192 71.7811L222.725 66.4414Z" fill="#AF6F3B"/>
<path d="M204.751 101.713L225.016 75.857L206.097 75.1582L204.751 101.713Z" fill="#965726"/>
<path d="M221.736 14.8902C216.072 13.1415 210.101 12.7799 204.283 13.8331C196.472 15.3472 186.395 20.1045 185.058 34.5735C182.775 58.6646 186.574 76.7889 198.261 82.478C207.239 86.859 212.741 85.3718 223.15 79.4408C227.026 77.2369 233.449 69.102 233.585 64.2909L237.554 52.4201C237.554 52.4201 248.789 22.9624 221.736 14.8902Z" fill="#AF6F3B"/>
<path d="M198.944 61.5765L196.133 59.1754L199.387 54.436" stroke="black" stroke-width="0.81" stroke-linecap="round" stroke-linejoin="round"/>
<path d="M206.005 50.5297C206.005 50.5297 209.685 40.9255 221.977 48.3079C221.977 48.3079 215.673 56.9982 206.005 50.5297Z" fill="white"/>
<path d="M208.985 48.2901C208.897 49.1836 209.061 50.0845 209.457 50.8804C209.853 51.6762 210.464 52.3316 211.212 52.7647C211.96 53.1977 212.813 53.3892 213.664 53.3151C214.516 53.241 215.327 52.9047 215.997 52.3482C216.668 51.7917 217.167 51.0397 217.434 50.1862C217.7 49.3328 217.721 48.4156 217.495 47.5495C217.268 46.6834 216.804 45.9068 216.16 45.3166C215.516 44.7265 214.721 44.3491 213.875 44.2316C212.715 44.0901 211.549 44.4378 210.633 45.1985C209.716 45.9592 209.124 47.0709 208.985 48.2901Z" fill="black"/>
<path d="M222.154 48.0841C219.7 45.9549 216.604 44.8174 213.423 44.8768C211.811 44.8154 210.209 45.1788 208.764 45.934C208.013 46.35 207.354 46.9282 206.83 47.6307C206.306 48.3331 205.928 49.1441 205.723 50.0104C205.699 50.1581 205.729 50.31 205.807 50.4353C205.885 50.5606 206.006 50.6499 206.145 50.6852C206.283 50.7205 206.429 50.6991 206.553 50.6254C206.678 50.5517 206.77 50.4311 206.813 50.2881V50.1716C206.976 49.465 207.274 48.8005 207.688 48.2184C208.103 47.6363 208.625 47.1487 209.224 46.7851C210.518 46.0486 211.969 45.6724 213.44 45.6921C216.455 45.5512 219.419 46.549 221.796 48.5052C221.852 48.5551 221.924 48.5799 221.996 48.574C222.069 48.5681 222.136 48.5321 222.184 48.4739C222.231 48.4157 222.255 48.34 222.249 48.2636C222.244 48.1871 222.209 48.1161 222.154 48.0662V48.0841Z" fill="black"/>
<path d="M195.561 50.3146C195.561 50.3146 192 40.4595 185.118 47.1341C185.118 47.1341 188.959 56.4874 195.561 50.3146Z" fill="white"/>
<path d="M192.971 47.887C193.295 50.1268 192.187 52.1605 190.492 52.4293C188.797 52.698 187.179 51.1033 186.855 48.8456C186.532 46.5879 187.639 44.5721 189.325 44.3033C191.012 44.0346 192.647 45.6382 192.971 47.887Z" fill="black"/>
<path d="M185.306 47.2685C185.782 46.4936 186.473 45.892 187.285 45.5456C188.098 45.1993 188.992 45.1251 189.847 45.3333H189.898C191.042 45.606 192.102 46.1809 192.977 47.0039C193.852 47.8269 194.513 48.8707 194.898 50.0369C194.919 50.0986 194.953 50.1551 194.995 50.2031C195.038 50.2511 195.09 50.2896 195.147 50.3163C195.204 50.343 195.266 50.3574 195.328 50.3587C195.391 50.3599 195.453 50.348 195.511 50.3236C195.628 50.2755 195.722 50.1808 195.773 50.06C195.824 49.9392 195.828 49.8021 195.784 49.6785C195.315 48.3802 194.536 47.2312 193.521 46.3428C192.506 45.4544 191.29 44.8567 189.991 44.6076H190.042C189.065 44.3995 188.051 44.5122 187.137 44.9305C186.223 45.3487 185.453 46.0523 184.932 46.946C184.911 46.9716 184.896 47.0015 184.887 47.0335C184.879 47.0656 184.876 47.0993 184.88 47.1324C184.885 47.1656 184.895 47.1974 184.912 47.226C184.928 47.2546 184.95 47.2793 184.976 47.2985C185.002 47.3178 185.031 47.3312 185.062 47.3378C185.094 47.3445 185.126 47.3443 185.157 47.3373C185.188 47.3302 185.217 47.3165 185.243 47.297C185.269 47.2774 185.29 47.2525 185.306 47.2237V47.2685Z" fill="black"/>
<path d="M192.922 36.4368C193.021 36.7757 193.046 37.1334 192.997 37.4841C192.948 37.8348 192.825 38.1695 192.638 38.4639C192.45 38.7583 192.202 39.0049 191.912 39.1859C191.623 39.3668 191.298 39.4775 190.962 39.5098C188.961 39.8682 186.61 40.0563 185.485 40.6207C185.167 40.7734 184.803 40.7875 184.475 40.66C184.146 40.5325 183.879 40.2737 183.731 39.9399C183.582 39.6527 183.503 39.3308 183.503 39.0036C183.503 38.6764 183.582 38.3545 183.731 38.0674C184.361 36.9206 186.789 35.1557 189.216 34.6808C192.351 34.0447 192.922 36.4368 192.922 36.4368Z" fill="black"/>
<path d="M207.281 34.3853C207.281 34.3853 206.37 37.0193 210.135 37.5747C213.174 38.1137 216.17 38.8954 219.096 39.9131C219.522 40.0878 219.989 40.1196 220.432 40.0041C220.876 39.8886 221.275 39.6315 221.575 39.268C221.778 38.9914 221.884 38.6493 221.874 38.2998C221.865 37.9503 221.741 37.615 221.523 37.3507C220.603 36.1681 215.987 33.2564 212.511 32.701C208.048 31.9842 207.281 34.3853 207.281 34.3853Z" fill="black"/>
<path d="M196.525 65.5455L210.094 65.2051C210.094 65.2051 210.094 71.0106 203.646 71.154C196.763 71.3063 196.525 65.5455 196.525 65.5455Z" fill="white"/>
<path opacity="0.3" d="M202.485 50.996C201.588 44.7699 205.66 38.958 211.579 38.0147C217.498 37.0714 223.024 41.3538 223.921 47.5798C224.818 53.8059 220.746 59.6178 214.827 60.5611C208.907 61.5044 203.382 57.222 202.485 50.996Z" fill="white"/>
<path opacity="0.3" d="M186.396 61.8005C180.991 61.8005 176.609 56.7023 176.609 50.4134C176.609 44.1245 180.991 39.0264 186.396 39.0264C191.802 39.0264 196.184 44.1245 196.184 50.4134C196.184 56.7023 191.802 61.8005 186.396 61.8005Z" fill="white"/>
<path d="M202.485 50.996C201.588 44.7699 205.66 38.958 211.579 38.0147C217.498 37.0714 223.024 41.3538 223.921 47.5798C224.818 53.8058 220.746 59.6178 214.827 60.5611C208.907 61.5044 203.382 57.222 202.485 50.996Z" stroke="#EAB65B" stroke-width="1.01131" stroke-miterlimit="10"/>
<path d="M186.396 61.8005C180.991 61.8005 176.609 56.7023 176.609 50.4134C176.609 44.1245 180.991 39.0264 186.396 39.0264C191.802 39.0264 196.184 44.1245 196.184 50.4134C196.184 56.7023 191.802 61.8005 186.396 61.8005Z" stroke="#EAB65B" stroke-width="1.01" stroke-miterlimit="10"/>
<path d="M196.183 50.1716C197.064 49.6175 198.067 49.3123 199.094 49.2856C200.121 49.2589 201.136 49.5116 202.043 50.0193" stroke="#EAB65B" stroke-width="1.01" stroke-miterlimit="10"/>
<path d="M223.678 49.1411L231.83 53.9701" stroke="#EAB65B" stroke-width="1.01" stroke-miterlimit="10"/>
<path d="M244.847 46.6503C244.847 46.6503 202.257 33.0951 207.189 7.5168C207.189 7.5168 222.658 3.18058 235.017 17.6944C247.377 32.2082 244.847 46.6503 244.847 46.6503Z" fill="black"/>
<path d="M231.865 38.8291V62.1766L242.129 44.8676L231.865 38.8291Z" fill="black"/>
<path d="M246.815 56.4429C247.845 61.0927 244.77 66.1994 239.949 67.8569C235.128 69.5143 230.392 67.0774 229.361 62.4277C228.331 57.7779 231.406 52.698 236.227 51.0675C241.048 49.4369 245.784 51.82 246.815 56.4429Z" fill="#AF6F3B"/>
<path d="M242.129 56.9089C242.129 56.9089 236.882 55.6008 234.131 61.5587" stroke="black" stroke-width="0.96" stroke-linecap="round" stroke-linejoin="round"/>
<path d="M207.487 16.8881C207.487 16.8881 199.82 14.1555 195.826 19.2891C190.51 26.1697 188.006 32.8353 181.831 34.5734C181.831 34.5734 179.786 11.19 204.752 9.07568L215.902 13.2327L207.487 16.8881Z" fill="black"/>
</g>
<defs>
<filter id="filter0_d" x="0" y="1" width="245.848" height="125.806" filterUnits="userSpaceOnUse" color-interpolation-filters="sRGB">
<feFlood flood-opacity="0" result="BackgroundImageFix"/>
<feColorMatrix in="SourceAlpha" type="matrix" values="0 0 0 0 0 0 0 0 0 0 0 0 0 0 0 0 0 0 127 0" result="hardAlpha"/>
<feOffset dy="1"/>
<feGaussianBlur stdDeviation="2"/>
<feColorMatrix type="matrix" values="0 0 0 0 0 0 0 0 0 0 0 0 0 0 0 0 0 0 0.25 0"/>
<feBlend mode="normal" in2="BackgroundImageFix" result="effect1_dropShadow"/>
<feBlend mode="normal" in="SourceGraphic" in2="effect1_dropShadow" result="shape"/>
</filter>
<clipPath id="clip0">
<rect width="248" height="335" fill="white" transform="matrix(-1 0 0 1 310 0)"/>
</clipPath>
</defs>
</svg>
