<svg width="50" height="51" viewBox="0 0 50 51" fill="none" xmlns="http://www.w3.org/2000/svg">
<path d="M42.008 29.7508C41.4708 30.5747 41.7033 31.6784 42.5274 32.2156C43.3513 32.753 44.455 32.5205 44.9925 31.6964C47.8474 27.3176 49.5064 22.0867 49.5064 16.4736C49.5064 10.8605 47.8474 5.6295 44.9925 1.25071C44.455 0.426657 43.3513 0.194192 42.5274 0.731489C41.7033 1.26881 41.4708 2.3724 42.008 3.19648C44.4973 7.01408 45.9439 11.5722 45.9439 16.4736C45.9439 21.3749 44.4973 25.933 42.008 29.7508Z" fill="white"/>
<path d="M7.13533 0.731489C7.95941 1.26878 8.19187 2.3724 7.65455 3.19648C5.16543 7.01408 3.71875 11.5722 3.71875 16.4736C3.71875 21.3749 5.16541 25.933 7.65455 29.7508C8.19187 30.5747 7.95941 31.6784 7.13533 32.2156C6.31128 32.753 5.20766 32.5205 4.67036 31.6964C1.81533 27.3176 0.15625 22.0867 0.15625 16.4736C0.15625 10.8605 1.81533 5.6295 4.67036 1.25071C5.20766 0.426657 6.31128 0.194192 7.13533 0.731489Z" fill="white"/>
<path d="M12.7318 10.3877C13.3056 9.58856 13.1229 8.47564 12.3238 7.90186C11.5247 7.32809 10.4118 7.51077 9.83799 8.30986C8.22902 10.5507 7.28125 13.3009 7.28125 16.2672C7.28125 19.2335 8.22902 21.9835 9.83799 24.2246C10.4118 25.0235 11.5247 25.2062 12.3238 24.6326C13.1229 24.0588 13.3056 22.9459 12.7318 22.1467C11.5432 20.4913 10.8438 18.4636 10.8438 16.2672C10.8438 14.0708 11.5432 12.0431 12.7318 10.3877Z" fill="white"/>
<path d="M37.3033 22.1464C36.7295 22.9456 36.9121 24.0585 37.7113 24.6323C38.5102 25.2061 39.6232 25.0233 40.197 24.2243C41.806 21.9835 42.7537 19.2332 42.7537 16.2669C42.7537 13.3007 41.806 10.5505 40.197 8.30963C39.6232 7.51051 38.5102 7.32785 37.7113 7.90163C36.9121 8.47538 36.7295 9.58833 37.3033 10.3874C38.4917 12.0428 39.1911 14.0706 39.1911 16.2669C39.1911 18.4633 38.4917 20.4911 37.3033 22.1464Z" fill="white"/>
<path d="M24.5 1.62988C20.2371 1.62988 16.7812 5.08567 16.7812 9.34863V21.2236C16.7812 25.4865 20.2371 28.9424 24.5 28.9424C28.7629 28.9424 32.2187 25.4865 32.2187 21.2236V9.34863C32.2187 5.08567 28.7629 1.62988 24.5 1.62988Z" fill="white"/>
<path d="M17.9688 29.5361C17.9688 28.5524 17.1712 27.7549 16.1875 27.7549C15.2038 27.7549 14.4062 28.5524 14.4062 29.5361V30.7236C14.4062 34.3308 17.3304 37.2549 20.9375 37.2549H22.7188V46.7549H18.5625C17.5788 46.7549 16.7813 47.5524 16.7813 48.5361C16.7813 49.5198 17.5788 50.3174 18.5625 50.3174H30.4375C31.4212 50.3174 32.2188 49.5198 32.2188 48.5361C32.2188 47.5524 31.4212 46.7549 30.4375 46.7549H26.2813V37.2549H28.0625C31.6697 37.2549 34.5938 34.3308 34.5938 30.7236V29.5361C34.5938 28.5524 33.7962 27.7549 32.8125 27.7549C31.8288 27.7549 31.0313 28.5524 31.0313 29.5361V30.7236C31.0313 32.3633 29.7022 33.6924 28.0625 33.6924H20.9375C19.2979 33.6924 17.9688 32.3633 17.9688 30.7236V29.5361Z" fill="white"/>
</svg>
