<svg width="40" height="41" viewBox="0 0 40 41" fill="none" xmlns="http://www.w3.org/2000/svg">
<path d="M22.8952 21.6196C22.2405 21.6196 21.6509 22.0481 21.4932 22.6385L21.4912 24.6464C21.6587 25.2303 22.2226 25.6213 22.8952 25.6213C23.9836 25.6213 24.6079 24.8858 24.6079 23.6033C24.6079 23.1381 24.4844 21.6196 22.8952 21.6196Z" fill="white"/>
<path d="M9.19434 22.5917H11.1439L10.1375 19.6187L9.19434 22.5917Z" fill="white"/>
<path d="M4.10942 0L0.00344768 5.13221L0 37.4997L0.00344768 37.4999V40.1571H33.2016V40.1212L33.3044 40.1293L39.4208 36.1513V0H4.10942ZM12.856 28.1385L11.8151 25.1939H8.53683L7.57587 28.1385H3.59079L7.9528 16.0047H12.5315L16.9569 28.1385H12.856ZM26.9805 27.0999C26.0931 27.8904 24.898 28.3258 23.6159 28.3258C22.5302 28.3258 21.6205 28.032 20.9389 27.4679L20.8694 28.1385H17.6163L17.6213 15.3917H21.4428V19.6731C22.1213 19.2128 23.0199 18.9661 24.0563 18.9661C25.203 18.9661 26.2255 19.3227 27.0134 19.997C27.9765 20.8212 28.5007 22.0666 28.4895 23.5036C28.4896 24.9762 27.9677 26.2206 26.9805 27.0999ZM36.0841 34.7495L33.2016 36.6243V5.13221H4.0577L5.88185 2.83694H36.0841V34.7495Z" fill="white"/>
</svg>
