<svg width="283" height="157" viewBox="0 0 283 157" fill="none" xmlns="http://www.w3.org/2000/svg">
<path d="M172.152 8.50742V84.8125C172.146 87.0698 171.248 89.2328 169.656 90.8282C168.063 92.4236 165.905 93.3216 163.654 93.3256H118.426C117.253 93.3266 116.093 93.081 115.02 92.6048C113.509 91.9404 112.223 90.8501 111.319 89.4663C110.414 88.0825 109.93 86.465 109.926 84.8106V8.50742C109.933 6.2508 110.832 4.08897 112.425 2.49471C114.017 0.900453 116.175 0.00349779 118.426 0H163.654C165.904 0.00399869 168.061 0.901179 169.654 2.49539C171.246 4.08959 172.144 6.25112 172.152 8.50742Z" fill="#FFDAD8"/>
<path d="M152.313 28.3982C150.688 27.7829 149.28 26.6955 148.268 25.2736C147.256 23.8517 146.685 22.159 146.627 20.4097C146.569 18.6604 147.026 16.933 147.942 15.4459C148.857 13.9588 150.189 12.7789 151.769 12.0552C153.35 11.3316 155.107 11.0968 156.82 11.3805C158.533 11.6641 160.123 12.4536 161.391 13.649C162.659 14.8444 163.547 16.3921 163.942 18.0963C164.338 19.8006 164.223 21.5848 163.613 23.2234C163.208 24.3116 162.595 25.3086 161.807 26.1575C161.02 27.0065 160.075 27.6908 159.026 28.1713C157.976 28.6518 156.843 28.9192 155.691 28.9581C154.54 28.9971 153.391 28.8068 152.313 28.3982Z" fill="#EF073F"/>
<path d="M163.568 23.3314L146.622 17.0905C147.033 15.9898 147.661 14.9797 148.472 14.1186C149.283 13.2574 150.259 12.5622 151.345 12.0732C152.431 11.5841 153.605 11.3108 154.8 11.2691C155.994 11.2273 157.185 11.418 158.304 11.83C159.422 12.242 160.447 12.8672 161.318 13.6696C162.189 14.472 162.89 15.4356 163.379 16.5049C163.869 17.5742 164.137 18.728 164.17 19.8996C164.202 21.0713 163.998 22.2376 163.568 23.3314Z" fill="#FC8A85"/>
<path d="M120.628 26.9722C119.161 25.8662 118.081 24.3827 117.526 22.7095C116.97 21.0362 116.964 19.2483 117.508 17.5718C118.051 15.8953 119.121 14.4054 120.58 13.2906C122.04 12.1759 123.824 11.4862 125.708 11.309C127.592 11.1317 129.49 11.4747 131.162 12.2946C132.835 13.1146 134.207 14.3746 135.105 15.9154C136.004 17.4562 136.387 19.2086 136.208 20.951C136.029 22.6934 135.295 24.3476 134.099 25.7043C133.304 26.6053 132.326 27.3528 131.219 27.9041C130.112 28.4555 128.898 28.7999 127.647 28.9176C126.397 29.0353 125.133 28.9241 123.928 28.5903C122.724 28.2565 121.603 27.7067 120.628 26.9722Z" fill="#EF073F"/>
<path d="M134.225 25.745L120.296 14.5245C121.804 12.702 123.984 11.5451 126.356 11.3084C128.729 11.0718 131.099 11.7748 132.946 13.2627C134.793 14.7506 135.966 16.9016 136.206 19.2425C136.446 21.5834 135.733 23.9224 134.225 25.745Z" fill="#FC8A85"/>
<path d="M152.313 85.4686C150.688 84.7973 149.28 83.6111 148.268 82.0599C147.256 80.5087 146.685 78.6622 146.627 76.7539C146.569 74.8455 147.026 72.9611 147.942 71.3388C148.857 69.7165 150.189 68.4293 151.769 67.6399C153.35 66.8505 155.107 66.5943 156.82 66.9038C158.533 67.2132 160.123 68.0745 161.391 69.3786C162.659 70.6826 163.547 72.371 163.942 74.2302C164.338 76.0893 164.223 78.0358 163.613 79.8234C163.208 81.0104 162.595 82.0981 161.807 83.0242C161.02 83.9504 160.075 84.6968 159.026 85.2211C157.976 85.7453 156.843 86.0369 155.691 86.0794C154.54 86.1219 153.391 85.9143 152.313 85.4686Z" fill="#F7E0CB"/>
<path d="M163.568 79.6486L146.622 73.4077C147.033 72.307 147.661 71.2969 148.472 70.4357C149.283 69.5746 150.259 68.8794 151.345 68.3903C152.431 67.9012 153.605 67.628 154.8 67.5862C155.994 67.5445 157.185 67.7351 158.304 68.1471C159.422 68.5592 160.447 69.1844 161.318 69.9868C162.189 70.7892 162.89 71.7528 163.379 72.8221C163.869 73.8914 164.137 75.0451 164.17 76.2168C164.202 77.3885 163.998 78.5548 163.568 79.6486Z" fill="#EFCBAB"/>
<path d="M120.628 83.9129C119.161 82.7063 118.081 81.0881 117.526 79.2627C116.97 77.4373 116.964 75.4869 117.508 73.6579C118.051 71.829 119.121 70.2037 120.58 68.9876C122.04 67.7715 123.824 67.0192 125.708 66.8258C127.592 66.6323 129.49 67.0065 131.162 67.901C132.835 68.7955 134.207 70.1701 135.105 71.851C136.004 73.5319 136.387 75.4436 136.208 77.3444C136.029 79.2452 135.295 81.0497 134.099 82.5298C133.304 83.5127 132.326 84.3281 131.219 84.9296C130.112 85.5311 128.898 85.9067 127.647 86.0352C126.397 86.1636 125.133 86.0423 123.928 85.6782C122.724 85.314 121.603 84.7142 120.628 83.9129Z" fill="#F7E0CB"/>
<path d="M134.225 82.8667L120.296 71.0229C121.804 69.099 123.984 67.8779 126.356 67.6281C128.729 67.3783 131.099 68.1203 132.946 69.6909C134.793 71.2615 135.966 73.532 136.206 76.0029C136.446 78.4739 135.733 80.9428 134.225 82.8667Z" fill="#EFCBAB"/>
<path d="M159.155 57.8396C157.587 58.6232 155.833 58.8988 154.116 58.6316C152.399 58.3644 150.796 57.5665 149.509 56.3386C148.222 55.1108 147.31 53.5082 146.887 51.7335C146.464 49.9588 146.549 48.0917 147.133 46.3684C147.716 44.645 148.771 43.1428 150.165 42.0516C151.558 40.9604 153.227 40.3293 154.96 40.2381C156.693 40.1468 158.414 40.5996 159.903 41.5391C161.392 42.4786 162.584 43.8626 163.327 45.5161C163.821 46.6141 164.105 47.8039 164.162 49.0174C164.22 50.231 164.05 51.4446 163.662 52.589C163.275 53.7333 162.677 54.786 161.904 55.6869C161.131 56.5878 160.197 57.3193 159.155 57.8396Z" fill="#F7E0CB"/>
<path d="M163.375 45.6492L147.436 53.9036C146.461 51.5987 146.358 48.9664 147.149 46.5791C147.941 44.1918 149.563 42.2424 151.663 41.1549C153.763 40.0674 156.171 39.9297 158.363 40.7717C160.555 41.6136 162.354 43.3673 163.37 45.6512L163.375 45.6492Z" fill="#EFCBAB"/>
<path d="M117.79 46.0405C118.494 44.3417 119.703 42.8827 121.264 41.8479C122.826 40.8132 124.67 40.2492 126.563 40.2272C128.456 40.2053 130.314 40.7264 131.9 41.7247C133.487 42.7229 134.732 44.1535 135.478 45.8355C136.223 47.5176 136.436 49.3755 136.089 51.1743C135.742 52.9732 134.851 54.6322 133.528 55.9416C132.206 57.251 130.511 58.1519 128.659 58.5306C126.806 58.9092 124.879 58.7484 123.121 58.0686C121.954 57.6172 120.89 56.948 119.991 56.0993C119.091 55.2505 118.373 54.2387 117.878 53.1218C117.383 52.0049 117.12 50.8046 117.105 49.5896C117.09 48.3746 117.323 47.1686 117.79 46.0405Z" fill="#F7E0CB"/>
<path d="M123.487 58.1007L130.443 41.0311C132.727 41.9509 134.548 43.72 135.511 45.953C136.473 48.1861 136.499 50.7022 135.582 52.9535C134.664 55.2049 132.878 57.009 130.613 57.973C128.348 58.9371 125.787 58.983 123.487 58.1007Z" fill="#EFCBAB"/>
<path opacity="0.5" d="M172.151 18.5042V85.3005C172.151 89.7129 168.683 93.3256 164.444 93.3256H123.388C122.322 93.3263 121.267 93.0947 120.296 92.6462V27.7526C120.294 26.4921 120.543 25.2442 121.028 24.0843C121.514 22.9244 122.225 21.8767 123.12 21.0043C123.762 20.3767 124.494 19.8505 125.289 19.4432C126.495 18.8252 127.827 18.5036 129.177 18.5042H172.151Z" fill="#FC8A85"/>
<path d="M183.319 104.851V27.8965C183.319 23.1536 179.565 19.3087 174.935 19.3087L130.276 19.3087C125.645 19.3087 121.891 23.1536 121.891 27.8965V104.851C121.891 109.594 125.645 113.439 130.276 113.439H174.935C179.565 113.439 183.319 109.594 183.319 104.851Z" fill="#FFDAD8"/>
<path d="M162.942 47.7069C161.244 47.0916 159.772 46.0043 158.714 44.5823C157.656 43.1604 157.059 41.4677 156.998 39.7184C156.938 37.9691 157.416 36.2417 158.373 34.7546C159.33 33.2676 160.722 32.0876 162.374 31.3639C164.027 30.6403 165.864 30.4055 167.655 30.6892C169.445 30.9729 171.108 31.7623 172.433 32.9577C173.759 34.1532 174.687 35.7008 175.1 37.405C175.514 39.1093 175.394 40.8935 174.757 42.5321C174.333 43.6203 173.692 44.6173 172.869 45.4663C172.046 46.3152 171.058 46.9995 169.961 47.48C168.864 47.9606 167.679 48.2279 166.475 48.2669C165.271 48.3058 164.07 48.1155 162.942 47.7069Z" fill="#EF073F"/>
<path d="M174.737 42.6401L157.791 36.3992C158.202 35.2985 158.83 34.2884 159.641 33.4273C160.452 32.5661 161.428 31.8709 162.514 31.3819C163.6 30.8928 164.774 30.6195 165.969 30.5778C167.163 30.536 168.354 30.7267 169.473 31.1387C170.591 31.5507 171.616 32.176 172.487 32.9783C173.358 33.7807 174.059 34.7444 174.548 35.8136C175.037 36.8829 175.306 38.0367 175.339 39.2083C175.371 40.38 175.167 41.5464 174.737 42.6401Z" fill="#FC8A85"/>
<path d="M132.448 46.2809C131.042 45.1749 130.007 43.6914 129.475 42.0182C128.943 40.3449 128.937 38.557 129.458 36.8805C129.979 35.204 131.004 33.7141 132.402 32.5994C133.801 31.4846 135.511 30.795 137.316 30.6177C139.121 30.4404 140.941 30.7834 142.544 31.6033C144.147 32.4233 145.462 33.6833 146.322 35.2241C147.183 36.765 147.551 38.5173 147.379 40.2597C147.207 42.0021 146.504 43.6563 145.357 45.013C144.596 45.914 143.658 46.6615 142.597 47.2129C141.537 47.7642 140.374 48.1086 139.175 48.2263C137.976 48.344 136.765 48.2328 135.611 47.899C134.457 47.5652 133.382 47.0154 132.448 46.2809Z" fill="#EF073F"/>
<path d="M145.395 45.8582L131.466 34.0144C132.212 33.0618 133.132 32.2717 134.172 31.6892C135.212 31.1068 136.351 30.7433 137.526 30.6196C138.701 30.4959 139.887 30.6145 141.018 30.9684C142.149 31.3223 143.202 31.9048 144.116 32.6825C145.031 33.4601 145.789 34.4178 146.349 35.5008C146.908 36.5839 147.257 37.771 147.376 38.9945C147.494 40.218 147.381 41.4538 147.041 42.6315C146.701 43.8092 146.142 44.9056 145.395 45.8582Z" fill="#FC8A85"/>
<path d="M162.942 104.777C161.244 104.106 159.772 102.92 158.714 101.369C157.656 99.8175 157.059 97.9709 156.998 96.0626C156.938 94.1543 157.416 92.2698 158.373 90.6476C159.33 89.0253 160.722 87.7381 162.374 86.9486C164.027 86.1592 165.864 85.903 167.655 86.2125C169.445 86.522 171.108 87.3832 172.433 88.6873C173.759 89.9914 174.687 91.6798 175.1 93.5389C175.514 95.3981 175.394 97.3445 174.757 99.1321C174.333 100.319 173.692 101.407 172.869 102.333C172.046 103.259 171.058 104.006 169.961 104.53C168.864 105.054 167.679 105.346 166.475 105.388C165.271 105.431 164.07 105.223 162.942 104.777Z" fill="#F7E0CB"/>
<path d="M174.737 99.7618L157.791 93.1049C158.202 91.9308 158.83 90.8534 159.641 89.9348C160.452 89.0162 161.428 88.2747 162.514 87.7531C163.6 87.2314 164.774 86.9399 165.969 86.8953C167.163 86.8508 168.354 87.0542 169.473 87.4937C170.591 87.9332 171.616 88.6001 172.487 89.456C173.358 90.3118 174.059 91.3397 174.548 92.4803C175.037 93.6209 175.306 94.8515 175.339 96.1013C175.371 97.3511 175.167 98.5952 174.737 99.7618Z" fill="#EFCBAB"/>
<path d="M132.448 103.222C131.042 102.015 130.007 100.397 129.475 98.5715C128.943 96.7461 128.937 94.7956 129.458 92.9667C129.979 91.1377 131.004 89.5125 132.402 88.2963C133.801 87.0802 135.511 86.3279 137.316 86.1345C139.121 85.9411 140.941 86.3153 142.544 87.2098C144.147 88.1042 145.462 89.4788 146.322 91.1597C147.183 92.8406 147.551 94.7523 147.379 96.6531C147.207 98.5539 146.504 100.358 145.357 101.839C144.596 102.821 143.658 103.637 142.597 104.238C141.537 104.84 140.374 105.215 139.175 105.344C137.976 105.472 136.765 105.351 135.611 104.987C134.457 104.623 133.382 104.023 132.448 103.222Z" fill="#F7E0CB"/>
<path d="M145.395 102.175L131.466 90.3316C132.974 88.4078 135.154 87.1866 137.526 86.9369C139.899 86.6871 142.269 87.4291 144.116 88.9997C145.963 90.5703 147.136 92.8408 147.376 95.3117C147.615 97.7826 146.903 100.252 145.395 102.175Z" fill="#EFCBAB"/>
<path d="M170.096 77.1484C168.456 77.932 166.623 78.2076 164.828 77.9404C163.033 77.6732 161.357 76.8752 160.011 75.6474C158.666 74.4195 157.712 72.817 157.27 71.0423C156.828 69.2676 156.917 67.4005 157.527 65.6772C158.137 63.9538 159.24 62.4515 160.697 61.3604C162.153 60.2692 163.898 59.6381 165.71 59.5468C167.522 59.4556 169.321 59.9084 170.878 60.8479C172.435 61.7873 173.681 63.1714 174.458 64.8249C174.974 65.9229 175.27 67.1126 175.33 68.3262C175.391 69.5398 175.213 70.7534 174.808 71.8977C174.403 73.0421 173.778 74.0948 172.97 74.9957C172.161 75.8966 171.185 76.6281 170.096 77.1484Z" fill="#F7E0CB"/>
<path d="M174.544 64.96L157.846 73.2124C156.824 70.9075 156.716 68.2752 157.546 65.8879C158.375 63.5005 160.075 61.5512 162.276 60.4637C164.476 59.3762 167 59.2385 169.297 60.0804C171.594 60.9224 173.48 62.676 174.544 64.96Z" fill="#EFCBAB"/>
<path d="M129.727 65.3513C130.401 63.6524 131.559 62.1932 133.056 61.1581C134.552 60.123 136.319 59.5586 138.133 59.536C139.947 59.5135 141.727 60.034 143.248 61.0316C144.769 62.0293 145.962 63.4593 146.677 65.1409C147.392 66.8225 147.597 68.6802 147.265 70.4791C146.934 72.2779 146.08 73.9372 144.814 75.2472C143.547 76.5571 141.924 77.4588 140.149 77.8383C138.374 78.2179 136.527 78.0581 134.842 77.3794C133.723 76.9285 132.703 76.2597 131.84 75.4112C130.977 74.5626 130.289 73.551 129.814 72.434C129.339 71.317 129.087 70.1166 129.072 68.9013C129.057 67.686 129.28 66.4797 129.727 65.3513Z" fill="#F7E0CB"/>
<path d="M135.454 77.3809L141.975 59.5353C144.116 60.497 145.824 62.3464 146.726 64.681C147.629 67.0155 147.652 69.6461 146.792 71.9997C145.932 74.3534 144.258 76.2395 142.135 77.2474C140.011 78.2552 137.61 78.3032 135.454 77.3809Z" fill="#EFCBAB"/>
<path d="M176.14 49.8809H105.937V156.079H176.14V49.8809Z" fill="#BA0631"/>
<path d="M186.51 49.8809H115.509V156.079H186.51V49.8809Z" fill="#FF154D"/>
<path d="M115.51 56.3666L112.216 61.9489H105.937V49.8809H115.508L115.51 56.3666Z" fill="#D8661A"/>
<path d="M109.445 57.9262H99.5537L105.62 49.8809H115.509L109.445 57.9262Z" fill="#FF154D"/>
<path opacity="0.5" d="M152.206 156.884H115.509V54.7081L152.206 58.253V156.884Z" fill="#BA0631"/>
<path d="M186.51 58.6866L180.749 61.9489H118.931L115.509 56.3676V49.8809L186.51 58.6866Z" fill="#BA0631"/>
<path d="M191.297 57.9262H120.51L115.509 49.8809H186.298L191.297 57.9262Z" fill="#FF154D"/>
<path d="M68.5555 56.3142C67.1823 51.6849 61.2112 50.8168 58.8099 54.9578C58.3495 55.7339 58.0946 56.6249 58.0716 57.5389C57.9387 62.9646 68.1347 83.9719 69.4876 85.8302C71.9517 89.2135 86.8212 97.3483 86.8212 97.3483L89.9811 96.8638C88.6726 95.9551 87.4545 94.9105 86.345 93.746C82.5242 89.7406 76.9537 83.2317 75.933 82.3287C74.1925 80.7823 71.1544 65.102 68.5555 56.3142Z" fill="#EACDB0"/>
<path d="M158.852 98.9573H89.7175C85.4569 98.9573 82.0029 102.448 82.0029 106.754V148.282C82.0029 152.588 85.4569 156.079 89.7175 156.079H158.852C163.113 156.079 166.567 152.588 166.567 148.282V106.754C166.567 102.448 163.113 98.9573 158.852 98.9573Z" fill="#FFDAD8"/>
<path d="M107.794 117.616C107.212 119.18 106.182 120.535 104.836 121.509C103.49 122.483 101.888 123.033 100.233 123.089C98.5768 123.144 96.9418 122.704 95.5344 121.823C94.1269 120.941 93.0102 119.659 92.3254 118.138C91.6406 116.616 91.4184 114.924 91.687 113.276C91.9557 111.627 92.703 110.096 93.8345 108.876C94.9661 107.656 96.431 106.801 98.0441 106.42C99.6571 106.04 101.346 106.15 102.897 106.737C103.927 107.127 104.871 107.718 105.674 108.476C106.478 109.233 107.125 110.143 107.58 111.154C108.035 112.164 108.288 113.255 108.325 114.363C108.361 115.472 108.181 116.578 107.794 117.616Z" fill="#EF073F"/>
<path d="M101.94 106.729L96.5518 122.289C95.6085 121.905 94.7441 121.324 94.0082 120.578C93.2722 119.833 92.679 118.938 92.2625 117.944C91.8459 116.95 91.6142 115.877 91.5805 114.787C91.5468 113.696 91.7117 112.609 92.066 111.587C92.4203 110.565 92.9569 109.629 93.6452 108.832C94.3335 108.035 95.16 107.393 96.0775 106.941C97.9306 106.03 100.042 105.954 101.947 106.729H101.94Z" fill="#FC8A85"/>
<path d="M106.441 145.734C105.393 147.028 103.988 147.98 102.404 148.469C100.82 148.957 99.1275 148.962 97.541 148.481C95.9546 148 94.5451 147.055 93.491 145.766C92.4368 144.477 91.7852 142.902 91.6186 141.24C91.452 139.578 91.7779 137.903 92.555 136.428C93.3321 134.953 94.5256 133.743 95.9845 132.951C97.4434 132.16 99.1023 131.822 100.751 131.982C102.4 132.141 103.966 132.79 105.249 133.846C106.101 134.548 106.809 135.412 107.33 136.389C107.851 137.366 108.176 138.437 108.287 139.541C108.398 140.645 108.291 141.76 107.975 142.823C107.658 143.885 107.137 144.875 106.441 145.734Z" fill="#EF073F"/>
<path d="M105.138 133.782L94.6308 146.425C93.7856 145.747 93.0845 144.913 92.5676 143.969C92.0507 143.025 91.7282 141.991 91.6184 140.925C91.5085 139.858 91.6136 138.781 91.9276 137.755C92.2415 136.729 92.7582 135.773 93.4481 134.943C94.1381 134.113 94.9877 133.425 95.9486 132.917C96.9095 132.409 97.9627 132.092 99.0483 131.985C100.134 131.877 101.23 131.98 102.275 132.288C103.32 132.597 104.293 133.104 105.138 133.782Z" fill="#FC8A85"/>
<path d="M159.649 117.616C159.066 119.18 158.037 120.535 156.691 121.509C155.345 122.483 153.743 123.033 152.087 123.089C150.431 123.144 148.796 122.704 147.389 121.823C145.981 120.941 144.865 119.659 144.18 118.138C143.495 116.616 143.273 114.924 143.542 113.276C143.81 111.627 144.557 110.096 145.689 108.876C146.821 107.656 148.285 106.801 149.899 106.42C151.512 106.04 153.2 106.15 154.751 106.737C155.781 107.127 156.725 107.718 157.529 108.476C158.332 109.233 158.98 110.143 159.435 111.154C159.889 112.164 160.142 113.255 160.179 114.363C160.216 115.472 160.036 116.578 159.649 117.616Z" fill="#EF073F"/>
<path d="M153.004 106.685L147.969 122.289C146.22 121.487 144.811 119.918 144.048 117.918C143.284 115.919 143.227 113.651 143.888 111.603C144.549 109.555 145.875 107.891 147.58 106.971C149.286 106.051 151.234 105.948 153.004 106.685Z" fill="#FC8A85"/>
<path d="M158.296 145.733C156.943 147.405 155.007 148.491 152.884 148.768C150.762 149.046 148.615 148.493 146.885 147.223C146.757 147.135 146.634 147.035 146.51 146.934C145.658 146.233 144.951 145.369 144.43 144.392C143.909 143.415 143.584 142.344 143.473 141.24C143.363 140.137 143.469 139.022 143.785 137.959C144.102 136.897 144.623 135.908 145.318 135.048C146.014 134.189 146.871 133.476 147.839 132.951C148.808 132.425 149.87 132.098 150.965 131.986C152.059 131.874 153.165 131.981 154.218 132.301C155.271 132.62 156.252 133.145 157.104 133.847C157.226 133.949 157.344 134.049 157.46 134.157C159.04 135.613 160.006 137.624 160.162 139.777C160.317 141.93 159.649 144.061 158.296 145.733Z" fill="#EF073F"/>
<path d="M156.993 134.041L146.769 146.425C146.646 146.341 146.527 146.246 146.407 146.151C145.584 145.486 144.9 144.667 144.397 143.741C143.893 142.815 143.579 141.8 143.472 140.754C143.365 139.708 143.467 138.652 143.773 137.645C144.079 136.638 144.583 135.701 145.255 134.886C145.928 134.072 146.756 133.396 147.693 132.898C148.629 132.4 149.656 132.089 150.714 131.984C151.771 131.878 152.84 131.979 153.858 132.282C154.877 132.584 155.825 133.082 156.649 133.747C156.766 133.837 156.879 133.939 156.993 134.041Z" fill="#FC8A85"/>
<path d="M134.608 111.027C135.352 112.536 135.614 114.224 135.361 115.877C135.108 117.53 134.351 119.074 133.187 120.313C132.022 121.552 130.502 122.431 128.819 122.838C127.136 123.246 125.365 123.163 123.73 122.602C122.095 122.041 120.67 121.025 119.635 119.684C118.6 118.343 118.001 116.736 117.914 115.068C117.828 113.399 118.257 111.743 119.148 110.309C120.039 108.875 121.352 107.728 122.92 107.013C123.962 106.537 125.09 106.264 126.241 106.209C127.392 106.153 128.543 106.316 129.628 106.689C130.713 107.062 131.712 107.637 132.566 108.381C133.421 109.125 134.114 110.024 134.608 111.027Z" fill="#EF073F"/>
<path d="M122.693 106.198L129.87 122.238C127.862 123.246 125.558 123.368 123.465 122.577C121.373 121.786 119.662 120.147 118.711 118.02C117.759 115.893 117.644 113.453 118.391 111.236C119.138 109.02 120.685 107.208 122.693 106.2V106.198Z" fill="#FC8A85"/>
<path d="M123.417 148.233C121.806 147.612 120.422 146.545 119.441 145.167C118.459 143.789 117.925 142.162 117.904 140.492C117.883 138.821 118.378 137.182 119.324 135.782C120.271 134.382 121.628 133.283 123.223 132.626C124.819 131.968 126.581 131.78 128.287 132.086C129.993 132.392 131.567 133.179 132.809 134.346C134.051 135.513 134.905 137.008 135.264 138.642C135.623 140.277 135.471 141.977 134.826 143.528C134.398 144.559 133.764 145.497 132.958 146.291C132.153 147.085 131.194 147.719 130.134 148.156C129.075 148.593 127.936 148.824 126.784 148.838C125.631 148.851 124.487 148.645 123.417 148.233Z" fill="#EF073F"/>
<path d="M134.741 144.011L117.903 137.552C118.331 136.473 118.978 135.485 119.808 134.648C120.638 133.811 121.634 133.141 122.737 132.676C123.841 132.212 125.03 131.963 126.235 131.944C127.44 131.925 128.637 132.137 129.755 132.566C130.874 132.995 131.892 133.633 132.751 134.444C133.609 135.254 134.29 136.221 134.754 137.286C135.219 138.352 135.457 139.495 135.454 140.65C135.452 141.805 135.21 142.947 134.741 144.011Z" fill="#FC8A85"/>
<path d="M72.6902 30.6641C72.7731 30.3189 65.4879 34.091 65.1175 34.5168C61.7006 38.4596 62.6755 43.6068 64.6309 43.6567C65.8841 43.6893 65.6409 45.8582 65.6409 45.8582L79.6086 39.71C79.6086 39.71 77.9279 29.5038 72.6902 30.6641Z" fill="#2B478B"/>
<path d="M74.812 31.3414C74.812 31.3414 75.323 25.745 69.1026 25.745C69.1026 25.745 70.9881 26.2593 71.963 27.2879C71.963 27.2879 68.0033 24.9442 63.6779 28.5461C59.3524 32.148 62.0431 41.1812 60.7307 42.8967C59.4184 44.6123 54.3048 44.9558 54.9308 50.501C55.5568 56.0462 71.1578 62.9938 70.1547 67.5806C70.1547 67.5806 76.2695 58.5341 71.897 54.4065C71.897 54.4065 74.0276 56.4257 74.2445 58.8282C74.2445 58.8282 74.8233 54.1389 71.8592 52.6397C69.2364 51.3113 67.0869 46.4588 67.3151 45.5915C67.5432 44.7243 74.812 31.3414 74.812 31.3414Z" fill="#2B478B"/>
<path d="M57.2717 152.861L54.1204 152.402C54.1204 152.402 43.523 144.055 41.9454 128.476C41.784 126.891 40.5734 121.318 39.4301 119.481C38.2867 117.645 36.3748 114.252 34.2553 110.414C30.4352 103.501 25.9926 95.2356 24.4553 92.603C19.5938 84.2119 21.9362 78.5696 21.9362 78.5696C21.9362 78.5696 35.4985 77.2361 39.2168 74.0168L40.5619 76.0627C40.5619 76.0627 43.4999 88.9589 43.3616 89.0161L43.8035 90.3495C46.1228 97.4453 48.7996 106.315 50.2446 113.538C51.0613 117.603 51.2803 125.655 51.5013 127.225C52.808 136.498 57.2717 152.861 57.2717 152.861Z" fill="#0B1A3B"/>
<path d="M63.654 156.884H50.9595C50.9595 156.884 50.655 154.9 51.3178 153.395C51.9527 151.952 52.8605 151.906 51.4329 149.643C52.2404 150.495 54.8358 150.847 56.6718 150.594C56.8964 150.974 58.1217 153.475 58.8736 154.029C59.696 154.639 63.3978 154.421 63.654 156.884Z" fill="#233862"/>
<path d="M34.7193 110.221C30.7617 103.347 26.159 95.128 24.5664 92.5102C19.5297 84.1664 21.9565 78.5558 21.9565 78.5558C21.9565 78.5558 28.7669 76.4173 32.6191 73.2123C32.623 73.2104 35.7705 99.2989 34.7193 110.221Z" fill="#0B1A3B"/>
<path d="M34.8914 79.0689L34.9351 76.6224C30.0856 77.2379 18.2147 70.7987 18.2147 70.7987C18.2147 70.7987 13.1407 74.1894 12.4465 83.8739C12.108 88.6006 9.96281 108.591 9.72508 114.56C9.6376 116.723 7.52091 122.033 6.76781 123.442C-0.632039 137.278 3.23809 156.079 3.23809 156.079L4.9497 155.639C4.9497 155.639 11.2066 136.144 15.2954 127.719C15.9896 126.289 20.3066 119.47 21.9041 115.634C24.9242 108.383 27.8567 98.8146 29.9487 91.4044C30.1046 91.4274 34.8914 79.0689 34.8914 79.0689Z" fill="#0B1A3B"/>
<path d="M62.9847 63.5363C55.6015 61.6573 60.3116 50.1573 60.7474 50.3595C61.7695 50.1278 64.0174 48.1369 66.0279 44.2492L66.299 44.5103L70.8337 48.9183C70.8337 48.9183 69.7851 50.6324 68.9029 52.3112C68.2138 53.6248 67.6275 54.9206 67.7214 55.3644C68.0863 55.6825 64.9545 64.037 62.9847 63.5363Z" fill="#EACDB0"/>
<path d="M67.5974 55.5126C67.5974 55.5126 68.7836 58.1591 69.4164 60.4542C70.0491 62.7493 71.6318 70.039 71.6318 70.039C71.6318 70.039 68.3661 74.2484 63.8235 74.0068C63.8235 74.0068 61.3815 69.6839 62.2425 65.7709C63.1034 61.8579 67.5974 55.5126 67.5974 55.5126Z" fill="#91CECF"/>
<path d="M70.8345 49.4952C70.8345 49.4952 69.748 50.9078 68.834 52.2945C65.9121 50.7053 65.9103 47.5123 66.1342 45.8583L70.8345 49.4952Z" fill="#EACDB0"/>
<path d="M71.1565 51.4035C71.1565 51.4035 64.0672 47.2883 66.5911 42.7254C69.115 38.1626 69.8927 34.5544 74.5333 36.986C79.1739 39.4176 79.0748 41.6866 78.5869 43.4237C78.099 45.1609 73.0659 52.3562 71.1565 51.4035Z" fill="#EACDB0"/>
<path d="M79.5633 40.7046C79.2424 38.6284 78.2671 38.4284 77.5872 38.5676C75.0001 33.9407 70.7723 35.7463 70.7723 35.7463C69.3719 37.5986 67.4198 38.8669 65.25 39.3342C65.25 39.3342 66.064 40.9693 69.4198 41.9829C70.4423 42.2927 71.6044 42.1045 72.7248 41.6967C71.2287 42.574 69.6288 43.2263 67.9694 43.6357C72.384 44.0729 76.5846 39.7145 77.0197 39.2401C77.2228 39.9165 77.5799 41.332 77.366 42.377C77.0759 43.7847 75.9156 46.3315 76.6263 46.6628C76.6209 46.653 80.0456 43.82 79.5633 40.7046Z" fill="#2B478B"/>
<path d="M13.3942 156.884H0.699638C0.699638 156.884 0.3954 154.926 1.05768 153.441C1.69213 152.016 2.68833 151.376 2.44902 149.643C3.25599 150.484 4.56941 151.424 6.40598 151.175C6.63045 151.55 7.85668 153.518 8.608 154.064C9.4391 154.668 13.1382 154.452 13.3942 156.884Z" fill="#233862"/>
<path d="M63.4367 72.0973C61.791 72.6968 59.4841 73.0268 57.1231 73.2943C53.7609 73.6848 50.2921 73.9386 48.4747 74.6982C47.615 75.0561 46.7997 75.5209 46.0464 76.0826C46.0216 76.0999 45.9979 76.1188 45.9754 76.1392C45.6177 76.4102 45.2827 76.7127 44.9742 77.0432C44.4746 77.5651 44.0763 78.1831 43.8011 78.8631C43.1343 80.5853 44.0178 85.3574 44.5838 87.9661C44.6957 88.4769 44.6426 89.0121 44.4327 89.4879C44.2229 89.9638 43.8681 90.3536 43.4238 90.5963C42.1462 91.2875 40.8903 91.9247 39.6562 92.5079L39.4694 92.5997C39.4807 92.3341 39.4844 92.0705 39.4844 91.8186C39.4839 90.7154 39.4115 89.6136 39.2677 88.5207C38.9632 90.3366 37.8201 92.2989 36.7516 93.8103C19.5986 101.006 7.61217 97.8776 7.81203 94.2926C8.48822 81.8486 16.5165 71.2635 16.5165 71.2635C31.4822 53.0594 61.7686 48.2755 61.7686 48.2755C61.7686 48.2755 63.2181 48.0939 64.9683 50.2906C67.4863 53.4577 67.6114 54.2837 67.6114 54.2837C67.6114 54.2837 68.2764 70.34 63.4367 72.0973Z" fill="#ABDDDA"/>
<path d="M57.2716 73.488C53.888 73.8589 50.3974 74.1018 48.5684 74.8214C47.8221 63.8021 53.1004 55.5126 53.1004 55.5126C53.1004 55.5126 56.531 69.3173 57.2716 73.488Z" fill="#91CECF"/>
<path d="M60.6792 52.2945C60.6792 52.2945 52.3896 53.1522 51.7241 58.7863C51.0586 64.4205 59.6717 87.3707 60.9053 89.4475C63.15 93.2299 76.3739 106.198 76.3739 106.198L78.8117 104.66C78.8117 104.66 69.4356 88.0514 67.9796 86.4977C65.6999 84.0517 63.4865 54.2463 60.6792 52.2945Z" fill="#EACDB0"/>
<path d="M65.698 63.3391C65.698 63.3391 66.5914 48.4513 55.4348 52.0516C44.2781 55.6518 57.1714 81.2576 57.1714 81.2576C57.1714 81.2576 63.7203 80.9266 66.0473 75.0917L65.698 63.3391Z" fill="#ABDDDA"/>
<path d="M44.1881 87.4635C44.2814 87.9418 44.2371 88.443 44.0621 88.8886C43.8871 89.3342 43.5913 89.6992 43.2209 89.9265C42.1557 90.5738 41.1086 91.1705 40.0797 91.7166C40.0252 91.51 39.9753 91.2942 39.9239 91.0656C39.7437 90.0507 39.6829 89.0116 39.7433 87.9773C39.9816 82.8192 42.9733 78.9136 44.5073 77.235C44.0908 77.7237 43.7587 78.3024 43.5293 78.9392C42.9811 80.5519 43.7162 85.0207 44.1881 87.4635Z" fill="#91CECF"/>
<path d="M62.8555 49.2322C62.8555 49.2322 63.9358 47.4115 64.6658 47.4687C64.6658 47.4687 67.6191 52.9796 67.6421 55.5127C67.6421 55.5065 63.9588 48.9689 62.8555 49.2322Z" fill="#91CECF"/>
<path d="M97.158 98.9477C97.158 98.9477 95.096 98.9819 94.6499 98.9211C94.2037 98.8604 93.6289 98.6818 93.0421 98.6628C92.4553 98.6438 91.9347 98.8205 91.3921 98.9249C91.3114 98.9403 91.2293 98.9479 91.1469 98.9477H87.7304C87.7304 98.9477 87.3867 98.792 87.0109 98.2221C86.8481 97.9751 86.826 97.3862 86.4583 97.1925C84.3882 96.1002 89.8989 96.7176 89.8989 96.7176C89.8989 96.7176 93.3596 96.6587 93.6792 96.8828C94.2439 97.2875 97.2866 98.792 97.158 98.9477Z" fill="#EACDB0"/>
<path d="M88.4353 98.5725C88.4353 98.5725 90.3853 99.0904 90.9152 99.4356L91.475 99.7619C91.475 99.7619 91.7978 99.427 91.2884 99.0558C91.0197 98.8608 90.277 98.2876 90.2528 97.6299C90.2285 96.9722 88.0267 97.5402 88.4353 98.5725Z" fill="#EACDB0"/>
<path d="M80.1474 104.683C80.1474 104.683 81.5763 105.916 82.6609 106.17C83.7455 106.425 84.9832 109.458 85.1744 109.89C85.3657 110.321 84.1377 109.704 83.6442 108.96C83.1506 108.216 82.814 107.935 82.6686 108.095C82.5232 108.255 82.7547 110.271 83.5772 111.39C84.3997 112.51 84.8933 113.503 84.3022 113.436C83.7111 113.369 80.1876 112.539 79.4646 110.46C78.7415 108.381 79.2733 108.307 77.6072 106.169C75.9411 104.03 80.1474 104.683 80.1474 104.683Z" fill="#EACDB0"/>
<path d="M118.702 150.858C118.695 152.242 118.18 153.568 117.268 154.546C116.357 155.524 115.123 156.075 113.835 156.079H90.8583C89.568 156.079 88.3305 155.528 87.4181 154.547C86.5057 153.567 85.9932 152.237 85.9932 150.85C85.9932 149.463 86.5057 148.132 87.4181 147.152C88.3305 146.171 89.568 145.62 90.8583 145.62H113.835C115.125 145.624 116.362 146.177 117.274 147.159C118.187 148.14 118.7 149.47 118.702 150.858Z" fill="#2B478B"/>
<path d="M108.331 150.858C108.324 152.242 107.773 153.567 106.797 154.545C105.821 155.524 104.499 156.075 103.12 156.079H91.2041C89.8221 156.079 88.4967 155.528 87.5194 154.547C86.5422 153.567 85.9932 152.237 85.9932 150.85C85.9932 149.463 86.5422 148.132 87.5194 147.152C88.4967 146.171 89.8221 145.62 91.2041 145.62H103.12C104.502 145.624 105.827 146.177 106.803 147.159C107.78 148.14 108.329 149.471 108.331 150.858Z" fill="#699FF0"/>
<path opacity="0.4" d="M114.802 148.034H92.2838C91.893 148.034 91.5762 148.195 91.5762 148.395V148.477C91.5762 148.677 91.893 148.838 92.2838 148.838H114.802C115.192 148.838 115.509 148.677 115.509 148.477V148.395C115.509 148.195 115.192 148.034 114.802 148.034Z" fill="#E9F3FE"/>
<path d="M99.0158 137.267C99.6205 138.519 99.7193 139.967 99.2907 141.295C98.862 142.622 97.9407 143.721 96.7276 144.352L75.071 155.52C74.4685 155.831 73.8125 156.016 73.1405 156.065C72.4684 156.115 71.7934 156.028 71.1541 155.809C70.5147 155.59 69.9235 155.244 69.4142 154.79C68.9049 154.336 68.4875 153.783 68.1858 153.163C67.884 152.543 67.7039 151.868 67.6557 151.177C67.6075 150.485 67.6922 149.79 67.9048 149.132C68.1175 148.475 68.454 147.866 68.8951 147.342C69.3362 146.818 69.8734 146.388 70.4758 146.078L92.125 134.914C93.3424 134.289 94.751 134.185 96.0425 134.626C97.3339 135.067 98.403 136.017 99.0158 137.267Z" fill="#BA0631"/>
<path d="M88.6231 142.923C89.2517 144.185 89.3549 145.645 88.91 146.983C88.4651 148.32 87.5084 149.428 86.2487 150.064L75.3574 155.516C74.7317 155.829 74.0505 156.015 73.3525 156.065C72.6545 156.115 71.9535 156.028 71.2895 155.807C70.6255 155.586 70.0115 155.237 69.4825 154.78C68.9536 154.322 68.5201 153.765 68.2067 153.14C67.8934 152.515 67.7063 151.835 67.6562 151.137C67.6062 150.44 67.6941 149.74 67.9149 149.077C68.1358 148.414 68.4853 147.8 68.9434 147.272C69.4015 146.744 69.9594 146.311 70.5851 145.998L81.4763 140.546C82.7403 139.918 84.2016 139.816 85.5408 140.262C86.88 140.707 87.9881 141.664 88.6231 142.923Z" fill="#FF154D"/>
<path opacity="0.5" d="M93.5666 138.205L72.7642 147.962C72.5907 148.043 72.3901 148.056 72.2062 147.999C72.0223 147.942 71.87 147.819 71.7826 147.657L71.7087 147.518C71.6223 147.356 71.6081 147.168 71.6692 146.996C71.7303 146.824 71.8617 146.681 72.0347 146.599L92.837 136.842C93.0105 136.761 93.2111 136.748 93.3951 136.805C93.579 136.862 93.7313 136.985 93.8186 137.147L93.8925 137.286C93.9789 137.448 93.9931 137.636 93.932 137.808C93.871 137.98 93.7396 138.123 93.5666 138.205Z" fill="#FFE2CC"/>
<path d="M220.884 72.6573C220.835 72.4037 220.728 72.1704 220.573 71.9827C220.397 71.5697 220.211 71.0701 220.203 70.7888C220.187 70.2477 219.671 70.0439 219.458 70.4894C219.388 70.6428 219.35 70.8134 219.348 70.9872C218.521 70.5507 217.25 70.1575 215.292 70.0024C215.292 70.0024 213.785 69.8094 214.762 71.292C215.415 72.2821 215.98 72.2893 216.92 73.6691C217.86 75.0488 219.272 75.8099 220.34 75.4456L221.594 75.6259L222.41 73.3047L220.884 72.6573Z" fill="#FFDAD8"/>
<path d="M257.512 46.9657C257.512 46.9657 256.217 61.7879 237.893 68.0456C232.944 69.7392 214.433 64.5467 214.433 64.5467C214.433 64.5467 214.538 61.9962 216.04 61.356C216.04 61.356 233.383 60.2416 234.842 60.9902C236.137 61.6541 247.21 49.7262 250.789 47.8057C254.368 45.8852 257.512 46.9657 257.512 46.9657Z" fill="#91CECF"/>
<path d="M280.459 146.577C280.459 146.577 282.609 148.596 282.19 150.03C281.771 151.465 279.83 152.421 279.568 154.174C279.306 155.927 278.258 156.884 277.314 156.884H272.813C272.813 156.884 272.119 155.65 273.797 155.278C275.475 154.905 276.108 152.846 276.003 150.933C275.899 149.02 276.162 146.47 276.162 146.47L279.728 145.62L280.459 146.577Z" fill="#233862"/>
<path d="M280.648 145.839C280.238 147.056 275.726 148.838 275.726 148.838C275.726 148.838 273.267 144.949 265.393 131.009C264.715 129.808 264.007 128.492 263.278 127.087C255.546 112.181 245.546 87.4098 245.546 87.4098L264.656 82.0622C264.656 82.0622 265.557 89.76 265.721 93.6504C265.821 96.0272 267.168 101.106 268.879 105.544C269.968 108.366 271.206 110.93 272.364 112.371C277.636 118.93 280.648 145.839 280.648 145.839Z" fill="#0B1A3B"/>
<path d="M268.681 105.557C267.491 111.676 265.305 121.919 263.127 127.116C255.462 112.2 245.546 87.4132 245.546 87.4132L264.493 82.0622C264.493 82.0622 265.387 89.7649 265.549 93.6578C265.649 96.0343 266.984 101.123 268.681 105.557Z" fill="#233862"/>
<path d="M253.44 152.119C253.44 152.119 253.851 156.434 252.845 156.884L239.961 156.859C239.961 156.859 239.961 155.511 242.03 155.212C244.099 154.913 247.734 153.814 248.35 151.369C248.966 148.923 253.44 152.119 253.44 152.119Z" fill="#233862"/>
<path d="M242.355 86.4012C242.355 86.4012 243.009 94.5006 243.784 104.235C244.834 117.46 246.094 133.703 246.22 136.78C246.436 142.124 247.302 150.671 247.302 150.671C247.302 150.671 249.356 152.701 253.464 151.846C253.464 151.846 257.124 139.644 258.17 126.736L258.219 126.097C259.2 112.954 260.704 85.2803 260.704 85.2803L242.355 86.4012Z" fill="#0B1A3B"/>
<path d="M259.905 42.0119C259.905 42.0119 248.366 45.4798 249.724 43.7805C249.546 42.7644 249.033 40.0392 248.953 39.2916C248.83 38.3954 248.758 37.4931 248.736 36.589L252.167 33.925L255.427 31.3767C255.168 38.5505 259.905 42.0119 259.905 42.0119Z" fill="#EACDB0"/>
<path d="M270.254 101.451C260.776 107.801 241.622 105.987 241.478 105.871C241.16 101.831 240.983 95.1677 240.879 89.0006C240.755 81.3388 240.754 74.4465 240.763 74.3008C240.763 74.3008 240.763 74.0684 240.778 73.6771C240.81 72.4312 240.886 69.5843 240.968 67.456C240.983 67.0582 240.998 66.6882 241.013 66.3559C241.013 66.3379 241.013 66.3199 241.013 66.3018C241.072 65.3474 241.661 62.7935 242.49 59.8188C243.704 55.4575 245.43 50.1958 246.755 47.7483C247.435 46.4926 249.726 42.8582 249.726 42.8582C251.34 43.1742 252.503 42.6945 254.206 41.8759C256.071 40.9837 258.077 40.0211 258.401 40.265C260.84 42.0331 262.488 46.008 263.366 51.0848C263.87 53.9923 270.723 101.124 270.254 101.451Z" fill="#ABDDDA"/>
<path d="M255.118 33.9911C255.118 33.9911 252.991 38.2356 248.941 39.422C248.825 38.4813 248.757 37.5342 248.736 36.5851L251.981 33.7903L255.118 33.9911Z" fill="#EACDB0"/>
<path d="M247.22 36.8351C247.22 36.8351 255.819 38.2718 256.631 32.8723C257.443 27.4728 259.091 24.0226 253.636 22.8759C248.181 21.7292 246.803 23.6297 246.098 25.3649C245.393 27.1001 245.005 36.3174 247.22 36.8351Z" fill="#EACDB0"/>
<path d="M259.25 22.2616C259.327 22.1714 259.506 22.0946 259.906 22.0763C259.679 21.9449 259.424 21.8716 259.163 21.8626C259.079 21.3001 258.785 20.302 257.831 20.06C257.986 20.1523 258.119 20.279 258.219 20.4308C258.32 20.5825 258.385 20.7553 258.411 20.9363C257.305 19.7829 254.939 18.9433 248.384 19.4691C239.746 20.1618 242.593 25.7834 243.711 26.4544C244.829 27.1254 247.652 25.286 249.728 25.453C251.803 25.6199 252.207 28.6811 252.915 29.1017C253.622 29.5223 253.343 28.7795 254.301 28.3389C255.258 27.8982 255.348 29.5073 255.072 30.5572C254.796 31.6071 256.11 32.9858 256.11 32.9858L257.438 31.532C258.767 30.0781 260.018 23.9207 259.409 22.6087L259.25 22.2616Z" fill="#0B1A3B"/>
<path d="M240.882 89.303C240.755 81.4898 240.753 74.4613 240.764 74.3128C240.764 74.3128 240.764 74.0757 240.779 73.6767C248.405 64.371 258.242 54.7081 258.242 54.7081C258.242 54.7081 260.374 82.0024 240.882 89.303Z" fill="#91CECF"/>
<path d="M251.131 53.099C251.033 53.2671 248.779 67.4168 242.993 67.5748C242.509 67.6 242.025 67.5432 241.558 67.4067C241.572 66.9984 241.586 66.6186 241.602 66.2774C241.602 66.2589 241.602 66.2405 241.602 66.222C241.659 65.2422 242.223 62.6207 243.017 59.5672C245.385 59.0463 248.154 56.7406 251.131 53.099Z" fill="#91CECF"/>
<path d="M258.309 40.0416C258.309 40.0416 257.602 38.0326 257.026 37.813C257.026 37.813 249.016 39.6198 246.343 48.2719C246.343 48.2655 249.46 42.9549 258.309 40.0416Z" fill="#6BB7BF"/>
<path d="M242.748 107.518L226.772 109.775L218.322 110.969C216.741 111.188 215.139 110.763 213.866 109.785C212.593 108.808 211.753 107.359 211.53 105.754L203.319 45.8046C203.103 44.1992 203.522 42.5723 204.484 41.2796C205.446 39.987 206.873 39.1337 208.453 38.9065L215.947 37.8479L232.878 35.4557C234.459 35.2365 236.061 35.6619 237.334 36.6388C238.607 37.6158 239.447 39.0648 239.671 40.6691L247.883 100.617C248.1 102.223 247.681 103.851 246.719 105.144C245.756 106.438 244.328 107.291 242.748 107.518Z" fill="#FFDAD8"/>
<path d="M243.758 89.6838L242.894 86.6386L242.03 83.5918C241.815 82.8434 241.31 82.2096 240.625 81.8288C239.94 81.448 239.131 81.351 238.374 81.5589C238.287 81.5834 238.209 81.6127 238.12 81.6437C238.348 81.1968 238.455 80.6993 238.431 80.1993C238.809 80.8376 239.415 81.3112 240.129 81.5254C240.844 81.7397 241.614 81.6788 242.285 81.3549C242.956 81.0311 243.479 80.4681 243.749 79.7787C244.019 79.0893 244.016 78.3243 243.742 77.6367L242.576 74.6909L241.411 71.7436C241.27 71.3838 241.057 71.0553 240.787 70.7767C240.517 70.4982 240.194 70.2751 239.837 70.1201C239.48 69.9652 239.095 69.8815 238.706 69.8737C238.316 69.866 237.928 69.9344 237.565 70.0751C237.202 70.2157 236.87 70.4259 236.589 70.6935C236.308 70.9611 236.083 71.281 235.926 71.6348C235.77 71.9886 235.685 72.3695 235.678 72.7557C235.67 73.1419 235.739 73.5259 235.881 73.8856L237.637 78.3246C237.324 77.9887 236.935 77.7307 236.502 77.5715C236.07 77.4123 235.605 77.3564 235.147 77.4085C235.422 76.9338 235.559 76.3926 235.541 75.8454C235.523 75.2983 235.351 74.7669 235.045 74.3111C235.136 73.7386 235.054 73.1522 234.81 72.6254C234.566 72.0985 234.171 71.6546 233.674 71.3491L228.236 68.03C227.593 67.6303 226.82 67.49 226.077 67.6382C225.333 67.7863 224.675 68.2115 224.238 68.8262C223.801 69.4408 223.62 70.198 223.73 70.9416C223.84 71.6852 224.234 72.3586 224.831 72.8228C224.567 72.8568 224.308 72.9264 224.063 73.0298L221.127 74.2785L218.193 75.5272C217.707 75.7351 217.286 76.0678 216.974 76.4908C216.662 76.9138 216.469 77.4119 216.416 77.9334L215.988 77.2177L214.362 74.4953C213.962 73.8252 213.309 73.3401 212.548 73.1467C211.786 72.9533 210.978 73.0676 210.302 73.4642C209.625 73.8609 209.136 74.5076 208.94 75.2619C208.745 76.0163 208.861 76.8166 209.261 77.4867L210.887 80.2091L211.928 81.955C211.434 82.2327 211.03 82.6451 210.765 83.1432C210.5 83.6414 210.385 84.2044 210.433 84.7655L210.714 87.9166L210.995 91.0694C211.037 91.5378 211.192 91.9893 211.447 92.3861C211.701 92.7828 212.049 93.1131 212.459 93.3491C212.87 93.5851 213.331 93.7199 213.805 93.7422C214.28 93.7645 214.752 93.6736 215.183 93.4772C214.963 94.1282 214.978 94.8347 215.226 95.4758C214.71 95.8707 214.342 96.424 214.178 97.0489L213.376 100.112L212.575 103.175C212.4 103.843 212.467 104.55 212.766 105.174C213.065 105.797 213.576 106.296 214.209 106.583C214.843 106.87 215.558 106.927 216.229 106.743C216.9 106.56 217.485 106.148 217.88 105.58C218.142 106.015 218.513 106.375 218.958 106.625C219.643 107.006 220.452 107.104 221.209 106.895C221.966 106.687 222.609 106.191 222.998 105.514L224.571 102.761L226.144 100.006C226.351 99.6433 226.476 99.2408 226.511 98.8258C227.212 98.8011 227.882 98.5295 228.399 98.0596L228.854 97.6456L228.283 98.6449L226.71 101.398C226.323 102.076 226.224 102.879 226.434 103.629C226.644 104.38 227.147 105.017 227.831 105.4C228.515 105.784 229.325 105.882 230.083 105.674C230.84 105.466 231.484 104.968 231.871 104.29L233.444 101.537L235.017 98.7818C235.037 98.7459 235.053 98.7101 235.071 98.6742C235.26 98.8985 235.482 99.0936 235.729 99.2529L235.17 100.231C234.978 100.566 234.854 100.936 234.806 101.318C234.758 101.701 234.787 102.089 234.89 102.461C234.994 102.832 235.17 103.18 235.409 103.484C235.648 103.788 235.946 104.043 236.284 104.233C236.622 104.423 236.995 104.546 237.381 104.593C237.768 104.641 238.159 104.613 238.535 104.51C238.91 104.408 239.261 104.233 239.568 103.996C239.875 103.759 240.132 103.465 240.324 103.13L243.468 97.6211C243.694 97.2263 243.824 96.7851 243.848 96.3322C243.872 95.8792 243.79 95.4269 243.608 95.0106C243.426 94.5944 243.149 94.2256 242.799 93.9333C242.449 93.6409 242.036 93.4329 241.591 93.3256C241.625 93.3174 241.662 93.3109 241.696 93.3011C242.453 93.0904 243.094 92.5916 243.48 91.9138C243.867 91.236 243.967 90.4343 243.758 89.6838ZM216.906 90.5624L216.811 89.4865C217.133 89.8942 217.562 90.2061 218.051 90.388L216.835 91.4933C216.909 91.1882 216.932 90.8733 216.905 90.5608L216.906 90.5624ZM236.323 85.1828L237.485 89.2795C237.134 88.7669 236.629 88.3771 236.041 88.1654C235.454 87.9538 234.814 87.9312 234.212 88.1009C234.494 87.8743 234.731 87.598 234.912 87.2858L236.261 84.922C236.276 85.0019 236.295 85.0915 236.32 85.1812L236.323 85.1828ZM228.058 74.8263L228.881 75.33L228.193 75.956C228.223 75.573 228.176 75.1879 228.055 74.823L228.058 74.8263ZM229.995 83.9553C229.858 83.5196 229.62 83.1216 229.3 82.793C229.512 82.6802 229.709 82.5422 229.886 82.3822L231.978 80.4814L229.995 83.9553ZM232.682 89.1327C232.342 88.9234 231.962 88.7841 231.567 88.723C231.171 88.662 230.767 88.6804 230.378 88.7774L230.33 87.9851C230.704 88.3279 231.161 88.5683 231.657 88.6827C232.152 88.7971 232.67 88.7814 233.157 88.6372C232.978 88.7851 232.816 88.9536 232.677 89.1393L232.682 89.1327ZM225.218 78.9392C224.961 79.4684 224.87 80.0615 224.956 80.6424C225.042 81.2234 225.301 81.7656 225.7 82.1996C225.715 82.2159 225.733 82.2306 225.748 82.2469C225.546 82.356 225.359 82.4878 225.188 82.6397C225.294 82.0429 225.211 81.4282 224.95 80.88C224.69 80.3319 224.264 79.8771 223.732 79.5782H223.722L225.218 78.9392ZM223.273 86.3386L224.199 84.7084C224.199 84.8013 224.199 84.8943 224.199 84.9888L224.364 87.7096C223.893 87.3933 223.341 87.2179 222.773 87.2043L223.266 86.3305L223.273 86.3386ZM219.7 99.3671L219.921 98.5242C220.076 97.9301 220.038 97.3025 219.812 96.731C219.875 96.6838 219.936 96.6348 219.995 96.5811L224.703 92.3035C224.732 92.2757 224.759 92.2464 224.788 92.2171C224.897 92.4874 225.047 92.7401 225.231 92.9669L224.393 93.7282C223.851 94.2225 223.515 94.9001 223.452 95.6274C222.947 95.6455 222.455 95.7914 222.023 96.051C221.591 96.3107 221.233 96.6755 220.984 97.1109L219.7 99.3671ZM233.013 93.8733L233.269 94.5254C232.995 94.4463 232.71 94.4073 232.424 94.4097L233.013 93.8733ZM239.312 93.6956L238.953 92.7892L238.886 92.6165C239.257 92.9589 239.71 93.2024 240.202 93.3239C239.887 93.4008 239.586 93.528 239.312 93.7005V93.6956ZM219.416 81.1644L218.112 83.4467L216.541 86.2001C216.541 86.2131 216.528 86.2261 216.521 86.2392L216.345 84.252C216.345 84.2014 216.33 84.1509 216.324 84.102C216.411 84.0612 216.488 84.0189 216.579 83.9683C217.115 83.6519 217.537 83.1767 217.785 82.6097C218.033 82.0428 218.095 81.4129 217.963 80.809C218.408 81.0494 218.908 81.1734 219.416 81.1693V81.1644Z" fill="#EF073F"/>
<path d="M238.942 37.6718L216.011 40.8319L202.997 42.6292C202.686 42.6716 202.371 42.5901 202.121 42.4026C201.871 42.2151 201.707 41.937 201.663 41.6292L200.882 36.0607C200.84 35.753 200.922 35.4414 201.111 35.1938C201.3 34.9462 201.581 34.7827 201.891 34.7389L214.887 32.9415L237.836 29.7782C238.146 29.7367 238.46 29.8186 238.71 30.0059C238.96 30.1932 239.125 30.4708 239.169 30.7782L239.951 36.3467C239.994 36.6549 239.911 36.9674 239.722 37.2157C239.533 37.464 239.253 37.628 238.942 37.6718Z" fill="#ABDDDA"/>
<path d="M223.095 72.6255C222.983 72.4171 222.817 72.2438 222.616 72.1243C222.335 71.8086 222.022 71.4193 221.943 71.1704C221.795 70.6976 221.221 70.6692 221.118 71.1236C221.085 71.2811 221.09 71.4443 221.131 71.5997C220.188 71.4561 218.807 71.4811 216.794 71.9238C216.794 71.9238 215.224 72.1978 216.58 73.2286C217.486 73.9169 218.057 73.7565 219.354 74.7054C220.651 75.6544 222.26 75.915 223.254 75.2735L224.559 75.0563L224.804 72.7475L223.095 72.6255Z" fill="#FFDAD8"/>
<path d="M260.535 46.6642C260.535 46.6642 263.229 61.1166 247.073 72.2778C242.712 75.2911 223.336 75.6259 223.336 75.6259C223.336 75.6259 222.76 73.1717 224.05 72.1355C224.05 72.1355 240.612 66.1372 242.231 66.4335C243.667 66.6964 251.258 52.2038 254.224 49.3578C257.19 46.5119 260.535 46.6642 260.535 46.6642Z" fill="#ABDDDA"/>
</svg>
