<svg width="9" height="16" viewBox="0 0 9 16" fill="none" xmlns="http://www.w3.org/2000/svg">
<path d="M8.24779 15.7443L8.75038 15.2202C8.90734 15.0552 8.99381 14.8358 8.99381 14.6012C8.99381 14.3668 8.90734 14.1471 8.75038 13.9822L3.05653 8.00358L8.7567 2.0181C8.91365 1.85341 9 1.6337 9 1.3993C9 1.16489 8.91365 0.945048 8.7567 0.780234L8.25721 0.256002C7.93239 -0.085334 7.40329 -0.085334 7.07847 0.256002L0.267337 7.38243C0.110503 7.54712 0 7.76657 0 8.00306V8.00579C0 8.24033 0.110627 8.45978 0.267337 8.62446L7.06001 15.7443C7.21685 15.9092 7.43215 15.9997 7.65539 16C7.87875 16 8.09108 15.9092 8.24779 15.7443Z" fill="#707579"/>
</svg>
