<svg width="17" height="18" viewBox="0 0 17 18" fill="none" xmlns="http://www.w3.org/2000/svg">
<path fill-rule="evenodd" clip-rule="evenodd" d="M8.81851 14.3817L7.16403 14.799C7.04637 14.8287 6.92519 14.8434 6.80387 14.8429C6.4174 14.8412 6.0547 14.6891 5.78261 14.4146C5.4242 14.053 5.2816 13.5224 5.41041 13.0299L5.44862 12.8838L4.04873 12.8777C3.5685 12.8756 3.18089 12.4845 3.183 12.0043C3.18512 11.5241 3.57615 11.1364 4.05639 11.1386L5.91567 11.1467C6.03831 10.8173 6.23153 10.517 6.48243 10.2683L7.13478 9.62166L4.06312 9.60814C3.58288 9.60603 3.19528 9.215 3.19739 8.73476C3.19951 8.25452 3.59054 7.86692 4.07078 7.86903L8.88155 7.8902L10.42 6.36527C10.4046 6.366 10.389 6.36639 10.3734 6.36632L4.07755 6.33861C3.59731 6.3365 3.2097 5.94546 3.21182 5.46522C3.21393 4.98499 3.60496 4.59738 4.0852 4.59949L10.3811 4.6272C10.8613 4.62932 11.2489 5.02035 11.2468 5.50059C11.2467 5.5162 11.2462 5.53175 11.2453 5.54716L13.3643 3.44676C13.534 3.27856 13.724 3.13849 13.9286 3.02812L13.933 2.03822C13.9354 1.4937 13.4958 1.05034 12.9513 1.04794L1.54656 0.997747C1.00204 0.995351 0.558678 1.43483 0.556282 1.97935L0.494543 16.0073C0.492147 16.5518 0.931626 16.9952 1.47614 16.9976L12.8809 17.0478C13.4254 17.0502 13.8688 16.6107 13.8712 16.0662L13.8987 9.82235L9.93496 13.7513C9.62617 14.0574 9.2401 14.2754 8.81851 14.3817ZM7.21701 11.0094C7.04069 11.1841 6.91454 11.403 6.85171 11.6432L6.41992 13.2939C6.38384 13.4319 6.42329 13.5787 6.52368 13.68C6.59997 13.757 6.70278 13.799 6.80845 13.7994C6.84188 13.7996 6.8756 13.7955 6.90885 13.7872L8.5633 13.3699C8.80402 13.3092 9.02401 13.185 9.20033 13.0102L14.8363 7.4236L12.853 5.42275L7.21701 11.0094ZM15.0968 3.77967C15.4573 3.78125 15.8171 3.92037 16.091 4.19664C16.6386 4.74914 16.6347 5.64103 16.0823 6.18869L15.5746 6.69192L13.5938 4.68854L14.0989 4.18787C14.3752 3.91402 14.7363 3.77808 15.0968 3.77967Z" fill="#fff"/>
</svg>
