<svg width="44" height="44" viewBox="0 0 44 44" fill="none" xmlns="http://www.w3.org/2000/svg">
<path fill-rule="evenodd" clip-rule="evenodd" d="M34.6674 16.4544C35.1635 18.0799 35.4247 19.8074 35.4247 21.5968C35.4247 23.3862 35.1635 25.1135 34.6674 26.7435C32.4794 33.9807 25.7826 39.2646 17.841 39.331C17.9651 39.4949 18.0402 39.6941 18.0315 39.9244V42.3605C18.0404 42.923 18.3238 43.1976 18.8641 43.1976H24.3298C24.8746 43.1976 25.1537 42.9229 25.1626 42.3605V39.9244C25.1449 39.4063 25.5479 39.0386 25.9776 38.9013C27.8333 38.3299 29.0293 37.9091 30.7344 36.9304C31.1552 36.6912 31.7044 36.7355 32.0322 37.0766L33.7596 38.804C34.1538 39.1538 34.5437 39.1451 34.9377 38.804L38.8001 34.9372C39.1101 34.5918 39.1013 34.1976 38.8001 33.7591L38.2419 33.1966L37.0769 32.0318C36.7713 31.7351 36.634 31.2035 36.9307 30.734C37.8255 29.3432 38.4588 27.5671 38.9018 25.9771C39.008 25.6138 39.451 25.1621 39.9249 25.1665H41.3999H42.361C42.9058 25.1532 43.1849 24.8741 43.1982 24.3293V18.8682C43.1849 18.319 42.9058 18.0444 42.361 18.031H41.3999H39.9249C39.451 18.0355 39.008 17.5836 38.9018 17.2161C38.4588 15.6305 37.8255 13.8544 36.9307 12.4593C36.634 11.9941 36.7712 11.4583 37.0769 11.1615L38.2419 9.99662L38.8001 9.43865C39.1013 8.99568 39.1101 8.60146 38.8001 8.25599L34.9377 4.39381C34.5437 4.05271 34.1538 4.03943 33.7596 4.39381L32.0322 6.12115C31.7044 6.45787 31.1552 6.50646 30.7344 6.26287C29.0293 5.28396 27.8333 4.86771 25.9776 4.29193C25.548 4.15912 25.1449 3.79146 25.1626 3.27318V0.832713C25.1537 0.270213 24.8748 -0.0044761 24.3298 5.5146e-05H18.8641C18.3237 -0.0044761 18.0402 0.270213 18.0315 0.832713V3.27318C18.0404 3.49912 17.9651 3.70271 17.841 3.86224C25.7826 3.92881 32.4793 9.21271 34.6674 16.4544V16.4544Z" fill="#fff"/>
<path fill-rule="evenodd" clip-rule="evenodd" d="M21.5967 13.1149C16.9106 13.1149 13.1148 16.9106 13.1148 21.5967C13.1148 26.2827 16.9106 30.0828 21.5967 30.0828C26.2828 30.0828 30.083 26.2827 30.083 21.5967C30.0831 16.9106 26.283 13.1149 21.5967 13.1149ZM0 18.8683C0.00890625 18.3191 0.287969 18.0446 0.832657 18.0311H3.27313C3.74703 18.0356 4.19 17.5838 4.29187 17.2163C4.73922 15.6306 5.37266 13.8546 6.26297 12.4594C6.55969 11.9942 6.42687 11.4585 6.11672 11.1616L4.39375 9.43877C4.0925 8.9958 4.08813 8.60158 4.39375 8.25611L8.25609 4.39393C8.65015 4.05283 9.04437 4.03955 9.43859 4.39393L11.1616 6.12127C11.4894 6.45799 12.0384 6.50658 12.4594 6.26299C14.1689 5.28408 15.3605 4.86783 17.2162 4.29205C17.6458 4.15924 18.0489 3.79158 18.0312 3.2733V0.832833C18.0402 0.270333 18.3236 -0.00435403 18.8639 0.000177217H24.3295C24.8744 -0.00435403 25.1534 0.270333 25.1623 0.832833V3.2733C25.1447 3.79143 25.5477 4.15908 25.9773 4.29205C27.8331 4.86783 29.0291 5.28424 30.7342 6.26299C31.155 6.50658 31.7042 6.45783 32.032 6.12127L33.7594 4.39393C34.1536 4.03955 34.5434 4.05283 34.9375 4.39393L38.7998 8.25611C39.1098 8.60158 39.1011 8.9958 38.7998 9.43877L37.0769 11.1616C36.7712 11.4583 36.6339 11.9942 36.9306 12.4594C37.8255 13.8546 38.4587 15.6306 38.9017 17.2163C39.008 17.5839 39.4509 18.0356 39.9248 18.0311H42.3609C42.9058 18.0444 43.1848 18.3191 43.1981 18.8683V24.3294C43.1848 24.8741 42.9058 25.1533 42.3609 25.1666H39.9248C39.4509 25.1622 39.008 25.6139 38.9017 25.9772C38.4587 27.5672 37.8255 29.3433 36.9306 30.7341C36.6339 31.2036 36.7711 31.735 37.0769 32.0319L38.7998 33.7592C39.1011 34.1977 39.1098 34.5919 38.7998 34.9374L34.9375 38.8041C34.5434 39.1452 34.1536 39.1539 33.7594 38.8041L32.032 37.0767C31.7042 36.7356 31.155 36.6914 30.7342 36.9305C29.0291 37.9094 27.8331 38.3302 25.9773 38.9014C25.5478 39.0386 25.1447 39.4063 25.1623 39.9246V42.3606C25.1534 42.9231 24.8745 43.1977 24.3295 43.1977H18.8639C18.3234 43.1977 18.04 42.923 18.0312 42.3606V39.9246C18.0489 39.4064 17.6459 39.0388 17.2162 38.9014C15.3605 38.33 14.1691 37.9092 12.4594 36.9305C12.0384 36.6913 11.4894 36.7356 11.1616 37.0767L9.43859 38.8041C9.04437 39.1539 8.65015 39.1452 8.25609 38.8041L4.39375 34.9374C4.08813 34.5919 4.0925 34.1977 4.39375 33.7592L6.11672 32.0319C6.42672 31.7352 6.55969 31.2036 6.26297 30.7341C5.37266 29.3433 4.73922 27.5672 4.29187 25.9772C4.19 25.6139 3.74703 25.1622 3.27313 25.1666H0.832657C0.287813 25.1533 0.00875 24.8742 0 24.3294V18.8683Z" fill="#fff"/>
</svg>
