<svg width="14" height="17" viewBox="0 0 14 17" fill="none" xmlns="http://www.w3.org/2000/svg">
<path fill-rule="evenodd" clip-rule="evenodd" d="M9.01728 12.0927L12.9547 12.11L13.0078 0.0569389L0.0704172 0L0 15.9998L8.99991 16.0395L9.01728 12.0927ZM8.7731 5.53835C8.77202 5.78207 8.73168 6.01652 8.65896 6.23627L9.19852 6.55096L8.7262 7.36076L8.18583 7.0456C7.87058 7.39243 7.44927 7.64083 6.97392 7.73943L6.97118 8.3638L6.03368 8.35967L6.03643 7.7353C5.56194 7.63252 5.14283 7.38043 4.83068 7.03083L4.28752 7.34122L3.82235 6.52729L4.36469 6.21737C4.29391 5.99699 4.25563 5.76219 4.2567 5.51848C4.25778 5.27476 4.29812 5.04034 4.37084 4.8206L3.83125 4.50591L4.30357 3.69607L4.84397 4.01123C5.15918 3.6644 5.58053 3.416 6.05588 3.31741L6.05862 2.69304L6.99612 2.69716L6.99337 3.3215C7.46786 3.42428 7.88697 3.67637 8.19912 4.02594L8.74224 3.71555L9.20742 4.52951L8.66511 4.83944C8.73592 5.05984 8.77417 5.29464 8.7731 5.53835ZM2.64946 12.8136L2.65358 11.8761L3.63792 11.8804L3.63379 12.8179L2.64946 12.8136ZM4.57541 11.8845L6.48689 11.8929L6.48276 12.8304L4.57128 12.822L4.57541 11.8845ZM2.65826 10.8136L2.66238 9.8761L3.64672 9.88043L3.64259 10.8179L2.65826 10.8136ZM10.3248 10.8473L4.58008 10.822L4.58421 9.88455L10.329 9.90984L10.3249 10.8473H10.3248ZM9.95042 13.0343L9.93839 15.769L12.6851 13.0463L9.95042 13.0343ZM7.83559 5.53424C7.83238 6.26364 7.23848 6.85234 6.50908 6.84913C5.77967 6.84592 5.19097 6.25202 5.19418 5.52261C5.19739 4.7932 5.7913 4.20451 6.5207 4.20772C7.25011 4.21093 7.8388 4.80483 7.83559 5.53424Z" fill="#fff"/>
</svg>
