<svg width="14" height="16" viewBox="0 0 14 16" fill="none" xmlns="http://www.w3.org/2000/svg">
<path fill-rule="evenodd" clip-rule="evenodd" d="M6.82845 0.0226563L12.6098 1.71247C13.0368 1.82841 13.3344 2.217 13.3343 2.66004V10.9031C13.3343 11.9854 12.7369 12.9612 11.7743 13.4535L7.97561 15.6863L7.96223 15.693C7.5568 15.8977 7.11195 16 6.66717 16C6.22239 16 5.77757 15.8977 5.3721 15.693L5.34579 15.6787L1.56003 13.4535C0.597407 12.9612 0 11.9854 0 10.9031V2.66004C0 2.21704 0.297532 1.82847 0.72447 1.7125L6.51211 0.020875L6.51829 0.01925C6.61573 -0.00640626 6.71873 -0.00643751 6.81623 0.0192813L6.82845 0.0226563ZM2.65129 7.67517C2.65129 9.88955 4.45282 11.6911 6.6672 11.6911C8.88161 11.6911 10.6831 9.88952 10.6831 7.67517C10.6831 5.46076 8.88158 3.65923 6.6672 3.65923C4.45282 3.65923 2.65129 5.46079 2.65129 7.67517ZM3.58889 7.67522C3.58889 5.97775 4.96983 4.59681 6.66727 4.59681C8.36471 4.59681 9.74565 5.97778 9.74565 7.67522C9.74565 9.37266 8.36471 10.7536 6.66727 10.7536C4.96983 10.7536 3.58889 9.37263 3.58889 7.67522ZM7.13939 9.46247C7.14221 9.44747 7.14471 9.43213 7.14627 9.41716C7.14786 9.40185 7.14846 9.38625 7.14846 9.37091C7.14846 9.35557 7.14783 9.33994 7.14627 9.32497C7.14471 9.30966 7.14221 9.29432 7.13939 9.27935C7.13627 9.26432 7.13252 9.24935 7.12814 9.23497C7.12346 9.22028 7.11846 9.20557 7.11252 9.1915C7.10658 9.17747 7.10002 9.16372 7.09283 9.15028C7.08564 9.1365 7.07783 9.12338 7.06939 9.11057C7.06096 9.09807 7.05189 9.08557 7.04221 9.07369C7.03252 9.06182 7.02189 9.05025 7.01127 9.03963C7.00033 9.02866 6.98877 9.01838 6.97689 9.00838C6.96502 8.999 6.95252 8.98963 6.94002 8.98119C6.92721 8.97272 6.91408 8.96491 6.90064 8.95775C6.88721 8.95053 6.87314 8.94397 6.85908 8.93807C6.84502 8.93213 6.83033 8.92713 6.81596 8.92275C6.80127 8.91807 6.78627 8.91435 6.77127 8.91119C6.75627 8.90838 6.74096 8.90619 6.72596 8.90463C6.69533 8.9015 6.66408 8.9015 6.63346 8.90463C6.61846 8.90619 6.60314 8.90838 6.58814 8.91119C6.57314 8.91432 6.55814 8.91807 6.54346 8.92275C6.52908 8.9271 6.51439 8.93213 6.50033 8.93807C6.48627 8.944 6.47221 8.95057 6.45877 8.95775C6.44533 8.96491 6.43221 8.97272 6.41939 8.98119C6.40689 8.9896 6.39439 8.999 6.38252 9.00838C6.37064 9.01838 6.35908 9.02866 6.34814 9.03963C6.33752 9.05025 6.32689 9.06182 6.3172 9.07369C6.30752 9.08557 6.29845 9.0981 6.29002 9.11057C6.28158 9.12341 6.27377 9.13653 6.26658 9.15028C6.25939 9.16369 6.25283 9.17747 6.24689 9.1915C6.24095 9.2056 6.23596 9.22028 6.23127 9.23497C6.22689 9.24935 6.22314 9.26435 6.22002 9.27935C6.21721 9.29435 6.2147 9.30966 6.21314 9.32497C6.21158 9.33997 6.21095 9.3556 6.21095 9.37091C6.21095 9.38622 6.21158 9.40185 6.21314 9.41716C6.2147 9.43213 6.21721 9.44747 6.22002 9.46247C6.22314 9.47747 6.22689 9.49247 6.23127 9.50716C6.23596 9.52153 6.24095 9.53622 6.24689 9.55029C6.25283 9.56435 6.25939 9.57841 6.26658 9.59185C6.27377 9.60529 6.28158 9.61841 6.29002 9.63122C6.29845 9.64404 6.30752 9.65622 6.3172 9.6681C6.32689 9.68001 6.33752 9.69154 6.34814 9.7025C6.35908 9.71313 6.37064 9.72372 6.38252 9.73344C6.39439 9.7431 6.40689 9.75216 6.41939 9.76063C6.43221 9.76907 6.44533 9.77716 6.45908 9.78407C6.47252 9.79125 6.48627 9.79782 6.50033 9.80375C6.51439 9.80966 6.52908 9.81469 6.54346 9.81938C6.55814 9.82372 6.57314 9.82747 6.58814 9.8306C6.60314 9.83341 6.61846 9.83591 6.63377 9.8375C6.64877 9.83875 6.66439 9.83966 6.67971 9.83966C6.69502 9.83966 6.71064 9.83875 6.72596 9.8375C6.74096 9.83591 6.75627 9.83341 6.77127 9.8306C6.78627 9.8275 6.80127 9.82375 6.81596 9.81938C6.83033 9.81469 6.84502 9.80966 6.85908 9.80375C6.87314 9.79779 6.88689 9.79122 6.90033 9.78407C6.91408 9.77716 6.92721 9.76907 6.94002 9.76063C6.95252 9.75219 6.96502 9.74313 6.97689 9.73344C6.98877 9.72375 7.00033 9.71313 7.01127 9.7025C7.02189 9.69154 7.03252 9.68001 7.04221 9.6681C7.05189 9.65622 7.06096 9.64404 7.06939 9.63122C7.07783 9.61841 7.08564 9.60529 7.09283 9.59185C7.10002 9.57841 7.10658 9.56435 7.11252 9.55029C7.11846 9.53622 7.12346 9.52153 7.12814 9.50716C7.13252 9.49247 7.13627 9.47744 7.13939 9.46247ZM6.67974 8.36941C6.93861 8.36941 7.14849 8.15953 7.14849 7.90066V5.90256C7.14849 5.64368 6.93861 5.43381 6.67974 5.43381C6.42086 5.43381 6.21099 5.64368 6.21099 5.90256V7.90066C6.21099 8.15953 6.42086 8.36941 6.67974 8.36941Z" fill="#fff"/>
</svg>
