<svg width="1400" height="96" viewBox="0 0 1400 96" fill="none" xmlns="http://www.w3.org/2000/svg">
<path d="M13.9842 80.5505C11.3386 80.5505 8.94488 78.9168 6.80315 75.6493C4.68661 72.3108 3.02362 67.7647 1.81417 62.0111C0.604724 56.1865 0 49.6515 0 42.4062C0 35.1609 0.604724 28.6615 1.81417 22.9079C3.02362 17.0832 4.69921 12.5372 6.84094 9.2697C8.98267 5.93119 11.3764 4.26193 14.022 4.26193C16.0882 4.26193 17.9779 5.25638 19.6913 7.24529C21.4047 9.16315 22.8661 12.04 24.0756 15.8757L21.6189 22.5882C19.6283 16.6926 17.1465 13.7447 14.1732 13.7447C12.2079 13.7447 10.4315 14.9878 8.84409 17.4739C7.25669 19.96 6.00945 23.4051 5.10236 27.8091C4.22047 32.1421 3.77953 37.0078 3.77953 42.4062C3.77953 47.8047 4.22047 52.7059 5.10236 57.1099C6.00945 61.4429 7.25669 64.8524 8.84409 67.3385C10.4315 69.8247 12.2079 71.0677 14.1732 71.0677C17.1213 71.0677 19.6031 68.0844 21.6189 62.1177L24.0756 68.8302C22.8661 72.6659 21.3921 75.5783 19.6535 77.5672C17.9402 79.5561 16.0504 80.5505 13.9842 80.5505Z" fill="#2D9CDB"/>
<path d="M45.8521 61.0522H31.7923L28.8821 79.6981H24.9892L36.9703 5.11432H40.712L52.7309 79.6981H48.7624L45.8521 61.0522ZM44.5293 52.5283L38.8222 15.9822L33.1151 52.5283H44.5293Z" fill="#2D9CDB"/>
<path d="M81.8261 79.6981L81.7884 25.3585L72.2262 70.6415H70.4876L60.9254 25.6781V79.6981H57.297V5.11432H60.3962L71.4325 57.5361L82.3175 5.11432H85.4167L85.4545 79.6981H81.8261Z" fill="#2D9CDB"/>
<path d="M105.595 80.5505C102.924 80.5505 100.518 78.9168 98.3764 75.6493C96.2346 72.3108 94.5464 67.7292 93.3118 61.9046C92.1023 56.0799 91.4976 49.5805 91.4976 42.4062C91.4976 35.232 92.1023 28.7325 93.3118 22.9079C94.5464 17.0832 96.2346 12.5372 98.3764 9.2697C100.518 5.93119 102.924 4.26193 105.595 4.26193C108.241 4.26193 110.635 5.93119 112.776 9.2697C114.918 12.5372 116.594 17.0832 117.803 22.9079C119.013 28.6615 119.617 35.1609 119.617 42.4062C119.617 49.6515 119.013 56.1865 117.803 62.0111C116.594 67.7647 114.918 72.3108 112.776 75.6493C110.635 78.9168 108.241 80.5505 105.595 80.5505ZM105.595 71.0677C107.535 71.0677 109.274 69.8247 110.811 67.3385C112.373 64.8524 113.595 61.4429 114.477 57.1099C115.384 52.7059 115.838 47.8047 115.838 42.4062C115.838 37.0078 115.384 32.1421 114.477 27.8091C113.595 23.4051 112.373 19.96 110.811 17.4739C109.274 14.9878 107.535 13.7447 105.595 13.7447C103.655 13.7447 101.891 14.9878 100.304 17.4739C98.7417 19.96 97.5071 23.4051 96.6 27.8091C95.7181 32.1421 95.2771 37.0078 95.2771 42.4062C95.2771 47.8047 95.7181 52.7059 96.6 57.1099C97.5071 61.4429 98.7417 64.8524 100.304 67.3385C101.891 69.8247 103.655 71.0677 105.595 71.0677Z" fill="#2D9CDB"/>
<path d="M146.608 5.11432V79.6981H142.904V14.384H131.187L130.923 36.2264C130.797 46.5261 130.494 54.8724 130.016 61.2653C129.562 67.6582 128.831 72.4884 127.824 75.7558C126.816 78.9523 125.455 80.5505 123.742 80.5505C122.961 80.5505 122.167 80.2664 121.361 79.6981L121.625 70.2153C122.028 70.4995 122.431 70.6415 122.835 70.6415C123.918 70.6415 124.787 69.434 125.442 67.0189C126.098 64.5327 126.589 60.8391 126.916 55.9379C127.244 51.0366 127.458 44.5727 127.559 36.5461L127.975 5.11432H146.608Z" fill="#2D9CDB"/>
<path d="M154.849 5.11432H158.59V79.6981H154.849V5.11432Z" fill="#2D9CDB"/>
<path d="M176.066 46.8812H170.548V79.6981H166.844V5.11432H170.548V37.505H176.142L184.457 5.11432H188.501L179.052 41.2342L188.954 79.6981H184.646L176.066 46.8812Z" fill="#2D9CDB"/>
<path d="M214.67 5.11432L202.915 66.5927C201.983 71.4939 200.887 75.1521 199.627 77.5672C198.367 79.9822 196.994 81.1898 195.508 81.1898C194.348 81.1898 193.164 80.444 191.955 78.9523L192.937 70.4284C193.87 71.3518 194.701 71.8136 195.432 71.8136C197.095 71.8136 198.468 69.3274 199.552 64.3552L200.156 61.6915L189.498 5.11432H193.542L202.122 52.4218L210.928 5.11432H214.67Z" fill="#2D9CDB"/>
<path d="M235.07 41.0211C236.859 42.2286 238.207 44.3951 239.114 47.5205C240.046 50.5749 240.513 54.5172 240.513 59.3474C240.513 65.8113 239.668 70.8191 237.98 74.3707C236.317 77.9223 233.886 79.6981 230.686 79.6981H218.591V5.11432H229.968C232.865 5.11432 235.12 6.78357 236.733 10.1221C238.371 13.3896 239.19 18.1132 239.19 24.293C239.19 28.3418 238.824 31.7869 238.094 34.6282C237.388 37.4695 236.38 39.6005 235.07 41.0211ZM222.333 37.9312H229.703C231.542 37.9312 232.941 36.9012 233.898 34.8413C234.881 32.7814 235.372 29.7625 235.372 25.7847C235.372 21.8069 234.881 18.788 233.898 16.7281C232.916 14.5971 231.517 13.5316 229.703 13.5316H222.333V37.9312ZM230.61 71.2808C234.667 71.2808 236.695 67.0189 236.695 58.495C236.695 54.2331 236.179 51.1077 235.146 49.1188C234.138 47.0588 232.626 46.0289 230.61 46.0289H222.333V71.2808H230.61Z" fill="#2D9CDB"/>
<path d="M264.024 61.0522H249.964L247.054 79.6981H243.161L255.142 5.11432H258.884L270.903 79.6981H266.934L264.024 61.0522ZM262.701 52.5283L256.994 15.9822L251.287 52.5283H262.701Z" fill="#2D9CDB"/>
<path d="M298.221 5.11432V79.6981H294.442V46.4551H279.248V79.6981H275.469V5.11432H279.248V37.1854H294.442V5.11432H298.221Z" fill="#2D9CDB"/>
<path d="M329.225 5.11432V79.6981H325.446V46.4551H310.252V79.6981H306.473V5.11432H310.252V37.1854H325.446V5.11432H329.225Z" fill="#2D9CDB"/>
<path d="M356.866 5.11432V79.6981H353.162V57.9623H345.867C345.414 57.9623 345.073 57.9268 344.847 57.8557L339.555 79.6981H335.549L341.407 56.0444C339.517 54.2686 338.069 51.3208 337.061 47.2009C336.053 43.01 335.549 37.9312 335.549 31.9645C335.549 23.5117 336.506 16.9412 338.421 12.2531C340.362 7.49389 342.969 5.11432 346.245 5.11432H356.866ZM339.366 31.8579C339.366 37.3984 339.933 41.6604 341.067 44.6437C342.226 47.5561 343.927 49.0122 346.169 49.0122H353.162V14.384H346.396C344.129 14.384 342.39 15.8757 341.18 18.859C339.971 21.8424 339.366 26.1754 339.366 31.8579Z" fill="#2D9CDB"/>
<path d="M399.801 79.6981L399.763 25.3585L390.201 70.6415H388.462L378.9 25.6781V79.6981H375.272V5.11432H378.371L389.407 57.5361L400.292 5.11432H403.391L403.429 79.6981H399.801Z" fill="#2D9CDB"/>
<path d="M423.57 80.5505C420.899 80.5505 418.493 78.9168 416.351 75.6493C414.209 72.3108 412.521 67.7292 411.287 61.9046C410.077 56.0799 409.472 49.5805 409.472 42.4062C409.472 35.232 410.077 28.7325 411.287 22.9079C412.521 17.0832 414.209 12.5372 416.351 9.2697C418.493 5.93119 420.899 4.26193 423.57 4.26193C426.216 4.26193 428.609 5.93119 430.751 9.2697C432.893 12.5372 434.568 17.0832 435.778 22.9079C436.987 28.6615 437.592 35.1609 437.592 42.4062C437.592 49.6515 436.987 56.1865 435.778 62.0111C434.568 67.7647 432.893 72.3108 430.751 75.6493C428.609 78.9168 426.216 80.5505 423.57 80.5505ZM423.57 71.0677C425.51 71.0677 427.249 69.8247 428.786 67.3385C430.348 64.8524 431.57 61.4429 432.452 57.1099C433.359 52.7059 433.813 47.8047 433.813 42.4062C433.813 37.0078 433.359 32.1421 432.452 27.8091C431.57 23.4051 430.348 19.96 428.786 17.4739C427.249 14.9878 425.51 13.7447 423.57 13.7447C421.63 13.7447 419.866 14.9878 418.279 17.4739C416.716 19.96 415.482 23.4051 414.575 27.8091C413.693 32.1421 413.252 37.0078 413.252 42.4062C413.252 47.8047 413.693 52.7059 414.575 57.1099C415.482 61.4429 416.716 64.8524 418.279 67.3385C419.866 69.8247 421.63 71.0677 423.57 71.0677Z" fill="#2D9CDB"/>
<path d="M464.966 46.8812H459.939V79.6981H456.235V46.8812H451.171L443.763 79.6981H439.341L448.071 40.9145L439.983 5.11432H444.027L451.095 37.505H456.235V5.11432H459.939V37.505H465.004L472.109 5.11432H476.153L468.065 41.1276L476.796 79.6981H472.374L464.966 46.8812Z" fill="#2D9CDB"/>
<path d="M499.959 70.4284V79.6981H480.759V5.11432H499.43V14.384H484.538V37.2919H497.805V46.3485H484.538V70.4284H499.959Z" fill="#2D9CDB"/>
<path d="M516.044 5.11432H536V14.1709H519.786V35.4806H528.026C531.175 35.4806 533.569 37.3274 535.207 41.0211C536.844 44.7148 537.663 50.0422 537.663 57.0033C537.663 64.3197 536.769 69.9312 534.98 73.838C533.216 77.7447 530.684 79.6981 527.383 79.6981H516.044V5.11432ZM527.232 71.2808C529.399 71.2808 531.049 70.1088 532.183 67.7647C533.317 65.4206 533.884 61.9756 533.884 57.4295C533.884 48.4084 531.666 43.8979 527.232 43.8979H519.786V71.2808H527.232Z" fill="#2D9CDB"/>
<path d="M564.46 5.11432L552.706 66.5927C551.774 71.4939 550.678 75.1521 549.418 77.5672C548.158 79.9822 546.785 81.1898 545.298 81.1898C544.139 81.1898 542.955 80.444 541.745 78.9523L542.728 70.4284C543.66 71.3518 544.492 71.8136 545.223 71.8136C546.886 71.8136 548.259 69.3274 549.342 64.3552L549.947 61.6915L539.289 5.11432H543.333L551.912 52.4218L560.719 5.11432H564.46Z" fill="#2D9CDB"/>
<path d="M586.82 14.384H577.749V79.6981H574.045V14.384H565.012V5.11432H586.82V14.384Z" fill="#2D9CDB"/>
<path d="M591.413 5.11432H595.155V62.6504L610.802 5.11432H614.28V79.6981H610.576V22.2686L594.891 79.6981H591.413V5.11432Z" fill="#2D9CDB"/>
<path d="M665.825 5.11432V79.6981H632.678V5.11432H636.42V70.4284H647.418V5.11432H651.122V70.4284H662.121V5.11432H665.825Z" fill="#2D9CDB"/>
<path d="M683.276 46.8812H677.758V79.6981H674.054V5.11432H677.758V37.505H683.351L691.666 5.11432H695.71L686.262 41.2342L696.164 79.6981H691.855L683.276 46.8812Z" fill="#2D9CDB"/>
<path d="M700.038 5.11432H703.78V79.6981H700.038V5.11432Z" fill="#2D9CDB"/>
<path d="M736.911 70.4284V96H733.396V79.6981H711.626L711.588 96H708.073L708.111 70.4284H709.396C711.059 70.1443 712.23 66.4506 712.911 59.3474C713.591 52.1731 714.007 42.0866 714.158 29.0877L714.423 5.11432H733.018V70.4284H736.911ZM717.484 30.0466C717.358 40.5594 717.056 49.2608 716.577 56.151C716.123 63.0411 715.38 67.8002 714.347 70.4284H729.276V14.384H717.673L717.484 30.0466Z" fill="#2D9CDB"/>
<path d="M763.697 5.11432V79.6981H759.993V14.384H748.276L748.012 36.2264C747.886 46.5261 747.583 54.8724 747.104 61.2653C746.651 67.6582 745.92 72.4884 744.912 75.7558C743.905 78.9523 742.544 80.5505 740.831 80.5505C740.049 80.5505 739.256 80.2664 738.449 79.6981L738.714 70.2153C739.117 70.4995 739.52 70.6415 739.923 70.6415C741.007 70.6415 741.876 69.434 742.531 67.0189C743.186 64.5327 743.678 60.8391 744.005 55.9379C744.333 51.0366 744.547 44.5727 744.648 36.5461L745.064 5.11432H763.697Z" fill="#2D9CDB"/>
<path d="M771.938 5.11432H775.679V62.6504L791.326 5.11432H794.804V79.6981H791.1V22.2686L775.415 79.6981H771.938V5.11432Z" fill="#2D9CDB"/>
<path d="M819.531 41.0211C821.32 42.2286 822.668 44.3951 823.575 47.5205C824.507 50.5749 824.973 54.5172 824.973 59.3474C824.973 65.8113 824.129 70.8191 822.441 74.3707C820.778 77.9223 818.347 79.6981 815.147 79.6981H803.052V5.11432H814.429C817.326 5.11432 819.581 6.78357 821.194 10.1221C822.832 13.3896 823.651 18.1132 823.651 24.293C823.651 28.3418 823.285 31.7869 822.555 34.6282C821.849 37.4695 820.841 39.6005 819.531 41.0211ZM806.794 37.9312H814.164C816.003 37.9312 817.402 36.9012 818.359 34.8413C819.342 32.7814 819.833 29.7625 819.833 25.7847C819.833 21.8069 819.342 18.788 818.359 16.7281C817.377 14.5971 815.978 13.5316 814.164 13.5316H806.794V37.9312ZM815.071 71.2808C819.128 71.2808 821.156 67.0189 821.156 58.495C821.156 54.2331 820.64 51.1077 819.607 49.1188C818.599 47.0588 817.087 46.0289 815.071 46.0289H806.794V71.2808H815.071Z" fill="#2D9CDB"/>
<path d="M831.288 5.11432H835.03V62.6504L850.677 5.11432H854.154V79.6981H850.45V22.2686L834.765 79.6981H831.288V5.11432Z" fill="#2D9CDB"/>
<path d="M886.932 79.6981L886.894 25.3585L877.332 70.6415H875.593L866.031 25.6781V79.6981H862.403V5.11432H865.502L876.538 57.5361L887.423 5.11432H890.522L890.56 79.6981H886.932Z" fill="#2D9CDB"/>
<path d="M934.155 70.4284V96H930.64V79.6981H908.87L908.832 96H905.317L905.355 70.4284H906.64C908.303 70.1443 909.474 66.4506 910.155 59.3474C910.835 52.1731 911.251 42.0866 911.402 29.0877L911.667 5.11432H930.262V70.4284H934.155ZM914.728 30.0466C914.602 40.5594 914.3 49.2608 913.821 56.151C913.367 63.0411 912.624 67.8002 911.591 70.4284H926.52V14.384H914.917L914.728 30.0466Z" fill="#2D9CDB"/>
<path d="M960.941 5.11432V79.6981H957.237V14.384H945.52L945.256 36.2264C945.13 46.5261 944.827 54.8724 944.349 61.2653C943.895 67.6582 943.164 72.4884 942.156 75.7558C941.149 78.9523 939.788 80.5505 938.075 80.5505C937.293 80.5505 936.5 80.2664 935.693 79.6981L935.958 70.2153C936.361 70.4995 936.764 70.6415 937.167 70.6415C938.251 70.6415 939.12 69.434 939.775 67.0189C940.43 64.5327 940.922 60.8391 941.249 55.9379C941.577 51.0366 941.791 44.5727 941.892 36.5461L942.308 5.11432H960.941Z" fill="#2D9CDB"/>
<path d="M988.57 5.11432V79.6981H984.867V57.9623H977.572C977.119 57.9623 976.778 57.9268 976.552 57.8557L971.26 79.6981H967.254L973.112 56.0444C971.222 54.2686 969.774 51.3208 968.766 47.2009C967.758 43.01 967.254 37.9312 967.254 31.9645C967.254 23.5117 968.211 16.9412 970.126 12.2531C972.067 7.49389 974.674 5.11432 977.95 5.11432H988.57ZM971.071 31.8579C971.071 37.3984 971.638 41.6604 972.772 44.6437C973.931 47.5561 975.632 49.0122 977.874 49.0122H984.867V14.384H978.101C975.833 14.384 974.095 15.8757 972.885 18.859C971.676 21.8424 971.071 26.1754 971.071 31.8579Z" fill="#2D9CDB"/>
<path d="M1023.46 41.0211C1025.24 42.2286 1026.59 44.3951 1027.5 47.5205C1028.43 50.5749 1028.9 54.5172 1028.9 59.3474C1028.9 65.8113 1028.05 70.8191 1026.37 74.3707C1024.7 77.9223 1022.27 79.6981 1019.07 79.6981H1006.98V5.11432H1018.35C1021.25 5.11432 1023.51 6.78357 1025.12 10.1221C1026.76 13.3896 1027.58 18.1132 1027.58 24.293C1027.58 28.3418 1027.21 31.7869 1026.48 34.6282C1025.77 37.4695 1024.77 39.6005 1023.46 41.0211ZM1010.72 37.9312H1018.09C1019.93 37.9312 1021.33 36.9012 1022.28 34.8413C1023.27 32.7814 1023.76 29.7625 1023.76 25.7847C1023.76 21.8069 1023.27 18.788 1022.28 16.7281C1021.3 14.5971 1019.9 13.5316 1018.09 13.5316H1010.72V37.9312ZM1019 71.2808C1023.05 71.2808 1025.08 67.0189 1025.08 58.495C1025.08 54.2331 1024.56 51.1077 1023.53 49.1188C1022.52 47.0588 1021.01 46.0289 1019 46.0289H1010.72V71.2808H1019Z" fill="#2D9CDB"/>
<path d="M1052.41 61.0522H1038.35L1035.44 79.6981H1031.55L1043.53 5.11432H1047.27L1059.29 79.6981H1055.32L1052.41 61.0522ZM1051.09 52.5283L1045.38 15.9822L1039.67 52.5283H1051.09Z" fill="#2D9CDB"/>
<path d="M1097 5.11432V79.6981H1063.85V5.11432H1067.6V70.4284H1078.59V5.11432H1082.3V70.4284H1093.3V5.11432H1097Z" fill="#2D9CDB"/>
<path d="M1117.14 80.5505C1114.46 80.5505 1112.06 78.9168 1109.92 75.6493C1107.77 72.3108 1106.09 67.7292 1104.85 61.9046C1103.64 56.0799 1103.04 49.5805 1103.04 42.4062C1103.04 35.232 1103.64 28.7325 1104.85 22.9079C1106.09 17.0832 1107.77 12.5372 1109.92 9.2697C1112.06 5.93119 1114.46 4.26193 1117.14 4.26193C1119.78 4.26193 1122.17 5.93119 1124.32 9.2697C1126.46 12.5372 1128.13 17.0832 1129.34 22.9079C1130.55 28.6615 1131.16 35.1609 1131.16 42.4062C1131.16 49.6515 1130.55 56.1865 1129.34 62.0111C1128.13 67.7647 1126.46 72.3108 1124.32 75.6493C1122.17 78.9168 1119.78 80.5505 1117.14 80.5505ZM1117.14 71.0677C1119.08 71.0677 1120.81 69.8247 1122.35 67.3385C1123.91 64.8524 1125.14 61.4429 1126.02 57.1099C1126.92 52.7059 1127.38 47.8047 1127.38 42.4062C1127.38 37.0078 1126.92 32.1421 1126.02 27.8091C1125.14 23.4051 1123.91 19.96 1122.35 17.4739C1120.81 14.9878 1119.08 13.7447 1117.14 13.7447C1115.2 13.7447 1113.43 14.9878 1111.84 17.4739C1110.28 19.96 1109.05 23.4051 1108.14 27.8091C1107.26 32.1421 1106.82 37.0078 1106.82 42.4062C1106.82 47.8047 1107.26 52.7059 1108.14 57.1099C1109.05 61.4429 1110.28 64.8524 1111.84 67.3385C1113.43 69.8247 1115.2 71.0677 1117.14 71.0677Z" fill="#2D9CDB"/>
<path d="M1154.58 14.384H1140.97L1141.01 79.6981H1137.27V5.11432H1154.62L1154.58 14.384Z" fill="#2D9CDB"/>
<path d="M1167.7 80.5505C1165.03 80.5505 1162.62 78.9168 1160.48 75.6493C1158.34 72.3108 1156.65 67.7292 1155.42 61.9046C1154.21 56.0799 1153.6 49.5805 1153.6 42.4062C1153.6 35.232 1154.21 28.7325 1155.42 22.9079C1156.65 17.0832 1158.34 12.5372 1160.48 9.2697C1162.62 5.93119 1165.03 4.26193 1167.7 4.26193C1170.35 4.26193 1172.74 5.93119 1174.88 9.2697C1177.02 12.5372 1178.7 17.0832 1179.91 22.9079C1181.12 28.6615 1181.72 35.1609 1181.72 42.4062C1181.72 49.6515 1181.12 56.1865 1179.91 62.0111C1178.7 67.7647 1177.02 72.3108 1174.88 75.6493C1172.74 78.9168 1170.35 80.5505 1167.7 80.5505ZM1167.7 71.0677C1169.64 71.0677 1171.38 69.8247 1172.92 67.3385C1174.48 64.8524 1175.7 61.4429 1176.58 57.1099C1177.49 52.7059 1177.94 47.8047 1177.94 42.4062C1177.94 37.0078 1177.49 32.1421 1176.58 27.8091C1175.7 23.4051 1174.48 19.96 1172.92 17.4739C1171.38 14.9878 1169.64 13.7447 1167.7 13.7447C1165.76 13.7447 1164 14.9878 1162.41 17.4739C1160.85 19.96 1159.61 23.4051 1158.71 27.8091C1157.82 32.1421 1157.38 37.0078 1157.38 42.4062C1157.38 47.8047 1157.82 52.7059 1158.71 57.1099C1159.61 61.4429 1160.85 64.8524 1162.41 67.3385C1164 69.8247 1165.76 71.0677 1167.7 71.0677Z" fill="#2D9CDB"/>
<path d="M1210.64 40.808C1212.31 42.0866 1213.61 44.3241 1214.54 47.5205C1215.47 50.646 1215.94 54.4107 1215.94 58.8147C1215.94 63.2187 1215.43 67.0899 1214.42 70.4284C1213.44 73.6959 1212.12 76.2175 1210.46 77.9934C1208.82 79.6981 1207.03 80.5505 1205.09 80.5505C1203.32 80.5505 1201.57 79.8047 1199.84 78.313C1198.1 76.8213 1196.51 74.5838 1195.07 71.6004L1196.4 63.7159C1197.55 66.273 1198.85 68.1909 1200.29 69.4695C1201.72 70.7481 1203.17 71.3874 1204.64 71.3874C1206.75 71.3874 1208.53 70.1443 1209.96 67.6582C1211.4 65.101 1212.12 61.6204 1212.12 57.2164C1212.12 53.4517 1211.58 50.5749 1210.49 48.586C1209.41 46.5261 1207.89 45.4961 1205.92 45.4961H1200.02V36.8657H1205.66C1207.34 36.8657 1208.65 35.9068 1209.59 33.9889C1210.54 32 1211.02 29.2653 1211.02 25.7847C1211.02 21.8779 1210.41 18.788 1209.17 16.515C1207.94 14.242 1206.37 13.1054 1204.48 13.1054C1203.25 13.1054 1201.99 13.6027 1200.7 14.5971C1199.44 15.5916 1198.25 17.0832 1197.11 19.0721L1195.9 10.3352C1197.24 8.20422 1198.65 6.60599 1200.14 5.54051C1201.62 4.47503 1203.11 3.94229 1204.6 3.94229C1206.46 3.94229 1208.18 4.75915 1209.74 6.3929C1211.3 8.02664 1212.53 10.4062 1213.44 13.5316C1214.37 16.657 1214.84 20.3152 1214.84 24.5061C1214.84 28.2708 1214.46 31.5738 1213.71 34.4151C1212.98 37.2564 1211.95 39.3874 1210.64 40.808Z" fill="#2D9CDB"/>
<path d="M1247.44 70.4284V96H1243.93V79.6981H1222.16L1222.12 96H1218.6L1218.64 70.4284H1219.93C1221.59 70.1443 1222.76 66.4506 1223.44 59.3474C1224.12 52.1731 1224.54 42.0866 1224.69 29.0877L1224.95 5.11432H1243.55V70.4284H1247.44ZM1228.02 30.0466C1227.89 40.5594 1227.59 49.2608 1227.11 56.151C1226.65 63.0411 1225.91 67.8002 1224.88 70.4284H1239.81V14.384H1228.2L1228.02 30.0466Z" fill="#2D9CDB"/>
<path d="M1264.51 80.5505C1261.84 80.5505 1259.44 78.9168 1257.3 75.6493C1255.15 72.3108 1253.47 67.7292 1252.23 61.9046C1251.02 56.0799 1250.42 49.5805 1250.42 42.4062C1250.42 35.232 1251.02 28.7325 1252.23 22.9079C1253.47 17.0832 1255.15 12.5372 1257.3 9.2697C1259.44 5.93119 1261.84 4.26193 1264.51 4.26193C1267.16 4.26193 1269.55 5.93119 1271.7 9.2697C1273.84 12.5372 1275.51 17.0832 1276.72 22.9079C1277.93 28.6615 1278.54 35.1609 1278.54 42.4062C1278.54 49.6515 1277.93 56.1865 1276.72 62.0111C1275.51 67.7647 1273.84 72.3108 1271.7 75.6493C1269.55 78.9168 1267.16 80.5505 1264.51 80.5505ZM1264.51 71.0677C1266.45 71.0677 1268.19 69.8247 1269.73 67.3385C1271.29 64.8524 1272.51 61.4429 1273.4 57.1099C1274.3 52.7059 1274.76 47.8047 1274.76 42.4062C1274.76 37.0078 1274.3 32.1421 1273.4 27.8091C1272.51 23.4051 1271.29 19.96 1269.73 17.4739C1268.19 14.9878 1266.45 13.7447 1264.51 13.7447C1262.57 13.7447 1260.81 14.9878 1259.22 17.4739C1257.66 19.96 1256.43 23.4051 1255.52 27.8091C1254.64 32.1421 1254.2 37.0078 1254.2 42.4062C1254.2 47.8047 1254.64 52.7059 1255.52 57.1099C1256.43 61.4429 1257.66 64.8524 1259.22 67.3385C1260.81 69.8247 1262.57 71.0677 1264.51 71.0677Z" fill="#2D9CDB"/>
<path d="M1294.96 5.11432C1298.39 5.11432 1301.09 7.42286 1303.05 12.04C1305.02 16.657 1306 23.0144 1306 31.1121C1306 39.2098 1305.02 45.5672 1303.05 50.1842C1301.09 54.8013 1298.39 57.1099 1294.96 57.1099H1288.43V79.6981H1284.65V5.11432H1294.96ZM1294.85 47.8402C1297.24 47.8402 1299.07 46.4195 1300.33 43.5782C1301.59 40.6659 1302.22 36.5105 1302.22 31.1121C1302.22 25.7137 1301.59 21.5938 1300.33 18.7525C1299.07 15.8402 1297.24 14.384 1294.85 14.384H1288.43V47.8402H1294.85Z" fill="#2D9CDB"/>
<path d="M1323.53 80.5505C1320.86 80.5505 1318.46 78.9168 1316.31 75.6493C1314.17 72.3108 1312.48 67.7292 1311.25 61.9046C1310.04 56.0799 1309.44 49.5805 1309.44 42.4062C1309.44 35.232 1310.04 28.7325 1311.25 22.9079C1312.48 17.0832 1314.17 12.5372 1316.31 9.2697C1318.46 5.93119 1320.86 4.26193 1323.53 4.26193C1326.18 4.26193 1328.57 5.93119 1330.71 9.2697C1332.86 12.5372 1334.53 17.0832 1335.74 22.9079C1336.95 28.6615 1337.55 35.1609 1337.55 42.4062C1337.55 49.6515 1336.95 56.1865 1335.74 62.0111C1334.53 67.7647 1332.86 72.3108 1330.71 75.6493C1328.57 78.9168 1326.18 80.5505 1323.53 80.5505ZM1323.53 71.0677C1325.47 71.0677 1327.21 69.8247 1328.75 67.3385C1330.31 64.8524 1331.53 61.4429 1332.41 57.1099C1333.32 52.7059 1333.78 47.8047 1333.78 42.4062C1333.78 37.0078 1333.32 32.1421 1332.41 27.8091C1331.53 23.4051 1330.31 19.96 1328.75 17.4739C1327.21 14.9878 1325.47 13.7447 1323.53 13.7447C1321.59 13.7447 1319.83 14.9878 1318.24 17.4739C1316.68 19.96 1315.44 23.4051 1314.54 27.8091C1313.66 32.1421 1313.21 37.0078 1313.21 42.4062C1313.21 47.8047 1313.66 52.7059 1314.54 57.1099C1315.44 61.4429 1316.68 64.8524 1318.24 67.3385C1319.83 69.8247 1321.59 71.0677 1323.53 71.0677Z" fill="#2D9CDB"/>
<path d="M1360.14 41.0211C1361.93 42.2286 1363.28 44.3951 1364.19 47.5205C1365.12 50.5749 1365.59 54.5172 1365.59 59.3474C1365.59 65.8113 1364.74 70.8191 1363.05 74.3707C1361.39 77.9223 1358.96 79.6981 1355.76 79.6981H1343.66V5.11432H1355.04C1357.94 5.11432 1360.19 6.78357 1361.81 10.1221C1363.44 13.3896 1364.26 18.1132 1364.26 24.293C1364.26 28.3418 1363.9 31.7869 1363.17 34.6282C1362.46 37.4695 1361.45 39.6005 1360.14 41.0211ZM1347.41 37.9312H1354.78C1356.62 37.9312 1358.01 36.9012 1358.97 34.8413C1359.95 32.7814 1360.45 29.7625 1360.45 25.7847C1360.45 21.8069 1359.95 18.788 1358.97 16.7281C1357.99 14.5971 1356.59 13.5316 1354.78 13.5316H1347.41V37.9312ZM1355.68 71.2808C1359.74 71.2808 1361.77 67.0189 1361.77 58.495C1361.77 54.2331 1361.25 51.1077 1360.22 49.1188C1359.21 47.0588 1357.7 46.0289 1355.68 46.0289H1347.41V71.2808H1355.68Z" fill="#2D9CDB"/>
<path d="M1372.02 0C1372.72 0 1373.3 0.71032 1373.76 2.13096C1374.23 3.48057 1374.47 5.18535 1374.47 7.24529C1374.47 8.31077 1374.44 9.37625 1374.36 10.4417C1374.28 11.4362 1374.12 12.8923 1373.87 14.8102L1372.05 29.727H1369.67L1371.07 13.8513C1370.59 13.3541 1370.2 12.5372 1369.9 11.4007C1369.62 10.1931 1369.48 8.80799 1369.48 7.24529C1369.48 5.11432 1369.72 3.37403 1370.2 2.02442C1370.68 0.674804 1371.29 0 1372.02 0Z" fill="#2D9CDB"/>
<path d="M1400 5.11432V79.6981H1396.3V57.9623H1389C1388.55 57.9623 1388.21 57.9268 1387.98 57.8557L1382.69 79.6981H1378.68L1384.54 56.0444C1382.65 54.2686 1381.2 51.3208 1380.2 47.2009C1379.19 43.01 1378.68 37.9312 1378.68 31.9645C1378.68 23.5117 1379.64 16.9412 1381.56 12.2531C1383.5 7.49389 1386.1 5.11432 1389.38 5.11432H1400ZM1382.5 31.8579C1382.5 37.3984 1383.07 41.6604 1384.2 44.6437C1385.36 47.5561 1387.06 49.0122 1389.3 49.0122H1396.3V14.384H1389.53C1387.26 14.384 1385.52 15.8757 1384.32 18.859C1383.11 21.8424 1382.5 26.1754 1382.5 31.8579Z" fill="#2D9CDB"/>
</svg>
