<svg width="1400" height="96" viewBox="0 0 1400 96" fill="none" xmlns="http://www.w3.org/2000/svg">
<path d="M13.9842 80.5503C11.3386 80.5503 8.94488 78.9166 6.80315 75.6491C4.68661 72.3106 3.02362 67.7645 1.81417 62.0109C0.604724 56.1863 0 49.6513 0 42.406C0 35.1607 0.604724 28.6613 1.81417 22.9077C3.02362 17.083 4.69921 12.537 6.84094 9.26949C8.98267 5.93098 11.3764 4.26172 14.022 4.26172C16.0882 4.26172 17.9779 5.25617 19.6913 7.24508C21.4047 9.16294 22.8661 12.0398 24.0756 15.8755L21.6189 22.588C19.6283 16.6924 17.1465 13.7445 14.1732 13.7445C12.2079 13.7445 10.4315 14.9876 8.84409 17.4737C7.25669 19.9598 6.00945 23.4049 5.10236 27.8089C4.22047 32.1419 3.77953 37.0076 3.77953 42.406C3.77953 47.8045 4.22047 52.7057 5.10236 57.1097C6.00945 61.4427 7.25669 64.8522 8.84409 67.3383C10.4315 69.8245 12.2079 71.0675 14.1732 71.0675C17.1213 71.0675 19.6031 68.0842 21.6189 62.1175L24.0756 68.83C22.8661 72.6657 21.3921 75.5781 19.6535 77.567C17.9402 79.5559 16.0504 80.5503 13.9842 80.5503Z" fill="white"/>
<path d="M45.8522 61.0521H31.7924L28.8822 79.698H24.9893L36.9704 5.11426H40.7121L52.731 79.698H48.7625L45.8522 61.0521ZM44.5294 52.5282L38.8223 15.9821L33.1152 52.5282H44.5294Z" fill="white"/>
<path d="M81.826 79.698L81.7883 25.3584L72.2261 70.6414H70.4875L60.9253 25.678V79.698H57.2969V5.11426H60.3961L71.4324 57.536L82.3174 5.11426H85.4166L85.4544 79.698H81.826Z" fill="white"/>
<path d="M105.595 80.5503C102.924 80.5503 100.518 78.9166 98.3769 75.6491C96.2351 72.3106 94.5468 67.729 93.3122 61.9044C92.1027 56.0797 91.498 49.5803 91.498 42.406C91.498 35.2318 92.1027 28.7323 93.3122 22.9077C94.5468 17.083 96.2351 12.537 98.3769 9.26949C100.518 5.93098 102.924 4.26172 105.595 4.26172C108.241 4.26172 110.635 5.93098 112.776 9.26949C114.918 12.537 116.594 17.083 117.803 22.9077C119.013 28.6613 119.617 35.1607 119.617 42.406C119.617 49.6513 119.013 56.1863 117.803 62.0109C116.594 67.7645 114.918 72.3106 112.776 75.6491C110.635 78.9166 108.241 80.5503 105.595 80.5503ZM105.595 71.0675C107.535 71.0675 109.274 69.8245 110.811 67.3383C112.373 64.8522 113.595 61.4427 114.477 57.1097C115.384 52.7057 115.838 47.8045 115.838 42.406C115.838 37.0076 115.384 32.1419 114.477 27.8089C113.595 23.4049 112.373 19.9598 110.811 17.4737C109.274 14.9876 107.535 13.7445 105.595 13.7445C103.655 13.7445 101.891 14.9876 100.304 17.4737C98.7422 19.9598 97.5075 23.4049 96.6004 27.8089C95.7185 32.1419 95.2775 37.0076 95.2775 42.406C95.2775 47.8045 95.7185 52.7057 96.6004 57.1097C97.5075 61.4427 98.7422 64.8522 100.304 67.3383C101.891 69.8245 103.655 71.0675 105.595 71.0675Z" fill="white"/>
<path d="M146.608 5.11426V79.698H142.904V14.3839H131.187L130.923 36.2263C130.797 46.526 130.494 54.8723 130.016 61.2652C129.562 67.6581 128.831 72.4883 127.824 75.7557C126.816 78.9522 125.455 80.5504 123.742 80.5504C122.961 80.5504 122.167 80.2663 121.361 79.698L121.625 70.2152C122.028 70.4994 122.431 70.6414 122.835 70.6414C123.918 70.6414 124.787 69.4339 125.442 67.0188C126.098 64.5326 126.589 60.839 126.916 55.9378C127.244 51.0365 127.458 44.5726 127.559 36.546L127.975 5.11426H146.608Z" fill="white"/>
<path d="M154.849 5.11426H158.59V79.698H154.849V5.11426Z" fill="white"/>
<path d="M176.066 46.8811H170.548V79.698H166.844V5.11426H170.548V37.5049H176.142L184.457 5.11426H188.501L179.052 41.2341L188.954 79.698H184.646L176.066 46.8811Z" fill="white"/>
<path d="M214.67 5.11426L202.915 66.5926C201.983 71.4938 200.887 75.152 199.627 77.5671C198.367 79.9821 196.994 81.1897 195.508 81.1897C194.348 81.1897 193.164 80.4439 191.955 78.9522L192.937 70.4283C193.87 71.3517 194.701 71.8135 195.432 71.8135C197.095 71.8135 198.468 69.3273 199.552 64.3551L200.156 61.6914L189.498 5.11426H193.542L202.122 52.4217L210.928 5.11426H214.67Z" fill="white"/>
<path d="M235.07 41.021C236.859 42.2285 238.207 44.395 239.114 47.5204C240.046 50.5748 240.513 54.5171 240.513 59.3473C240.513 65.8112 239.668 70.819 237.98 74.3706C236.317 77.9222 233.886 79.698 230.686 79.698H218.591V5.11426H229.968C232.865 5.11426 235.12 6.78351 236.733 10.122C238.371 13.3895 239.19 18.1131 239.19 24.2929C239.19 28.3417 238.824 31.7868 238.094 34.6281C237.388 37.4694 236.38 39.6004 235.07 41.021ZM222.333 37.9311H229.703C231.542 37.9311 232.941 36.9011 233.898 34.8412C234.881 32.7813 235.372 29.7624 235.372 25.7846C235.372 21.8068 234.881 18.7879 233.898 16.728C232.916 14.597 231.517 13.5315 229.703 13.5315H222.333V37.9311ZM230.61 71.2807C234.667 71.2807 236.695 67.0188 236.695 58.4949C236.695 54.233 236.179 51.1076 235.146 49.1187C234.138 47.0587 232.626 46.0288 230.61 46.0288H222.333V71.2807H230.61Z" fill="white"/>
<path d="M264.024 61.0521H249.964L247.054 79.698H243.161L255.142 5.11426H258.884L270.903 79.698H266.934L264.024 61.0521ZM262.701 52.5282L256.994 15.9821L251.287 52.5282H262.701Z" fill="white"/>
<path d="M298.221 5.11426V79.698H294.442V46.455H279.248V79.698H275.469V5.11426H279.248V37.1853H294.442V5.11426H298.221Z" fill="white"/>
<path d="M329.225 5.11426V79.698H325.446V46.455H310.252V79.698H306.473V5.11426H310.252V37.1853H325.446V5.11426H329.225Z" fill="white"/>
<path d="M356.866 5.11426V79.698H353.162V57.9622H345.867C345.414 57.9622 345.073 57.9267 344.847 57.8556L339.555 79.698H335.549L341.407 56.0443C339.517 54.2685 338.069 51.3207 337.061 47.2008C336.053 43.0099 335.549 37.9311 335.549 31.9644C335.549 23.5116 336.506 16.9411 338.421 12.253C340.362 7.49383 342.969 5.11426 346.245 5.11426H356.866ZM339.366 31.8578C339.366 37.3983 339.933 41.6603 341.067 44.6436C342.226 47.556 343.927 49.0121 346.169 49.0121H353.162V14.3839H346.396C344.129 14.3839 342.39 15.8756 341.18 18.8589C339.971 21.8423 339.366 26.1753 339.366 31.8578Z" fill="white"/>
<path d="M399.801 79.698L399.763 25.3584L390.201 70.6414H388.462L378.9 25.678V79.698H375.272V5.11426H378.371L389.407 57.536L400.292 5.11426H403.391L403.429 79.698H399.801Z" fill="white"/>
<path d="M423.57 80.5503C420.899 80.5503 418.493 78.9166 416.351 75.6491C414.209 72.3106 412.521 67.729 411.287 61.9044C410.077 56.0797 409.472 49.5803 409.472 42.406C409.472 35.2318 410.077 28.7323 411.287 22.9077C412.521 17.083 414.209 12.537 416.351 9.26949C418.493 5.93098 420.899 4.26172 423.57 4.26172C426.216 4.26172 428.609 5.93098 430.751 9.26949C432.893 12.537 434.568 17.083 435.778 22.9077C436.987 28.6613 437.592 35.1607 437.592 42.406C437.592 49.6513 436.987 56.1863 435.778 62.0109C434.568 67.7645 432.893 72.3106 430.751 75.6491C428.609 78.9166 426.216 80.5503 423.57 80.5503ZM423.57 71.0675C425.51 71.0675 427.249 69.8245 428.786 67.3383C430.348 64.8522 431.57 61.4427 432.452 57.1097C433.359 52.7057 433.813 47.8045 433.813 42.406C433.813 37.0076 433.359 32.1419 432.452 27.8089C431.57 23.4049 430.348 19.9598 428.786 17.4737C427.249 14.9876 425.51 13.7445 423.57 13.7445C421.63 13.7445 419.866 14.9876 418.279 17.4737C416.716 19.9598 415.482 23.4049 414.575 27.8089C413.693 32.1419 413.252 37.0076 413.252 42.406C413.252 47.8045 413.693 52.7057 414.575 57.1097C415.482 61.4427 416.716 64.8522 418.279 67.3383C419.866 69.8245 421.63 71.0675 423.57 71.0675Z" fill="white"/>
<path d="M464.966 46.8811H459.939V79.698H456.235V46.8811H451.171L443.763 79.698H439.341L448.071 40.9144L439.983 5.11426H444.027L451.095 37.5049H456.235V5.11426H459.939V37.5049H465.004L472.109 5.11426H476.153L468.065 41.1275L476.796 79.698H472.374L464.966 46.8811Z" fill="white"/>
<path d="M499.959 70.4283V79.698H480.759V5.11426H499.43V14.3839H484.538V37.2918H497.805V46.3484H484.538V70.4283H499.959Z" fill="white"/>
<path d="M516.044 5.11426H536V14.1708H519.786V35.4805H528.026C531.175 35.4805 533.569 37.3273 535.207 41.021C536.844 44.7147 537.663 50.0421 537.663 57.0032C537.663 64.3196 536.769 69.9311 534.98 73.8379C533.216 77.7446 530.684 79.698 527.383 79.698H516.044V5.11426ZM527.232 71.2807C529.399 71.2807 531.049 70.1087 532.183 67.7646C533.317 65.4205 533.884 61.9755 533.884 57.4294C533.884 48.4083 531.666 43.8978 527.232 43.8978H519.786V71.2807H527.232Z" fill="white"/>
<path d="M564.46 5.11426L552.706 66.5926C551.774 71.4938 550.678 75.152 549.418 77.5671C548.158 79.9821 546.785 81.1897 545.298 81.1897C544.139 81.1897 542.955 80.4439 541.745 78.9522L542.728 70.4283C543.66 71.3517 544.492 71.8135 545.223 71.8135C546.886 71.8135 548.259 69.3273 549.342 64.3551L549.947 61.6914L539.289 5.11426H543.333L551.912 52.4217L560.719 5.11426H564.46Z" fill="white"/>
<path d="M586.82 14.3839H577.749V79.698H574.045V14.3839H565.012V5.11426H586.82V14.3839Z" fill="white"/>
<path d="M591.413 5.11426H595.155V62.6503L610.802 5.11426H614.28V79.698H610.576V22.2685L594.891 79.698H591.413V5.11426Z" fill="white"/>
<path d="M665.825 5.11426V79.698H632.678V5.11426H636.42V70.4283H647.418V5.11426H651.122V70.4283H662.121V5.11426H665.825Z" fill="white"/>
<path d="M683.276 46.8811H677.758V79.698H674.054V5.11426H677.758V37.5049H683.351L691.666 5.11426H695.71L686.262 41.2341L696.164 79.698H691.855L683.276 46.8811Z" fill="white"/>
<path d="M700.038 5.11426H703.78V79.698H700.038V5.11426Z" fill="white"/>
<path d="M736.911 70.4283V95.9999H733.396V79.698H711.626L711.588 95.9999H708.073L708.111 70.4283H709.396C711.059 70.1442 712.23 66.4505 712.911 59.3473C713.591 52.173 714.007 42.0865 714.158 29.0876L714.423 5.11426H733.018V70.4283H736.911ZM717.484 30.0465C717.358 40.5593 717.056 49.2607 716.577 56.1509C716.123 63.041 715.38 67.8001 714.347 70.4283H729.276V14.3839H717.673L717.484 30.0465Z" fill="white"/>
<path d="M763.697 5.11426V79.698H759.993V14.3839H748.276L748.012 36.2263C747.886 46.526 747.583 54.8723 747.104 61.2652C746.651 67.6581 745.92 72.4883 744.912 75.7557C743.905 78.9522 742.544 80.5504 740.831 80.5504C740.049 80.5504 739.256 80.2663 738.449 79.698L738.714 70.2152C739.117 70.4994 739.52 70.6414 739.923 70.6414C741.007 70.6414 741.876 69.4339 742.531 67.0188C743.186 64.5326 743.678 60.839 744.005 55.9378C744.333 51.0365 744.547 44.5726 744.648 36.546L745.064 5.11426H763.697Z" fill="white"/>
<path d="M771.938 5.11426H775.679V62.6503L791.326 5.11426H794.804V79.698H791.099V22.2685L775.414 79.698H771.938V5.11426Z" fill="white"/>
<path d="M819.531 41.021C821.32 42.2285 822.668 44.395 823.575 47.5204C824.507 50.5748 824.973 54.5171 824.973 59.3473C824.973 65.8112 824.129 70.819 822.441 74.3706C820.778 77.9222 818.347 79.698 815.147 79.698H803.052V5.11426H814.429C817.326 5.11426 819.581 6.78351 821.194 10.122C822.832 13.3895 823.651 18.1131 823.651 24.2929C823.651 28.3417 823.285 31.7868 822.555 34.6281C821.849 37.4694 820.841 39.6004 819.531 41.021ZM806.794 37.9311H814.164C816.003 37.9311 817.402 36.9011 818.359 34.8412C819.342 32.7813 819.833 29.7624 819.833 25.7846C819.833 21.8068 819.342 18.7879 818.359 16.728C817.377 14.597 815.978 13.5315 814.164 13.5315H806.794V37.9311ZM815.071 71.2807C819.128 71.2807 821.156 67.0188 821.156 58.4949C821.156 54.233 820.64 51.1076 819.607 49.1187C818.599 47.0587 817.087 46.0288 815.071 46.0288H806.794V71.2807H815.071Z" fill="white"/>
<path d="M831.288 5.11426H835.03V62.6503L850.677 5.11426H854.154V79.698H850.45V22.2685L834.765 79.698H831.288V5.11426Z" fill="white"/>
<path d="M886.932 79.698L886.894 25.3584L877.332 70.6414H875.593L866.031 25.678V79.698H862.403V5.11426H865.502L876.538 57.536L887.423 5.11426H890.522L890.56 79.698H886.932Z" fill="white"/>
<path d="M934.155 70.4283V95.9999H930.64V79.698H908.87L908.832 95.9999H905.317L905.355 70.4283H906.64C908.303 70.1442 909.474 66.4505 910.155 59.3473C910.835 52.173 911.251 42.0865 911.402 29.0876L911.667 5.11426H930.262V70.4283H934.155ZM914.728 30.0465C914.602 40.5593 914.3 49.2607 913.821 56.1509C913.367 63.041 912.624 67.8001 911.591 70.4283H926.52V14.3839H914.917L914.728 30.0465Z" fill="white"/>
<path d="M960.941 5.11426V79.698H957.237V14.3839H945.52L945.256 36.2263C945.13 46.526 944.827 54.8723 944.349 61.2652C943.895 67.6581 943.164 72.4883 942.156 75.7557C941.149 78.9522 939.788 80.5504 938.075 80.5504C937.293 80.5504 936.5 80.2663 935.693 79.698L935.958 70.2152C936.361 70.4994 936.764 70.6414 937.167 70.6414C938.251 70.6414 939.12 69.4339 939.775 67.0188C940.43 64.5326 940.922 60.839 941.249 55.9378C941.577 51.0365 941.791 44.5726 941.892 36.546L942.308 5.11426H960.941Z" fill="white"/>
<path d="M988.57 5.11426V79.698H984.867V57.9622H977.572C977.119 57.9622 976.778 57.9267 976.552 57.8556L971.26 79.698H967.254L973.112 56.0443C971.222 54.2685 969.774 51.3207 968.766 47.2008C967.758 43.0099 967.254 37.9311 967.254 31.9644C967.254 23.5116 968.211 16.9411 970.126 12.253C972.067 7.49383 974.674 5.11426 977.95 5.11426H988.57ZM971.071 31.8578C971.071 37.3983 971.638 41.6603 972.772 44.6436C973.931 47.556 975.632 49.0121 977.874 49.0121H984.867V14.3839H978.101C975.833 14.3839 974.095 15.8756 972.885 18.8589C971.676 21.8423 971.071 26.1753 971.071 31.8578Z" fill="white"/>
<path d="M1023.46 41.021C1025.24 42.2285 1026.59 44.395 1027.5 47.5204C1028.43 50.5748 1028.9 54.5171 1028.9 59.3473C1028.9 65.8112 1028.05 70.819 1026.37 74.3706C1024.7 77.9222 1022.27 79.698 1019.07 79.698H1006.98V5.11426H1018.35C1021.25 5.11426 1023.51 6.78351 1025.12 10.122C1026.76 13.3895 1027.58 18.1131 1027.58 24.2929C1027.58 28.3417 1027.21 31.7868 1026.48 34.6281C1025.77 37.4694 1024.77 39.6004 1023.46 41.021ZM1010.72 37.9311H1018.09C1019.93 37.9311 1021.33 36.9011 1022.28 34.8412C1023.27 32.7813 1023.76 29.7624 1023.76 25.7846C1023.76 21.8068 1023.27 18.7879 1022.28 16.728C1021.3 14.597 1019.9 13.5315 1018.09 13.5315H1010.72V37.9311ZM1019 71.2807C1023.05 71.2807 1025.08 67.0188 1025.08 58.4949C1025.08 54.233 1024.56 51.1076 1023.53 49.1187C1022.52 47.0587 1021.01 46.0288 1019 46.0288H1010.72V71.2807H1019Z" fill="white"/>
<path d="M1052.41 61.0521H1038.35L1035.44 79.698H1031.55L1043.53 5.11426H1047.27L1059.29 79.698H1055.32L1052.41 61.0521ZM1051.09 52.5282L1045.38 15.9821L1039.67 52.5282H1051.09Z" fill="white"/>
<path d="M1097 5.11426V79.698H1063.85V5.11426H1067.6V70.4283H1078.59V5.11426H1082.3V70.4283H1093.3V5.11426H1097Z" fill="white"/>
<path d="M1117.14 80.5503C1114.46 80.5503 1112.06 78.9166 1109.92 75.6491C1107.77 72.3106 1106.09 67.729 1104.85 61.9044C1103.64 56.0797 1103.04 49.5803 1103.04 42.406C1103.04 35.2318 1103.64 28.7323 1104.85 22.9077C1106.09 17.083 1107.77 12.537 1109.92 9.26949C1112.06 5.93098 1114.46 4.26172 1117.14 4.26172C1119.78 4.26172 1122.17 5.93098 1124.32 9.26949C1126.46 12.537 1128.13 17.083 1129.34 22.9077C1130.55 28.6613 1131.16 35.1607 1131.16 42.406C1131.16 49.6513 1130.55 56.1863 1129.34 62.0109C1128.13 67.7645 1126.46 72.3106 1124.32 75.6491C1122.17 78.9166 1119.78 80.5503 1117.14 80.5503ZM1117.14 71.0675C1119.08 71.0675 1120.81 69.8245 1122.35 67.3383C1123.91 64.8522 1125.14 61.4427 1126.02 57.1097C1126.92 52.7057 1127.38 47.8045 1127.38 42.406C1127.38 37.0076 1126.92 32.1419 1126.02 27.8089C1125.14 23.4049 1123.91 19.9598 1122.35 17.4737C1120.81 14.9876 1119.08 13.7445 1117.14 13.7445C1115.2 13.7445 1113.43 14.9876 1111.84 17.4737C1110.28 19.9598 1109.05 23.4049 1108.14 27.8089C1107.26 32.1419 1106.82 37.0076 1106.82 42.406C1106.82 47.8045 1107.26 52.7057 1108.14 57.1097C1109.05 61.4427 1110.28 64.8522 1111.84 67.3383C1113.43 69.8245 1115.2 71.0675 1117.14 71.0675Z" fill="white"/>
<path d="M1154.58 14.3839H1140.97L1141.01 79.698H1137.27V5.11426H1154.62L1154.58 14.3839Z" fill="white"/>
<path d="M1167.7 80.5503C1165.03 80.5503 1162.62 78.9166 1160.48 75.6491C1158.34 72.3106 1156.65 67.729 1155.42 61.9044C1154.21 56.0797 1153.6 49.5803 1153.6 42.406C1153.6 35.2318 1154.21 28.7323 1155.42 22.9077C1156.65 17.083 1158.34 12.537 1160.48 9.26949C1162.62 5.93098 1165.03 4.26172 1167.7 4.26172C1170.35 4.26172 1172.74 5.93098 1174.88 9.26949C1177.02 12.537 1178.7 17.083 1179.91 22.9077C1181.12 28.6613 1181.72 35.1607 1181.72 42.406C1181.72 49.6513 1181.12 56.1863 1179.91 62.0109C1178.7 67.7645 1177.02 72.3106 1174.88 75.6491C1172.74 78.9166 1170.35 80.5503 1167.7 80.5503ZM1167.7 71.0675C1169.64 71.0675 1171.38 69.8245 1172.92 67.3383C1174.48 64.8522 1175.7 61.4427 1176.58 57.1097C1177.49 52.7057 1177.94 47.8045 1177.94 42.406C1177.94 37.0076 1177.49 32.1419 1176.58 27.8089C1175.7 23.4049 1174.48 19.9598 1172.92 17.4737C1171.38 14.9876 1169.64 13.7445 1167.7 13.7445C1165.76 13.7445 1164 14.9876 1162.41 17.4737C1160.85 19.9598 1159.61 23.4049 1158.71 27.8089C1157.82 32.1419 1157.38 37.0076 1157.38 42.406C1157.38 47.8045 1157.82 52.7057 1158.71 57.1097C1159.61 61.4427 1160.85 64.8522 1162.41 67.3383C1164 69.8245 1165.76 71.0675 1167.7 71.0675Z" fill="white"/>
<path d="M1210.64 40.8081C1212.31 42.0867 1213.61 44.3242 1214.54 47.5206C1215.47 50.6461 1215.94 54.4108 1215.94 58.8148C1215.94 63.2188 1215.43 67.09 1214.42 70.4285C1213.44 73.696 1212.12 76.2176 1210.46 77.9935C1208.82 79.6982 1207.03 80.5506 1205.09 80.5506C1203.32 80.5506 1201.57 79.8048 1199.84 78.3131C1198.1 76.8214 1196.51 74.5839 1195.07 71.6005L1196.4 63.716C1197.55 66.2731 1198.85 68.191 1200.29 69.4696C1201.72 70.7482 1203.17 71.3875 1204.64 71.3875C1206.75 71.3875 1208.53 70.1444 1209.96 67.6583C1211.4 65.1011 1212.12 61.6205 1212.12 57.2165C1212.12 53.4518 1211.58 50.575 1210.49 48.5861C1209.41 46.5262 1207.89 45.4962 1205.92 45.4962H1200.02V36.8658H1205.66C1207.34 36.8658 1208.65 35.9069 1209.59 33.989C1210.54 32.0001 1211.02 29.2654 1211.02 25.7848C1211.02 21.878 1210.41 18.7881 1209.17 16.5151C1207.94 14.2421 1206.37 13.1055 1204.48 13.1055C1203.25 13.1055 1201.99 13.6028 1200.7 14.5972C1199.44 15.5917 1198.25 17.0833 1197.11 19.0722L1195.9 10.3353C1197.24 8.20431 1198.65 6.60608 1200.14 5.5406C1201.62 4.47512 1203.11 3.94238 1204.6 3.94238C1206.46 3.94238 1208.18 4.75924 1209.74 6.39299C1211.3 8.02673 1212.53 10.4063 1213.44 13.5317C1214.37 16.6571 1214.84 20.3153 1214.84 24.5062C1214.84 28.2709 1214.46 31.5739 1213.71 34.4152C1212.98 37.2565 1211.95 39.3875 1210.64 40.8081Z" fill="white"/>
<path d="M1247.44 70.4283V95.9999H1243.93V79.698H1222.16L1222.12 95.9999H1218.6L1218.64 70.4283H1219.93C1221.59 70.1442 1222.76 66.4505 1223.44 59.3473C1224.12 52.173 1224.54 42.0865 1224.69 29.0876L1224.95 5.11426H1243.55V70.4283H1247.44ZM1228.02 30.0465C1227.89 40.5593 1227.59 49.2607 1227.11 56.1509C1226.65 63.041 1225.91 67.8001 1224.88 70.4283H1239.81V14.3839H1228.2L1228.02 30.0465Z" fill="white"/>
<path d="M1264.51 80.5503C1261.84 80.5503 1259.44 78.9166 1257.3 75.6491C1255.15 72.3106 1253.47 67.729 1252.23 61.9044C1251.02 56.0797 1250.42 49.5803 1250.42 42.406C1250.42 35.2318 1251.02 28.7323 1252.23 22.9077C1253.47 17.083 1255.15 12.537 1257.3 9.26949C1259.44 5.93098 1261.84 4.26172 1264.51 4.26172C1267.16 4.26172 1269.55 5.93098 1271.7 9.26949C1273.84 12.537 1275.51 17.083 1276.72 22.9077C1277.93 28.6613 1278.54 35.1607 1278.54 42.406C1278.54 49.6513 1277.93 56.1863 1276.72 62.0109C1275.51 67.7645 1273.84 72.3106 1271.7 75.6491C1269.55 78.9166 1267.16 80.5503 1264.51 80.5503ZM1264.51 71.0675C1266.45 71.0675 1268.19 69.8245 1269.73 67.3383C1271.29 64.8522 1272.51 61.4427 1273.4 57.1097C1274.3 52.7057 1274.76 47.8045 1274.76 42.406C1274.76 37.0076 1274.3 32.1419 1273.4 27.8089C1272.51 23.4049 1271.29 19.9598 1269.73 17.4737C1268.19 14.9876 1266.45 13.7445 1264.51 13.7445C1262.57 13.7445 1260.81 14.9876 1259.22 17.4737C1257.66 19.9598 1256.43 23.4049 1255.52 27.8089C1254.64 32.1419 1254.2 37.0076 1254.2 42.406C1254.2 47.8045 1254.64 52.7057 1255.52 57.1097C1256.43 61.4427 1257.66 64.8522 1259.22 67.3383C1260.81 69.8245 1262.57 71.0675 1264.51 71.0675Z" fill="white"/>
<path d="M1294.96 5.11426C1298.39 5.11426 1301.09 7.4228 1303.05 12.0399C1305.02 16.6569 1306 23.0143 1306 31.112C1306 39.2097 1305.02 45.5671 1303.05 50.1841C1301.09 54.8012 1298.39 57.1098 1294.96 57.1098H1288.43V79.698H1284.65V5.11426H1294.96ZM1294.85 47.8401C1297.24 47.8401 1299.07 46.4194 1300.33 43.5781C1301.59 40.6658 1302.22 36.5104 1302.22 31.112C1302.22 25.7136 1301.59 21.5937 1300.33 18.7524C1299.07 15.8401 1297.24 14.3839 1294.85 14.3839H1288.43V47.8401H1294.85Z" fill="white"/>
<path d="M1323.53 80.5503C1320.86 80.5503 1318.46 78.9166 1316.31 75.6491C1314.17 72.3106 1312.48 67.729 1311.25 61.9044C1310.04 56.0797 1309.44 49.5803 1309.44 42.406C1309.44 35.2318 1310.04 28.7323 1311.25 22.9077C1312.48 17.083 1314.17 12.537 1316.31 9.26949C1318.46 5.93098 1320.86 4.26172 1323.53 4.26172C1326.18 4.26172 1328.57 5.93098 1330.71 9.26949C1332.86 12.537 1334.53 17.083 1335.74 22.9077C1336.95 28.6613 1337.55 35.1607 1337.55 42.406C1337.55 49.6513 1336.95 56.1863 1335.74 62.0109C1334.53 67.7645 1332.86 72.3106 1330.71 75.6491C1328.57 78.9166 1326.18 80.5503 1323.53 80.5503ZM1323.53 71.0675C1325.47 71.0675 1327.21 69.8245 1328.75 67.3383C1330.31 64.8522 1331.53 61.4427 1332.41 57.1097C1333.32 52.7057 1333.78 47.8045 1333.78 42.406C1333.78 37.0076 1333.32 32.1419 1332.41 27.8089C1331.53 23.4049 1330.31 19.9598 1328.75 17.4737C1327.21 14.9876 1325.47 13.7445 1323.53 13.7445C1321.59 13.7445 1319.83 14.9876 1318.24 17.4737C1316.68 19.9598 1315.44 23.4049 1314.54 27.8089C1313.66 32.1419 1313.21 37.0076 1313.21 42.406C1313.21 47.8045 1313.66 52.7057 1314.54 57.1097C1315.44 61.4427 1316.68 64.8522 1318.24 67.3383C1319.83 69.8245 1321.59 71.0675 1323.53 71.0675Z" fill="white"/>
<path d="M1360.14 41.021C1361.93 42.2285 1363.28 44.395 1364.19 47.5204C1365.12 50.5748 1365.59 54.5171 1365.59 59.3473C1365.59 65.8112 1364.74 70.819 1363.05 74.3706C1361.39 77.9222 1358.96 79.698 1355.76 79.698H1343.66V5.11426H1355.04C1357.94 5.11426 1360.19 6.78351 1361.81 10.122C1363.44 13.3895 1364.26 18.1131 1364.26 24.2929C1364.26 28.3417 1363.9 31.7868 1363.17 34.6281C1362.46 37.4694 1361.45 39.6004 1360.14 41.021ZM1347.41 37.9311H1354.78C1356.62 37.9311 1358.01 36.9011 1358.97 34.8412C1359.95 32.7813 1360.45 29.7624 1360.45 25.7846C1360.45 21.8068 1359.95 18.7879 1358.97 16.728C1357.99 14.597 1356.59 13.5315 1354.78 13.5315H1347.41V37.9311ZM1355.68 71.2807C1359.74 71.2807 1361.77 67.0188 1361.77 58.4949C1361.77 54.233 1361.25 51.1076 1360.22 49.1187C1359.21 47.0587 1357.7 46.0288 1355.68 46.0288H1347.41V71.2807H1355.68Z" fill="white"/>
<path d="M1372.02 0C1372.72 0 1373.3 0.71032 1373.76 2.13096C1374.23 3.48057 1374.47 5.18535 1374.47 7.24529C1374.47 8.31077 1374.44 9.37625 1374.36 10.4417C1374.28 11.4362 1374.12 12.8923 1373.87 14.8102L1372.05 29.727H1369.67L1371.07 13.8513C1370.59 13.3541 1370.2 12.5372 1369.9 11.4007C1369.62 10.1931 1369.48 8.80799 1369.48 7.24529C1369.48 5.11432 1369.72 3.37403 1370.2 2.02442C1370.68 0.674804 1371.29 0 1372.02 0Z" fill="white"/>
<path d="M1400 5.11426V79.698H1396.3V57.9622H1389C1388.55 57.9622 1388.21 57.9267 1387.98 57.8556L1382.69 79.698H1378.68L1384.54 56.0443C1382.65 54.2685 1381.2 51.3207 1380.2 47.2008C1379.19 43.0099 1378.68 37.9311 1378.68 31.9644C1378.68 23.5116 1379.64 16.9411 1381.56 12.253C1383.5 7.49383 1386.1 5.11426 1389.38 5.11426H1400ZM1382.5 31.8578C1382.5 37.3983 1383.07 41.6603 1384.2 44.6436C1385.36 47.556 1387.06 49.0121 1389.3 49.0121H1396.3V14.3839H1389.53C1387.26 14.3839 1385.52 15.8756 1384.32 18.8589C1383.11 21.8423 1382.5 26.1753 1382.5 31.8578Z" fill="white"/>
</svg>
