<svg width="24" height="12" viewBox="0 0 24 12" fill="none" xmlns="http://www.w3.org/2000/svg">
<path fill-rule="evenodd" clip-rule="evenodd" d="M7.41671 9.50478C5.41085 8.76654 3.61318 7.55692 2.1414 6C3.61318 4.44308 5.41085 3.23346 7.41671 2.49522C6.74515 3.48121 6.3495 4.69171 6.3495 6C6.3495 7.30829 6.74515 8.51879 7.41671 9.50478ZM12.0395 10.3199C12.0304 10.32 12.0212 10.32 12.0121 10.32C9.76082 10.3162 7.93687 8.38356 7.93687 6C7.93687 3.61644 9.76082 1.68375 12.0121 1.68001C12.0217 1.68001 12.0312 1.68003 12.0407 1.68006C14.2849 1.6926 16.1005 3.6219 16.1005 6C16.1005 8.37854 14.2842 10.3081 12.0395 10.3199ZM12.0117 12C12.014 12 12.0163 12 12.0187 12C12.0282 12 12.0377 12 12.0472 11.9999C16.8614 11.9848 21.1603 9.6518 24 6C21.1603 2.3482 16.8614 0.0152345 12.0472 7.43343e-05C12.0377 2.47974e-05 12.0282 0 12.0187 0C12.0164 0 12.0141 1.81386e-06 12.0118 4.67393e-06C12.0079 1.55816e-06 12.0039 0 12 0C7.16669 0 2.84896 2.33627 0 6C2.84896 9.66373 7.16669 12 12 12C12.0039 12 12.0078 12 12.0117 12ZM16.6332 2.51371C18.619 3.25358 20.399 4.45601 21.8586 6C20.399 7.54399 18.619 8.74642 16.6332 9.48629C17.2972 8.50367 17.6879 7.30013 17.6879 6C17.6879 4.69987 17.2972 3.49633 16.6332 2.51371ZM14.7399 6.00002C14.7399 7.5906 13.5216 8.88002 12.0187 8.88002C10.5158 8.88002 9.29748 7.5906 9.29748 6.00002C9.29748 4.40944 10.5158 3.12002 12.0187 3.12002C13.5216 3.12002 14.7399 4.40944 14.7399 6.00002Z" fill="#2D9CDB"/>
</svg>
