<svg width="24" height="24" viewBox="0 0 24 24" fill="none" xmlns="http://www.w3.org/2000/svg">
<path fill-rule="evenodd" clip-rule="evenodd" d="M12 3.91995C13.4494 3.91995 14.725 3.17971 15.4704 2.0563C15.8496 2.18865 16.219 2.34213 16.5772 2.51537C16.3101 3.8366 16.6887 5.26178 17.7135 6.28656C18.7382 7.31133 20.1634 7.68992 21.4846 7.42277C21.6579 7.78098 21.8114 8.1504 21.9437 8.52965C20.8203 9.27496 20.08 10.5506 20.08 12C20.08 13.4494 20.8203 14.725 21.9437 15.4704C21.8114 15.8496 21.6579 16.219 21.4846 16.5773C20.1634 16.3101 18.7382 16.6887 17.7135 17.7135C16.6887 18.7382 16.3101 20.1634 16.5772 21.4846C16.219 21.6579 15.8496 21.8114 15.4704 21.9437C14.725 20.8203 13.4494 20.08 12 20.08C10.5506 20.08 9.27496 20.8203 8.52965 21.9437C8.1504 21.8114 7.78097 21.6579 7.42276 21.4846C7.68991 20.1634 7.31132 18.7382 6.28654 17.7135C5.26177 16.6887 3.8366 16.3101 2.51537 16.5773C2.34213 16.219 2.18865 15.8496 2.0563 15.4704C3.17971 14.725 3.91996 13.4494 3.91996 12C3.91996 10.5506 3.17971 9.27496 2.0563 8.52965C2.18865 8.1504 2.34213 7.78098 2.51536 7.42277C3.83659 7.68992 5.26177 7.31133 6.28654 6.28656C7.31132 5.26178 7.68991 3.8366 7.42276 2.51537C7.78097 2.34213 8.15039 2.18865 8.52965 2.0563C9.27496 3.17971 10.5506 3.91995 12 3.91995ZM12 2.20601C13.0992 2.20601 14.0293 1.48165 14.3389 0.484234C14.3871 0.328879 14.4202 0.166899 14.4366 0C15.0074 0.115274 15.5638 0.270253 16.1028 0.461931C16.4974 0.602223 16.8825 0.762174 17.2572 0.940607C17.7802 1.18966 18.2828 1.47472 18.7616 1.79258C18.6556 1.92186 18.5648 2.05946 18.4892 2.20298C18.0027 3.12722 18.148 4.29725 18.9254 5.07461C19.7028 5.85197 20.8728 5.99736 21.797 5.51077C21.9406 5.43521 22.0781 5.34441 22.2074 5.23837C22.5253 5.71725 22.8104 6.2198 23.0594 6.74279C23.2378 7.11748 23.3978 7.50266 23.5381 7.89716C23.7297 8.43616 23.8847 8.99257 24 9.56336C23.8331 9.57977 23.6711 9.61293 23.5158 9.66115C22.5184 9.97073 21.794 10.9008 21.794 12C21.794 13.0992 22.5184 14.0293 23.5158 14.3389C23.6711 14.3871 23.8331 14.4202 24 14.4366C23.8847 15.0074 23.7297 15.5638 23.5381 16.1028C23.3978 16.4974 23.2378 16.8825 23.0594 17.2572C22.8103 17.7802 22.5253 18.2828 22.2074 18.7616C22.0781 18.6556 21.9406 18.5648 21.7971 18.4893C20.8728 18.0027 19.7028 18.148 18.9254 18.9254C18.148 19.7028 18.0027 20.8728 18.4892 21.7971C18.5648 21.9406 18.6556 22.0782 18.7616 22.2074C18.2828 22.5253 17.7802 22.8103 17.2572 23.0594C16.8825 23.2378 16.4973 23.3978 16.1028 23.5381C15.5638 23.7297 15.0074 23.8847 14.4366 24C14.4202 23.8331 14.3871 23.6711 14.3389 23.5158C14.0293 22.5184 13.0992 21.794 12 21.794C10.9008 21.794 9.97073 22.5184 9.66115 23.5158C9.61293 23.6711 9.57977 23.8331 9.56336 24C8.99257 23.8847 8.43617 23.7297 7.89716 23.5381C7.50266 23.3978 7.11747 23.2378 6.74279 23.0594C6.21979 22.8103 5.71725 22.5253 5.23837 22.2074C5.3444 22.0782 5.4352 21.9406 5.51076 21.7971C5.99735 20.8728 5.85197 19.7028 5.0746 18.9254C4.29723 18.148 3.1272 18.0027 2.20296 18.4893C2.05944 18.5648 1.92186 18.6556 1.79258 18.7616C1.47472 18.2828 1.18966 17.7802 0.940608 17.2572C0.762175 16.8825 0.602224 16.4974 0.461931 16.1028C0.270254 15.5638 0.115274 15.0074 0 14.4366C0.166896 14.4202 0.328873 14.3871 0.484226 14.3389C1.48165 14.0293 2.20601 13.0992 2.20601 12C2.20601 10.9008 1.48165 9.97073 0.484234 9.66115C0.328879 9.61293 0.166899 9.57977 0 9.56336C0.115274 8.99257 0.270253 8.43616 0.461931 7.89716C0.602221 7.50266 0.76217 7.11747 0.940599 6.74279C1.18965 6.2198 1.47471 5.71725 1.79257 5.23837C1.92185 5.34441 2.05945 5.43521 2.20298 5.51077C3.12721 5.99736 4.29724 5.85197 5.0746 5.07461C5.85196 4.29725 5.99735 3.12722 5.51076 2.20298C5.4352 2.05946 5.3444 1.92186 5.23836 1.79258C5.71724 1.47472 6.21978 1.18966 6.74277 0.940606C7.11747 0.762174 7.50265 0.602223 7.89716 0.461931C8.43617 0.270253 8.99257 0.115274 9.56336 0C9.57977 0.166896 9.61293 0.328873 9.66115 0.484226C9.97073 1.48165 10.9008 2.20601 12 2.20601ZM15.9152 11.9976C15.9152 14.1613 14.1613 15.9152 11.9976 15.9152C9.83402 15.9152 8.08005 14.1613 8.08005 11.9976C8.08005 9.83402 9.83402 8.08005 11.9976 8.08005C14.1613 8.08005 15.9152 9.83402 15.9152 11.9976ZM17.6292 11.9976C17.6292 15.1079 15.1079 17.6292 11.9976 17.6292C8.88743 17.6292 6.3661 15.1079 6.3661 11.9976C6.3661 8.88743 8.88743 6.3661 11.9976 6.3661C15.1079 6.3661 17.6292 8.88743 17.6292 11.9976Z" fill="#2D9CDB"/>
</svg>
