<svg width="22" height="24" viewBox="0 0 22 24" fill="none" xmlns="http://www.w3.org/2000/svg">
<path fill-rule="evenodd" clip-rule="evenodd" d="M15.1866 3.39394L14.695 2.44461C14.4639 1.9983 13.9825 1.69697 13.4302 1.69697H8.56977C8.0175 1.69697 7.53613 1.9983 7.305 2.4446L6.81337 3.39394H5.69746H3.06977C2.36336 3.39394 1.7907 3.93662 1.7907 4.60606V11.8788H2.82064H19.1793H20.2093V4.60606C20.2093 3.93662 19.6366 3.39394 18.9302 3.39394H16.3025H15.1866ZM0 13.5758H1.25089C2.34242 19.5641 6.2933 24 11 24C15.7067 24 19.6576 19.5641 20.7491 13.5758H22V11.8788V4.60606C22 2.99941 20.6256 1.69697 18.9302 1.69697H16.3025C15.782 0.691887 14.6914 0 13.4302 0H8.56977C7.30861 0 6.21797 0.691887 5.69746 1.69697H3.06977C1.37438 1.69697 0 2.99941 0 4.60606V11.8788V13.5758ZM5.7233 19.4615C4.49658 17.9588 3.54384 15.9299 3.07072 13.5758H18.9293C18.4562 15.9299 17.5034 17.9588 16.2767 19.4615C14.7412 21.3424 12.8745 22.303 11 22.303C9.1255 22.303 7.25877 21.3424 5.7233 19.4615ZM9.97674 4.36364H11.7674V6.54545H14.0698V8.24242H11.7674V10.4242H9.97674V8.24242H7.67442V6.54545H9.97674V4.36364Z" fill="#2D9CDB"/>
</svg>
