<svg width="23" height="27" viewBox="0 0 23 27" fill="none" xmlns="http://www.w3.org/2000/svg">
<path d="M4.22044 7.49121H5.62669V6.02668H7.03463V4.5639H5.62669V3.09937H4.22044V4.5639H2.8125V6.02668H4.22044V7.49121Z" fill="#2B8FC3"/>
<path d="M2.8125 8.95215H15.4744V10.4149H2.8125V8.95215Z" fill="#2B8FC3"/>
<path d="M2.8125 11.8799H15.4744V13.3428H2.8125V11.8799Z" fill="#2B8FC3"/>
<path d="M2.8125 14.8077H15.4744V16.2706H2.8125V14.8077Z" fill="#2B8FC3"/>
<path d="M11.958 20.6635H15.4742V22.1261H11.958V20.6635Z" fill="#2B8FC3"/>
<path d="M2.8125 20.6635H6.32869V22.1261H2.8125V20.6635Z" fill="#2B8FC3"/>
<path d="M2.8125 17.7356H9.14344V19.1982H2.8125V17.7356Z" fill="#2B8FC3"/>
<path d="M13.6562 0.17395H0V25.1379H18.2869V4.99059L13.6562 0.17395ZM14.0681 2.67098L15.8863 4.56215H14.0681V2.67098ZM1.40625 23.6752V1.63668H12.6619V6.02489H16.8806V23.6752H1.40625Z" fill="#2B8FC3"/>
<path fill-rule="evenodd" clip-rule="evenodd" d="M17.675 17.967C16.0503 20.2334 14.8412 22.8507 14.2356 24.5504L13.3627 27L7 19.7997L9.38771 18.0703L12.2913 21.3561C13.0033 19.8155 13.9566 18.0691 15.11 16.46C16.8534 14.028 19.3228 11.5285 22.4365 11L23 13.7208C21.2213 14.0228 19.3588 15.618 17.675 17.967Z" fill="#2B8FC3"/>
</svg>
