<svg width="24" height="24" viewBox="0 0 24 24" fill="none" xmlns="http://www.w3.org/2000/svg">
<path fill-rule="evenodd" clip-rule="evenodd" d="M22.32 12C22.32 17.6996 17.6996 22.32 12 22.32C6.30042 22.32 1.68 17.6996 1.68 12C1.68 6.30042 6.30042 1.68 12 1.68C17.6996 1.68 22.32 6.30042 22.32 12ZM24 12C24 18.6274 18.6274 24 12 24C5.37258 24 0 18.6274 0 12C0 5.37258 5.37258 0 12 0C18.6274 0 24 5.37258 24 12ZM16.9379 6.56139L17.9351 7.91339L16.1385 9.23856L18.1514 10.204L17.4249 11.7188L14.1569 10.1514C13.8805 10.0188 13.7098 9.75487 13.6835 9.47038C13.656 9.186 13.7744 8.89475 14.021 8.71283L16.9379 6.56139ZM5.87165 7.91339L6.86889 6.56139L9.78571 8.71283C10.0323 8.89475 10.1507 9.186 10.1232 9.47038C10.097 9.75487 9.9262 10.0188 9.64987 10.1514L6.38189 11.7188L5.65535 10.204L7.66825 9.23856L5.87165 7.91339ZM15.834 17.4442C15.9383 17.6441 16.0928 17.8164 16.2936 17.9192L16.5218 18.0361C16.7703 18.1633 17.0662 18.1568 17.3088 18.0187C17.5753 17.867 17.7064 17.5506 17.5952 17.2649C16.7241 15.0264 14.5482 13.44 12.0016 13.44C9.45438 13.44 7.27788 15.0273 6.4073 17.2668C6.2966 17.5515 6.427 17.8669 6.69227 18.0184C6.93422 18.1567 7.22955 18.1637 7.47775 18.037L7.70876 17.9191C7.91008 17.8163 8.06504 17.6439 8.16965 17.4435C8.89058 16.0626 10.336 15.12 12.0016 15.12C13.6675 15.12 15.1131 16.0629 15.834 17.4442Z" fill="#2D9CDB"/>
</svg>
