<svg width="21" height="24" viewBox="0 0 21 24" fill="none" xmlns="http://www.w3.org/2000/svg">
<path fill-rule="evenodd" clip-rule="evenodd" d="M6.04549 1.50171C3.58584 1.50171 1.53885 3.53758 1.53885 6.11412C1.53885 8.69067 3.58584 10.7265 6.04549 10.7265C6.81634 10.7265 7.54098 10.529 8.17568 10.1798L8.27275 10.1263L8.38136 10.102C8.78253 10.0121 9.26493 9.94218 9.74925 9.93259C10.2231 9.9232 10.758 9.97003 11.2284 10.1574C11.72 10.3532 12.19 10.7286 12.3559 11.3632C12.5101 11.9533 12.3572 12.6126 12.0145 13.3055C11.81 13.7189 11.6027 14.0603 11.3738 14.3147C11.1395 14.5752 10.8363 14.7947 10.4442 14.8528C10.0619 14.9094 9.73553 14.7904 9.50438 14.6741C9.29508 14.5688 9.0835 14.4226 8.90766 14.3011C8.89539 14.2926 8.88331 14.2843 8.87141 14.276C8.47479 14.0025 8.08131 13.7405 7.55729 13.5961C7.04858 13.4559 6.36025 13.4134 5.38724 13.6983C3.55849 14.2337 2.45397 15.9151 1.92702 17.7535C1.66806 18.657 1.56644 19.5457 1.58145 20.2491C1.58896 20.6015 1.6254 20.8898 1.67704 21.1007C1.726 21.3007 1.77209 21.3699 1.77209 21.3699L1.77015 21.3683L1.82899 21.4286L1.87443 21.505C2.21282 22.0734 2.8413 22.4292 3.41556 22.4899C3.87783 22.5387 4.18895 22.4036 4.35417 22.1404C4.29979 21.9964 4.22543 21.8999 4.14205 21.8121C4.08283 21.7498 4.02429 21.6971 3.94453 21.6253C3.92545 21.6081 3.90516 21.5899 3.88336 21.5701C3.78281 21.4791 3.64653 21.353 3.52562 21.1956C3.24442 20.8297 3.11192 20.3841 3.188 19.8038C3.25725 19.2755 3.49925 18.6295 3.92836 17.792C4.19246 17.2766 4.44641 16.8586 4.71691 16.5887C4.8563 16.4496 5.04994 16.2984 5.30513 16.227C5.59004 16.1472 5.86651 16.1901 6.09695 16.308C6.30156 16.4126 6.44916 16.5648 6.54988 16.6869C6.65478 16.814 6.74786 16.9573 6.82979 17.0936C6.90975 17.2266 7.0119 17.4115 7.11512 17.5983C7.19539 17.7436 7.27631 17.89 7.34795 18.0142C7.72863 18.6739 8.20612 19.3699 8.93495 19.8899C9.64594 20.3971 10.6515 20.7757 12.1631 20.7031C15.1724 20.5587 16.9969 18.8724 18.0898 16.8757C19.2003 14.847 19.5055 12.5696 19.4563 11.5115C19.4469 11.3098 19.439 11.1082 19.4312 10.9072C19.3911 9.87815 19.2432 8.92883 19 8C18.7206 6.93307 18.3034 6.01604 17.2428 5.49853C15.1377 4.47142 13.279 5.11371 12.3702 6.00875C12.0165 6.35714 11.5447 6.33505 11.2749 6.25605C11.0076 6.17779 10.5772 5.93407 10.5015 5.42015C10.4565 5.11454 10.3823 4.8191 10.2819 4.53678C9.64629 2.74955 7.97554 1.50171 6.04549 1.50171ZM0 6.11412C0 2.76657 2.67736 0 6.04549 0C8.68356 0 10.903 1.70292 11.7357 4.04444C11.7842 4.18102 11.8281 4.31982 11.8671 4.46063C13.3073 3.44537 15.5617 2.99931 17.931 4.15535C19.5084 4.92502 20.1383 6.28164 20.4909 7.62818C20.7788 8.72753 20.9326 9.86744 20.9712 10.893C20.9784 11.0832 20.9853 11.2672 20.9935 11.4433C21.0542 12.745 20.7 15.2945 19.4472 17.5833C18.1768 19.904 15.9344 22.0256 12.2387 22.203C10.3978 22.2914 9.04011 21.8252 8.02676 21.1022C7.03125 20.392 6.4233 19.4723 6.00708 18.751C5.89421 18.5554 5.80924 18.4003 5.7341 18.2632C5.67783 18.1605 5.62708 18.0678 5.57425 17.9758C5.49897 18.0994 5.40952 18.2591 5.30475 18.4636C4.89848 19.2566 4.75028 19.7207 4.71441 19.9943C4.68674 20.2054 4.72858 20.2587 4.75319 20.2901L4.7567 20.2946C4.78829 20.3357 4.83578 20.3839 4.93026 20.4695C4.94333 20.4813 4.95771 20.4942 4.97316 20.5081C5.05472 20.5813 5.16601 20.6812 5.27036 20.791C5.54807 21.0832 5.80858 21.4732 5.92239 22.0655L5.95913 22.2568L5.89608 22.4414C5.4747 23.675 4.30161 24.094 3.24987 23.9828C2.2394 23.876 1.18825 23.2901 0.583151 22.3237C0.368647 22.0672 0.251144 21.739 0.180312 21.4497C0.0964528 21.1071 0.0520349 20.7073 0.0429277 20.2804C0.0246849 19.4252 0.146741 18.3898 0.445055 17.349C1.03265 15.2991 2.37708 13.0117 4.94505 12.2599C5.04943 12.2294 5.15209 12.2016 5.25307 12.1765C2.26695 11.7828 0 9.19444 0 6.11412ZM7.50708 12.0482C7.66926 12.0749 7.82526 12.1095 7.97548 12.1509C8.77674 12.3717 9.3585 12.773 9.75877 13.0492L9.75969 13.0498C9.97269 13.1967 10.0994 13.2833 10.2053 13.3372C10.2091 13.3331 10.2131 13.3288 10.2173 13.3241C10.3122 13.2186 10.4484 13.017 10.6286 12.6527C10.9014 12.1013 10.8898 11.8301 10.8647 11.7344C10.8514 11.6832 10.8216 11.6174 10.6468 11.5477C10.4507 11.4696 10.1525 11.4266 9.78048 11.434C9.45674 11.4404 9.12116 11.4839 8.82723 11.5439C8.41306 11.7613 7.97063 11.9318 7.50708 12.0482Z" fill="#2D9CDB"/>
</svg>
