<svg width="24" height="20" viewBox="0 0 24 20" fill="none" xmlns="http://www.w3.org/2000/svg">
<path fill-rule="evenodd" clip-rule="evenodd" d="M22.2363 16.0893L13.2621 2.2253C12.6654 1.30357 11.3346 1.30357 10.7379 2.22532L1.76372 16.0893C1.10345 17.1094 1.82385 18.466 3.0258 18.466H20.9742C22.1761 18.466 22.8966 17.1094 22.2363 16.0893ZM14.5241 1.38262C13.3309 -0.46088 10.6691 -0.460867 9.47584 1.38262L0.501643 15.2466C-0.818907 17.2867 0.621911 20 3.0258 20H20.9742C23.3781 20 24.8189 17.2867 23.4984 15.2466L14.5241 1.38262ZM10.5 5.76411H13.5V13.3728H10.5V5.76411ZM13.5 14.8945H10.5V16.8511H13.5V14.8945Z" fill="#2D9CDB"/>
</svg>
