<svg width="20" height="24" viewBox="0 0 20 24" fill="none" xmlns="http://www.w3.org/2000/svg">
<path fill-rule="evenodd" clip-rule="evenodd" d="M4.31473 15.2033L3.47697 15.6837C2.39786 16.3026 1.67795 17.4551 1.67795 18.7723C1.67795 20.7408 3.28777 22.3366 5.27356 22.3366C7.25937 22.3366 8.86917 20.7408 8.86917 18.7723C8.86917 17.5227 8.22184 16.4221 7.23359 15.7833L6.4721 15.2911V14.39V2.73267C6.4721 2.14211 5.98916 1.66337 5.39342 1.66337C4.79767 1.66337 4.31473 2.14211 4.31473 2.73267V14.2439V15.2033ZM2.63678 2.73267C2.63678 1.22346 3.87097 0 5.39342 0C6.91586 0 8.15005 1.22346 8.15005 2.73267V14.39C9.5932 15.3228 10.5471 16.9371 10.5471 18.7723C10.5471 21.6595 8.18607 24 5.27356 24C2.36105 24 0 21.6595 0 18.7723C0 16.8373 1.06051 15.1478 2.63678 14.2439V13.5446H0.239707V11.8812H2.63678V9.0297H0.239707V7.36634H2.63678V4.51485H0.239707V2.85149H2.63678V2.73267ZM5.27356 20.198C6.20026 20.198 6.95151 19.4533 6.95151 18.5347C6.95151 17.616 6.20026 16.8713 5.27356 16.8713C4.34686 16.8713 3.59561 17.616 3.59561 18.5347C3.59561 19.4533 4.34686 20.198 5.27356 20.198ZM14.331 9.97893C14.3083 9.97977 14.2855 9.9802 14.2626 9.9802C14.2491 9.9802 14.2356 9.98005 14.2222 9.97976C14.2172 9.97965 14.2123 9.97952 14.2074 9.97937L14.1941 9.97893L13.4236 11.3019V13.3069H11.7457V11.8812H10.3074V10.2178H12.1175L12.7409 9.14746C12.7351 9.13833 12.7293 9.12914 12.7237 9.11989C12.7193 9.11275 12.715 9.10558 12.7108 9.09837C12.6974 9.0758 12.6845 9.0529 12.6721 9.0297H11.1067L9.81596 10.3093L8.62947 9.13307L9.64645 8.12492L8.62947 7.11677L9.81596 5.94059L11.2542 7.36634H12.6721C12.6936 7.32616 12.7165 7.28687 12.7409 7.24858L12.1175 6.17822H10.3074V4.51485H11.7457V3.08911H13.4236V5.09412L14.1941 6.41711C14.2168 6.41627 14.2397 6.41584 14.2626 6.41584C14.2728 6.41584 14.2829 6.41593 14.2931 6.4161C14.3057 6.4163 14.3184 6.41664 14.331 6.41711L15.1016 5.09414V3.08911H16.7795V4.51485H18.2178V6.17822H16.4077L15.7843 7.2486C15.8087 7.28689 15.8316 7.32616 15.853 7.36634H17.3753L18.8135 5.94059L20 7.11677L18.983 8.12492L20 9.13307L18.8135 10.3093L17.5227 9.0297H15.853C15.8316 9.06989 15.8087 9.10915 15.7843 9.14744L16.4077 10.2178H18.2178V11.8812H16.7795V13.3069H15.1016V11.3019L14.331 9.97893Z" fill="#2D9CDB"/>
</svg>
