<svg width="24" height="22" viewBox="0 0 24 22" fill="none" xmlns="http://www.w3.org/2000/svg">
<path fill-rule="evenodd" clip-rule="evenodd" d="M6.24 0H4.56V1.20879H1.68C0.752168 1.20879 0 1.96646 0 2.9011V7.25275V8.94506V20.3077C0 21.2423 0.752168 22 1.68 22H22.32C23.2478 22 24 21.2423 24 20.3077V8.94506V7.25275V2.9011C24 1.96646 23.2478 1.20879 22.32 1.20879H19.44V0H17.76V1.20879H14.64V0H9.12V1.20879H6.24V0ZM9.12 2.9011H6.24V4.35165H4.56V2.9011H1.68V7.25275H22.32V2.9011H19.44V4.35165H17.76V2.9011H14.64V4.35165H9.12V2.9011ZM22.32 8.94506V20.3077H1.68V8.94506H22.32ZM17.2677 12.5716L11.5077 18.2529L10.9241 18.8285L10.3365 18.2571L6.85654 14.8725L8.02346 13.655L10.9159 16.4682L16.0923 11.3624L17.2677 12.5716Z" fill="#2D9CDB"/>
</svg>
