<svg width="19" height="24" viewBox="0 0 19 24" fill="none" xmlns="http://www.w3.org/2000/svg">
<path fill-rule="evenodd" clip-rule="evenodd" d="M14.3931 4.23466L13.1761 3.66576C12.6802 3.43393 12.0737 3.5762 11.732 4.0336L10.5917 5.56013L10.6471 5.58348C12.428 6.33294 13.9947 7.51722 15.2081 9.02771L16.3228 7.53559C16.6774 7.06086 16.6304 6.4028 16.2365 5.98603L15.2604 4.95329L16.1119 3.81352L17.0277 2.58755C17.2142 2.33795 17.1651 1.98286 16.9181 1.79444C16.6711 1.60602 16.3197 1.65562 16.1332 1.90522L15.201 3.15319L14.3931 4.23466ZM14.8376 11.3002L14.669 11.0764L5.85733 23.0069L1.81333 23.292C1.59294 23.3076 1.39104 23.1675 1.32619 22.9541L0 18.5892L8.82739 6.63751L8.53826 6.51583C8.25172 6.39524 8.15475 6.03387 8.34177 5.78352L10.4051 3.02141C11.2281 1.91973 12.6828 1.58414 13.8741 2.141L14.8063 0.893028C15.546 -0.0971029 16.9399 -0.293845 17.9197 0.453593C18.8995 1.20103 19.0942 2.60961 18.3546 3.59974L17.4388 4.82571C18.3863 5.82832 18.5031 7.40531 17.6497 8.54778L15.5947 11.2987C15.4051 11.5525 15.0281 11.5532 14.8376 11.3002ZM10.4042 7.31139C11.6201 7.88691 12.7074 8.70409 13.6018 9.7127L4.98104 21.3846L4.33239 21.4303C3.34061 21.5003 2.43207 20.87 2.14026 19.9096L1.83686 18.911L10.4042 7.31139ZM17.3375 20.4C17.3375 21.4604 16.4868 22.32 15.4375 22.32C14.3882 22.32 13.5375 21.4604 13.5375 20.4C13.5375 19.824 13.7974 18.9511 14.4104 17.7905C14.697 17.2479 15.0391 16.6821 15.4207 16.1037C15.8181 16.7086 16.1726 17.2894 16.4686 17.843C17.0832 18.9924 17.3375 19.8311 17.3375 20.4ZM11.875 20.4C11.875 18.7835 12.9739 16.702 14.406 14.6258C14.7353 14.1483 15.0823 13.6712 15.4375 13.2C15.7849 13.6826 16.1243 14.163 16.447 14.6379C17.8898 16.7608 19 18.7753 19 20.4C19 22.3882 17.405 24 15.4375 24C13.47 24 11.875 22.3882 11.875 20.4Z" fill="#2D9CDB"/>
</svg>
