<svg width="34" height="45" viewBox="0 0 34 45" fill="none" xmlns="http://www.w3.org/2000/svg">
<path d="M33.2812 30.3869H27.359C26.7598 30.3869 26.1999 30.862 25.6953 31.5747L24.3115 0H22.6477L19.2768 42.8066C18.5987 38.6511 17.8614 32.1903 17.7313 31.2468C17.408 28.9047 15.969 28.5467 15.1371 28.5467C15.011 28.5467 14.8178 28.5467 14.5891 28.5667C14.1357 28.5868 12.8347 28.6504 12.3222 28.5032C11.8688 27.4526 10.9896 21.7881 10.3745 16.6756H8.71867C8.71867 16.7727 7.72909 26.6262 7.58715 27.6567C7.5635 27.8407 7.03125 27.9913 6.4793 28.0716C6.20821 27.4223 5.66743 26.8791 4.95828 26.544C4.24914 26.2088 3.42031 26.1046 2.62712 26.2509C1.83393 26.3971 1.13081 26.7839 0.649537 27.3386C0.168261 27.8933 -0.0581438 28.5779 0.0127527 29.2641C0.0836492 29.9503 0.44698 30.5911 1.03466 31.0662C1.62233 31.5414 2.39402 31.8184 3.20511 31.8453C4.01619 31.8722 4.81101 31.6472 5.4406 31.2124C6.0702 30.7776 6.49136 30.1629 6.62517 29.4835C7.50042 29.3932 9.06955 29.0586 9.23908 27.8106C9.29428 27.4024 9.47169 25.7261 9.66882 23.7956C10.5204 29.1757 11.0053 29.4467 11.2695 29.5973C12.058 30.0356 13.3788 30.0121 14.6798 29.9486C14.869 29.9486 15.0267 29.9318 15.1332 29.9318C15.7443 29.9318 15.9808 30.7181 16.0715 31.3772C16.3199 33.1873 17.3947 39.779 18.467 45H20.4964L23.2982 12.6874L24.41 40.4578L26.3815 33.5635C26.7757 32.0546 32.8754 32.5862 33.2812 32.5862C33.2812 25.3763 33.2812 30.3869 33.2812 30.3869Z" fill="#2C8FC3"/>
</svg>
