<svg width="192" height="38" viewBox="0 0 192 38" fill="none" xmlns="http://www.w3.org/2000/svg">
<path d="M52.9331 23.4114V4.88276L45.3757 23.4149H44.6938L37.1047 4.88276V23.4149H35.3323V2.42725H37.973L45.0229 19.7316L52.041 2.42725H54.7055V23.4114H52.9331Z" fill="white"/>
<path d="M56.3196 23.4149V2.42725H69.2351V4.06219H58.0596V11.8334H69.021V13.4719H58.0596V21.78H69.2351V23.4149H56.3196Z" fill="white"/>
<path d="M70.8496 22.6375C71.4438 22.6293 72.03 22.5052 72.5718 22.2726C73.1622 21.9672 73.6424 21.4993 73.9496 20.9299C74.4502 20.0338 74.8185 19.0761 75.0442 18.0839C75.432 16.4727 75.7119 14.8397 75.8824 13.1946L77.1721 2.42725H88.4202V22.539H90.2228V26.6438H88.5121V24.2393H72.5604V26.6438H70.8496V22.6375ZM77.6314 13.3442C77.4706 14.7198 77.2755 15.8983 77.0458 16.9455C76.8602 17.8406 76.6044 18.7212 76.2804 19.5799C76.039 20.2202 75.7218 20.8323 75.3351 21.4042C75.0349 21.8426 74.6597 22.2299 74.2252 22.5499H86.698V4.1166H78.7107L77.6314 13.3442Z" fill="white"/>
<path d="M104.818 23.4149V4.06219H93.3792V23.4149H91.8372V2.42725H106.367V23.4149H104.818Z" fill="white"/>
<path d="M109.597 23.4149V2.42817H116.747C117.59 2.41324 118.425 2.57985 119.191 2.91582C119.892 3.22666 120.513 3.6831 121.01 4.25249C121.506 4.836 121.884 5.50343 122.127 6.22065C122.641 7.74369 122.641 9.38473 122.127 10.9078C121.883 11.6262 121.499 12.293 120.995 12.8724C120.497 13.436 119.878 13.8885 119.181 14.1986C118.419 14.5357 117.589 14.7024 116.751 14.6862H111.23V23.4044L109.597 23.4149ZM116.558 13.0619C117.147 13.07 117.731 12.9576 118.271 12.7321C118.777 12.5168 119.23 12.1998 119.599 11.8024C119.976 11.3932 120.267 10.9164 120.454 10.3991C120.661 9.81201 120.763 9.195 120.755 8.57473C120.761 7.95926 120.658 7.34733 120.454 6.76444C120.27 6.23716 119.98 5.75051 119.599 5.33305C119.233 4.92545 118.78 4.59877 118.271 4.37528C117.731 4.14946 117.147 4.03705 116.558 4.0455H111.222V13.0584H116.558V13.0619Z" fill="white"/>
<path d="M136.582 23.4149L134.512 18.2539H123.427L121.353 23.4149H119.283L127.855 2.42725H130.085L138.656 23.4149H136.582ZM128.952 4.34638L124.019 16.626H133.912L128.952 4.34638Z" fill="white"/>
<path d="M138.656 23.4044V2.42725H147.108C148.852 2.42725 150.235 2.90416 151.255 3.85798C152.275 4.81181 152.784 6.11747 152.781 7.77498C152.791 8.39393 152.687 9.01008 152.471 9.59847C152.286 10.1111 152.015 10.5958 151.667 11.0362C151.351 11.435 150.959 11.7815 150.51 12.0602C150.108 12.318 149.651 12.4994 149.168 12.5932C149.736 12.6799 150.273 12.884 150.737 13.1893C151.23 13.5151 151.657 13.9136 152.001 14.3676C152.369 14.854 152.659 15.3839 152.864 15.9421C153.08 16.5257 153.189 17.1368 153.186 17.7516C153.186 19.5119 152.662 20.8959 151.616 21.9035C150.57 22.9111 149.131 23.4149 147.3 23.4149H138.668L138.656 23.4044ZM146.872 11.8322C148.206 11.8322 149.212 11.4605 149.89 10.7171C150.582 9.93604 150.943 8.96054 150.906 7.96434C150.934 6.96928 150.575 5.99635 149.89 5.21157C149.215 4.44711 148.206 4.06488 146.872 4.06488H140.41V11.8322H146.872ZM146.998 21.7703C147.584 21.7985 148.169 21.7135 148.715 21.521C149.261 21.3286 149.754 21.0333 150.16 20.6551C150.922 19.9117 151.298 18.9018 151.298 17.6183C151.298 17.0952 151.204 16.5755 151.02 16.0789C150.844 15.5914 150.568 15.1381 150.204 14.7428C149.838 14.3501 149.382 14.0331 148.866 13.8135C148.278 13.5704 147.637 13.4505 146.99 13.4629H140.41V21.7703H146.998Z" fill="white"/>
<path d="M153.186 22.6375C153.781 22.6289 154.369 22.5048 154.913 22.2726C155.503 21.9672 155.983 21.4993 156.291 20.9299C156.792 20.0338 157.16 19.0761 157.386 18.0839C157.772 16.4724 158.052 14.8394 158.224 13.1946L159.515 2.42725H170.756V22.539H172.559V26.6438H170.848V24.2393H154.901V26.6438H153.19V22.6302L153.186 22.6375ZM159.974 13.3442C159.813 14.7198 159.618 15.8983 159.388 16.9455C159.203 17.8406 158.947 18.7212 158.623 19.5799C158.381 20.2202 158.064 20.8323 157.677 21.4042C157.377 21.8426 157.001 22.2299 156.567 22.5499H169.06V4.1166H161.054L159.974 13.3442Z" fill="white"/>
<path d="M190.028 23.4149L188.139 18.2539H177.97L176.074 23.4149H174.173L182.031 2.42725H184.074L191.932 23.4149H190.028ZM183.036 4.34638L178.517 16.626H187.581L183.036 4.34638Z" fill="white"/>
<path d="M37.0066 22.3913H27.7483C27.1405 22.3913 26.5727 22.7414 26.0608 23.2665L24.6573 0H22.9699L19.5511 31.5431C18.8633 28.481 18.1155 23.7202 17.9836 23.0249C17.6557 21.2991 16.1962 21.0353 15.3525 21.0353C15.2245 21.0353 15.0286 21.0353 14.7967 21.0501C14.3368 21.0649 13.0173 21.1117 12.4975 21.0033C12.0376 20.2291 11.1459 16.0551 10.5221 12.2879H8.8427C8.8427 12.3594 7.83904 19.6201 7.69509 20.3795C7.6711 20.5151 7.13128 20.626 6.57147 20.6852C6.29653 20.2068 5.74805 19.8065 5.02882 19.5596C4.30959 19.3126 3.46897 19.2358 2.66449 19.3436C1.86002 19.4514 1.1469 19.7363 0.658777 20.1451C0.170655 20.5538 -0.058971 21.0583 0.0129341 21.564C0.0848392 22.0696 0.453339 22.5418 1.04938 22.8919C1.64541 23.242 2.42808 23.4462 3.2507 23.466C4.07333 23.4858 4.87945 23.32 5.518 22.9996C6.15655 22.6792 6.58371 22.2263 6.71942 21.7256C7.60712 21.6591 9.19858 21.4125 9.37052 20.4929C9.4265 20.1921 9.60644 18.9569 9.80637 17.5343C10.6701 21.4988 11.1619 21.6985 11.4298 21.8095C12.2295 22.1324 13.5691 22.1152 14.8886 22.0683C15.0806 22.0683 15.2405 22.056 15.3485 22.056C15.9683 22.056 16.2082 22.6354 16.3002 23.1211C16.5521 24.4549 18.9672 36.5504 19.0712 37.0066L20.7506 36.9622L23.6297 9.34902L24.7573 29.8123L26.2808 26.0032C26.6806 24.8913 27.3964 23.7424 27.8042 23.5156C32.8385 23.5377 37.0066 23.5156 37.0066 23.5156V22.3913Z" fill="white"/>
</svg>
