<svg width="148" height="44" viewBox="0 0 148 44" fill="none" xmlns="http://www.w3.org/2000/svg">
<path d="M148 26.4755H20.9786C20.519 26.4755 20.0898 26.8894 19.7028 27.5103L18.6417 0H17.366L14.7812 37.2965C14.2612 33.6759 13.6959 28.0467 13.5962 27.2247C13.3483 25.184 12.2448 24.8721 11.607 24.8721C11.5102 24.8721 11.3621 24.8721 11.1867 24.8896C10.8391 24.9071 9.84147 24.9625 9.44847 24.8342C9.10081 23.9189 8.42666 18.9835 7.95506 14.5291H6.68536C6.68536 14.6137 5.92656 23.1988 5.81773 24.0967C5.79959 24.257 5.39147 24.3882 4.96824 24.4582C4.76038 23.8925 4.34571 23.4192 3.80195 23.1272C3.25819 22.8352 2.62265 22.7444 2.01444 22.8718C1.40623 22.9993 0.867093 23.3362 0.498056 23.8195C0.12902 24.3029 -0.0445839 24.8993 0.0097786 25.4972C0.0641411 26.0951 0.342738 26.6534 0.793361 27.0674C1.24398 27.4814 1.8357 27.7227 2.45763 27.7462C3.07956 27.7696 3.68902 27.5736 4.17178 27.1947C4.65455 26.8159 4.97749 26.2803 5.08009 25.6884C5.75122 25.6097 6.95441 25.3181 7.08441 24.2308C7.12673 23.8751 7.26277 22.4146 7.41392 20.7326C8.06691 25.4202 8.43875 25.6563 8.6413 25.7875C9.24592 26.1694 10.2587 26.149 11.2563 26.0936C11.4014 26.0936 11.5223 26.079 11.6039 26.079C12.0725 26.079 12.2539 26.7641 12.3234 27.3384C12.5139 28.9155 14.3398 43.2172 14.4184 43.7565L15.6881 43.704L17.8648 11.0543L18.7173 35.2501L19.8691 30.7462C20.1714 29.4314 20.7125 28.073 21.0209 27.8048C24.827 27.831 147.991 27.8048 147.991 27.8048L148 26.4755Z" fill="#003EB8"/>
<path d="M37.1957 23.1625V8.39224L31.1712 23.1653H30.6276L24.5779 8.39224V23.1653H23.165V6.43481H25.2701L30.8899 20.2291L36.4845 6.43481H38.6085V23.1625H37.1957Z" fill="#003EB8"/>
<path d="M39.8955 23.1653V6.43481H50.1912V7.73812H41.2825V13.933H50.0205V15.2391H41.2825V21.8619H50.1912V23.1653H39.8955Z" fill="#003EB8"/>
<path d="M51.4785 22.5455C51.9522 22.539 52.4194 22.4401 52.8514 22.2547C53.322 22.0112 53.7048 21.6382 53.9497 21.1843C54.3487 20.47 54.6424 19.7065 54.8223 18.9156C55.1314 17.6312 55.3546 16.3294 55.4904 15.0181L56.5185 6.43481H65.485V22.467H66.922V25.7392H65.5583V23.8224H52.8423V25.7392H51.4785V22.5455ZM56.8846 15.1373C56.7565 16.2339 56.6009 17.1733 56.4179 18.0081C56.2699 18.7217 56.066 19.4237 55.8077 20.1081C55.6153 20.6186 55.3624 21.1065 55.0541 21.5624C54.8149 21.9119 54.5158 22.2206 54.1694 22.4757H64.1121V7.78149H57.745L56.8846 15.1373Z" fill="#003EB8"/>
<path d="M78.5569 23.1653V7.73812H69.4382V23.1653H68.209V6.43481H79.7916V23.1653H78.5569Z" fill="#003EB8"/>
<path d="M82.3652 23.1653V6.43555H88.0654C88.7368 6.42365 89.4024 6.55646 90.0138 6.82429C90.5725 7.07207 91.0676 7.43593 91.4635 7.88982C91.8586 8.35497 92.1604 8.88701 92.3536 9.45875C92.7633 10.6728 92.7633 11.981 92.3536 13.1951C92.1592 13.7678 91.8531 14.2994 91.4519 14.7612C91.0546 15.2105 90.561 15.5712 90.0051 15.8184C89.3981 16.0871 88.736 16.22 88.0683 16.2071H83.6671V23.1569L82.3652 23.1653ZM87.9146 14.9123C88.384 14.9187 88.8494 14.8291 89.2802 14.6494C89.6836 14.4778 90.0444 14.2251 90.3385 13.9083C90.6395 13.5821 90.871 13.202 91.0199 12.7896C91.1855 12.3216 91.2669 11.8298 91.2605 11.3353C91.2646 10.8447 91.1832 10.3569 91.0199 9.89224C90.8738 9.47191 90.6421 9.08397 90.3385 8.75119C90.0468 8.42627 89.6858 8.16586 89.2802 7.9877C88.8495 7.80769 88.384 7.71808 87.9146 7.72482H83.6613V14.9095H87.9146V14.9123Z" fill="#003EB8"/>
<path d="M103.877 23.1653L102.227 19.0512H93.3901L91.7369 23.1653H90.0869L96.9198 6.43481H98.6975L105.53 23.1653H103.877ZM97.7943 7.96466L93.8624 17.7534H101.749L97.7943 7.96466Z" fill="#003EB8"/>
<path d="M105.53 23.1569V6.43481H112.268C113.659 6.43481 114.761 6.81499 115.574 7.57533C116.387 8.33568 116.793 9.3765 116.791 10.6978C116.799 11.1912 116.715 11.6824 116.544 12.1514C116.395 12.5601 116.179 12.9464 115.902 13.2975C115.65 13.6154 115.338 13.8916 114.98 14.1138C114.659 14.3193 114.295 14.4639 113.91 14.5387C114.363 14.6077 114.791 14.7705 115.161 15.0139C115.554 15.2736 115.895 15.5912 116.168 15.9531C116.462 16.3409 116.693 16.7633 116.856 17.2083C117.029 17.6735 117.115 18.1606 117.113 18.6507C117.113 20.054 116.696 21.1572 115.862 21.9604C115.028 22.7636 113.881 23.1653 112.421 23.1653H105.54L105.53 23.1569ZM112.08 13.9321C113.144 13.9321 113.945 13.6357 114.485 13.0431C115.038 12.4205 115.325 11.6429 115.296 10.8487C115.318 10.0555 115.032 9.27995 114.485 8.65436C113.947 8.04496 113.144 7.74026 112.08 7.74026H106.928V13.9321H112.08ZM112.18 21.8542C112.647 21.8767 113.114 21.809 113.549 21.6556C113.984 21.5022 114.377 21.2667 114.701 20.9653C115.308 20.3727 115.608 19.5676 115.608 18.5445C115.608 18.1274 115.533 17.7132 115.386 17.3173C115.247 16.9287 115.026 16.5674 114.736 16.2522C114.444 15.9392 114.08 15.6865 113.669 15.5115C113.201 15.3177 112.69 15.2221 112.174 15.2319H106.928V21.8542H112.18Z" fill="#003EB8"/>
<path d="M117.113 22.5455C117.588 22.5387 118.056 22.4397 118.49 22.2547C118.961 22.0112 119.343 21.6382 119.589 21.1843C119.988 20.47 120.281 19.7065 120.461 18.9156C120.769 17.631 120.992 16.3293 121.13 15.0181L122.158 6.43481H131.119V22.467H132.557V25.7392H131.192V23.8224H118.481V25.7392H117.116V22.5397L117.113 22.5455ZM122.525 15.1373C122.396 16.2339 122.241 17.1733 122.058 18.0081C121.91 18.7217 121.706 19.4237 121.447 20.1081C121.255 20.6186 121.002 21.1065 120.693 21.5624C120.454 21.9119 120.155 22.2206 119.808 22.4757H129.767V7.78149H123.385L122.525 15.1373Z" fill="#003EB8"/>
<path d="M146.483 23.1653L144.977 19.0512H136.87L135.359 23.1653H133.844L140.108 6.43481H141.736L148 23.1653H146.483ZM140.909 7.96466L137.306 17.7534H144.532L140.909 7.96466Z" fill="#003EB8"/>
<path d="M29.8252 38.4055C29.7285 39.2327 29.4224 39.8718 28.9067 40.323C28.3947 40.7706 27.7126 40.9944 26.8604 40.9944C25.9365 40.9944 25.1953 40.6632 24.6367 40.0007C24.0817 39.3383 23.8042 38.4521 23.8042 37.342V36.5901C23.8042 35.8632 23.9331 35.224 24.1909 34.6726C24.4523 34.1212 24.8211 33.6986 25.2974 33.405C25.7736 33.1078 26.325 32.9592 26.9517 32.9592C27.7824 32.9592 28.4484 33.192 28.9497 33.6575C29.451 34.1194 29.7428 34.7603 29.8252 35.5803H28.7886C28.6991 34.9573 28.5039 34.5061 28.2031 34.2268C27.9059 33.9475 27.4888 33.8079 26.9517 33.8079C26.2928 33.8079 25.7754 34.0514 25.3994 34.5383C25.027 35.0253 24.8408 35.7182 24.8408 36.6169V37.3743C24.8408 38.2229 25.0181 38.8979 25.3726 39.3992C25.7271 39.9005 26.223 40.1511 26.8604 40.1511C27.4333 40.1511 27.8719 40.0222 28.1763 39.7644C28.4842 39.503 28.6883 39.05 28.7886 38.4055H29.8252ZM38.2739 42.8044H37.248V40.887H31.6353V42.8098H30.604L30.5986 40.0437H31.2378C31.5744 39.6641 31.8411 39.1557 32.0381 38.5183C32.2386 37.8774 32.3639 37.1755 32.4141 36.4128L32.5859 33.0667H37.2642V40.0437H38.2847L38.2739 42.8044ZM32.4141 40.0437H36.2275V33.9153H33.5796L33.4668 36.2141C33.4202 37.1129 33.3003 37.8792 33.1069 38.5129C32.9172 39.1467 32.6862 39.657 32.4141 40.0437ZM43.9297 37.2722H40.5405V40.0437H44.4775V40.887H39.5093V33.0667H44.4238V33.9153H40.5405V36.429H43.9297V37.2722ZM51.6748 33.0667V40.887H50.6436V33.9153H47.8398L47.7002 37.0144C47.6465 38.0528 47.5391 38.8334 47.3779 39.3562C47.2204 39.879 46.9876 40.2639 46.6797 40.511C46.3717 40.7545 45.96 40.8798 45.4443 40.887H45.106V40.0437L45.3208 40.033C45.6538 40.0079 45.9098 39.9005 46.0889 39.7107C46.2679 39.5173 46.404 39.2112 46.4971 38.7922C46.5902 38.3733 46.6564 37.7288 46.6958 36.8586L46.8569 33.0667H51.6748ZM57.9644 38.8459H54.688L53.9521 40.887H52.8887L55.875 33.0667H56.7773L59.769 40.887H58.7109L57.9644 38.8459ZM54.9995 37.9973H57.6582L56.3262 34.3396L54.9995 37.9973ZM66.832 40.887H65.7954V37.2722H61.853V40.887H60.8218V33.0667H61.853V36.429H65.7954V33.0667H66.832V40.887ZM74.6792 37.2292C74.6792 37.9955 74.5503 38.6651 74.2925 39.238C74.0347 39.8074 73.6694 40.2424 73.1968 40.5432C72.7241 40.844 72.1727 40.9944 71.5425 40.9944C70.9266 40.9944 70.3805 40.844 69.9043 40.5432C69.4281 40.2389 69.0575 39.8074 68.7925 39.2488C68.5311 38.6866 68.3968 38.0367 68.3896 37.2991V36.7351C68.3896 35.9832 68.5203 35.3189 68.7817 34.7424C69.0431 34.1659 69.4119 33.7255 69.8882 33.4211C70.368 33.1132 70.9159 32.9592 71.5317 32.9592C72.1584 32.9592 72.7098 33.1114 73.186 33.4158C73.6659 33.7166 74.0347 34.1552 74.2925 34.7317C74.5503 35.3046 74.6792 35.9724 74.6792 36.7351V37.2292ZM73.6533 36.7244C73.6533 35.797 73.4671 35.0862 73.0947 34.592C72.7223 34.0943 72.2013 33.8455 71.5317 33.8455C70.88 33.8455 70.3662 34.0943 69.9902 34.592C69.6178 35.0862 69.4263 35.7737 69.4155 36.6545V37.2292C69.4155 38.128 69.6035 38.8352 69.9795 39.3508C70.359 39.8629 70.88 40.1189 71.5425 40.1189C72.2085 40.1189 72.7241 39.8772 73.0894 39.3938C73.4546 38.9068 73.6426 38.2104 73.6533 37.3044V36.7244ZM85.9907 42.8044H84.9648V40.887H79.3521V42.8098H78.3208L78.3154 40.0437H78.9546C79.2912 39.6641 79.5579 39.1557 79.7549 38.5183C79.9554 37.8774 80.0807 37.1755 80.1309 36.4128L80.3027 33.0667H84.981V40.0437H86.0015L85.9907 42.8044ZM80.1309 40.0437H83.9443V33.9153H81.2964L81.1836 36.2141C81.137 37.1129 81.0171 37.8792 80.8237 38.5129C80.634 39.1467 80.403 39.657 80.1309 40.0437ZM93.1128 37.2292C93.1128 37.9955 92.9839 38.6651 92.7261 39.238C92.4683 39.8074 92.103 40.2424 91.6304 40.5432C91.1577 40.844 90.6063 40.9944 89.9761 40.9944C89.3602 40.9944 88.8141 40.844 88.3379 40.5432C87.8617 40.2389 87.491 39.8074 87.2261 39.2488C86.9647 38.6866 86.8304 38.0367 86.8232 37.2991V36.7351C86.8232 35.9832 86.9539 35.3189 87.2153 34.7424C87.4767 34.1659 87.8455 33.7255 88.3218 33.4211C88.8016 33.1132 89.3494 32.9592 89.9653 32.9592C90.592 32.9592 91.1434 33.1114 91.6196 33.4158C92.0994 33.7166 92.4683 34.1552 92.7261 34.7317C92.9839 35.3046 93.1128 35.9724 93.1128 36.7351V37.2292ZM92.0869 36.7244C92.0869 35.797 91.9007 35.0862 91.5283 34.592C91.1559 34.0943 90.6349 33.8455 89.9653 33.8455C89.3136 33.8455 88.7998 34.0943 88.4238 34.592C88.0514 35.0862 87.8599 35.7737 87.8491 36.6545V37.2292C87.8491 38.128 88.0371 38.8352 88.4131 39.3508C88.7926 39.8629 89.3136 40.1189 89.9761 40.1189C90.6421 40.1189 91.1577 39.8772 91.5229 39.3938C91.8882 38.9068 92.0762 38.2104 92.0869 37.3044V36.7244ZM96.6899 37.3743H95.7393V40.887H94.708V33.0667H95.7393V36.5149H96.5449L99.2788 33.0667H100.562L97.5762 36.8586L100.783 40.887H99.5205L96.6899 37.3743ZM107.131 33.9153H104.618V40.887H103.592V33.9153H101.083V33.0667H107.131V33.9153ZM114.157 37.2292C114.157 37.9955 114.028 38.6651 113.77 39.238C113.512 39.8074 113.147 40.2424 112.674 40.5432C112.202 40.844 111.65 40.9944 111.02 40.9944C110.404 40.9944 109.858 40.844 109.382 40.5432C108.906 40.2389 108.535 39.8074 108.27 39.2488C108.009 38.6866 107.874 38.0367 107.867 37.2991V36.7351C107.867 35.9832 107.998 35.3189 108.259 34.7424C108.521 34.1659 108.889 33.7255 109.366 33.4211C109.846 33.1132 110.393 32.9592 111.009 32.9592C111.636 32.9592 112.187 33.1114 112.664 33.4158C113.143 33.7166 113.512 34.1552 113.77 34.7317C114.028 35.3046 114.157 35.9724 114.157 36.7351V37.2292ZM113.131 36.7244C113.131 35.797 112.945 35.0862 112.572 34.592C112.2 34.0943 111.679 33.8455 111.009 33.8455C110.358 33.8455 109.844 34.0943 109.468 34.592C109.095 35.0862 108.904 35.7737 108.893 36.6545V37.2292C108.893 38.128 109.081 38.8352 109.457 39.3508C109.837 39.8629 110.358 40.1189 111.02 40.1189C111.686 40.1189 112.202 39.8772 112.567 39.3938C112.932 38.9068 113.12 38.2104 113.131 37.3044V36.7244ZM116.735 37.8254V40.887H115.704V33.0667H118.588C119.444 33.0667 120.113 33.2851 120.597 33.7219C121.084 34.1588 121.327 34.7371 121.327 35.4568C121.327 36.2159 121.089 36.8014 120.613 37.2131C120.14 37.6213 119.462 37.8254 118.577 37.8254H116.735ZM116.735 36.9822H118.588C119.139 36.9822 119.562 36.8533 119.855 36.5955C120.149 36.3341 120.296 35.9581 120.296 35.4675C120.296 35.002 120.149 34.6296 119.855 34.3503C119.562 34.071 119.159 33.926 118.647 33.9153H116.735V36.9822ZM126.22 38.8459H122.944L122.208 40.887H121.145L124.131 33.0667H125.033L128.025 40.887H126.967L126.22 38.8459ZM123.255 37.9973H125.914L124.582 34.3396L123.255 37.9973ZM130.41 33.0667L132.966 39.4475L135.523 33.0667H136.86V40.887H135.829V37.8416L135.926 34.5544L133.358 40.887H132.569L130.007 34.5706L130.109 37.8416V40.887H129.078V33.0667H130.41ZM143.612 33.0667H144.643V40.887H143.612V34.8606L139.761 40.887H138.724V33.0667H139.761V39.093L143.612 33.0667Z" fill="#003EB8"/>
</svg>
