<svg xmlns="http://www.w3.org/2000/svg" viewBox="0 0 489.88 150.21"><defs><style>.cls-1,.cls-2{fill:#2c8fc3;}.cls-2{isolation:isolate;font-size:36.79px;font-family: "Roboto", sans-serif;font-weight:300;}.cls-3{letter-spacing:0em;}.cls-4{letter-spacing:0em;}.cls-5{letter-spacing:-0.03em;}.cls-6{letter-spacing:-0.08em;}</style></defs><title>Medpravda_logo RU</title><path class="cls-1" d="M526,112.88H105.83c-1.52,0-2.94,1.42-4.22,3.55L98.1,22.06H93.88L85.33,150c-1.72-12.42-3.59-31.73-3.92-34.55-.82-7-4.47-8.07-6.58-8.07-.32,0-.81,0-1.39.06-1.15.06-4.45.25-5.75-.19-1.15-3.14-3.38-20.07-4.94-35.35l-4.2,0c0,.29-2.51,29.74-2.87,32.82-.06.55-1.41,1-2.81,1.24a8.46,8.46,0,1,0,.37,4.22c2.22-.27,6.2-1.27,6.63-5,.14-1.22.59-6.23,1.09-12,2.16,16.08,3.39,16.89,4.06,17.34,2,1.31,5.35,1.24,8.65,1.05.48,0,.88-.05,1.15-.05,1.55,0,2.15,2.35,2.38,4.32.63,5.41,6.67,54.47,6.93,56.32l4.2-.18,7.2-112,2.82,83,3.81-15.45c1-4.51,2.79-9.17,3.81-10.09,12.59.09,420,0,420,0Z" transform="translate(-36.46 -22.06)"/><path class="cls-1" d="M375.77,113.63h-3.84" transform="translate(-36.46 -22.06)"/><path class="cls-1" d="M158.53,102.27V49.45l-19.06,52.83h-1.72L118.61,49.45v52.83h-4.47V42.45h6.66l17.78,49.33,17.7-49.33H163v59.82Z" transform="translate(-36.46 -22.06)"/><path class="cls-1" d="M168.69,102.27V42.45h33.18v4.66H173.16V69.26h28.16v4.67H173.16V97.61h28.71v4.66Z" transform="translate(-36.46 -22.06)"/><path class="cls-1" d="M206.09,97.88a11.36,11.36,0,0,0,4.5-1,8.73,8.73,0,0,0,3.6-3.68,30.22,30.22,0,0,0,2.86-7.8A106.89,106.89,0,0,0,219.24,72l3.37-29.51H252V97.61h4.71v11.25h-4.47v-6.59H210.56v6.59h-4.47Zm17.72-25.47c-.42,3.77-.93,7-1.53,9.87a49.94,49.94,0,0,1-2,7.22,24.55,24.55,0,0,1-2.47,5,12.83,12.83,0,0,1-2.9,3.14H247.5V47.12H226.63Z" transform="translate(-36.46 -22.06)"/><path class="cls-1" d="M298.16,102.27V47.11H265v55.16h-4.47V42.45h42.12v59.82Z" transform="translate(-36.46 -22.06)"/><path class="cls-1" d="M308.44,102.27V42.45H328.1a15.56,15.56,0,0,1,6.72,1.39,14.39,14.39,0,0,1,5,3.81,17.32,17.32,0,0,1,3.07,5.61,21.58,21.58,0,0,1,0,13.36,16.91,16.91,0,0,1-3.11,5.6A14.58,14.58,0,0,1,334.79,76a15.28,15.28,0,0,1-6.68,1.39H312.93v24.85Zm19.14-29.51a11.45,11.45,0,0,0,4.71-.94,10.69,10.69,0,0,0,3.65-2.65,11.9,11.9,0,0,0,2.35-4,15.5,15.5,0,0,0,.83-5.2,15.68,15.68,0,0,0-.83-5.16,11.9,11.9,0,0,0-2.35-4.08A10.69,10.69,0,0,0,332.29,48a11.42,11.42,0,0,0-4.71-.94H312.91V72.75h14.67Z" transform="translate(-36.46 -22.06)"/><path class="cls-1" d="M378.74,102.27l-5.17-14.71H345.88l-5.18,14.71h-5.17l21.41-59.82h5.57l21.41,59.82ZM359.68,47.92l-12.32,35h24.71Z" transform="translate(-36.46 -22.06)"/><path class="cls-1" d="M387.68,102.27V42.45h21.54q6.67,0,10.57,4.08t3.89,11.17a16,16,0,0,1-.79,5.2A15.29,15.29,0,0,1,420.84,67a12,12,0,0,1-2.95,2.92,9.22,9.22,0,0,1-3.42,1.52,9.42,9.42,0,0,1,4,1.7,13.76,13.76,0,0,1,3.22,3.36,18,18,0,0,1,2.2,4.49,16.16,16.16,0,0,1,.82,5.16q0,7.53-4,11.84t-11,4.31h-22Zm20.94-33q5.1,0,7.69-3.18a12,12,0,0,0,2.59-7.85,12.26,12.26,0,0,0-2.59-7.85c-1.72-2.18-4.29-3.27-7.69-3.27H392.15V69.27Zm.32,28.34A10.4,10.4,0,0,0,417,94.43c1.94-2.12,2.9-5,2.9-8.66a14,14,0,0,0-.71-4.39,11.56,11.56,0,0,0-2.08-3.81,10.06,10.06,0,0,0-3.41-2.65,10.82,10.82,0,0,0-4.78-1H392.15V97.61Z" transform="translate(-36.46 -22.06)"/><path class="cls-1" d="M424.7,97.88a11.45,11.45,0,0,0,4.51-1,8.73,8.73,0,0,0,3.6-3.68,30.22,30.22,0,0,0,2.86-7.8A108.77,108.77,0,0,0,437.86,72l3.37-29.51h29.36V97.61h4.71v11.25h-4.47v-6.59H429.18v6.59h-4.47v-11Zm17.73-25.47c-.42,3.77-.93,7-1.53,9.87a49.94,49.94,0,0,1-2,7.22,24.55,24.55,0,0,1-2.47,5,12.83,12.83,0,0,1-2.9,3.14h32.63V47.12H445.25Z" transform="translate(-36.46 -22.06)"/><path class="cls-1" d="M521.15,102.27,516,87.56H488.28l-5.17,14.71h-5.18l21.42-59.82h5.57l21.42,59.82ZM502.09,47.92l-12.32,35h24.71Z" transform="translate(-36.46 -22.06)"/><text class="cls-2" transform="translate(74.18 132.89) scale(1.01 1)"><tspan class="cls-3">С</tspan><tspan class="cls-4" x="24.65" y="0">ДЕЛАНО ДОК</tspan><tspan class="cls-5" x="260.97" y="0">Т</tspan><tspan x="280.66" y="0">О</tspan><tspan class="cls-6" x="308.76" y="0">Р</tspan><tspan x="326.86" y="0">АМИ</tspan></text></svg>