<svg id="Слой_13" data-name="Слой 13" xmlns="http://www.w3.org/2000/svg" viewBox="0 0 489.85 150.24"><defs><style>.cls-1{fill:#2d90c1;}</style></defs><title>Medpravda_logo UA</title><path class="cls-1" d="M520.57,118.24H100.42c-1.52,0-2.94,1.42-4.21,3.56L92.69,27.43H88.48l-8.55,128C78.21,143,76.34,123.67,76,120.85c-.82-7-4.47-8.06-6.57-8.06-.33,0-.81,0-1.39.06-1.16.07-4.45.25-5.75-.19-1.15-3.14-3.38-20.07-4.94-35.35l-4.21,0c0,.3-2.5,29.75-2.87,32.83-.06.54-1.41,1-2.81,1.24a8.46,8.46,0,1,0,.37,4.22c2.22-.27,6.2-1.27,6.64-5,.14-1.21.59-6.22,1.09-12C57.73,114.76,59,115.58,59.63,116c2,1.3,5.35,1.23,8.65,1l1.16,0c1.55,0,2.14,2.35,2.38,4.32.63,5.41,6.67,54.47,6.93,56.32l4.2-.18,7.18-112,2.82,83L96.76,133c1-4.51,2.79-9.18,3.81-10.1,12.6.1,420,0,420,0Z" transform="translate(-31.07 -27.43)"/><path class="cls-1" d="M370.36,119h-3.83" transform="translate(-31.07 -27.43)"/><path class="cls-1" d="M153.13,107.64V54.82l-19.06,52.82h-1.73L113.2,54.82v52.82h-4.47V47.82h6.66l17.77,49.33,17.7-49.33h6.74v59.82Z" transform="translate(-31.07 -27.43)"/><path class="cls-1" d="M163.28,107.64V47.82h33.18v4.66H167.75V74.64h28.16V79.3H167.75V103h28.71v4.66Z" transform="translate(-31.07 -27.43)"/><path class="cls-1" d="M200.68,103.25a11.53,11.53,0,0,0,4.5-1,8.79,8.79,0,0,0,3.6-3.68,30,30,0,0,0,2.86-7.8,108.5,108.5,0,0,0,2.2-13.41l3.36-29.51h29.37V103h4.7v11.25H246.8v-6.59H205.15v6.59h-4.47Zm17.73-25.47q-.63,5.64-1.53,9.86a49.94,49.94,0,0,1-2,7.22,24.29,24.29,0,0,1-2.47,5,12.67,12.67,0,0,1-2.91,3.14H242.1V52.48H221.23Z" transform="translate(-31.07 -27.43)"/><path class="cls-1" d="M292.75,107.64V52.48H259.57v55.16H255.1V47.82h42.12v59.82Z" transform="translate(-31.07 -27.43)"/><path class="cls-1" d="M303,107.64V47.82h19.66a15.56,15.56,0,0,1,6.72,1.39A14.26,14.26,0,0,1,334.36,53a17.34,17.34,0,0,1,3.07,5.61,21.58,21.58,0,0,1,0,13.36,17.06,17.06,0,0,1-3.11,5.61,14.84,14.84,0,0,1-4.95,3.81,15.33,15.33,0,0,1-6.69,1.39H307.51v24.84Zm19.14-29.51a11.42,11.42,0,0,0,4.71-.94,10.66,10.66,0,0,0,3.65-2.64,11.9,11.9,0,0,0,2.35-4,15.5,15.5,0,0,0,.82-5.2,15.68,15.68,0,0,0-.82-5.16,11.9,11.9,0,0,0-2.35-4.08,10.66,10.66,0,0,0-3.65-2.64,11.42,11.42,0,0,0-4.71-1H307.51V78.13Z" transform="translate(-31.07 -27.43)"/><path class="cls-1" d="M373.33,107.64l-5.17-14.71h-27.7l-5.17,14.71h-5.18l21.41-59.82h5.57l21.42,59.82ZM354.27,53.29,342,88.27h24.71Z" transform="translate(-31.07 -27.43)"/><path class="cls-1" d="M382.27,107.64V47.82h21.54q6.69,0,10.58,4.08t3.89,11.17a16.31,16.31,0,0,1-.79,5.2,15.58,15.58,0,0,1-2,4.08,12,12,0,0,1-2.95,2.92,9.56,9.56,0,0,1-3.42,1.52,9.42,9.42,0,0,1,4,1.7,13.63,13.63,0,0,1,3.22,3.37,18,18,0,0,1,2.2,4.48,16.21,16.21,0,0,1,.83,5.16q0,7.53-4,11.84t-11.05,4.3Zm20.94-33q5.12,0,7.69-3.19a12,12,0,0,0,2.59-7.85,12.23,12.23,0,0,0-2.59-7.84c-1.72-2.18-4.28-3.28-7.69-3.28H386.74V74.64Zm.32,28.34a10.37,10.37,0,0,0,8.08-3.19c1.94-2.12,2.9-5,2.9-8.65a14.11,14.11,0,0,0-.7-4.4,11.74,11.74,0,0,0-2.08-3.81,10.2,10.2,0,0,0-3.42-2.64,10.82,10.82,0,0,0-4.78-1H386.74V103Z" transform="translate(-31.07 -27.43)"/><path class="cls-1" d="M419.3,103.25a11.53,11.53,0,0,0,4.5-1,8.79,8.79,0,0,0,3.6-3.68,30.37,30.37,0,0,0,2.86-7.8,108.77,108.77,0,0,0,2.19-13.41l3.37-29.51h29.37V103h4.7v11.25h-4.47v-6.59H423.77v6.59H419.3ZM437,77.78a99.37,99.37,0,0,1-1.52,9.86,52.64,52.64,0,0,1-2,7.22,24.28,24.28,0,0,1-2.48,5,12.46,12.46,0,0,1-2.9,3.14h32.64V52.48H439.85Z" transform="translate(-31.07 -27.43)"/><path class="cls-1" d="M515.74,107.64l-5.18-14.71H482.87l-5.17,14.71h-5.18l21.41-59.82h5.57l21.42,59.82ZM496.68,53.29l-12.32,35h24.71Z" transform="translate(-31.07 -27.43)"/><path class="cls-1" d="M107.19,137a13,13,0,0,1,7-1.88c4.57,0,7.74,2.24,7.74,6.07,0,3.05-2.35,5.37-5.43,6v.08c3.71.37,6.4,2.65,6.4,6.21,0,5.16-4.72,7.22-9.53,7.22a14.07,14.07,0,0,1-6.87-1.62l.9-2.51a13.25,13.25,0,0,0,5.9,1.51c3.9,0,6-2,6-4.71,0-3.71-3.79-4.78-7.15-4.78h-1.56v-2.43h1.56c3.48,0,6.17-2,6.17-4.56s-1.87-3.9-4.72-3.9a11.17,11.17,0,0,0-5.47,1.62Z" transform="translate(-31.07 -27.43)"/><path class="cls-1" d="M130,135.82a41.32,41.32,0,0,1,6.52-.48c3.36,0,5.82.74,7.38,2.06a6.48,6.48,0,0,1,2.31,5.19,7.1,7.1,0,0,1-2,5.3c-1.8,1.8-4.73,2.72-8.05,2.72a12.73,12.73,0,0,1-2.74-.22v9.93H130Zm3.39,12a12.42,12.42,0,0,0,2.82.25c4.1,0,6.6-1.87,6.6-5.29s-2.46-4.86-6.21-4.86a15,15,0,0,0-3.21.26Z" transform="translate(-31.07 -27.43)"/><path class="cls-1" d="M175.48,147.67c0,8.53-5.51,13.06-12.23,13.06-6.95,0-11.84-5.08-11.84-12.59,0-7.87,5.2-13,12.23-13C170.83,135.12,175.48,140.31,175.48,147.67Zm-20.43.4c0,5.3,3,10,8.39,10s8.44-4.67,8.44-10.3c0-4.93-2.73-10.08-8.4-10.08S155.05,142.63,155.05,148.07Z" transform="translate(-31.07 -27.43)"/><path class="cls-1" d="M197.2,135.52v2.69H185.83v6.66a31.34,31.34,0,0,1,3.24-.18,13.13,13.13,0,0,1,6.8,1.65,6.73,6.73,0,0,1,3.36,6.07,7.05,7.05,0,0,1-2.19,5.37c-2.15,2-5.7,2.76-9.3,2.76a44,44,0,0,1-5.31-.29V135.52Zm-11.37,22.34a16.41,16.41,0,0,0,2.85.18,8,8,0,0,0,5.55-1.91,4.94,4.94,0,0,0,1.44-3.65,4.55,4.55,0,0,0-2.15-4,9.2,9.2,0,0,0-5-1.25c-.78,0-1.83.07-2.69.14Z" transform="translate(-31.07 -27.43)"/><path class="cls-1" d="M223.8,135.52v24.8h-3.44V138.21h-8.71v7.51c0,5.37-.23,11.36-3.94,13.72a8.26,8.26,0,0,1-4,1.18l-.43-2.58a6.17,6.17,0,0,0,2.78-1.32c2.11-1.95,2.3-6.77,2.3-10.75V135.52Z" transform="translate(-31.07 -27.43)"/><path class="cls-1" d="M245.87,148.7H235.64v8.94H247v2.68h-14.8v-24.8h14.22v2.69H235.64v7.84h10.23Z" transform="translate(-31.07 -27.43)"/><path class="cls-1" d="M257.4,135.52V145.9h12.73V135.52h3.44v24.8h-3.44V148.7H257.4v11.62H254v-24.8Z" transform="translate(-31.07 -27.43)"/><path class="cls-1" d="M304.51,147.67c0,8.53-5.51,13.06-12.23,13.06-6.95,0-11.84-5.08-11.84-12.59,0-7.87,5.2-13,12.23-13C299.86,135.12,304.51,140.31,304.51,147.67Zm-20.43.4c0,5.3,3,10,8.4,10s8.43-4.67,8.43-10.3c0-4.93-2.73-10.08-8.39-10.08S284.08,142.63,284.08,148.07Z" transform="translate(-31.07 -27.43)"/><path class="cls-1" d="M339.59,135.52v24.8h-3.44V138.21h-8.71v7.51c0,5.37-.23,11.36-3.95,13.72a8.22,8.22,0,0,1-4,1.18L319,158a6.08,6.08,0,0,0,2.77-1.32c2.11-1.95,2.31-6.77,2.31-10.75V135.52Z" transform="translate(-31.07 -27.43)"/><path class="cls-1" d="M351.43,135.52v24.8H348v-24.8Z" transform="translate(-31.07 -27.43)"/><path class="cls-1" d="M363.26,135.52v11h1.06l9-11h4.1l-10,11.37c4.34.55,6,3.06,7.38,6.4a62.06,62.06,0,0,0,2.9,7h-3.68a42.79,42.79,0,0,1-2.38-5.85c-1.21-3.27-2.89-5.52-7.34-5.52h-1.1v11.37H359.9v-24.8Z" transform="translate(-31.07 -27.43)"/><path class="cls-1" d="M388.07,152.52l-2.74,7.8h-3.51l8.94-24.8h4.11l9,24.8h-3.63l-2.82-7.8Zm8.63-2.5-2.58-7.14c-.58-1.62-1-3.09-1.36-4.52h-.08c-.39,1.47-.82,3-1.33,4.49L388.77,150Z" transform="translate(-31.07 -27.43)"/><path class="cls-1" d="M410.26,135.82a41.42,41.42,0,0,1,6.52-.48c3.36,0,5.82.74,7.38,2.06a6.48,6.48,0,0,1,2.31,5.19,7.07,7.07,0,0,1-2,5.3c-1.8,1.8-4.73,2.72-8.05,2.72a12.63,12.63,0,0,1-2.73-.22v9.93h-3.4Zm3.4,12a12.32,12.32,0,0,0,2.81.25c4.1,0,6.6-1.87,6.6-5.29s-2.46-4.86-6.21-4.86a14.83,14.83,0,0,0-3.2.26Z" transform="translate(-31.07 -27.43)"/><path class="cls-1" d="M431.2,160.32a15,15,0,0,0,1.05-2.24c1.14-2.84,1.84-6.29,4-8.32a5.33,5.33,0,0,1,2.18-1.25v-.11c-3.24-.51-5.82-2.72-5.82-6.11a6.16,6.16,0,0,1,2.43-5c1.64-1.25,4.21-1.91,7.53-1.91a34.74,34.74,0,0,1,6.29.52v24.46h-3.39V149.58H443a5.16,5.16,0,0,0-3.79,1.21c-1.8,1.73-2.54,5.37-3.48,7.73a14.57,14.57,0,0,1-.86,1.8Zm14.26-22.22a17,17,0,0,0-3.21-.29c-3.36,0-6.21,1.21-6.21,4.63,0,3,2.81,4.71,6.52,4.71,1.14,0,2.23,0,2.9,0Z" transform="translate(-31.07 -27.43)"/><path class="cls-1" d="M479.52,149.43c-.2-3.46-.43-7.61-.39-10.7H479c-.9,2.9-2,6-3.32,9.41l-4.65,12h-2.57l-4.26-11.81c-1.25-3.49-2.31-6.69-3-9.63h-.08c-.08,3.09-.27,7.24-.51,11l-.7,10.63h-3.24l1.84-24.8h4.33l4.49,12c1.1,3,2,5.77,2.66,8.35h.12c.66-2.5,1.6-5.22,2.77-8.35l4.69-12h4.33l1.64,24.8h-3.32Z" transform="translate(-31.07 -27.43)"/><path class="cls-1" d="M494.48,135.52V146c0,3.94-.08,7.18-.31,10.49l.08,0c1.33-2.57,3-5.26,4.88-8.2l8.52-12.77h3.4v24.8h-3.21V149.76c0-4,0-6.95.31-10.08l-.11,0a74.38,74.38,0,0,1-4.89,8.35l-8.24,12.32h-3.63v-24.8Z" transform="translate(-31.07 -27.43)"/></svg>