<svg width="192" height="38" viewBox="0 0 192 38" fill="none" xmlns="http://www.w3.org/2000/svg">
<path d="M52.9331 30.4114V11.8828L45.3757 30.4149H44.6938L37.1047 11.8828V30.4149H35.3323V9.42725H37.973L45.0229 26.7316L52.041 9.42725H54.7055V30.4114H52.9331Z" fill="white"/>
<path d="M56.3196 30.4149V9.42725H69.2351V11.0622H58.0596V18.8334H69.021V20.4719H58.0596V28.78H69.2351V30.4149H56.3196Z" fill="white"/>
<path d="M70.8496 29.6375C71.4438 29.6293 72.03 29.5052 72.5718 29.2726C73.1622 28.9672 73.6424 28.4993 73.9496 27.9299C74.4502 27.0338 74.8185 26.0761 75.0442 25.0839C75.432 23.4727 75.7119 21.8397 75.8824 20.1946L77.1721 9.42725H88.4202V29.539H90.2228V33.6438H88.5121V31.2393H72.5604V33.6438H70.8496V29.6375ZM77.6314 20.3442C77.4706 21.7198 77.2755 22.8983 77.0458 23.9455C76.8602 24.8406 76.6044 25.7212 76.2804 26.5799C76.039 27.2202 75.7218 27.8323 75.3351 28.4042C75.0349 28.8426 74.6597 29.2299 74.2252 29.5499H86.698V11.1166H78.7107L77.6314 20.3442Z" fill="white"/>
<path d="M104.818 30.4149V11.0622H93.3792V30.4149H91.8372V9.42725H106.367V30.4149H104.818Z" fill="white"/>
<path d="M109.597 30.4149V9.42817H116.747C117.59 9.41324 118.425 9.57985 119.191 9.91582C119.892 10.2267 120.513 10.6831 121.01 11.2525C121.506 11.836 121.884 12.5034 122.127 13.2207C122.641 14.7437 122.641 16.3847 122.127 17.9078C121.883 18.6262 121.499 19.293 120.995 19.8724C120.497 20.436 119.878 20.8885 119.181 21.1986C118.419 21.5357 117.589 21.7024 116.751 21.6862H111.23V30.4044L109.597 30.4149ZM116.558 20.0619C117.147 20.07 117.731 19.9576 118.271 19.7321C118.777 19.5168 119.23 19.1998 119.599 18.8024C119.976 18.3932 120.267 17.9164 120.454 17.3991C120.661 16.812 120.763 16.195 120.755 15.5747C120.761 14.9593 120.658 14.3473 120.454 13.7644C120.27 13.2372 119.98 12.7505 119.599 12.3331C119.233 11.9254 118.78 11.5988 118.271 11.3753C117.731 11.1495 117.147 11.037 116.558 11.0455H111.222V20.0584H116.558V20.0619Z" fill="white"/>
<path d="M136.582 30.4149L134.512 25.2539H123.427L121.353 30.4149H119.283L127.855 9.42725H130.085L138.656 30.4149H136.582ZM128.952 11.3464L124.019 23.626H133.912L128.952 11.3464Z" fill="white"/>
<path d="M138.656 30.4044V9.42725H147.108C148.852 9.42725 150.235 9.90416 151.255 10.858C152.275 11.8118 152.784 13.1175 152.781 14.775C152.791 15.3939 152.687 16.0101 152.471 16.5985C152.286 17.1111 152.015 17.5958 151.667 18.0362C151.351 18.435 150.959 18.7815 150.51 19.0602C150.108 19.318 149.651 19.4994 149.168 19.5932C149.736 19.6799 150.273 19.884 150.737 20.1893C151.23 20.5151 151.657 20.9136 152.001 21.3676C152.369 21.854 152.659 22.3839 152.864 22.9421C153.08 23.5257 153.189 24.1368 153.186 24.7516C153.186 26.5119 152.662 27.8959 151.616 28.9035C150.57 29.9111 149.131 30.4149 147.3 30.4149H138.668L138.656 30.4044ZM146.872 18.8322C148.206 18.8322 149.212 18.4605 149.89 17.7171C150.582 16.936 150.943 15.9605 150.906 14.9643C150.934 13.9693 150.575 12.9964 149.89 12.2116C149.215 11.4471 148.206 11.0649 146.872 11.0649H140.41V18.8322H146.872ZM146.998 28.7703C147.584 28.7985 148.169 28.7135 148.715 28.521C149.261 28.3286 149.754 28.0333 150.16 27.6551C150.922 26.9117 151.298 25.9018 151.298 24.6183C151.298 24.0952 151.204 23.5755 151.02 23.0789C150.844 22.5914 150.568 22.1381 150.204 21.7428C149.838 21.3501 149.382 21.0331 148.866 20.8135C148.278 20.5704 147.637 20.4505 146.99 20.4629H140.41V28.7703H146.998Z" fill="white"/>
<path d="M153.186 29.6375C153.781 29.6289 154.369 29.5048 154.913 29.2726C155.503 28.9672 155.983 28.4993 156.291 27.9299C156.792 27.0338 157.16 26.0761 157.386 25.0839C157.772 23.4724 158.052 21.8394 158.224 20.1946L159.515 9.42725H170.756V29.539H172.559V33.6438H170.848V31.2393H154.901V33.6438H153.19V29.6302L153.186 29.6375ZM159.974 20.3442C159.813 21.7198 159.618 22.8983 159.388 23.9455C159.203 24.8406 158.947 25.7212 158.623 26.5799C158.381 27.2202 158.064 27.8323 157.677 28.4042C157.377 28.8426 157.001 29.2299 156.567 29.5499H169.06V11.1166H161.054L159.974 20.3442Z" fill="white"/>
<path d="M190.028 30.4149L188.139 25.2539H177.97L176.074 30.4149H174.173L182.031 9.42725H184.074L191.932 30.4149H190.028ZM183.036 11.3464L178.517 23.626H187.581L183.036 11.3464Z" fill="white"/>
<path d="M37.0066 29.3913H27.7483C27.1405 29.3913 26.5727 29.7414 26.0608 30.2665L24.6573 0H22.9699L19.5511 31.5431C18.8633 28.481 18.1155 23.7202 17.9836 23.0249C17.6557 21.2991 16.1962 21.0353 15.3525 21.0353C15.2245 21.0353 15.0286 21.0353 14.7967 21.0501C14.3368 21.0649 13.0173 21.1117 12.4975 21.0033C12.0376 20.2291 11.1459 16.0551 10.5221 12.2879H8.8427C8.8427 12.3594 7.83904 19.6201 7.69509 20.3795C7.6711 20.5151 7.13128 20.626 6.57147 20.6852C6.29653 20.2068 5.74805 19.8065 5.02882 19.5596C4.30959 19.3126 3.46897 19.2358 2.66449 19.3436C1.86002 19.4514 1.1469 19.7363 0.658777 20.1451C0.170655 20.5538 -0.058971 21.0583 0.0129341 21.564C0.0848392 22.0696 0.453339 22.5418 1.04938 22.8919C1.64541 23.242 2.42808 23.4462 3.2507 23.466C4.07333 23.4858 4.87945 23.32 5.518 22.9996C6.15655 22.6792 6.58371 22.2263 6.71942 21.7256C7.60712 21.6591 9.19858 21.4125 9.37052 20.4929C9.4265 20.1921 9.60644 18.9569 9.80637 17.5343C10.6701 21.4988 11.1619 21.6985 11.4298 21.8095C12.2295 22.1324 13.5691 22.1152 14.8886 22.0683C15.0806 22.0683 15.2405 22.056 15.3485 22.056C15.9683 22.056 16.2082 22.6354 16.3002 23.1211C16.5521 24.4549 18.9672 36.5504 19.0712 37.0066L20.7506 36.9622L23.6297 9.34902L24.7573 36.8123L26.2808 33.0032C26.6806 31.8913 27.3964 30.7424 27.8042 30.5156C32.8385 30.5377 37.0066 30.5156 37.0066 30.5156V29.3913Z" fill="white"/>
</svg>
