<svg width="19" height="25" viewBox="0 0 19 25" fill="none" xmlns="http://www.w3.org/2000/svg">
<path d="M4.22044 7.31717H5.62669V5.85268H7.03463V4.38994H5.62669V2.92545H4.22044V4.38994H2.8125V5.85268H4.22044V7.31717Z" fill="#fff"/>
<path d="M2.8125 8.77817H15.4744V10.2409H2.8125V8.77817Z" fill="#fff"/>
<path d="M2.8125 11.706H15.4744V13.1687H2.8125V11.706Z" fill="#fff"/>
<path d="M2.8125 14.6338H15.4744V16.0966H2.8125V14.6338Z" fill="#fff"/>
<path d="M11.958 20.4894H15.4742V21.9521H11.958V20.4894Z" fill="#fff"/>
<path d="M2.8125 20.4894H6.32869V21.9521H2.8125V20.4894Z" fill="#fff"/>
<path d="M2.8125 17.5616H9.14344V19.0243H2.8125V17.5616Z" fill="#fff"/>
<path d="M13.6562 0H0V24.964H18.2869V4.81663L13.6562 0ZM14.0681 2.49703L15.8863 4.3882H14.0681V2.49703ZM1.40625 23.5012V1.46273H12.6619V5.85093H16.8806V23.5012H1.40625Z" fill="#fff"/>
</svg>
