<svg width="20" height="24" viewBox="0 0 20 24" fill="none" xmlns="http://www.w3.org/2000/svg">
<path fill-rule="evenodd" clip-rule="evenodd" d="M12.1948 7.19978L11.6959 7.53009L10.2711 11.7441C10.1055 11.7576 9.93882 11.7587 9.77306 11.7474L8.57436 7.65692L7.97449 7.30529C6.98991 6.72814 6.41029 5.78567 6.41029 4.77744C6.41029 3.20251 7.89059 1.71429 10 1.71429C12.1095 1.71429 13.5898 3.20251 13.5898 4.77744C13.5898 5.72774 13.0767 6.61581 12.1948 7.19978ZM7.19102 9.29663L8.33336 13.1948C9.40617 13.5609 10.5939 13.5609 11.6667 13.1948L12.9748 9.32628C14.2947 9.57005 15.4489 9.9676 16.3596 10.4583C18.0001 11.3421 18.4091 12.246 18.4091 12.7347C18.4091 13.2233 18.0001 14.1272 16.3596 15.0111C14.8142 15.8437 12.568 16.4082 10 16.4082C7.432 16.4082 5.18577 15.8437 3.64041 15.0111C1.99989 14.1272 1.59091 13.2233 1.59091 12.7347C1.59091 12.246 1.99989 11.3421 3.64041 10.4583C4.58906 9.94716 5.80183 9.5371 7.19102 9.29663ZM5.85733 7.82955C2.4019 8.67803 0 10.5552 0 12.7347C0 15.1773 3.01706 17.2403 7.15294 17.9009C6.0745 18.5294 5.38459 19.4922 5.38459 20.5714C5.38459 22.465 7.50837 24 10.1282 24C12.748 24 14.8718 22.465 14.8718 20.5714C14.8718 19.4834 14.1705 18.5137 13.0769 17.8856C13.0764 18.0501 13.0604 18.2111 13.0304 18.3673C12.9448 18.8126 12.7445 19.2195 12.46 19.5592C12.9296 19.9194 13.0769 20.2904 13.0769 20.5714C13.0769 20.8643 12.917 21.2546 12.3993 21.6288C11.8805 22.0038 11.0835 22.2857 10.1282 22.2857C9.17286 22.2857 8.37585 22.0038 7.85706 21.6288C7.33936 21.2546 7.17946 20.8643 7.17946 20.5714C7.17946 20.2904 7.32676 19.9195 7.79631 19.5593C8.31318 20.1763 9.1082 20.5714 9.99986 20.5714H10.2563C11.6389 20.5714 12.7891 19.6213 13.0303 18.3674C13.0608 18.2085 13.0768 18.0448 13.0768 17.8776V17.8626C17.0942 17.1634 20 15.1319 20 12.7347C20 10.5552 17.5981 8.67805 14.1427 7.82956C14.9183 7.00183 15.3846 5.93795 15.3846 4.77744C15.3846 2.13894 12.9739 0 10 0C7.02619 0 4.61541 2.13894 4.61541 4.77744C4.61541 5.93795 5.08179 7.00182 5.85733 7.82955ZM11.1447 18.3674H9.11143C9.28877 18.6602 9.62023 18.8572 9.99986 18.8572H10.2563C10.6359 18.8572 10.9674 18.6602 11.1447 18.3674Z" fill="#fff"/>
</svg>
