<svg width="21" height="24" viewBox="0 0 21 24" fill="none" xmlns="http://www.w3.org/2000/svg">
<path fill-rule="evenodd" clip-rule="evenodd" d="M16.9333 8.8372L16.0572 7.96118L9.77279 1.67675C7.53713 -0.558915 3.91241 -0.558915 1.67675 1.67675C-0.279458 3.63295 -0.523983 6.65265 0.94317 8.87473C1.15276 9.19217 1.39729 9.49334 1.67675 9.77279L7.96118 16.0572L8.83864 16.9347L9.05103 17.1471L9.0603 17.1378C10.8229 18.6166 13.8577 18.1434 16.0005 16.0005C18.1434 13.8577 18.6166 10.8229 17.1378 9.0603L17.1471 9.05103L16.9361 8.84007C16.9356 8.83959 16.9352 8.83911 16.9347 8.83864C16.9342 8.83816 16.9337 8.83768 16.9333 8.8372ZM13.7192 7.80287L8.68294 2.7666C8.65742 2.74107 8.63164 2.71594 8.60562 2.69121C6.96666 1.13325 4.37482 1.15837 2.7666 2.7666C1.13285 4.40035 1.13285 7.04919 2.7666 8.68294L7.80287 13.7192C7.93354 12.3723 8.6054 10.9402 9.7728 9.77279C10.9402 8.6054 12.3723 7.93354 13.7192 7.80287ZM15.8448 9.92849C15.3931 9.47678 14.6754 9.22962 13.7466 9.35078C12.8156 9.4722 11.7609 9.96438 10.8626 10.8626C9.96438 11.7609 9.47221 12.8156 9.35078 13.7466C9.22963 14.6754 9.47678 15.3931 9.92849 15.8448C10.3802 16.2965 11.0979 16.5437 12.0268 16.4225C12.9577 16.3011 14.0124 15.8089 14.9107 14.9107C15.8089 14.0124 16.3011 12.9577 16.4225 12.0268C16.5437 11.0979 16.2965 10.3802 15.8448 9.92849ZM18.2752 18.9358C18.2752 20.0302 17.388 20.9174 16.2936 20.9174C15.1991 20.9174 14.3119 20.0302 14.3119 18.9358C14.3119 17.8413 15.1991 16.9541 16.2936 16.9541C17.388 16.9541 18.2752 17.8413 18.2752 18.9358ZM13.8716 24C14.7228 24 15.4128 23.3099 15.4128 22.4587C15.4128 21.6075 14.7228 20.9174 13.8716 20.9174C13.0203 20.9174 12.3303 21.6075 12.3303 22.4587C12.3303 23.3099 13.0203 24 13.8716 24ZM20.0367 22.4587C20.0367 23.3099 19.3466 24 18.4954 24C17.6442 24 16.9541 23.3099 16.9541 22.4587C16.9541 21.6075 17.6442 20.9174 18.4954 20.9174C19.3466 20.9174 20.0367 21.6075 20.0367 22.4587Z" fill="#fff"/>
</svg>
