<svg width="24" height="24" viewBox="0 0 24 24" fill="none" xmlns="http://www.w3.org/2000/svg">
<path fill-rule="evenodd" clip-rule="evenodd" d="M12.96 22.2759C18.2095 21.7917 22.32 17.3759 22.32 12C22.32 10.5103 22.0044 9.09431 21.4363 7.81528L16.1673 10.8574C16.2668 11.2213 16.32 11.6045 16.32 12C16.32 14.0559 14.8838 15.7764 12.96 16.213L12.96 22.2759ZM12 1.68C15.6097 1.68 18.7866 3.53331 20.631 6.34032L15.4139 9.35243C14.6235 8.33482 13.3882 7.68 12 7.68C10.6169 7.68 9.38568 8.32994 8.59499 9.34106L3.37685 6.32837C5.2224 3.52805 8.39538 1.68 12 1.68ZM2.56954 7.80217C1.99781 9.08463 1.68 10.5052 1.68 12C1.68 17.4575 5.91634 21.9256 11.28 22.2953L11.28 16.2603C9.23685 15.9175 7.68 14.1406 7.68 12C7.68 11.5993 7.73456 11.2113 7.83664 10.8431L2.56954 7.80217ZM-5.24537e-07 12C-8.1423e-07 18.6274 5.37258 24 12 24C18.6274 24 24 18.6274 24 12C24 5.37258 18.6274 -2.34843e-07 12 -5.24537e-07C5.37258 -8.1423e-07 -2.34843e-07 5.37258 -5.24537e-07 12ZM9.36 12C9.36 13.458 10.542 14.64 12 14.64C13.458 14.64 14.64 13.458 14.64 12C14.64 10.542 13.458 9.36 12 9.36C10.542 9.36 9.36 10.542 9.36 12Z" fill="#fff"/>
</svg>
