<svg width="24" height="25" viewBox="0 0 24 25" fill="none" xmlns="http://www.w3.org/2000/svg">
<path d="M23.3555 10.8592C23.3547 10.8587 23.3542 10.8579 23.3536 10.8573L13.5626 0.673344C13.1452 0.239052 12.5903 0 12.0001 0C11.4099 0 10.8551 0.239052 10.4375 0.673344L0.65158 10.8522C0.648283 10.8556 0.644804 10.8592 0.641691 10.8627C-0.215329 11.7592 -0.213864 13.2139 0.645903 14.1082C1.0387 14.517 1.55731 14.7536 2.11199 14.7785C2.1347 14.7808 2.15741 14.782 2.1803 14.782H2.57035V22.2766C2.57035 23.7598 3.73063 24.9665 5.15661 24.9665H8.9872C9.3756 24.9665 9.6904 24.6389 9.6904 24.2351V18.3592C9.6904 17.6824 10.2198 17.1319 10.8704 17.1319H13.1298C13.7805 17.1319 14.3097 17.6824 14.3097 18.3592V24.2351C14.3097 24.6389 14.6245 24.9665 15.0129 24.9665H18.8435C20.2696 24.9665 21.4297 23.7598 21.4297 22.2766V14.782H21.7916C22.3816 14.782 22.9365 14.5429 23.3542 14.1084C24.2149 13.2128 24.2152 11.7554 23.3555 10.8592ZM22.3596 13.0741C22.2078 13.232 22.006 13.3191 21.7916 13.3191H20.7265C20.3381 13.3191 20.0233 13.6465 20.0233 14.0505V22.2766C20.0233 22.9531 19.4941 23.5036 18.8435 23.5036H15.7161V18.3592C15.7161 16.8759 14.556 15.669 13.1298 15.669H10.8704C9.44428 15.669 8.284 16.8759 8.284 18.3592V23.5036H5.15661C4.50616 23.5036 3.97674 22.9531 3.97674 22.2766V14.0505C3.97674 13.6465 3.66195 13.3191 3.27355 13.3191H2.22681C2.21582 13.3183 2.20502 13.3177 2.19385 13.3176C1.98436 13.3137 1.78786 13.2273 1.64063 13.0739C1.32749 12.7482 1.32749 12.2181 1.64063 11.8922C1.64082 11.8922 1.64082 11.892 1.641 11.8918L1.64155 11.8912L11.4323 1.70765C11.5839 1.54974 11.7855 1.46288 12.0001 1.46288C12.2146 1.46288 12.4162 1.54974 12.568 1.70765L22.3565 11.8891C22.358 11.8907 22.3596 11.8922 22.3611 11.8937C22.6726 12.22 22.6721 12.749 22.3596 13.0741Z" fill="white"/>
</svg>
