<svg width="24" height="23" viewBox="0 0 24 23" fill="none" xmlns="http://www.w3.org/2000/svg">
<path fill-rule="evenodd" clip-rule="evenodd" d="M18.3814 9.70697C20.3066 9.70697 21.9178 8.35611 22.3265 6.54656H14.4362C14.845 8.35611 16.4562 9.70697 18.3814 9.70697ZM14.4362 4.74061H22.3265C21.9178 2.93106 20.3066 1.5802 18.3814 1.5802C16.4562 1.5802 14.845 2.93106 14.4362 4.74061ZM18.3814 11.2872C21.4845 11.2872 24 8.76046 24 5.64359C24 2.52672 21.4845 0 18.3814 0C15.2783 0 12.7628 2.52672 12.7628 5.64359C12.7628 8.76046 15.2783 11.2872 18.3814 11.2872ZM15.6973 14.8797L12.6792 11.9499L7.32193 17.331L10.4331 20.351C11.9373 21.8112 14.3351 21.7701 15.7888 20.2592C17.2425 18.7483 17.2015 16.3398 15.6973 14.8797ZM7.99294 7.40085L11.3861 10.6947L6.02887 16.0758L2.7287 12.8722C1.2245 11.4121 1.18356 9.00358 2.63724 7.4927C4.09092 5.98182 6.48875 5.9407 7.99294 7.40085ZM9.08622 6.26456C6.95725 4.19794 3.56347 4.25614 1.50599 6.39457C-0.551496 8.533 -0.493544 11.9419 1.63542 14.0085L9.33982 21.4873C11.4688 23.5539 14.8626 23.4957 16.9201 21.3573C18.9775 19.2189 18.9196 15.81 16.7906 13.7434L9.08622 6.26456Z" fill="#fff"/>
</svg>
