<svg width="24" height="21" viewBox="0 0 24 21" fill="none" xmlns="http://www.w3.org/2000/svg">
<path fill-rule="evenodd" clip-rule="evenodd" d="M9.74257 3.92199C10.4432 3.6 10.9307 2.88369 10.9307 2.05172C10.9307 0.918588 10.0264 0 8.91089 0C7.79539 0 6.89109 0.918588 6.89109 2.05172C6.89109 2.88369 7.37857 3.6 8.07921 3.92199V9.65517C8.07921 11.9417 9.72643 13.8373 11.8812 14.1845V15.6896C11.8812 18.6225 14.2217 21 17.1089 21C19.9961 21 22.3366 18.6225 22.3366 15.6896V15.5792C23.3007 15.2716 24 14.3567 24 13.2759C24 11.9428 22.9361 10.8621 21.6238 10.8621C20.3114 10.8621 19.2475 11.9428 19.2475 13.2759C19.2475 14.2657 19.834 15.1163 20.6733 15.4888V15.6896C20.6733 17.6893 19.0775 19.3103 17.1089 19.3103C15.1404 19.3103 13.5446 17.6893 13.5446 15.6896V14.1396C15.5816 13.6962 17.1089 11.8569 17.1089 9.65517V3.92199C17.8096 3.6 18.297 2.88369 18.297 2.05172C18.297 0.918588 17.3927 0 16.2772 0C15.1617 0 14.2574 0.918588 14.2574 2.05172C14.2574 2.88369 14.7449 3.6 15.4455 3.92199V9.65517C15.4455 11.2549 14.1689 12.5517 12.5941 12.5517C11.0192 12.5517 9.74257 11.2549 9.74257 9.65517V3.92199ZM4.75248 17.7414V13.0345H1.66337V17.7414C1.66337 18.6079 2.35489 19.3103 3.20792 19.3103C4.06096 19.3103 4.75248 18.6079 4.75248 17.7414ZM6.41584 13.0345V11.3448V6.63793C6.41584 4.83824 4.97961 3.37931 3.20792 3.37931C1.43623 3.37931 0 4.83824 0 6.63793V11.3448V13.0345V17.7414C0 19.5411 1.43623 21 3.20792 21C4.97961 21 6.41584 19.5411 6.41584 17.7414V13.0345ZM1.66337 6.63793V11.3448H4.75248V6.63793C4.75248 5.77142 4.06096 5.06897 3.20792 5.06897C2.35489 5.06897 1.66337 5.77142 1.66337 6.63793Z" fill="#fff"/>
</svg>
