<svg width="24" height="23" viewBox="0 0 24 23" fill="none" xmlns="http://www.w3.org/2000/svg">
<path fill-rule="evenodd" clip-rule="evenodd" d="M19.7754 0H17.7619V2.32736L13.5373 4.75V7.5V9.65192L9.73475 11.8325L6.23814 9.82736V7.5H4.22459V9.82736L0 12.25V18.25L4.22459 20.6727V23H6.23814V20.6727L9.73476 18.6675L13.2314 20.6727V23H15.2449V20.6727L19.4695 18.25V13.3481L24 10.75V4.75L19.7754 2.32736V0ZM15.2991 9.73962L18.7686 11.7293L22.2381 9.73962V5.76038L18.7686 3.77072L15.2991 5.76038V7.5V9.73962ZM5.23136 11.2707L1.76186 13.2604V17.2396L5.23136 19.2293L8.70087 17.2396V13.2604L5.23136 11.2707ZM14.2381 11.2707L10.7686 13.2604V17.2396L14.2381 19.2293L17.7076 17.2396V13.2604L14.2381 11.2707Z" fill="#fff"/>
</svg>
