<svg width="22" height="24" viewBox="0 0 22 24" fill="none" xmlns="http://www.w3.org/2000/svg">
<path fill-rule="evenodd" clip-rule="evenodd" d="M14.564 1.68421V3.36842V6.29837L21.523 18.5967C22.8845 21.0027 21.1691 24 18.4307 24H3.56924C0.830867 24 -0.884481 21.0027 0.476964 18.5967L7.43603 6.29836V3.36842V1.68421H6.96084H5.77285H5.29765V0H6.96084H7.43603H9.09921H12.9008H14.564H14.8016H16.4647V1.68421H16.2271H14.8016H14.564ZM9.09921 6.29836V1.68421H12.9008V6.29837V6.74671L13.1209 7.13571L16.435 12.9925H5.56501L8.8791 7.13571L9.09921 6.7467V6.29836ZM4.61199 14.6767L1.92003 19.434C1.19392 20.7172 2.10878 22.3158 3.56924 22.3158H18.4307C19.8912 22.3158 20.8061 20.7172 20.08 19.434L17.388 14.6767H4.61199ZM6.96084 17.0827C6.96084 17.6142 6.53533 18.0451 6.01044 18.0451C5.48556 18.0451 5.06005 17.6142 5.06005 17.0827C5.06005 16.5512 5.48556 16.1203 6.01044 16.1203C6.53533 16.1203 6.96084 16.5512 6.96084 17.0827ZM9.33681 21.1729C9.8617 21.1729 10.2872 20.742 10.2872 20.2105C10.2872 19.679 9.8617 19.2481 9.33681 19.2481C8.81193 19.2481 8.38642 19.679 8.38642 20.2105C8.38642 20.742 8.81193 21.1729 9.33681 21.1729ZM12.9008 17.0827C12.9008 17.6142 12.4753 18.0451 11.9504 18.0451C11.4255 18.0451 11 17.6142 11 17.0827C11 16.5512 11.4255 16.1203 11.9504 16.1203C12.4753 16.1203 12.9008 16.5512 12.9008 17.0827ZM15.9895 19.9699C16.5144 19.9699 16.9399 19.539 16.9399 19.0075C16.9399 18.476 16.5144 18.0451 15.9895 18.0451C15.4647 18.0451 15.0392 18.476 15.0392 19.0075C15.0392 19.539 15.4647 19.9699 15.9895 19.9699Z" fill="#fff"/>
</svg>
