<svg width="18" height="24" viewBox="0 0 18 24" fill="none" xmlns="http://www.w3.org/2000/svg">
<path fill-rule="evenodd" clip-rule="evenodd" d="M3.16216 1.66337V6.52425C3.16216 6.7547 3.3314 6.95193 3.56366 6.99219L4.36832 7.13165C7.43218 7.66268 10.5678 7.66268 13.6317 7.13165L14.4363 6.99219C14.6686 6.95193 14.8378 6.75469 14.8378 6.52425V1.66337H3.16216ZM2.91892 0C2.11288 0 1.45946 0.638327 1.45946 1.42574V6.52425C1.45946 6.85601 1.5374 7.17247 1.67764 7.4554C0.668458 8.08945 0 9.19619 0 10.4554V24H18V10.4554C18 9.19619 17.3315 8.08945 16.3224 7.4554C16.4626 7.17247 16.5405 6.85601 16.5405 6.52425V1.42574C16.5405 0.638327 15.8871 0 15.0811 0H2.91892ZM3.16216 8.61434V8.60942C3.19652 8.61705 3.23121 8.62391 3.26622 8.62998L4.07088 8.76944C7.3315 9.33458 10.6685 9.33458 13.9291 8.76944L14.7338 8.62998C14.7688 8.62391 14.8035 8.61705 14.8378 8.60942V8.61435C15.6771 8.82538 16.2973 9.56966 16.2973 10.4554V22.3366H1.7027V10.4554C1.7027 9.56966 2.32286 8.82538 3.16216 8.61434ZM8.02703 11.4059H9.72973V14.7327H13.1351V16.396H9.72973V19.7228H8.02703V16.396H4.62162V14.7327H8.02703V11.4059Z" fill="#fff"/>
</svg>
