<svg width="20" height="25" viewBox="0 0 20 25" fill="none" xmlns="http://www.w3.org/2000/svg">
<path fill-rule="evenodd" clip-rule="evenodd" d="M15.2116 17.0868C17.0909 14.4933 18.25 11.9225 18.25 9.7561C18.25 5.31088 14.5563 1.70732 10 1.70732C5.44365 1.70732 1.75 5.31088 1.75 9.7561C1.75 11.9225 2.90907 14.4933 4.78835 17.0868C6.31445 19.1929 8.20822 21.1666 10 22.7428C11.7918 21.1666 13.6856 19.1929 15.2116 17.0868ZM10 25C14.375 21.4634 20 15.1442 20 9.7561C20 4.36795 15.5228 0 10 0C4.47715 0 0 4.36795 0 9.7561C0 15.1442 5.625 21.4634 10 25ZM16.5 10C16.5 13.5023 13.5899 16.3415 10 16.3415C6.41015 16.3415 3.5 13.5023 3.5 10C3.5 6.49771 6.41015 3.65854 10 3.65854C13.5899 3.65854 16.5 6.49771 16.5 10ZM14.75 10C14.75 12.5594 12.6234 14.6341 10 14.6341C7.37665 14.6341 5.25 12.5594 5.25 10C5.25 7.44063 7.37665 5.36585 10 5.36585C12.6234 5.36585 14.75 7.44063 14.75 10Z" fill="#fff"/>
</svg>
