<svg width="40" height="43" viewBox="0 0 40 43" fill="none" xmlns="http://www.w3.org/2000/svg">
<path d="M20 42.1165C31.0457 42.1165 40 32.6884 40 21.0582C40 9.42809 31.0457 0 20 0C8.9543 0 0 9.42809 0 21.0582C0 32.6884 8.9543 42.1165 20 42.1165Z" fill="#2D9CDB"/>
<path d="M23.3374 41.8239C22.2525 42.0165 21.1374 42.1162 20.0003 42.1162C18.957 42.1162 17.9326 42.032 16.9326 41.8704C16.2599 38.8209 14.9685 30.787 15.6019 28.3658C16.1693 26.1999 19.4207 25.9016 20.13 25.9016C20.8394 25.9016 24.0908 26.1999 24.6582 28.3658C25.29 30.775 24.0132 38.7409 23.3374 41.8239Z" fill="#F2F2F2"/>
<path d="M19.9999 24.1653C22.3899 24.1653 24.3273 22.1254 24.3273 19.609C24.3273 17.0926 22.3899 15.0527 19.9999 15.0527C17.61 15.0527 15.6726 17.0926 15.6726 19.609C15.6726 22.1254 17.61 24.1653 19.9999 24.1653Z" fill="#F2F2F2"/>
<path d="M20.0001 8.60205C13.3944 8.60205 8.02051 14.2603 8.02051 21.2156C8.02051 25.6292 10.1854 29.5211 13.4564 31.7756C13.3904 30.5551 13.3961 29.4395 13.5104 28.5584C11.6393 26.7259 10.4679 24.1121 10.4679 21.2155C10.4679 15.681 14.7439 11.1788 20.0002 11.1788C25.2557 11.1788 29.5325 15.681 29.5325 21.2155C29.5325 23.9926 28.4541 26.5102 26.7169 28.3289C26.8565 29.197 26.8745 30.3299 26.814 31.5822C29.9333 29.3053 31.9797 25.5071 31.9797 21.2155C31.9797 14.2603 26.605 8.60205 20.0001 8.60205Z" fill="#F2F2F2"/>
<path d="M20.0002 2.12134C10.0002 2.12134 1.86548 10.6864 1.86548 21.2155C1.86548 29.6869 7.13322 36.8879 14.401 39.3788C14.2467 38.4874 14.086 37.4887 13.9406 36.4513C8.2908 33.951 4.31204 28.0624 4.31204 21.2155C4.31204 12.1072 11.3496 4.69816 20.0002 4.69816C28.65 4.69816 35.6875 12.1072 35.6875 21.2155C35.6875 27.9489 31.8402 33.7558 26.3382 36.3249C26.1937 37.3701 26.0321 38.3792 25.8761 39.2808C33.0011 36.704 38.1349 29.5794 38.1349 21.2155C38.1349 10.6864 29.9994 2.12134 20.0002 2.12134Z" fill="#F2F2F2"/>
</svg>
