<svg width="40" height="43" viewBox="0 0 40 43" fill="none" xmlns="http://www.w3.org/2000/svg">
<path d="M20 42.1165C31.0483 42.1165 40 32.6911 40 21.0582C40 9.42531 31.0483 0 20 0C8.95167 0 0 9.42531 0 21.0582C0 32.6911 8.95167 42.1165 20 42.1165ZM9.15167 20.602L28.435 12.7736C29.33 12.4331 30.1117 13.0035 29.8217 14.4284L29.8233 14.4266L26.54 30.7134C26.2967 31.8681 25.645 32.1489 24.7333 31.6049L19.7333 27.7249L17.3217 30.1712C17.055 30.452 16.83 30.6889 16.3133 30.6889L16.6683 25.3313L25.935 16.5167C26.3383 16.1429 25.845 15.9323 25.3133 16.3043L13.8617 23.8958L8.925 22.2743C7.85333 21.9163 7.83 21.146 9.15167 20.602Z" fill="#2D9CDB"/>
</svg>
