<?xml version="1.0" standalone="no"?>
<!DOCTYPE svg PUBLIC "-//W3C//DTD SVG 1.1//EN" "http://www.w3.org/Graphics/SVG/1.1/DTD/svg11.dtd" >
<svg xmlns="http://www.w3.org/2000/svg">
<metadata>Generated by IcoMoon</metadata>
<defs>
<font id="icomoon" horiz-adv-x="1024">
<font-face units-per-em="1024" ascent="960" descent="-64" />
<missing-glyph horiz-adv-x="1024" />
<glyph unicode="&#x20;" horiz-adv-x="512" d="" />
<glyph unicode="&#xe900;" glyph-name="Home" d="M193.011 439.153v-395.158c0-21.688 17.852-39.272 39.874-39.272h119.621v215.99c0 54.219 44.63 98.173 99.684 98.173h119.62c55.054 0 99.684-43.954 99.684-98.173v-215.99h119.62c22.024 0 39.875 17.584 39.875 39.272v395.158h92.627c3.097 0 4.637 0.778 5.579 1.421 1.245 0.848 2.621 2.339 3.568 4.493s1.114 4.166 0.889 5.636c-0.168 1.118-0.643 2.757-2.765 4.981l-411.611 432.489c-3.94 4.138-10.609 4.138-14.549 0l-411.613-432.489c-2.118-2.224-2.594-3.863-2.764-4.981-0.223-1.47-0.057-3.482 0.89-5.636s2.324-3.645 3.566-4.493c0.945-0.643 2.483-1.421 5.581-1.421h92.626zM641.589-64c-22.020 0-39.875 17.58-39.875 39.272v245.441c0 16.265-13.39 29.45-29.905 29.45h-119.62c-16.515 0-29.906-13.185-29.906-29.45v-245.441c0-21.692-17.852-39.272-39.874-39.272h-149.526c-60.559 0-109.652 48.349-109.652 107.995v326.435h-22.847c-69.811 0-105.925 82.092-58.183 132.256l411.614 432.486c31.506 33.104 84.861 33.104 116.367 0l411.615-432.486c47.743-50.164 11.624-132.256-58.184-132.256h-22.847v-326.435c0-59.646-49.095-107.995-109.654-107.995h-149.524z" />
<glyph unicode="&#xe901;" glyph-name="Menu" d="M36.571 702.507h950.857c20.198 0 36.571 14.702 36.571 32.84v82.099c0 18.138-16.373 32.84-36.571 32.84h-950.857c-20.199 0-36.571-14.702-36.571-32.84v-82.099c0-18.138 16.373-32.84 36.571-32.84zM36.571 374.111h950.857c20.198 0 36.571 14.702 36.571 32.841v82.097c0 18.138-16.373 32.84-36.571 32.84h-950.857c-20.199 0-36.571-14.702-36.571-32.84v-82.097c0-18.139 16.373-32.841 36.571-32.841zM36.571 45.714h950.857c20.198 0 36.571 14.702 36.571 32.841v82.099c0 18.136-16.373 32.837-36.571 32.837h-950.857c-20.199 0-36.571-14.702-36.571-32.837v-82.099c0-18.139 16.373-32.841 36.571-32.841z" />
<glyph unicode="&#xe902;" glyph-name="Official" horiz-adv-x="896" d="M604.16 884.894v-88.734h88.734l-88.734 88.734zM532.48 724.48v163.84h-460.8v-880.64h349.788l-63.341 71.68h-235.247v51.2h190.003l-54.292 61.44h-135.71v51.2h90.467l84.798 61.44h-175.265v51.2h415.834c6.703 10.048 13.585 20.015 20.646 29.867 7.543 10.526 15.407 21.082 23.586 31.573h-460.066v51.2h503.258c21.696 23.65 45.107 46.131 70.182 66.251v189.749h-163.84zM510.349 7.68h185.971v350.063c-9.28-11.567-18.462-23.697-27.52-36.335-18.185-25.365-35.149-51.759-50.743-78.208h27.063v-51.2h-55.62c-11.089-21.026-21.235-41.677-30.357-61.44h85.978v-51.2h-108.215c-5.628-13.85-10.59-26.88-14.852-38.844l-11.703-32.836zM768 433.852v-497.852h-768v1024h630.426l137.574-137.575v-239.985c32.495 17.292 67.174 29.982 103.957 36.227l24.043-116.087c-42.206-7.164-85.513-31.394-128-68.727zM471.927 243.2c10.697 20.262 22.204 40.862 34.487 61.44h-180.285l54.292-61.44h91.505zM425.667 192h20.563c-2.441-5.111-4.817-10.18-7.134-15.194l-13.429 15.194zM174.080 847.36v-51.2h-51.2v-71.68h51.2v-51.2h71.68v51.2h51.2v71.68h-51.2v51.2h-71.68zM122.88 581.12v-51.2h522.24v51.2h-522.24z" />
<glyph unicode="&#xe903;" glyph-name="Search1" d="M1010.074 74.688l-199.415 199.377c-8.998 9.003-21.201 13.999-34.001 13.999h-32.602c55.202 70.596 88.004 159.386 88.004 255.977 0 229.777-186.214 415.959-416.029 415.959-229.817 0-416.030-186.182-416.030-415.959 0-229.779 186.214-415.959 416.030-415.959 96.605 0 185.412 32.798 256.021 87.991v-32.597c0-12.8 4.996-24.998 13.999-33.997l199.415-199.381c18.799-18.795 49.203-18.795 67.806 0l56.602 56.597c18.803 18.795 18.803 49.195 0.201 67.994zM416.030 288.064c-141.41 0-256.019 114.389-256.019 255.977 0 141.386 114.409 255.975 256.019 255.975 141.41 0 256.021-114.389 256.021-255.975 0-141.387-114.411-255.977-256.021-255.977z" />
<glyph unicode="&#xe904;" glyph-name="Ambulance" horiz-adv-x="1152" d="M576.009 729.984l-437.051-385.413c-3.24-2.918-7.38-4.279-10.94-6.699v-369.873c0-8.486 3.372-16.627 9.373-22.626 6.001-6.003 14.14-9.374 22.627-9.374h831.983c8.491 0 16.627 3.371 22.63 9.374 5.999 5.999 9.37 14.14 9.37 22.626v369.792c-3.401 2.321-7.437 3.639-10.517 6.4l-437.474 385.792zM768.004 207.996c0-4.245-1.685-8.316-4.685-11.315s-7.070-4.685-11.315-4.685h-111.996v-112c0-4.241-1.685-8.311-4.685-11.311-3.004-3.004-7.070-4.689-11.315-4.689h-96c-4.241 0-8.311 1.685-11.311 4.689-2.999 2.999-4.689 7.070-4.689 11.311v112h-111.996c-4.244 0-8.313 1.685-11.313 4.685s-4.687 7.070-4.687 11.315v95.996c0 4.245 1.686 8.316 4.687 11.315s7.070 4.685 11.313 4.685h111.996v112c0 4.241 1.69 8.311 4.689 11.311 2.999 3.004 7.070 4.689 11.311 4.689h96c4.245 0 8.311-1.685 11.315-4.689 2.999-2.999 4.685-7.070 4.685-11.311v-112h111.996c4.245 0 8.316-1.685 11.315-4.685s4.685-7.070 4.685-11.315v-95.996zM1141.38 487.428l-511.872 451.992c-14.652 13.246-33.698 20.579-53.449 20.579s-38.797-7.334-53.449-20.579l-511.992-451.992c-3.128-2.807-5.671-6.204-7.485-9.997s-2.864-7.902-3.089-12.1c-0.225-4.198 0.38-8.397 1.779-12.361s3.565-7.616 6.375-10.739l42.819-47.642c2.808-3.127 6.205-5.67 9.997-7.484s7.904-2.863 12.101-3.089c4.198-0.226 8.398 0.38 12.362 1.779s7.613 3.567 10.739 6.374l458.632 404.553c5.845 5.158 13.372 8.003 21.171 8.003 7.795 0 15.322-2.846 21.167-8.003l458.633-404.531c3.127-2.812 6.775-4.975 10.739-6.374s8.162-2.005 12.361-1.779c4.198 0.222 8.311 1.271 12.1 3.089 3.793 1.813 7.189 4.356 10.001 7.484l42.799 47.637c5.666 6.319 8.589 14.626 8.132 23.095-0.457 8.474-4.262 16.418-10.573 22.084v0z" />
<glyph unicode="&#xe905;" glyph-name="Doctor" horiz-adv-x="896" d="M638.818 319.996l-190.818-190.775-190.82 190.775c-142.98-6.199-257.18-123.2-257.18-267.575 0-30.878 12.266-60.489 34.099-82.321s51.445-34.099 82.321-34.099h663.16c30.878 0 60.489 12.267 82.321 34.099s34.099 51.443 34.099 82.321c0 144.375-114.202 261.376-257.182 267.575zM448 351.996c67.895 0 133.009 26.974 181.018 74.982 48.013 48.009 74.982 113.121 74.982 181.016v220.358c0.017 13.040-3.951 25.773-11.371 36.496s-17.941 18.923-30.148 23.503l-169.54 63.5c-28.975 10.865-60.907 10.865-89.881 0l-169.54-63.579c-12.197-4.576-22.706-12.764-30.125-23.471s-11.395-23.423-11.395-36.449v-220.358c0-67.895 26.971-133.008 74.981-181.016s113.124-74.982 181.019-74.982zM368 816.653c0 2.652 1.053 5.196 2.929 7.071s4.419 2.929 7.071 2.929h43.34v43.34c0 2.652 1.053 5.196 2.929 7.071s4.42 2.929 7.070 2.929h33.323c2.65 0 5.193-1.054 7.070-2.929s2.927-4.419 2.927-7.071v-43.34h43.341c2.654 0 5.197-1.053 7.074-2.929 1.873-1.876 2.927-4.419 2.927-7.071v-33.32c0-2.652-1.054-5.196-2.927-7.071-1.877-1.875-4.42-2.929-7.074-2.929h-43.341v-43.34c0-2.652-1.050-5.196-2.927-7.071s-4.42-2.929-7.070-2.929h-33.323c-2.65 0-5.194 1.053-7.070 2.929s-2.929 4.419-2.929 7.071v43.34h-43.34c-2.653 0-5.196 1.054-7.071 2.929s-2.929 4.419-2.929 7.071v33.32zM288 639.994h320v-32c0-42.434-16.858-83.13-46.861-113.138-30.007-30.003-70.703-46.861-113.139-46.861-42.435 0-83.131 16.858-113.137 46.861-30.006 30.007-46.863 70.704-46.863 113.138v32z" />
<glyph unicode="&#xe906;" glyph-name="Instagram" d="M143.36 960h737.28c79.177 0 143.36-64.184 143.36-143.36v-737.28c0-79.177-64.183-143.36-143.36-143.36h-737.28c-79.176 0-143.36 64.183-143.36 143.36v737.28c0 79.176 64.184 143.36 143.36 143.36zM276.48 826.88c-79.176 0-143.36-64.184-143.36-143.36v-471.040c0-79.177 64.184-143.36 143.36-143.36h471.040c79.177 0 143.36 64.183 143.36 143.36v471.040c0 79.176-64.183 143.36-143.36 143.36h-471.040zM512 325.12c67.866 0 122.88 55.014 122.88 122.88s-55.014 122.88-122.88 122.88c-67.866 0-122.88-55.014-122.88-122.88s55.014-122.88 122.88-122.88zM204.8 632.32c0 67.865 55.015 122.88 122.88 122.88h368.64c67.866 0 122.88-55.015 122.88-122.88v-368.64c0-67.866-55.014-122.88-122.88-122.88h-368.64c-67.865 0-122.88 55.014-122.88 122.88v368.64zM512 253.44c107.452 0 194.56 87.108 194.56 194.56s-87.108 194.56-194.56 194.56c-107.453 0-194.56-87.107-194.56-194.56s87.107-194.56 194.56-194.56zM711.68 601.6c25.451 0 46.080 20.631 46.080 46.080s-20.629 46.080-46.080 46.080c-25.451 0-46.080-20.631-46.080-46.080s20.629-46.080 46.080-46.080z" />
<glyph unicode="&#xe907;" glyph-name="Terms" d="M358.4 824.727v-61.091h307.2v61.091h-307.2zM286.72 763.636v61.091c0 39.363 32.092 71.273 71.68 71.273h307.2c39.586 0 71.68-31.91 71.68-71.273v-61.091h204.8c45.244 0 81.92-36.468 81.92-81.455v-600.727c0-44.988-36.676-81.455-81.92-81.455h-860.16c-45.243 0-81.92 36.467-81.92 81.455v600.727c0 44.986 36.677 81.455 81.92 81.455h204.8zM737.28 692.364h-655.36c-5.655 0-10.24-4.559-10.24-10.182v-600.727c0-5.623 4.585-10.18 10.24-10.18h860.16c5.653 0 10.24 4.557 10.24 10.18v600.727c0 5.623-4.587 10.182-10.24 10.182h-204.8zM727.040 376.725c0 118.091-96.277 213.82-215.040 213.82s-215.040-95.729-215.040-213.82c0-118.089 96.276-213.815 215.040-213.815s215.040 95.727 215.040 213.815zM798.72 376.725c0-157.449-128.367-285.090-286.72-285.090-158.351 0-286.72 127.642-286.72 285.090 0 157.453 128.369 285.093 286.72 285.093 158.353 0 286.72-127.639 286.72-285.093zM552.96 519.273v-91.637h92.16v-91.635h-92.16v-91.635h-92.16v91.635h-92.16v91.635h92.16v91.637h92.16z" />
<glyph unicode="&#xe908;" glyph-name="Info" d="M952.32 448c0 243.182-197.137 440.32-440.32 440.32s-440.32-197.138-440.32-440.32c0-243.183 197.138-440.32 440.32-440.32s440.32 197.137 440.32 440.32zM1024 448c0-282.769-229.231-512-512-512s-512 229.231-512 512c0 282.77 229.23 512 512 512s512-229.23 512-512zM597.333 533.333h-170.667v-426.667h170.667v426.667zM597.333 618.667h-170.667v128h170.667v-128z" />
<glyph unicode="&#xe909;" glyph-name="Istochnik" d="M501.214 676.463l159.765 145.104c61.892 61.69 162.24 61.69 224.132 0s61.892-161.708 0-223.398l-202.803-202.137c-61.892-61.687-162.24-61.687-224.132 0h-24.286c-22.7 0-41.1-18.338-41.1-40.964v-24.205c98.004-97.685 256.899-97.685 354.904 0l202.803 202.133c98.001 97.684 98.001 256.059 0 353.742-98.005 97.683-256.9 97.683-354.906 0l-217.67-215.395c20.549 6.827 73.977 17.409 123.291 5.12zM522.786 219.537l-159.764-145.105c-61.893-61.687-162.24-61.687-224.133 0-61.893 61.692-61.893 161.711 0 223.398l202.802 202.138c61.893 61.69 162.241 61.69 224.133 0h24.286c22.699 0 41.101 18.338 41.101 40.963v24.208c-98.005 97.683-256.902 97.683-354.905 0l-202.802-202.135c-98.004-97.685-98.004-256.060 0-353.741 98.004-97.685 256.9-97.685 354.904 0l217.668 215.394c-20.548-6.827-73.975-17.408-123.29-5.12z" />
<glyph unicode="&#xe90a;" glyph-name="Kategoria-Otpuska" horiz-adv-x="768" d="M69.818 888.32v-880.64h628.362v880.64h-628.362zM0 960h768v-1024h-768v1024zM380.42 455.202l-26.321-31.078-160.995 189.777 52.649 47.078 108.304-127.663 173.158 204.441 52.685-47.035-199.479-235.52zM139.636 345.6v-71.68h488.728v71.68h-488.728zM628.365 232.96v-71.68h-488.728v71.68h488.728z" />
<glyph unicode="&#xe90b;" glyph-name="Lekarstvennaya-Forma" horiz-adv-x="896" d="M722.487 582.946c0.017-0.020 0.038-0.041 0.060-0.061s0.038-0.041 0.060-0.061l9.003-9.001-0.397-0.396c63.095-75.204 42.906-204.689-48.525-296.115-91.426-91.43-220.911-111.62-296.115-48.525l-0.396-0.397-314.636 314.637c-11.924 11.923-22.357 24.773-31.299 38.317-62.599 94.809-52.165 223.649 31.299 307.114 95.388 95.388 250.043 95.388 345.431 0l305.515-305.513zM585.353 627.078l-214.88 214.881c-1.089 1.089-2.189 2.161-3.299 3.217-69.929 66.473-180.514 65.401-249.132-3.217-69.707-69.707-69.707-182.724 0-252.431l214.881-214.88c5.575 57.468 34.241 118.571 84.050 168.38s110.912 78.475 168.38 84.050zM676.045 536.384c-19.273 19.273-49.894 29.818-89.523 24.649-39.723-5.181-84.723-26.18-123.051-64.504-38.324-38.327-59.323-83.328-64.504-123.051-5.169-39.629 5.376-70.251 24.649-89.523s49.895-29.82 89.528-24.649c39.718 5.18 84.719 26.18 123.046 64.503 38.323 38.327 59.324 83.328 64.503 123.046 5.171 39.633-5.376 70.255-24.649 89.528zM779.742 152.073c0 46.699-37.854 84.553-84.548 84.553-46.699 0-84.553-37.854-84.553-84.553 0-46.694 37.854-84.548 84.553-84.548 46.694 0 84.548 37.854 84.548 84.548zM591.855-64c-36.322 0-65.762 29.444-65.762 65.762s29.44 65.762 65.762 65.762c36.318 0 65.758-29.444 65.758-65.762s-29.44-65.762-65.758-65.762zM854.899 1.762c0 36.318-29.444 65.762-65.762 65.762s-65.762-29.444-65.762-65.762c0-36.318 29.444-65.762 65.762-65.762s65.762 29.444 65.762 65.762z" />
<glyph unicode="&#xe90c;" glyph-name="Telegram" d="M512-64c-282.77 0-512 229.231-512 512s229.23 512 512 512c282.769 0 512-229.23 512-512s-229.231-512-512-512zM639.957 133.5c3.955-2.697 8.567-4.083 13.218-4.096 3.051-0.004 6.123 0.58 9.033 1.779 7.33 3.021 12.646 9.532 14.153 17.318l93.589 484.815c0.183 0.889 0.316 1.784 0.393 2.681 0.111 1.26 0.119 2.52 0.038 3.765-0.35 4.949-2.257 9.811-5.734 13.803-0.388 0.457-0.802 0.895-1.237 1.323-4.198 4.139-9.587 6.388-15.078 6.729-0.943 0.056-1.894 0.059-2.846 0.004-2.65-0.156-5.282-0.76-7.77-1.81l-548.032-216.597c-9.030-3.567-14.943-12.314-14.901-22.020s6.033-18.398 15.089-21.888l158.286-23.441 299.753 188.716c18.539 12.012 29.649 13.725-0.026-10.319-26.146-21.187-134.784-117.972-242.898-214.373l-31.327-148.864c1.961-7.505 7.49-13.564 14.783-16.205 7.303-2.633 15.418-1.51 21.724 3.004l80.499 78.178 149.291-122.5z" />
<glyph unicode="&#xe90d;" glyph-name="Osobennosti-Primenenia" horiz-adv-x="853" d="M0 960h853.333l-5.623-71.68-74.692-952.32h-692.704l-80.314 1024zM105.837 509.44h641.657l29.717 378.88h-701.091l29.716-378.88zM111.459 437.76l33.732-430.080h562.952l33.732 430.080h-630.416z" />
<glyph unicode="&#xe90e;" glyph-name="Peredozirovka" d="M952.32 448c0 243.182-197.137 440.32-440.32 440.32s-440.32-197.138-440.32-440.32c0-243.183 197.138-440.32 440.32-440.32s440.32 197.137 440.32 440.32zM1024 448c0-282.769-229.231-512-512-512s-512 229.231-512 512c0 282.77 229.23 512 512 512s512-229.23 512-512zM722.684 680.047l-124.454-91.795c-10.522-7.762-15.573-20.189-14.4-32.322 1.122-12.138 8.405-23.399 20.198-29.057l139.435-66.876 30.997 64.631-85.884 41.192 76.655 56.541-42.547 57.685zM250.524 622.362l76.655-56.541-85.884-41.192 30.999-64.631 139.434 66.876c11.79 5.658 19.078 16.919 20.195 29.057 1.173 12.134-3.878 24.56-14.4 32.322l-124.451 91.795-42.549-57.685zM675.584 215.714c-30.758 58.935-92.437 99.166-163.516 99.166-71.066 0-132.737-40.218-163.497-99.136-4.463-8.55-11.075-15.906-19.665-20.292l-9.856-5.030c-10.59-5.406-23.191-5.107-33.514 0.794-11.318 6.464-16.882 19.921-12.159 32.068 37.145 95.552 130.009 163.277 238.69 163.277 108.655 0 201.493-67.686 238.66-163.196 4.745-12.19-0.849-25.69-12.22-32.162-10.351-5.892-22.976-6.17-33.579-0.742l-9.737 4.988c-8.567 4.386-15.159 11.738-19.61 20.267z" />
<glyph unicode="&#xe90f;" glyph-name="Podcasts" d="M415.079-62.097c-236.426 45.623-415.079 255.014-415.079 506.436 0 284.791 229.23 515.661 512 515.661s512-230.87 512-515.661c0-255.108-183.932-466.948-425.519-508.339l5.645 53.517c210.347 42.987 368.674 230.281 368.674 454.822 0 256.311-206.306 464.095-460.8 464.095s-460.8-207.783-460.8-464.095c0-220.796 153.091-405.577 358.197-452.553l5.682-53.884zM610.982 54.571c172.681 44.352 300.378 202.039 300.378 389.769 0 222.136-178.799 402.215-399.36 402.215s-399.36-180.079-399.36-402.215c0-183.889 122.523-338.953 289.834-386.906l-10.769 102.127c-109.876 47.142-186.906 156.898-186.906 284.779 0 170.874 137.538 309.396 307.2 309.396 169.66 0 307.2-138.522 307.2-309.396 0-131.989-82.061-244.676-197.606-289.131l-10.611-100.638zM396.533 225.783c-77.527 41.634-130.293 123.887-130.293 218.556 0 136.699 110.030 247.516 245.76 247.516s245.76-110.817 245.76-247.516c0-98.095-56.657-182.861-138.812-222.916-12.292 33.6-43.204 57.903-80.009 57.903h-64.119c-35.191 0-64.997-22.217-78.287-53.542zM512 361.83c62.208 0 112.64 50.795 112.64 113.446 0 62.654-50.432 113.446-112.64 113.446s-112.64-50.792-112.64-113.446c0-62.652 50.432-113.446 112.64-113.446zM362.517-52.028c17.232-4.894 34.833-8.9 52.751-11.972l-25.624 243.008c-5.643 53.513 34.091 100.318 85.164 100.318h64.124c51.072 0 90.803-46.805 85.163-100.318l-25.425-241.109c17.98 3.469 35.622 7.885 52.881 13.193l23.458 222.473c8.58 81.382-52.058 157.329-136.077 157.329h-64.124c-84.023 0-144.66-75.947-136.078-157.329l23.788-225.591z" />
<glyph unicode="&#xe910;" glyph-name="Pokazania-k-Premeneniu" horiz-adv-x="896" d="M618.509 815.192h152.469c28.77 0 52.092-23.154 52.092-51.717v-310.304h-750.14v310.304c0 28.563 23.323 51.717 52.093 51.717h152.467l20.023 40.505c9.413 19.042 29.018 31.899 51.51 31.899h197.955c22.49 0 42.095-12.857 51.507-31.899l20.023-40.505zM0 380.766h50.945c44.455-255.501 205.364-444.766 397.055-444.766 191.693 0 352.597 189.265 397.056 444.766h50.944v382.709c0 68.55-55.974 124.121-125.022 124.121h-107.021c-21.197 42.884-65.617 72.404-116.979 72.404h-197.955c-51.363 0-95.782-29.521-116.981-72.404h-107.019c-69.048 0-125.023-55.571-125.023-124.121v-382.709zM233.094 129.643c-49.961 64.115-88.763 150.682-108.032 251.123h645.873c-19.268-100.442-58.069-187.008-108.032-251.123-62.532-80.252-138.56-121.237-214.903-121.237s-152.37 40.986-214.906 121.237zM406.326 773.818v-93.091h-93.768v-72.404h93.768v-93.089h72.932v93.089h93.764v72.404h-93.764v93.091h-72.932z" />
<glyph unicode="&#xe911;" glyph-name="Beremennost" horiz-adv-x="896" d="M257.941 895.927c-104.945 0-192.283-86.864-192.283-196.796s87.338-196.795 192.283-196.795c32.89 0 63.808 8.427 90.888 23.326l4.142 2.283 4.634 1.037c17.117 3.836 37.699 6.819 58.363 7.228 20.218 0.401 43.040-1.597 63.11-9.592 20.975-8.354 41.028-24.371 48.107-51.447 6.579-25.178 0.055-53.308-14.566-82.871-8.725-17.638-17.57-32.205-27.337-43.059-9.997-11.115-22.933-20.48-39.663-22.959-16.311-2.415-30.237 2.662-40.099 7.625-8.93 4.493-17.958 10.731-25.46 15.915-0.523 0.363-1.039 0.717-1.547 1.071-16.922 11.669-33.711 22.848-56.069 29.009-21.705 5.982-51.074 7.795-92.589-4.361-78.027-22.844-125.152-94.583-147.636-173.022-11.049-38.549-15.385-76.467-14.744-106.479 0.32-15.036 1.875-27.337 4.079-36.335 2.089-8.533 4.055-11.486 4.055-11.486l-0.083 0.068 2.511-2.573 1.939-3.26c14.438-24.252 41.253-39.433 65.755-42.022 19.724-2.082 32.998 3.682 40.047 14.912-2.32 6.144-5.493 10.261-9.050 14.007-2.527 2.658-5.024 4.907-8.428 7.97-0.814 0.734-1.68 1.51-2.61 2.355-4.29 3.883-10.105 9.263-15.264 15.979-11.998 15.612-17.651 34.624-14.405 59.383 2.955 22.541 13.28 50.103 31.589 85.837 11.268 21.99 22.103 39.825 33.645 51.341 5.947 5.935 14.209 12.386 25.097 15.433 12.156 3.405 23.953 1.574 33.784-3.456 8.73-4.463 15.028-10.957 19.325-16.166 4.476-5.423 8.447-11.537 11.943-17.353 3.412-5.675 7.77-13.564 12.174-21.534 3.425-6.199 6.877-12.446 9.934-17.745 16.242-28.147 36.615-57.843 67.712-80.030 30.336-21.641 73.239-37.794 137.734-34.697 128.397 6.161 206.242 78.11 252.873 163.302 47.381 86.558 60.407 183.727 58.304 228.873-0.401 8.606-0.738 17.207-1.071 25.783-1.711 43.906-8.021 84.41-18.398 124.041-11.921 45.522-29.722 84.649-74.974 106.729-89.813 43.823-169.122 16.419-207.898-21.769-15.091-14.865-35.221-13.922-46.733-10.551-11.405 3.339-29.769 13.738-32.998 35.665-1.92 13.039-5.086 25.645-9.37 37.69-27.119 76.255-98.405 129.496-180.753 129.496zM0 699.131c0 142.829 114.234 260.869 257.941 260.869 112.558 0 207.254-72.658 242.782-172.563 2.069-5.827 3.942-11.75 5.606-17.757 61.449 43.318 157.636 62.35 258.726 13.025 67.302-32.839 94.178-90.722 109.222-148.174 12.284-46.906 18.846-95.542 20.493-139.299 0.307-8.115 0.602-15.966 0.951-23.479 2.59-55.539-12.523-164.318-65.975-261.973-54.204-99.017-149.879-189.538-307.563-197.107-78.545-3.772-136.473 16.119-179.709 46.967-42.475 30.302-68.414 69.542-86.173 100.318-4.816 8.346-8.441 14.963-11.647 20.813-2.401 4.382-4.567 8.337-6.821 12.262-3.212-5.274-7.028-12.087-11.499-20.813-17.334-33.835-23.657-53.636-25.188-65.31-1.181-9.007 0.605-11.281 1.655-12.621l0.15-0.192c1.348-1.754 3.374-3.81 7.405-7.462 0.558-0.503 1.171-1.054 1.83-1.647 3.48-3.123 8.228-7.386 12.681-12.070 11.849-12.467 22.964-29.107 27.82-54.379l1.568-8.162-2.69-7.876c-17.979-52.634-68.031-70.511-112.905-65.766-43.113 4.557-87.962 29.555-113.78 70.788-9.152 10.944-14.166 24.947-17.188 37.291-3.578 14.618-5.473 31.676-5.862 49.89-0.778 36.489 4.429 80.666 17.157 125.073 25.071 87.462 82.433 185.058 192 217.135 4.454 1.301 8.834 2.487 13.142 3.558-127.408 16.798-224.131 127.235-224.131 258.662zM320.302 445.943c6.92-1.139 13.576-2.615 19.985-4.382 34.187-9.421 59.008-26.543 76.087-38.327l0.039-0.026c9.088-6.268 14.494-9.963 19.013-12.262 0.162 0.175 0.333 0.358 0.512 0.559 4.049 4.501 9.86 13.103 17.549 28.646 11.639 23.526 11.145 35.098 10.074 39.181-0.567 2.185-1.839 4.992-9.297 7.966-8.367 3.332-21.090 5.167-36.963 4.851-13.813-0.273-28.131-2.129-40.672-4.689-17.671-9.276-36.548-16.55-56.326-21.517z" />
<glyph unicode="&#xe912;" glyph-name="Proizvoditel" d="M512 792.749c-61.841 0-116.268 31.584-148.068 79.516-16.182-5.647-31.944-12.195-47.227-19.587 11.398-56.372-4.755-117.18-48.479-160.904s-104.531-59.877-160.904-48.478c-7.391-15.284-13.94-31.046-19.587-47.227 47.932-31.8 79.516-86.227 79.516-148.068s-31.584-116.267-79.516-148.070c5.647-16.179 12.195-31.94 19.587-47.228 56.372 11.401 117.18-4.753 160.903-48.478 43.724-43.721 59.877-104.529 48.479-160.9 15.284-7.394 31.046-13.943 47.227-19.588 31.8 47.932 86.227 79.518 148.068 79.518s116.267-31.586 148.070-79.518c16.179 5.645 31.94 12.194 47.223 19.588-11.396 56.371 4.757 117.18 48.482 160.9 43.721 43.725 104.529 59.878 160.9 48.478 7.394 15.287 13.943 31.049 19.588 47.228-47.932 31.804-79.518 86.229-79.518 148.070s31.586 116.268 79.518 148.068c-5.645 16.181-12.194 31.943-19.588 47.227-56.371-11.398-117.18 4.755-160.9 48.478-43.725 43.724-59.878 104.532-48.482 160.904-15.283 7.392-31.044 13.94-47.223 19.587-31.804-47.932-86.229-79.516-148.070-79.516zM512 865.877c46.899 0 86.583 30.906 99.793 73.462 2.057 6.628 3.469 13.54 4.169 20.661 24.354-4.918 48.094-11.531 71.091-19.709 16.836-5.986 33.267-12.81 49.254-20.424 22.315-10.626 43.759-22.789 64.188-36.351-4.523-5.516-8.397-11.387-11.622-17.51-20.757-39.434-14.558-89.356 18.611-122.523s83.089-39.371 122.522-18.609c6.127 3.224 11.994 7.098 17.51 11.622 13.564-20.432 25.728-41.874 36.352-64.189 7.612-15.987 14.438-32.421 20.425-49.253 8.175-22.997 14.788-46.737 19.708-71.091-7.121-0.7-14.033-2.115-20.659-4.172-42.556-13.209-73.463-52.892-73.463-99.791s30.908-86.583 73.463-99.793c6.626-2.057 13.538-3.469 20.659-4.169-4.919-24.354-11.533-48.094-19.708-71.091-5.986-16.836-12.813-33.267-20.425-49.254-10.628-22.315-22.788-43.759-36.352-64.188-5.517 4.523-11.383 8.397-17.506 11.618-39.437 20.762-89.357 14.562-122.526-18.607s-39.369-83.089-18.611-122.526c3.226-6.123 7.1-11.994 11.622-17.506-20.429-13.564-41.873-25.724-64.188-36.352-15.987-7.612-32.422-14.438-49.254-20.425-22.997-8.175-46.737-14.788-71.091-19.708-0.7 7.121-2.112 14.033-4.169 20.659-13.21 42.556-52.894 73.463-99.793 73.463s-86.582-30.908-99.791-73.463c-2.057-6.626-3.472-13.538-4.172-20.659-24.354 4.919-48.093 11.533-71.091 19.708-16.832 5.986-33.267 12.813-49.253 20.425-22.315 10.628-43.756 22.788-64.189 36.352 4.524 5.513 8.398 11.383 11.622 17.506 20.761 39.437 14.558 89.357-18.609 122.526s-83.089 39.369-122.523 18.607c-6.124-3.221-11.994-7.095-17.51-11.618-13.562 20.429-25.725 41.873-36.351 64.188-7.613 15.987-14.438 32.418-20.424 49.254-8.178 22.997-14.791 46.737-19.709 71.091 7.121 0.7 14.032 2.112 20.66 4.169 42.557 13.21 73.463 52.894 73.463 99.793s-30.906 86.582-73.462 99.791c-6.628 2.057-13.54 3.472-20.661 4.172 4.918 24.354 11.531 48.094 19.709 71.091 5.986 16.832 12.81 33.267 20.423 49.253 10.626 22.314 22.789 43.756 36.351 64.189 5.516-4.524 11.387-8.399 17.511-11.622 39.434-20.761 89.355-14.558 122.522 18.609s39.371 83.089 18.609 122.523c-3.224 6.124-7.098 11.994-11.622 17.51 20.432 13.562 41.874 25.725 64.188 36.351 15.987 7.613 32.422 14.438 49.254 20.423 22.998 8.178 46.737 14.791 71.091 19.709 0.7-7.121 2.115-14.032 4.172-20.66 13.209-42.557 52.892-73.463 99.791-73.463zM679.049 448.102c0 92.313-74.833 167.149-167.151 167.149-92.313 0-167.149-74.836-167.149-167.149 0-92.318 74.836-167.151 167.149-167.151 92.318 0 167.151 74.833 167.151 167.151zM752.179 448.102c0-132.706-107.575-240.282-240.282-240.282-132.701 0-240.277 107.575-240.277 240.282 0 132.701 107.577 240.277 240.277 240.277 132.706 0 240.282-107.577 240.282-240.277z" />
<glyph unicode="&#xe913;" glyph-name="Protivopokazania" d="M952.32 448c0 243.182-197.137 440.32-440.32 440.32s-440.32-197.138-440.32-440.32c0-243.183 197.138-440.32 440.32-440.32s440.32 197.137 440.32 440.32zM1024 448c0-282.769-229.231-512-512-512s-512 229.231-512 512c0 282.77 229.23 512 512 512s512-229.23 512-512zM819.2 488.96v-71.68h-604.16v71.68h604.16z" />
<glyph unicode="&#xe914;" glyph-name="FB-author" d="M764.122 960h-98.859c-161.228 0-291.93-113.201-291.93-252.84v-139.062h-138.667v-202.27h138.667v-429.828h233.545v429.828h105.745l76.71 202.27h-182.455v139.062c0 27.927 26.14 50.568 58.385 50.568h98.859v202.272z" />
<glyph unicode="&#xe915;" glyph-name="Skorost-Reaktcsii" d="M552.96 9.562v258.684c82.082 18.628 143.36 92.036 143.36 179.755 0 16.875-2.27 33.225-6.515 48.751l224.811 129.797c24.239-54.572 37.705-114.988 37.705-178.548 0-229.372-175.381-417.779-399.36-438.438zM512 888.32c154.014 0 289.562-79.075 368.256-198.84l-222.596-128.517c-33.724 43.418-86.43 71.357-145.66 71.357-59.012 0-111.544-27.731-145.28-70.872l-222.641 128.541c78.743 119.48 214.124 198.33 367.921 198.33zM109.634 627.107l224.73-129.746c-4.355-15.71-6.683-32.265-6.683-49.361 0-91.332 66.426-167.147 153.6-181.773v-257.493c-228.849 15.774-409.6 206.413-409.6 439.266 0 63.778 13.56 124.389 37.954 179.107zM0 448c0-282.769 229.23-512 512-512s512 229.231 512 512c0 282.77-229.231 512-512 512s-512-229.23-512-512zM399.36 448c0 62.208 50.432 112.64 112.64 112.64s112.64-50.432 112.64-112.64c0-62.208-50.432-112.64-112.64-112.64s-112.64 50.432-112.64 112.64z" />
<glyph unicode="&#xe916;" glyph-name="Srok-Godnosti" d="M266.24 917.333h-71.68v-51.2h-122.88c-39.587 0-71.68-32.092-71.68-71.68v-737.28c0-39.586 32.093-71.68 71.68-71.68h880.64c39.586 0 71.68 32.094 71.68 71.68v737.28c0 39.588-32.094 71.68-71.68 71.68h-122.88v51.2h-71.68v-51.2h-133.12v51.2h-235.52v-51.2h-122.88v51.2zM389.12 794.453v-61.44h235.52v61.44h133.12v-61.44h71.68v61.44h122.88v-184.32h-880.64v184.32h122.88v-61.44h71.68v61.44h122.88zM952.32 538.453v-481.28h-880.64v481.28h880.64zM736.755 384.845l-50.15 51.217-220.86-216.26-123.411 119.155-49.789-51.567 173.549-167.565 270.66 265.020z" />
<glyph unicode="&#xe917;" glyph-name="Quote" d="M41.88-59.068c-11.97-1.114-21.236 0.269-26.52 5.308-19.117 18.231 2.185 73.617 23.387 128.742 19.442 50.547 38.799 100.881 26.827 122.138-41.754 74.142-65.574 159.727-65.574 250.88 0 282.77 229.231 512 512 512s512-229.23 512-512c0-282.769-229.231-512-512-512-89.061 0-172.811 22.741-245.76 62.729-18.806 10.308-69.8-8.346-121.358-27.204-34.053-12.454-68.352-24.998-93.786-29.35-1.175-0.201-2.33-0.384-3.466-0.55-1.175-0.171-2.329-0.324-3.461-0.452-0.774-0.090-1.537-0.171-2.29-0.239zM98.67 31.002c4.78 1.711 9.74 3.511 14.878 5.389l7.128 2.607c23.962 8.772 51.311 18.786 75.252 25.395 13.243 3.652 28.431 7.142 43.503 8.422 12.86 1.097 37.457 1.822 61.265-11.23 62.654-34.347 134.589-53.905 211.304-53.905 243.183 0 440.32 197.137 440.32 440.32s-197.137 440.32-440.32 440.32c-243.182 0-440.32-197.137-440.32-440.32 0-78.511 20.485-152.021 56.35-215.706 13.073-23.215 13.568-47.168 12.594-61.986-1.056-16.051-4.65-31.906-8.46-45.53-6.82-24.384-17.356-51.746-26.362-75.136l-2.771-7.207c-1.511-3.938-2.967-7.748-4.36-11.435zM481.28 488.96c5.12-56.32-10.24-112.64-25.6-138.24-11.371-18.953-28.361-35.102-50.959-44.288-12.51-5.082-23.924 6.319-19.773 19.17 4.439 13.739 10.213 26.539 14.652 36.378 5.684 12.599 9.179 20.343 4.879 19.004-9.734-3.034-20.045-4.663-30.72-4.663-59.382 0-107.52 50.432-107.52 112.64s48.138 112.64 107.52 112.64c59.383 0 107.52-50.431 107.52-112.64zM732.16 350.72c15.36 25.6 30.72 81.92 25.6 138.24 0 62.209-48.137 112.64-107.52 112.64s-107.52-50.431-107.52-112.64c0-62.208 48.137-112.64 107.52-112.64 10.675 0 20.988 1.63 30.72 4.663 4.301 1.34 0.806-6.404-4.881-19.004-4.437-9.839-10.21-22.639-14.652-36.378-4.151-12.851 7.266-24.252 19.776-19.17 22.596 9.186 39.586 25.335 50.957 44.288z" />
<glyph unicode="&#xe918;" glyph-name="Uslovia-Khranenia" horiz-adv-x="853" d="M184.095 311.326l-35.744-20.497c-46.042-26.406-76.758-75.58-76.758-131.78 0-83.989 68.686-152.077 153.413-152.077s153.413 68.087 153.413 152.077c0 53.316-27.619 100.275-69.785 127.531l-32.49 21.001v535.826c0 25.197-20.605 45.623-46.024 45.623s-46.024-20.426-46.024-45.623v-532.080zM112.503 843.406c0 64.393 52.659 116.594 117.617 116.594s117.616-52.201 117.616-116.594v-497.379c61.574-39.799 102.274-108.676 102.274-186.978 0-123.187-100.737-223.049-225.004-223.049s-225.005 99.861-225.005 223.049c0 82.56 45.248 154.645 112.503 193.212v29.837h-102.275v70.972h102.275v121.664h-102.275v70.97h102.275v121.664h-102.275v70.97h102.275v5.070zM225.005 98.219c39.539 0 71.593 31.774 71.593 70.967 0 39.198-32.053 70.972-71.593 70.972s-71.593-31.774-71.593-70.972c0-39.194 32.053-70.967 71.593-70.967zM611.456 534.232c-0.969-0.036-1.941-0.054-2.918-0.054-0.576 0-1.152 0.006-1.724 0.019-0.213 0.005-0.422 0.010-0.631 0.017l-0.567 0.019-32.875-56.447v-85.547h-71.59v60.83h-61.367v70.972h77.231l26.598 45.668c-0.247 0.39-0.495 0.782-0.734 1.176-0.188 0.305-0.371 0.611-0.55 0.918-0.572 0.963-1.122 1.94-1.651 2.93h-66.79l-55.072-54.596-50.624 50.186 43.391 43.014-43.391 43.014 50.624 50.184 61.365-60.832h60.497c0.917 1.714 1.894 3.391 2.935 5.024l-26.598 45.669h-77.231v70.97h61.367v60.832h71.59v-85.547l32.875-56.448c0.969 0.036 1.946 0.054 2.923 0.054 0.435 0 0.866-0.004 1.301-0.011 0.538-0.009 1.079-0.023 1.617-0.043l32.879 56.447v85.548h71.59v-60.832h61.367v-70.97h-77.231l-26.598-45.67c1.041-1.634 2.018-3.309 2.931-5.024h64.951l61.363 60.832 50.624-50.184-43.392-43.014 43.392-43.014-50.624-50.186-55.074 54.596h-71.241c-0.913-1.715-1.89-3.39-2.931-5.024l26.598-45.669h77.231v-70.972h-61.367v-60.83h-71.59v85.547l-32.879 56.447z" />
<glyph unicode="&#xe919;" glyph-name="Farmakologicheskie-Svoistva" d="M843.75 938.667v-99.301l180.25-103.366v-256l-193.301-110.852v-209.148l-180.25-103.369v-99.298h-85.909v99.298l-149.19 85.555-149.189-85.555v-99.298h-85.911v99.298l-180.249 103.369v256l180.249 103.366v99.301h85.911v-99.301l149.189-85.553 162.242 93.038v209.149l180.25 103.366v99.301h85.909zM652.762 523.11l148.032-84.893 148.032 84.893v169.781l-148.032 84.892-148.032-84.892v-169.781zM223.205 457.783l-148.032-84.894v-169.779l148.032-84.894 148.032 84.894v169.779l-148.032 84.894zM607.492 457.783l-148.032-84.894v-169.779l148.032-84.894 148.032 84.894v169.779l-148.032 84.894z" />
<glyph unicode="&#xe91a;" glyph-name="Fiz-Him-Svoistva" horiz-adv-x="939" d="M621.397 888.14v-196.871l296.917-524.729c58.091-102.656-15.1-230.541-131.938-230.541h-634.089c-116.837 0-190.025 127.885-131.937 230.541l296.92 524.729v196.87h-91.238v71.86h476.461v-71.86h-81.097zM388.233 691.27v-19.129l-150.793-266.487h463.786l-150.793 266.487v216h-162.201v-196.87zM196.778 333.794l-114.857-202.978c-30.981-54.75 8.053-122.957 70.366-122.957h634.089c62.315 0 101.35 68.207 70.37 122.957l-114.859 202.978h-545.11zM296.996 231.138c0 22.677-18.155 41.062-40.55 41.062s-40.55-18.385-40.55-41.062c0-22.677 18.155-41.062 40.55-41.062s40.55 18.385 40.55 41.062zM398.371 56.623c-22.395 0-40.55 18.385-40.55 41.062s18.155 41.062 40.55 41.062c22.395 0 40.55-18.385 40.55-41.062s-18.155-41.062-40.55-41.062zM550.434 231.138c0 22.677-18.155 41.062-40.55 41.062s-40.55-18.385-40.55-41.062c0-22.677 18.155-41.062 40.55-41.062s40.55 18.385 40.55 41.062zM682.219 107.951c-22.391 0-40.546 18.385-40.546 41.062s18.155 41.062 40.546 41.062c22.396 0 40.55-18.385 40.55-41.062s-18.155-41.062-40.55-41.062z" />
<glyph unicode="&#xe91b;" glyph-name="Up" horiz-adv-x="981" d="M65.744 371.379l-49.898 50.739c-21.128 21.483-21.128 56.222 0 77.474l436.723 444.295c21.129 21.483 55.292 21.483 76.194 0l436.723-444.065c21.129-21.483 21.129-56.222 0-77.478l-49.899-50.735c-21.35-21.713-56.192-21.257-77.094 0.913l-257.809 275.169v-656.84c0-30.396-24.047-54.852-53.943-54.852h-71.923c-29.896 0-53.946 24.457-53.946 54.852v656.84l-258.033-275.4c-20.903-22.396-55.742-22.852-77.095-0.913v0z" />
<glyph unicode="&#xe91c;" glyph-name="FB" d="M143.36 960c-79.175 0-143.36-64.185-143.36-143.36v-737.28c0-79.177 64.185-143.36 143.36-143.36h348.16v348.16h-112.64v163.84h112.64v112.64c0 113.108 106.172 204.8 237.137 204.8h80.303v-163.84h-80.303c-26.193 0-47.428-18.339-47.428-40.96v-112.64h148.211l-62.31-163.84h-85.901v-348.16h199.411c79.177 0 143.36 64.183 143.36 143.36v737.28c0 79.175-64.183 143.36-143.36 143.36h-737.28z" />
<glyph unicode="&#xe91d;" glyph-name="Link-out" d="M989.722 959.771c19.716 2.382 36.454-14.193 34.048-33.715l-36.241-294.063c-3.089-25.045-33.941-35.579-51.959-17.737l-69.495 68.82-462.413-457.911c-31.834-31.522-83.448-31.522-115.283 0l-9.761 9.668c-31.835 31.526-31.835 82.637 0 114.159l462.414 457.909-66.176 65.529c-18.014 17.84-7.377 48.396 17.916 51.453l296.951 35.888zM356.637 823.956c28.138 0 50.948-22.588 50.948-50.452s-22.81-50.452-50.948-50.452h-254.74v-686.15h692.894v252.262c0 27.866 22.81 50.453 50.948 50.453s50.948-22.588 50.948-50.453v-272.439c0-44.587-36.497-80.725-81.515-80.725h-733.655c-45.021 0-81.517 36.143-81.517 80.725v726.508c0 44.583 36.496 80.723 81.517 80.723h275.12z" />
<glyph unicode="&#xe91e;" glyph-name="Pobochnie-Deistvia" d="M948.749 188.19c28.173-43.524-2.569-101.406-53.85-101.406h-765.798c-51.283 0-82.020 57.882-53.849 101.406l382.898 591.53c25.459 39.328 82.24 39.328 107.699 0.001l382.899-591.531zM619.695 815.675c-50.91 78.656-164.48 78.655-215.392 0l-382.899-591.53c-56.343-87.044 5.131-202.812 107.697-202.812h765.798c102.566 0 164.041 115.767 107.699 202.812l-382.903 591.53zM448 628.731v-324.637h128v324.637h-128zM576 239.168v-83.482h-128v83.482h128z" />
<glyph unicode="&#xe91f;" glyph-name="Sostav" d="M316.446 298.463c-85.583 31.498-162.284 83.109-225.080 149.537 62.796 66.429 139.497 118.039 225.080 149.537-28.653-42.069-45.534-93.717-45.534-149.537s16.881-107.468 45.534-149.537zM513.685 263.684c-0.388-0.004-0.781-0.004-1.169-0.004-96.055 0.162-173.876 82.621-173.876 184.32s77.822 184.16 173.876 184.32c0.41 0 0.815-0.001 1.22-0.002 95.753-0.535 173.218-82.852 173.218-184.317 0-101.484-77.495-183.812-173.269-184.316zM512.499 192c0.098 0 0.196 0 0.299 0 0.405 0 0.811 0 1.216 0.004 205.406 0.644 388.826 100.186 509.986 255.996-121.161 155.81-304.58 255.35-509.986 255.997-0.405 0.002-0.811 0.003-1.216 0.003-0.098 0-0.196 0-0.294 0-0.166 0-0.337 0-0.503 0-206.221 0-390.444-99.681-512-256 121.556-156.319 305.779-256 512-256 0.166 0 0.333 0 0.499 0zM709.683 596.748c84.727-31.568 160.674-82.871 222.95-148.748-62.276-65.877-138.223-117.181-222.95-148.748 28.331 41.925 45.001 93.276 45.001 148.748s-16.67 106.823-45.001 148.748zM628.902 447.999c0-67.865-51.981-122.88-116.105-122.88s-116.105 55.015-116.105 122.88c0 67.865 51.982 122.88 116.105 122.88s116.105-55.015 116.105-122.88z" />
<glyph unicode="&#xe920;" glyph-name="Forma-Vipuska" horiz-adv-x="768" d="M134.919 889.030h498.161v-207.398c0-9.832-7.219-18.248-17.131-19.965l-34.33-5.95c-130.726-22.657-264.513-22.657-395.238 0l-34.332 5.95c-9.91 1.718-17.131 10.133-17.131 19.965v207.398zM124.541 960c-34.391 0-62.27-27.235-62.27-60.832v-217.536c0-14.155 3.325-27.657 9.309-39.729-43.058-27.053-71.579-74.274-71.579-128v-577.903h768v577.903c0 53.726-28.523 100.947-71.578 128 5.982 12.072 9.306 25.574 9.306 39.729v217.536c0 33.596-27.878 60.832-62.268 60.832h-518.92zM134.919 592.455v0.21c1.466-0.326 2.946-0.618 4.44-0.877l34.332-5.95c139.12-24.113 281.498-24.113 420.617 0l34.334 5.95c1.493 0.259 2.974 0.552 4.437 0.877v-0.21c35.81-9.004 62.272-40.76 62.272-78.551v-506.931h-622.703v506.931c0 37.792 26.46 69.548 62.27 78.552zM342.487 473.348v-141.943h-145.297v-70.967h145.297v-141.943h72.649v141.943h145.296v70.967h-145.296v141.943h-72.649z" />
<glyph unicode="&#xe921;" glyph-name="Star-Stroke" d="M615.584 672.49c16.454-50.629 63.631-84.908 116.867-84.908h209.142c39.682 0 56.177-50.776 24.076-74.099l-169.202-122.929c-43.065-31.289-61.088-86.753-44.638-137.384l64.631-198.91c12.259-37.736-30.929-69.116-63.033-45.793l-169.198 122.933c-43.069 31.289-101.388 31.289-144.454 0l-169.202-122.933c-32.101-23.323-75.292 8.057-63.031 45.797l64.629 198.906c16.45 50.631-1.571 106.095-44.639 137.384l-169.201 122.929c-32.101 23.323-15.603 74.099 24.076 74.099h209.144c53.235 0 100.415 34.279 116.866 84.908l64.63 198.907c12.259 37.737 65.647 37.737 77.91 0l64.627-198.907zM589.91 884.054c-24.523 75.474-131.297 75.474-155.82 0l-64.629-198.907c-10.967-33.753-42.421-56.605-77.91-56.605h-209.144c-79.358 0-112.353-101.55-48.151-148.196l169.201-122.929c28.712-20.861 40.726-57.836 29.759-91.591l-64.629-198.906c-24.523-75.477 61.86-138.236 126.062-91.591l169.199 122.933c28.713 20.857 67.592 20.857 96.305 0l169.202-122.933c64.201-46.645 150.581 16.114 126.058 91.591l-64.627 198.906c-10.969 33.751 1.049 70.73 29.757 91.591l169.202 122.929c64.201 46.645 31.207 148.196-48.153 148.196h-209.142c-35.492 0-66.945 22.852-77.91 56.605l-64.631 198.907z" />
<glyph unicode="&#xe922;" glyph-name="Star-Filled" d="M570.434 877.727l64.627-198.907c13.709-42.191 53.027-70.756 97.391-70.756h209.142c59.519 0 84.267-76.161 36.114-111.145l-169.202-122.933c-35.889-26.075-50.905-72.294-37.2-114.487l64.631-198.906c18.391-56.607-46.395-103.678-94.548-68.694l-169.198 122.933c-35.893 26.075-84.488 26.075-120.381 0l-169.199-122.933c-48.151-34.984-112.939 12.087-94.546 68.694l64.629 198.906c13.709 42.193-1.309 88.412-37.199 114.487l-169.201 122.933c-48.151 34.984-23.405 111.145 36.114 111.145h209.143c44.363 0 83.68 28.566 97.388 70.756l64.628 198.907c18.391 56.605 98.476 56.605 116.867 0z" />
<glyph unicode="&#xe923;" glyph-name="Star-Half" horiz-adv-x="1067" d="M473.668 80.986l-172.905-128.273c-65.608-48.674-153.882 16.815-128.822 95.569l66.044 207.552c11.207 35.221-1.070 73.805-30.411 95.573l-172.906 128.273c-65.608 48.674-31.89 154.636 49.206 154.636h213.724c36.267 0 68.41 23.846 79.616 59.066l66.045 207.553c12.531 39.377 46.071 59.066 79.616 59.066v-862.686c-17.267 0-34.534-5.444-49.207-16.329zM649.643 680.174l-66.044 207.553c-6.263 19.689-43.951 29.533-60.723 29.533v42.74c33.545 0 88-19.688 100.531-59.066l66.044-207.553c11.209-35.22 43.349-59.066 79.616-59.066h213.726c81.097 0 114.812-105.962 49.207-154.636l-172.907-128.273c-29.342-21.769-41.621-60.352-30.413-95.569l66.044-207.556c25.062-78.754-63.215-144.243-128.823-95.569l-172.902 128.273c-14.673 10.884-52.855 16.329-70.123 16.329v42.739c25.903 0 72.717-8.162 94.724-24.486l172.907-128.277c32.802-24.337 76.941 8.41 64.41 47.787l-66.044 207.552c-16.811 52.83 1.604 110.703 45.615 143.356l172.907 128.273c32.806 24.337 15.945 77.319-24.602 77.319h-213.726c-54.4 0-102.613 35.768-119.424 88.598z" />
<glyph unicode="&#xe924;" glyph-name="Close" d="M692.745 417.83c-16.661 16.661-16.661 43.678 0 60.339l301.086 301.084c16.661 16.662 16.661 43.677 0 60.34l-90.24 90.238c-16.661 16.662-43.678 16.662-60.339 0l-301.082-301.083c-16.661-16.663-43.678-16.663-60.339 0l-301.084 301.082c-16.662 16.662-43.677 16.662-60.34 0l-90.238-90.238c-16.662-16.662-16.662-43.677 0-60.34l301.083-301.084c16.663-16.661 16.663-43.678 0-60.339l-301.009-301.009c-16.662-16.661-16.662-43.678 0-60.339l90.238-90.24c16.662-16.661 43.677-16.661 60.34 0l301.011 301.013c16.661 16.661 43.678 16.661 60.339 0l301.009-301.013c16.661-16.661 43.678-16.661 60.339 0l90.24 90.24c16.661 16.661 16.661 43.678 0 60.339l-301.013 301.009z" />
<glyph unicode="&#xe925;" glyph-name="Search" d="M797.643 490.394c0 188.987-154.427 342.192-344.928 342.192-190.496 0-344.925-153.204-344.925-342.192 0-188.985 154.429-342.192 344.925-342.192 190.501 0 344.928 153.207 344.928 342.192zM750.555 152.142c-79.606-69.042-183.796-110.875-297.841-110.875-250.027 0-452.714 201.081-452.714 449.126s202.688 449.126 452.714 449.126c250.028 0 452.719-201.080 452.719-449.126 0-96.387-30.605-185.68-82.702-258.843 1.028-0.877 2.032-1.798 3.006-2.769l182.477-181.027c21.049-20.881 21.049-54.735 0-75.616-21.045-20.877-55.169-20.877-76.218 0l-181.441 180.003z" />
<glyph unicode="&#xe926;" glyph-name="Adaptive" horiz-adv-x="768" d="M245.76 847.36h-71.68v-51.2h-51.2v-71.68h51.2v-51.2h71.68v51.2h51.2v71.68h-51.2v51.2zM645.12 581.12h-522.24v-51.2h522.24v51.2zM122.88 468.48h522.24v-51.2h-522.24v51.2zM645.12 355.84h-522.24v-51.2h522.24v51.2zM122.88 243.2h522.24v-51.2h-522.24v51.2zM645.12 130.56h-522.24v-51.2h522.24v51.2zM0 960h616.243l151.757-151.755v-872.245h-768v1024zM542.72 888.32h-471.040v-880.64h624.64v716.8h-153.6v163.84zM696.32 775.68v2.875l-102.4 102.4v-105.275h102.4z" />
<glyph unicode="&#xe927;" glyph-name="Place" horiz-adv-x="811" d="M668.8 547.343c0 143.495-115.691 259.821-258.4 259.821s-258.4-116.326-258.4-259.821c0-143.495 115.69-259.821 258.4-259.821s258.4 116.326 258.4 259.821zM597.867 547.343c0-104.105-83.93-188.5-187.467-188.5-103.535 0-187.467 84.395-187.467 188.5s83.932 188.497 187.467 188.497c103.537 0 187.467-84.393 187.467-188.497zM810.667 552.438c0 225.091-181.474 407.562-405.333 407.562s-405.333-182.472-405.333-407.562c0-225.091 233.067-468.696 405.333-616.438 182.4 147.742 405.333 391.347 405.333 616.438zM729.6 552.438c0-87.055-44.079-187.049-118.537-288.971-58.918-80.653-132.471-156.518-204.506-219.977-69.965 63.91-143.661 139.831-203.524 220.48-76.236 102.703-121.967 202.33-121.967 288.468 0 180.073 145.179 326.050 324.267 326.050s324.267-145.977 324.267-326.050z" />
<glyph unicode="&#xe928;" glyph-name="Print" d="M798.72 458.24c16.964 0 30.72 13.756 30.72 30.72s-13.756 30.72-30.72 30.72c-16.964 0-30.72-13.756-30.72-30.72s13.756-30.72 30.72-30.72zM256 238.080c0 14.14 11.461 25.6 25.6 25.6h460.8c14.14 0 25.6-11.46 25.6-25.6s-11.46-25.6-25.6-25.6h-460.8c-14.139 0-25.6 11.46-25.6 25.6zM281.6 181.76c-14.139 0-25.6-11.46-25.6-25.6s11.461-25.6 25.6-25.6h460.8c14.14 0 25.6 11.46 25.6 25.6s-11.46 25.6-25.6 25.6h-460.8zM256 74.24c0 14.14 11.461 25.6 25.6 25.6h460.8c14.14 0 25.6-11.46 25.6-25.6s-11.46-25.6-25.6-25.6h-460.8c-14.139 0-25.6 11.46-25.6 25.6zM153.6 642.56h-51.2c-56.554 0-102.4-45.846-102.4-102.4v-327.68c0-56.555 45.846-102.4 102.4-102.4h51.2v-71.68c0-56.555 45.846-102.4 102.4-102.4h512c56.555 0 102.4 45.845 102.4 102.4v71.68h51.2c56.555 0 102.4 45.845 102.4 102.4v327.68c0 56.554-45.845 102.4-102.4 102.4h-51.2v215.040c0 56.554-45.845 102.4-102.4 102.4h-512c-56.554 0-102.4-45.846-102.4-102.4v-215.040zM798.72 857.6v-215.040h-573.44v215.040c0 16.966 13.754 30.72 30.72 30.72h512c16.964 0 30.72-13.754 30.72-30.72zM102.4 570.88h819.2c16.964 0 30.72-13.754 30.72-30.72v-327.68c0-16.964-13.756-30.72-30.72-30.72h-51.2v194.56h-716.8v-194.56h-51.2c-16.966 0-30.72 13.756-30.72 30.72v327.68c0 16.966 13.754 30.72 30.72 30.72zM798.72 304.64v-266.24c0-16.964-13.756-30.72-30.72-30.72h-512c-16.966 0-30.72 13.756-30.72 30.72v266.24h573.44z" />
<glyph unicode="&#xe929;" glyph-name="Sposob-primenenija" horiz-adv-x="853" d="M813.769 804.382l-14.025-18.339c-6.69-8.748-5.146-20.957 1.929-29.409 33.254-39.719 36.049-97.899 3.341-140.984l-98.035-129.139c-9.37-12.343-28.783-10.863-36.966 2.266-1.446 2.313-2.91 4.612-4.39 6.899l-402.499-539.861-190.522 16.222-72.599 171.785 404.419 542.436c-3.060 0.846-6.133 1.663-9.216 2.452-15.202 3.888-22.249 21.656-12.876 34.002l98.036 129.137c30.878 40.675 84.036 55.569 130.645 40.521 9.847-3.18 21.094-0.829 27.311 7.298l16.311 21.337c32.9 43.019 95.189 51.787 139.136 19.583 43.942-32.204 52.898-93.185 20.002-136.204zM590.839 665.451c38.071-27.7 71.292-59.904 99.691-95.789l63.223 83.282c14.814 19.516 13.645 45.996-1.476 64.057-21.474 25.652-31.663 69.888-3.661 106.511l14.025 18.339c11.759 15.376 8.555 37.173-7.151 48.683s-37.969 8.377-49.728-6.999l-16.316-21.337c-25.954-33.942-68.177-38.979-98.445-29.207-21.252 6.863-45.402-0.026-59.379-18.438l-63.223-83.282c43.29-16.271 84.369-38.122 122.441-65.821zM552.742 615.268c-23.949 17.423-49.297 32.231-75.827 44.497l-392.078-525.886 39.31-93.013 103.565-8.819 390.963 524.39c-19.789 21.562-41.762 41.249-65.933 58.832zM649.579 343.019c14.609 20.732 29.995 41.451 45.751 61.905 15.407-20.954 30.46-41.809 44.774-62.434 63.991-92.173 113.229-179.635 113.229-250.18 0-86.327-70.741-156.309-158.003-156.309-87.266 0-158.003 69.982-158.003 156.309 0 70.187 48.738 160.563 112.252 250.709zM695.33 8.943c46.541 0 84.267 37.325 84.267 83.366 0 24.7-11.277 61.116-38.537 111.019-13.129 24.043-28.851 49.259-46.477 75.52-16.922-25.114-32.098-49.681-44.809-73.237-27.187-50.389-38.716-88.29-38.716-113.301 0-46.042 37.73-83.366 84.271-83.366z" />
<glyph unicode="&#xe92a;" glyph-name="Deti" horiz-adv-x="811" d="M201.361 621.546c-120.434-39.942-201.361-114.171-201.361-199.146 0-99.844 111.729-184.853 267.996-216.836-32.486-28.608-52.502-67.716-52.502-110.844 0-87.659 82.697-158.72 184.709-158.72 102.014 0 184.71 71.061 184.71 158.72 0 42.3-19.255 80.73-50.645 109.18 160.649 30.618 276.399 116.877 276.399 218.5 0 84.975-80.926 159.204-201.361 199.146 17.178 32.226 26.914 69.006 26.914 108.054 0 127.247-103.373 230.4-230.886 230.4-127.515 0-230.886-103.153-230.886-230.4 0-39.049 9.734-75.828 26.914-108.054zM481.412 590.164l-23.808-12.974-35.883-98.47h-40.826l-31.824 99.808-23.832 13.901c-47.387 27.64-78.961 78.767-78.961 137.171 0 87.659 71.212 158.72 159.055 158.72 87.842 0 159.053-71.061 159.053-158.72 0-60.042-33.382-112.407-82.974-139.436zM328.371 407.040h143.663l43.806 120.213c16.96 9.244 32.631 20.548 46.673 33.576 35.776-9.838 67.477-22.786 93.879-37.795 62.741-35.665 82.445-73.95 82.445-100.634s-19.703-64.969-82.445-100.634c-60.663-34.483-149.278-58.086-251.059-58.086-101.783 0-190.395 23.603-251.061 58.086-62.741 35.665-82.441 73.95-82.441 100.634s19.7 64.969 82.441 100.634c26.406 15.010 58.106 27.958 93.883 37.795 12.416-11.52 26.106-21.693 40.835-30.286l39.38-123.503zM400.203 7.68c-72.796 0-112.878 48.653-112.878 87.040s40.081 87.040 112.878 87.040c72.796 0 112.877-48.653 112.877-87.040s-40.081-87.040-112.877-87.040z" />
<glyph unicode="&#xe92b;" glyph-name="Lekarstvennoe-Vzaimodeistvie" horiz-adv-x="1069" d="M814.614 455.831c-140.226 0-253.903 112.863-253.903 252.085s113.677 252.084 253.903 252.084c140.23 0 253.907-112.862 253.907-252.084s-113.677-252.085-253.907-252.085zM814.614 529.357c88.5 0 162.068 63.461 177.059 147.049h-354.117c14.99-83.588 88.563-147.049 177.059-147.049zM637.556 739.427h354.117c-14.99 83.587-88.558 147.049-177.059 147.049-88.496 0-162.068-63.461-177.059-147.049zM69.996 676.2c93.326 92.658 244.64 92.658 337.967 0l337.59-335.163c93.326-92.659 93.326-242.888 0-335.543-93.326-92.659-244.643-92.659-337.968 0l-337.588 335.164c-93.327 92.659-93.328 242.885 0 335.542zM693.186 289.044l-136.651 135.671-233.238-231.562 136.652-135.671c64.405-63.942 168.831-63.942 233.236 0 64.405 63.947 64.405 167.62 0 231.562zM270.932 245.141l233.236 231.562-148.571 147.508c-64.406 63.944-168.83 63.944-233.237 0s-64.406-167.618 0-231.565l148.572-147.505z" />
<glyph unicode="&#xe92c;" glyph-name="Farmakoterap-gruppa" horiz-adv-x="1117" d="M496.361 859.954c0-40.568-23.152-75.497-56.431-91.198v-279.563c0-78.001 60.634-141.238 135.432-141.238s135.433 63.237 135.433 141.238v279.563c-33.28 15.701-56.432 50.63-56.432 91.198 0 55.254 42.947 100.046 95.93 100.046s95.935-44.792 95.935-100.046c0-40.568-23.156-75.497-56.432-91.198v-279.563c0-107.357-72.541-197.046-169.29-218.666v-75.585c0-97.508 75.795-176.552 169.29-176.552s169.29 79.043 169.29 176.552v9.793c-39.862 18.162-67.719 59.643-67.719 107.906 0 65.005 50.53 117.704 112.863 117.704 62.329 0 112.859-52.699 112.859-117.704 0-52.699-33.215-97.313-79.002-112.31v-5.39c0-143.011-111.165-258.942-248.292-258.942s-248.292 115.931-248.292 258.942v73.393c-102.342 16.929-180.579 109.368-180.579 220.858v279.563c-33.277 15.701-56.429 50.63-56.429 91.198 0 55.254 42.95 100.046 95.932 100.046 52.98 0 95.932-44.792 95.932-100.046zM153.885 807.863c-84.988 0-153.885-70.734-153.885-157.989v-550.034c0-87.254 68.897-157.989 153.885-157.989s153.885 70.735 153.885 157.989v550.034c0 87.255-68.897 157.989-153.885 157.989zM153.885 725.942c40.92 0 74.093-34.057 74.093-76.068v-239.911h-148.185v239.911c0 42.011 33.172 76.068 74.092 76.068zM79.792 99.84v239.909h148.185v-239.909c0-42.012-33.172-76.069-74.093-76.069s-74.092 34.057-74.092 76.069z" />
<glyph unicode="&#xe92d;" glyph-name="Arrow-Up" horiz-adv-x="1570" d="M34.943-24.166c-46.591 53.105-46.591 139.216 0 192.321l659.731 752.014c24.822 28.298 57.87 41.518 90.371 39.66 32.509 1.859 65.55-11.361 90.378-39.66l659.729-752.014c46.592-53.105 46.592-139.216 0-192.321-46.592-53.111-122.129-53.111-168.721 0l-581.386 662.705-581.381-662.705c-46.591-53.111-122.13-53.111-168.722 0z" />
<glyph unicode="&#xe92e;" glyph-name="Arrow-Down" horiz-adv-x="1570" d="M34.943 920.169c-46.591-53.108-46.591-139.214 0-192.323l659.731-752.012c24.822-28.297 57.87-41.52 90.371-39.663 32.509-1.857 65.55 11.366 90.378 39.663l659.729 752.012c46.592 53.109 46.592 139.215 0 192.323s-122.129 53.109-168.721 0l-581.386-662.708-581.381 662.708c-46.591 53.108-122.13 53.108-168.722 0z" />
<glyph unicode="&#xe92f;" glyph-name="International-Name" horiz-adv-x="853" d="M51.406 908.8h627.148c68.139 0 123.375-55.015 123.375-122.88v-675.84c0-67.866-55.236-122.88-123.375-122.88h-627.148v921.6zM30.843 960c-17.034 0-30.843-13.754-30.843-30.72v-962.56c0-16.964 13.809-30.72 30.843-30.72h647.71c96.529 0 174.78 77.939 174.78 174.080v675.84c0 96.142-78.251 174.080-174.78 174.080h-647.71zM164.498 161.28c0 16.964 13.809 30.72 30.843 30.72h472.934c17.033 0 30.839-13.756 30.839-30.72s-13.807-30.72-30.839-30.72h-472.934c-17.034 0-30.843 13.756-30.843 30.72zM426.667 325.12c-110.723 0-200.482 89.399-200.482 199.68s89.759 199.68 200.482 199.68c110.724 0 200.482-89.4 200.482-199.68s-89.758-199.68-200.482-199.68zM426.667 284.16c133.436 0 241.609 107.738 241.609 240.64s-108.173 240.64-241.609 240.64c-133.436 0-241.606-107.738-241.606-240.64s108.171-240.64 241.606-240.64zM470.673 288.141c-14.272-2.615-28.979-3.981-44.006-3.981s-29.736 1.365-44.004 3.981c-46.737 65.31-74.228 145.229-74.228 231.539 0 91.523 30.911 175.855 82.902 243.206 11.532 1.683 23.329 2.554 35.331 2.554s23.799-0.872 35.332-2.554c51.989-67.35 82.901-151.683 82.901-243.206 0-86.31-27.49-166.229-74.227-231.539zM503.774 519.68c0 83.714-28.817 160.724-77.107 221.727-48.292-61.003-77.108-138.013-77.108-221.727 0-83.712 28.817-160.725 77.108-221.726 48.29 61.001 77.107 138.014 77.107 221.726zM205.623 540.16h442.087v-40.96h-442.087v40.96zM447.228 739.84v-440.32h-41.123v440.32h41.123zM576.491 673.28c-39.164-24.988-96.009-39.476-145.971-39.476s-106.807 14.488-145.971 39.476c-10.207-9.351-19.437-19.743-27.52-31.008 46.644-31.215 113.073-49.428 173.491-49.428 60.42 0 126.848 18.214 173.491 49.428-8.085 11.264-17.314 21.656-27.52 31.008zM566.208 369.050c-39.164 24.986-85.726 39.475-135.689 39.475s-96.527-14.49-135.69-39.475c-10.206 9.348-19.436 19.742-27.52 31.006 46.644 31.215 102.792 49.429 163.21 49.429 60.42 0 116.565-18.214 163.209-49.429-8.081-11.264-17.314-21.658-27.52-31.006z" />
<glyph unicode="&#xe930;" glyph-name="Active-substance" horiz-adv-x="1092" d="M196.923 895.032l133.767-77.231v-154.46l-133.767-77.231-133.766 77.231v154.46l133.766 77.231zM386.954 850.286l-190.031 109.714-190.030-109.714v-219.429l190.030-109.714 190.031 109.714v219.429zM196.923 309.889l133.767-77.23v-154.462l-133.767-77.23-133.766 77.23v154.462l133.766 77.23zM386.954 265.143l-190.031 109.714-190.030-109.714v-219.429l190.030-109.714 190.031 109.714v219.429zM512 309.889l133.767-77.23v-154.462l-133.767-77.23-133.767 77.23v154.462l133.767 77.23zM702.031 265.143l-190.031 109.714-190.031-109.714v-219.429l190.031-109.714 190.031 109.714v219.429zM827.077 309.889l133.767-77.23v-154.462l-133.767-77.23-133.767 77.23v154.462l133.767 77.23zM1017.108 265.143l-190.031 109.714-190.031-109.714v-219.429l190.031-109.714 190.031 109.714v219.429zM354.462 602.461l133.767-77.23v-154.461l-133.767-77.231-133.767 77.23v154.462l133.767 77.23zM544.492 557.714l-190.031 109.714-190.031-109.714v-219.429l190.031-109.714 190.031 109.714v219.429zM810.198 611.165c-43.503 0-78.769 35.266-78.769 78.769s35.266 78.769 78.769 78.769c43.503 0 78.769-35.266 78.769-78.769s-35.266-78.769-78.769-78.769zM810.198 554.901c74.576 0 135.033 60.457 135.033 135.033s-60.457 135.033-135.033 135.033c-74.576 0-135.033-60.457-135.033-135.033s60.457-135.033 135.033-135.033zM1001.495 836.22c-18.645 0-33.758 15.114-33.758 33.758s15.114 33.758 33.758 33.758c18.645 0 33.758-15.114 33.758-33.758s-15.114-33.758-33.758-33.758zM1001.495 779.956c49.718 0 90.022 40.304 90.022 90.022s-40.304 90.022-90.022 90.022c-49.718 0-90.022-40.304-90.022-90.022s40.304-90.022 90.022-90.022zM517.626 734.945c-18.645 0-33.758 15.114-33.758 33.758s15.114 33.758 33.758 33.758c18.645 0 33.758-15.114 33.758-33.758s-15.114-33.758-33.758-33.758zM517.626 678.681c49.718 0 90.022 40.304 90.022 90.022s-40.304 90.022-90.022 90.022c-49.718 0-90.022-40.304-90.022-90.022s40.304-90.022 90.022-90.022zM675.165 431.121c-18.645 0-33.758 15.114-33.758 33.758s15.114 33.758 33.758 33.758c18.645 0 33.758-15.114 33.758-33.758s-15.114-33.758-33.758-33.758zM675.165 374.857c49.718 0 90.022 40.304 90.022 90.022s-40.304 90.022-90.022 90.022c-49.718 0-90.022-40.304-90.022-90.022s40.304-90.022 90.022-90.022zM938.074 847.473l39.785-39.784-71.612-71.612-39.784 39.784 71.611 71.612zM720.567 613.386l48.726-28.132-50.637-87.706-48.726 28.132 50.637 87.706zM721.348 747.362l-14.561-54.347-140.987 37.778 14.562 54.346 140.986-37.777z" />
<glyph unicode="&#xe931;" glyph-name="ATX-Med" horiz-adv-x="1103" d="M60.652 831.701c0 40.050 32.092 72.517 71.68 72.517h181.002c21.828 0 39.523-17.902 39.523-39.985 0-19.569 15.681-35.433 35.024-35.433h604.611c27.408 0 49.625-22.477 49.625-50.204v-27.445c0-15.404 12.343-27.891 27.569-27.891s27.569 12.487 27.569 27.891v27.445c0 58.535-46.903 105.986-104.763 105.986h-586.638c-9.224 43.115-47.143 75.418-92.52 75.418h-181.002c-70.040 0-126.818-57.441-126.818-128.299v-161.768c0-15.404 12.343-27.891 27.569-27.891s27.569 12.487 27.569 27.891v161.768zM484.017 447.527v-61.913c0-4.872-4.151-8.822-9.271-8.822h-50.983c-5.116 0-9.267 3.95-9.267 8.822v61.913c-24.762 6.936-41.714 21.051-41.714 37.337 0 23.142 34.239 41.905 76.475 41.905s76.473-18.763 76.473-41.905c0-16.286-16.951-30.401-41.712-37.337zM491.768 474.344c10.354 5.675 10.787 10.193 10.787 10.52s-0.433 4.844-10.787 10.52c-9.728 5.329-24.71 9.33-42.512 9.33s-32.784-4.001-42.512-9.33c-10.354-5.675-10.787-10.193-10.787-10.52s0.433-4.844 10.787-10.52c9.728-5.329 24.71-9.33 42.512-9.33s32.784 4.001 42.512 9.33zM460.843 443.435c-3.777-0.315-7.648-0.477-11.587-0.477s-7.81 0.161-11.587 0.477v-44.587h23.174v44.587zM270.748 366.998c0-3.694-3.148-6.688-7.031-6.688s-7.031 2.993-7.031 6.688c0 3.69 3.148 6.684 7.031 6.684s7.031-2.993 7.031-6.684zM246.14 343.595c3.883 0 7.031 2.993 7.031 6.684 0 3.694-3.148 6.688-7.031 6.688s-7.031-2.993-7.031-6.688c0-3.69 3.148-6.684 7.031-6.684zM274.264 136.31c0 3.694 3.148 6.688 7.031 6.688s7.031-2.993 7.031-6.688c0-3.694-3.148-6.688-7.031-6.688s-7.031 2.993-7.031 6.688zM253.171 316.845c0-3.69-3.148-6.684-7.031-6.684s-7.031 2.993-7.031 6.684c0 3.694 3.148 6.688 7.031 6.688s7.031-2.993 7.031-6.688zM274.264 169.744c0 3.69 3.148 6.688 7.031 6.688s7.031-2.997 7.031-6.688c0-3.694-3.148-6.688-7.031-6.688s-7.031 2.993-7.031 6.688zM288.326 350.279c0-3.69-3.148-6.684-7.031-6.684s-7.031 2.993-7.031 6.684c0 3.694 3.148 6.688 7.031 6.688s7.031-2.993 7.031-6.688zM239.109 136.31c0 3.694 3.148 6.688 7.031 6.688s7.031-2.993 7.031-6.688c0-3.694-3.148-6.688-7.031-6.688s-7.031 2.993-7.031 6.688zM288.326 316.845c0-3.69-3.148-6.684-7.031-6.684s-7.031 2.993-7.031 6.684c0 3.694 3.148 6.688 7.031 6.688s7.031-2.993 7.031-6.688zM239.109 169.744c0 3.69 3.148 6.688 7.031 6.688s7.031-2.997 7.031-6.688c0-3.694-3.148-6.688-7.031-6.688s-7.031 2.993-7.031 6.688zM263.717 126.279c-3.883 0-7.031-2.993-7.031-6.684 0-3.694 3.148-6.688 7.031-6.688s7.031 2.993 7.031 6.688c0 3.69-3.148 6.684-7.031 6.684zM263.717 326.877c3.883 0 7.031 2.993 7.031 6.688s-3.148 6.688-7.031 6.688c-3.883 0-7.031-2.993-7.031-6.688s3.148-6.688 7.031-6.688zM263.717 159.712c-3.883 0-7.031-2.993-7.031-6.688 0-3.69 3.148-6.684 7.031-6.684s7.031 2.993 7.031 6.684c0 3.694-3.148 6.688-7.031 6.688zM228.562 326.877c3.883 0 7.031 2.993 7.031 6.688s-3.148 6.688-7.031 6.688c-3.883 0-7.031-2.993-7.031-6.688s3.148-6.688 7.031-6.688zM298.872 159.712c-3.883 0-7.031-2.993-7.031-6.688 0-3.69 3.148-6.684 7.031-6.684s7.031 2.993 7.031 6.684c0 3.694-3.148 6.688-7.031 6.688zM298.872 326.877c3.883 0 7.031 2.993 7.031 6.688s-3.148 6.688-7.031 6.688c-3.883 0-7.031-2.993-7.031-6.688s3.148-6.688 7.031-6.688zM228.562 159.712c-3.883 0-7.031-2.993-7.031-6.688 0-3.69 3.148-6.684 7.031-6.684s7.031 2.993 7.031 6.684c0 3.694-3.148 6.688-7.031 6.688zM221.531 276.728v-66.867c0-3.69 3.148-6.684 7.031-6.684h70.31c3.883 0 7.031 2.993 7.031 6.684v66.867c0 3.694-3.148 6.688-7.031 6.688h-70.31c-3.883 0-7.031-2.993-7.031-6.688zM239.109 219.892v46.805h49.217v-46.805h-49.217zM196.923 346.935v-207.281c0-35.084 29.905-63.523 66.794-63.523s66.794 28.44 66.794 63.523v207.281c0 35.084-29.905 63.523-66.794 63.523s-66.794-28.44-66.794-63.523zM312.934 346.935v-207.281c0-25.852-22.035-46.805-49.217-46.805s-49.217 20.953-49.217 46.805v207.281c0 25.852 22.035 46.809 49.217 46.809s49.217-20.957 49.217-46.809zM770.666 501.161h-38.849l-6.782-21.933h-30.291l43.13 117.417h26.656l43.453-117.417h-30.448l-6.869 21.933zM738.603 523.016h25.281l-12.682 40.728-12.599-40.728zM899.253 574.791h-35.296v-95.563h-28.349v95.563h-34.651v21.855h98.296v-21.855zM974.368 596.645l-19.224-39.034-19.224 39.034h-32.307l32.796-58.226-33.682-59.191h32.63l19.787 39.755 19.791-39.755h32.709l-33.76 59.191 32.874 58.226h-32.39zM88.222 614.301c-49.624-5.537-88.222-47.997-88.222-99.556v-478.578c0-55.32 44.435-100.167 99.249-100.167h904.271c54.816 0 99.249 44.847 99.249 100.167v612.135c0 27.661-22.217 50.084-49.625 50.084h-27.569v48.383c0 22.261-16.884 40.307-37.711 40.307h-861.933c-20.827 0-37.71-18.046-37.71-40.307v-132.467zM142.093 614.912v114.582h829.613v-31.109h-251.695c-12.611 0-24.745-4.844-33.942-13.546l-79.545-69.927h-464.43zM722.188 642.736h325.443v-606.57c0-24.588-19.747-44.52-44.111-44.52h-542.677v63.137h4.636c5.12 0 9.267 3.95 9.267 8.822v33.942c10.551 1.552 20.98 4.072 31.141 7.562l15.21 5.222v222.594c20.854 2.194 37.077 19.023 37.077 39.456 0 21.925-18.676 39.7-41.712 39.7-5.12 0-9.271-3.95-9.271-8.822v-4.411c0-4.872 4.151-8.822 9.271-8.822 10.24 0 18.538-7.901 18.538-17.644s-8.298-17.644-18.538-17.644h-134.411c-10.239 0-18.539 7.901-18.539 17.644s8.3 17.644 18.539 17.644c5.12 0 9.27 3.95 9.27 8.822v4.411c0 4.872-4.15 8.822-9.27 8.822-23.038 0-41.713-17.774-41.713-39.7 0-20.433 16.222-37.262 37.079-39.456v-222.594l15.21-5.222c10.16-3.489 20.589-6.010 31.137-7.562v-33.942c0-4.872 4.151-8.822 9.271-8.822h4.636v-63.137h-338.42c-24.362 0-44.111 19.933-44.111 44.52v478.578c0 24.588 19.749 44.52 44.111 44.52h529.329l93.609 83.471zM497.924 125.822c-31.456-10.78-65.879-10.78-97.335 0v26.006h37.081v17.644h-37.081v13.233h60.255v17.644h-60.255v13.233h37.081v17.644h-37.081v13.233h60.255v17.644h-60.255v13.233h37.081v17.644h-37.081v35.289h97.335v-202.449zM446.941 85.662h4.632v-8.822h-4.632v8.822z" />
<glyph unicode="&#xe932;" glyph-name="ATX-Cosmetics" horiz-adv-x="1103" d="M60.652 831.701c0 40.050 32.092 72.517 71.68 72.517h181.002c21.828 0 39.523-17.902 39.523-39.985 0-19.569 15.681-35.433 35.024-35.433h604.611c27.408 0 49.625-22.477 49.625-50.204v-27.445c0-15.404 12.343-27.891 27.569-27.891s27.569 12.487 27.569 27.891v27.445c0 58.535-46.903 105.986-104.763 105.986h-586.638c-9.224 43.115-47.143 75.418-92.52 75.418h-181.002c-70.040 0-126.818-57.441-126.818-128.299v-161.768c0-15.404 12.343-27.891 27.569-27.891s27.569 12.487 27.569 27.891v161.768zM770.666 501.161h-38.849l-6.786-21.937h-30.287l43.13 117.421h26.656l43.453-117.421h-30.448l-6.869 21.937zM738.603 523.016h25.281l-12.682 40.728-12.599-40.728zM899.253 574.79h-35.296v-95.566h-28.349v95.566h-34.651v21.855h98.296v-21.855zM974.368 596.645l-19.224-39.034-19.224 39.034h-32.307l32.792-58.226-33.678-59.195h32.63l19.787 39.759 19.791-39.759h32.709l-33.76 59.195 32.874 58.226h-32.39zM319.924 204.422h-42.414v25.446h42.414v42.417h25.448v-42.417h44.535v-25.446h-44.535v-44.536h-25.448v44.536zM88.222 614.301c-49.624-5.537-88.222-47.997-88.222-99.556v-478.578c0-55.32 44.435-100.167 99.249-100.167h904.271c54.816 0 99.249 44.847 99.249 100.167v612.135c0 27.661-22.217 50.084-49.625 50.084h-27.569v48.383c0 22.261-16.884 40.307-37.711 40.307h-861.933c-20.827 0-37.71-18.046-37.71-40.307v-132.467zM142.093 614.912v114.582h829.613v-31.109h-251.695c-12.611 0-24.745-4.844-33.942-13.546l-79.545-69.927h-464.43zM722.188 642.736h325.443v-606.57c0-24.588-19.747-44.52-44.111-44.52h-539.924c5.652 7.207 9.019 16.286 9.019 26.151v347.798c0 39.298-29.692 71.66-67.864 75.878v76.812c0 4.687-3.797 8.483-8.483 8.483h-123c-4.685 0-8.483-3.797-8.483-8.483v-76.812c-38.172-4.218-67.863-36.58-67.863-75.878v-347.798c0-9.866 3.369-18.944 9.018-26.151h-106.692c-24.362 0-44.111 19.933-44.111 44.52v478.578c0 24.588 19.749 44.52 44.111 44.52h529.329l93.609 83.471zM290.234 446.18h89.070v12.725h-89.070v-12.725zM379.304 484.356h-89.070v16.963h89.070v-16.963zM273.269 416.492h123c28.113 0 50.897-22.788 50.897-50.897v-80.589h-16.963v33.934c0 4.683-3.801 8.483-8.483 8.483h-173.898c-4.685 0-8.483-3.801-8.483-8.483v-33.934h-16.966v80.589c0 28.109 22.788 50.897 50.897 50.897zM239.337 259.56v-173.899c0-4.687 3.798-8.483 8.483-8.483h173.898c4.683 0 8.483 3.797 8.483 8.483v173.899h16.963v-241.762c0-9.37-7.593-16.963-16.963-16.963h-190.865c-9.37 0-16.966 7.593-16.966 16.963v241.762h16.966zM264.786 102.628v199.345h139.966v-199.345h-139.966z" />
<glyph unicode="&#xe933;" glyph-name="ATX-BAD" horiz-adv-x="1103" d="M343.461 214.197c3.475 3.474 7.175 7.172 11.001 11.418 3.826-4.246 7.526-7.944 11.001-11.418 2.44-2.442 4.769-4.769 6.953-7.097 8.819-9.409 15.271-18.849 17.096-35.738 10.322 6.372 19.801 7.79 30.396 8.046 3.222 0.075 6.546 0.047 10.027 0.016 4.959-0.047 10.24-0.095 16.002 0.161-0.252-5.864-0.205-11.236-0.161-16.286 0.032-3.545 0.063-6.924-0.016-10.205-0.362-15.73-3.167-29.042-19.948-46.123-15.998-16.282-30.59-19.72-45.321-20.326-4.154-0.173-8.32-0.118-12.532-0.063-4.434 0.055-8.919 0.114-13.496-0.091-4.577 0.205-9.062 0.146-13.496 0.091-4.212-0.055-8.378-0.11-12.531 0.063-14.733 0.607-29.322 4.045-45.322 20.326-16.783 17.081-19.585 30.393-19.95 46.123-0.076 3.281-0.046 6.664-0.015 10.205 0.045 5.049 0.092 10.421-0.16 16.286 5.76-0.256 11.041-0.209 16.001-0.161 3.482 0.032 6.806 0.059 10.027-0.016 10.597-0.256 20.076-1.674 30.397-8.046 1.825 16.888 8.277 26.329 17.096 35.738 2.184 2.328 4.513 4.655 6.953 7.097zM354.462 86.493c0.015 0.358 0.015-0.362 0 0zM354.462 188.601c-1.815-1.965-3.214-3.635-4.384-5.262-2.897-4.033-5.61-9.299-5.61-22.37 0-13.816 3.045-19.822 9.993-27.455 6.948 7.633 9.993 13.639 9.993 27.455 0 13.072-2.713 18.337-5.61 22.37-1.169 1.627-2.568 3.296-4.384 5.262zM419.749 152.934c-2.702-0.087-4.888-0.264-6.88-0.579-4.939-0.78-10.618-2.584-19.866-11.993-9.776-9.949-11.833-16.506-12.229-27.093 10.401 0.406 16.845 2.497 26.62 12.446 9.248 9.413 11.016 15.191 11.784 20.216 0.311 2.028 0.484 4.257 0.571 7.003zM296.055 152.355c-1.994 0.315-4.182 0.492-6.88 0.579 0.084-2.745 0.258-4.974 0.568-7.003 0.768-5.025 2.538-10.803 11.786-20.216 9.776-9.949 16.218-12.040 26.62-12.446-0.396 10.587-2.454 17.144-12.229 27.093-9.248 9.409-14.926 11.213-19.864 11.993zM247.742 432.486c0 8.566 6.826 15.514 15.246 15.514h182.949c8.42 0 15.246-6.947 15.246-15.514v-72.405c0-8.57-6.825-15.518-15.246-15.518h-10.165v-16.223c44.308-15.124 76.229-57.714 76.229-107.898v-263.755c0-11.425-9.102-20.689-20.326-20.689h-274.423c-11.227 0-20.328 9.263-20.328 20.689v263.755c0 50.184 31.922 92.774 76.228 107.898v16.223h-10.164c-8.42 0-15.246 6.947-15.246 15.518v72.405zM273.151 370.424h162.62v51.716h-162.62v-51.716zM298.561 344.564v-27.333c0-7.968-5.935-14.643-13.729-15.435l-11.681-1.189c-11.731-5.404-22.064-13.41-30.298-23.272h223.216c-8.235 9.862-18.566 17.853-30.299 23.253l-11.681 1.209c-7.794 0.792-13.726 7.467-13.726 15.435v27.333h-111.803zM227.867 251.475c-3.577-9.649-5.535-20.106-5.535-31.031v-181.008h264.257v181.008c0 10.925-1.957 21.382-5.534 31.031h-253.188zM222.332-38.14h264.257v51.716h-264.257v-51.716zM132.332 904.218c-39.588 0-71.68-32.467-71.68-72.517v-161.768c0-15.404-12.343-27.891-27.569-27.891s-27.569 12.487-27.569 27.891v161.768c0 70.858 56.778 128.299 126.818 128.299h181.002c45.378 0 83.296-32.302 92.52-75.418h586.638c57.86 0 104.763-47.451 104.763-105.986v-27.445c0-15.404-12.343-27.891-27.569-27.891s-27.569 12.487-27.569 27.891v27.445c0 27.727-22.217 50.204-49.625 50.204h-604.611c-19.343 0-35.024 15.864-35.024 35.433 0 22.083-17.695 39.985-39.523 39.985h-181.002zM88.222 614.301c-49.624-5.537-88.222-47.997-88.222-99.556v-478.578c0-55.32 44.435-100.167 99.249-100.167h904.271c54.816 0 99.249 44.847 99.249 100.167v612.135c0 27.661-22.217 50.084-49.625 50.084h-27.569v48.383c0 22.261-16.884 40.307-37.711 40.307h-861.933c-20.827 0-37.71-18.046-37.71-40.307v-132.467zM142.093 614.912v114.582h829.613v-31.109h-251.695c-12.611 0-24.745-4.844-33.942-13.546l-79.545-69.927h-464.43zM722.188 642.736h325.443v-606.57c0-24.588-19.747-44.52-44.111-44.52h-904.271c-24.362 0-44.111 19.933-44.111 44.52v478.578c0 24.588 19.749 44.52 44.111 44.52h529.329l93.609 83.471zM770.666 501.161h-38.849l-6.786-21.937h-30.287l43.13 117.421h26.656l43.453-117.421h-30.448l-6.869 21.937zM738.603 523.016h25.281l-12.682 40.728-12.599-40.728zM899.253 574.79h-35.296v-95.566h-28.349v95.566h-34.651v21.855h98.296v-21.855zM955.144 557.611l19.224 39.034h32.39l-32.874-58.226 33.76-59.195h-32.709l-19.791 39.759-19.787-39.759h-32.63l33.678 59.195-32.792 58.226h32.307l19.224-39.034z" />
<glyph unicode="&#xe934;" glyph-name="ATX-Preparat" horiz-adv-x="1103" d="M60.652 831.701c0 40.050 32.092 72.517 71.68 72.517h181.002c21.828 0 39.523-17.902 39.523-39.985 0-19.569 15.681-35.433 35.024-35.433h604.611c27.408 0 49.625-22.477 49.625-50.204v-27.445c0-15.404 12.343-27.891 27.569-27.891s27.569 12.487 27.569 27.891v27.445c0 58.535-46.903 105.986-104.763 105.986h-586.638c-9.224 43.115-47.143 75.418-92.52 75.418h-181.002c-70.040 0-126.818-57.441-126.818-128.299v-161.768c0-15.404 12.343-27.891 27.569-27.891s27.569 12.487 27.569 27.891v161.768zM770.666 501.161h-38.849l-6.782-21.933h-30.291l43.13 117.417h26.656l43.453-117.417h-30.448l-6.869 21.933zM738.603 523.016h25.281l-12.682 40.728-12.599-40.728zM899.253 574.791h-35.296v-95.563h-28.349v95.563h-34.651v21.855h98.296v-21.855zM974.368 596.645l-19.224-39.034-19.224 39.034h-32.307l32.796-58.226-33.682-59.191h32.63l19.787 39.755 19.791-39.755h32.709l-33.76 59.191 32.874 58.226h-32.39zM368.691 259.828h-28.459v-57.923h-56.917v-28.96h56.917v-57.923h28.459v57.923h56.919v28.96h-56.919v57.923zM88.222 614.301c-49.624-5.537-88.222-47.997-88.222-99.556v-478.578c0-55.32 44.435-100.167 99.249-100.167h904.271c54.816 0 99.249 44.847 99.249 100.167v612.135c0 27.661-22.217 50.084-49.625 50.084h-27.569v48.383c0 22.261-16.884 40.307-37.711 40.307h-861.933c-20.827 0-37.71-18.046-37.71-40.307v-132.467zM142.093 614.912v114.582h829.613v-31.109h-251.695c-12.611 0-24.745-4.844-33.942-13.546l-79.545-69.927h-464.43zM722.188 642.736h325.443v-606.57c0-24.588-19.747-44.52-44.111-44.52h-491.985c0.303 1.426 0.465 2.907 0.465 4.427v263.755c0 50.184-31.921 92.774-76.229 107.898v16.223h10.165c8.42 0 15.246 6.947 15.246 15.518v72.405c0 8.566-6.825 15.514-15.246 15.514h-182.949c-8.42 0-15.246-6.947-15.246-15.514v-72.405c0-8.57 6.826-15.518 15.246-15.518h10.164v-16.223c-44.306-15.124-76.228-57.714-76.228-107.898v-263.755c0-1.52 0.161-3.001 0.466-4.427h-98.139c-24.362 0-44.111 19.933-44.111 44.52v478.578c0 24.588 19.749 44.52 44.111 44.52h529.329l93.609 83.471zM273.151 461.525h162.62v-51.716h-162.62v51.716zM298.561 356.616v27.333h111.803v-27.333c0-7.968 5.931-14.643 13.726-15.435l11.681-1.209c11.733-5.4 22.063-13.391 30.299-23.253h-223.216c8.233 9.862 18.567 17.869 30.298 23.272l11.681 1.189c7.794 0.792 13.729 7.467 13.729 15.435zM222.332 259.828c0 10.925 1.957 21.382 5.535 31.031h253.188c3.576-9.649 5.534-20.106 5.534-31.031v-181.008h-264.257v181.008zM222.332 52.96h264.257v-51.716h-264.257v51.716z" />
<glyph unicode="&#xe935;" glyph-name="ATX" horiz-adv-x="1147" d="M262.144 960c-14.93 0-27.034-12.074-27.034-26.969v-7.355c0-15.797 12.837-28.603 28.672-28.603h22.938c3.167 0 5.734 2.561 5.734 5.72h791.347v-228.827c0-15.797 12.837-28.603 28.672-28.603s28.672 12.806 28.672 28.603v251.709c0 18.957-15.405 34.324-34.406 34.324h-844.595zM170.394 879.911c-14.93 0-27.034-12.074-27.034-26.969v-7.355c0-15.797 12.837-28.603 28.672-28.603h22.938c3.167 0 5.734 2.561 5.734 5.72h791.347v-148.737c0-15.797 12.837-28.603 28.672-28.603s28.672 12.806 28.672 28.603v171.62c0 18.957-15.405 34.324-34.406 34.324h-844.595zM535.888 119.91h-80.81l-14.111-45.842h-63.001l89.711 245.391h55.439l90.386-245.391h-63.336l-14.279 45.842zM469.189 165.585h52.584l-26.374 85.111-26.21-85.111zM803.344 273.785h-73.417v-199.717h-58.97v199.717h-72.069v45.674h204.456v-45.674zM959.582 319.459l-39.985-81.572-39.981 81.572h-67.203l68.211-121.684-70.058-123.707h67.875l41.157 83.087 41.161-83.087h68.039l-70.222 123.707 68.375 121.684h-67.367zM433.369 705.807l82.727-71.885h527.565c57.008 0 103.219-46.102 103.219-102.974v-491.975c0-56.873-46.211-102.973-103.219-102.973h-940.442c-57.006 0-103.219 46.1-103.219 102.973v629.273c0 28.435 23.106 51.486 51.61 51.486h346.462c13.113 0 25.733-4.979 35.297-13.925zM395.804 662.525h-338.46v-623.552c0-25.276 20.539-45.769 45.875-45.769h940.442c25.338 0 45.875 20.492 45.875 45.769v491.975c0 25.277-20.537 45.767-45.875 45.767h-550.502l-97.354 85.81zM51.61 772.853c0 14.894 12.103 26.969 27.034 26.969h844.595c19.001 0 34.406-15.368 34.406-34.324v-91.531c0-15.797-12.837-28.603-28.672-28.603s-28.672 12.806-28.672 28.603v68.648h-791.347c0-3.16-2.567-5.721-5.734-5.721h-22.938c-15.835 0-28.672 12.806-28.672 28.604v7.355z" />
<glyph unicode="&#xe936;" glyph-name="FTG-Preparat" horiz-adv-x="1257" d="M579.57 768.756c33.275 15.702 56.432 50.63 56.432 91.199 0 55.253-42.957 100.045-95.935 100.045-52.983 0-95.931-44.793-95.931-100.045 0-40.569 23.152-75.497 56.432-91.199v-279.559c0-111.495 78.234-203.934 180.573-220.863v-73.393c0-143.011 111.165-258.942 248.297-258.942 137.123 0 248.287 115.931 248.287 258.942v5.39c45.791 14.997 79.002 59.611 79.002 112.31 0 65.005-50.53 117.704-112.859 117.704s-112.859-52.699-112.859-117.704c0-48.263 27.853-89.744 67.719-107.906v-9.793c0-97.508-75.795-176.552-169.29-176.552-93.501 0-169.29 79.043-169.29 176.552v75.585c96.749 21.62 169.29 111.313 169.29 218.671v279.559c33.271 15.702 56.427 50.63 56.427 91.199 0 55.253-42.952 100.045-95.935 100.045-52.978 0-95.926-44.793-95.926-100.045 0-40.569 23.156-75.497 56.427-91.199v-279.559c0-78.006-60.63-141.242-135.433-141.242-74.794 0-135.429 63.237-135.429 141.242v279.559zM253.75 349.738h-42.045v-84.252h-84.080v-42.124h84.080v-84.257h42.045v84.257h84.080v42.124h-84.080v84.252zM75.074 658.159c0 12.463 10.085 22.568 22.522 22.568h270.262c12.437 0 22.522-10.105 22.522-22.568v-105.316c0-12.463-10.085-22.565-22.522-22.565h-15.011v-23.599c65.449-21.996 112.608-83.953 112.608-156.941v-383.646c0-16.621-13.443-30.092-30.028-30.092h-405.398c-16.585 0-30.028 13.47-30.028 30.092v383.646c0 72.988 47.159 134.945 112.608 156.941v23.599h-15.011c-12.437 0-22.522 10.102-22.522 22.565v105.316zM112.608 567.889h240.239v75.224h-240.239v-75.224zM150.148 530.278v-39.759c0-11.594-8.767-21.299-20.284-22.454l-17.256-1.731c-17.329-7.88-32.591-19.503-44.756-33.848h329.75c-12.165 14.345-27.426 25.968-44.756 33.848l-17.256 1.731c-11.517 1.154-20.284 10.859-20.284 22.454v39.759h-165.159zM45.71 394.873c-5.284-14.033-8.176-29.249-8.176-45.135v-263.289h390.386v263.289c0 15.886-2.892 31.102-8.176 45.135h-374.034zM37.534-26.387h390.386v75.227h-390.386v-75.227z" />
<glyph unicode="&#xe937;" glyph-name="FTG-BAD" horiz-adv-x="1257" d="M635.997 859.954c0-40.568-23.152-75.497-56.427-91.198v-279.563c0-78.001 60.635-141.238 135.429-141.238 74.799 0 135.433 63.237 135.433 141.238v279.563c-33.275 15.701-56.427 50.63-56.427 91.198 0 55.254 42.947 100.046 95.93 100.046s95.93-44.792 95.93-100.046c0-40.568-23.152-75.497-56.432-91.198v-279.563c0-107.357-72.536-197.046-169.29-218.666v-75.585c0-97.508 75.795-176.552 169.29-176.552s169.29 79.043 169.29 176.552v9.793c-39.857 18.162-67.714 59.643-67.714 107.906 0 65.005 50.53 117.704 112.859 117.704 62.334 0 112.863-52.699 112.863-117.704 0-52.699-33.215-97.313-79.002-112.31v-5.39c0-143.011-111.165-258.942-248.297-258.942-137.128 0-248.292 115.931-248.292 258.942v73.393c-102.339 16.929-180.578 109.368-180.578 220.858v279.563c-33.275 15.701-56.428 50.63-56.428 91.198 0 55.254 42.953 100.046 95.931 100.046 52.983 0 95.93-44.792 95.93-100.046zM216.476 340.648c5.133 5.055 10.599 10.431 16.251 16.612 5.652-6.181 11.118-11.557 16.251-16.612 3.604-3.547 7.045-6.935 10.271-10.324 13.029-13.684 22.56-27.415 25.256-51.977 15.246 9.267 29.25 11.329 44.904 11.702 4.758 0.112 9.668 0.070 14.813 0.023 7.327-0.070 15.128-0.14 23.637 0.233-0.371-8.522-0.301-16.342-0.236-23.682 0.046-5.157 0.090-10.077-0.022-14.843-0.539-22.882-4.679-42.245-29.472-67.091-23.636-23.682-45.188-28.681-66.952-29.566-6.137-0.251-12.291-0.172-18.513-0.093-6.55 0.084-13.176 0.168-19.937-0.13-6.762 0.298-13.388 0.214-19.938 0.13-6.222-0.079-12.376-0.158-18.513 0.093-21.765 0.884-43.317 5.883-66.953 29.566-24.792 24.846-28.932 44.209-29.471 67.091-0.112 4.766-0.068 9.686-0.022 14.843 0.066 7.34 0.135 15.155-0.236 23.682 8.51-0.372 16.311-0.303 23.638-0.233 5.144 0.047 10.054 0.088 14.812-0.023 15.654-0.372 29.658-2.434 44.904-11.702 2.696 24.562 12.227 38.293 25.256 51.977 3.226 3.389 6.667 6.777 10.271 10.324zM232.727 154.899c0.022 0.521 0.023-0.526 0 0zM232.727 303.421c-2.682-2.863-4.748-5.288-6.476-7.657-4.279-5.865-8.287-13.521-8.287-32.535 0-20.098 4.499-28.835 14.763-39.936 10.264 11.101 14.763 19.838 14.763 39.936 0 19.014-4.008 26.671-8.287 32.535-1.728 2.369-3.794 4.794-6.476 7.657zM329.173 251.541c-3.986-0.126-7.218-0.382-10.164-0.842-7.296-1.136-15.683-3.756-29.345-17.445-14.442-14.471-17.481-24.008-18.066-39.405 15.366 0.586 24.883 3.635 39.324 18.106 13.662 13.689 16.277 22.090 17.412 29.403 0.458 2.951 0.714 6.191 0.839 10.184zM146.445 250.698c-2.946 0.461-6.178 0.717-10.164 0.842 0.124-3.994 0.381-7.233 0.839-10.184 1.134-7.312 3.75-15.714 17.412-29.403 14.441-14.471 23.958-17.52 39.324-18.106-0.585 15.397-3.624 24.934-18.066 39.405-13.662 13.689-22.049 16.31-29.345 17.445zM75.073 658.16c0 12.464 10.084 22.568 22.522 22.568h270.264c12.438 0 22.522-10.104 22.522-22.568v-105.315c0-12.464-10.084-22.568-22.522-22.568h-15.015v-23.599c65.452-21.996 112.61-83.948 112.61-156.941v-383.646c0-16.621-13.445-30.092-30.029-30.092h-405.396c-16.584 0-30.029 13.47-30.029 30.092v383.646c0 72.993 47.158 134.945 112.61 156.941v23.599h-15.015c-12.438 0-22.522 10.104-22.522 22.568v105.315zM112.61 567.89h240.235v75.225h-240.235v-75.225zM150.147 530.277v-39.758c0-11.594-8.768-21.299-20.282-22.454l-17.255-1.731c-17.329-7.852-32.595-19.503-44.758-33.848h329.75c-12.163 14.345-27.428 25.968-44.758 33.825l-17.255 1.755c-11.514 1.154-20.282 10.859-20.282 22.454v39.758h-165.161zM45.713 394.873c-5.285-14.033-8.176-29.249-8.176-45.135v-263.289h390.381v263.289c0 15.886-2.891 31.102-8.176 45.135h-374.029zM37.537-26.387h390.381v75.222h-390.381v-75.222z" />
<glyph unicode="&#xe938;" glyph-name="FTG" horiz-adv-x="1117" d="M496.361 859.954c0-40.568-23.152-75.497-56.431-91.198v-279.563c0-78.001 60.634-141.238 135.432-141.238s135.433 63.237 135.433 141.238v279.563c-33.28 15.701-56.432 50.63-56.432 91.198 0 55.254 42.947 100.046 95.93 100.046s95.935-44.792 95.935-100.046c0-40.568-23.156-75.497-56.432-91.198v-279.563c0-107.357-72.541-197.046-169.29-218.666v-75.585c0-97.508 75.795-176.552 169.29-176.552s169.29 79.043 169.29 176.552v9.793c-39.862 18.162-67.719 59.643-67.719 107.906 0 65.005 50.53 117.704 112.863 117.704 62.329 0 112.859-52.699 112.859-117.704 0-52.699-33.215-97.313-79.002-112.31v-5.39c0-143.011-111.165-258.942-248.292-258.942s-248.292 115.931-248.292 258.942v73.393c-102.342 16.929-180.579 109.368-180.579 220.858v279.563c-33.277 15.701-56.429 50.63-56.429 91.198 0 55.254 42.95 100.046 95.932 100.046 52.98 0 95.932-44.792 95.932-100.046zM153.885 807.863c-84.988 0-153.885-70.734-153.885-157.989v-550.034c0-87.254 68.897-157.989 153.885-157.989s153.885 70.735 153.885 157.989v550.034c0 87.255-68.897 157.989-153.885 157.989zM153.885 725.943c40.92 0 74.093-34.057 74.093-76.069v-239.911h-148.185v239.911c0 42.011 33.172 76.069 74.092 76.069zM79.792 99.84v239.909h148.185v-239.909c0-42.012-33.172-76.069-74.093-76.069s-74.092 34.057-74.092 76.069z" />
<glyph unicode="&#xe939;" glyph-name="Med" horiz-adv-x="671" d="M610.643 882.176c0 42.981-63.587 77.824-142.025 77.824s-142.024-34.843-142.024-77.824c0-30.243 31.481-56.457 77.469-69.338v-114.982c0-9.049 7.705-16.384 17.214-16.384h94.685c9.506 0 17.214 7.335 17.214 16.384v114.982c45.985 12.881 77.467 39.095 77.467 69.338zM567.607 882.176c0-0.605-0.809-8.998-20.035-19.533-18.068-9.901-45.889-17.331-78.954-17.331-33.061 0-60.882 7.43-78.95 17.331-19.226 10.535-20.035 18.928-20.035 19.533s0.809 8.998 20.035 19.533c18.068 9.901 45.889 17.331 78.95 17.331 33.065 0 60.886-7.43 78.954-17.331 19.226-10.535 20.035-18.928 20.035-19.533zM468.618 804.352c7.316 0 14.502 0.303 21.522 0.888v-82.808h-43.040v82.808c7.016-0.585 14.205-0.888 21.518-0.888zM602.034 186.615l-28.245-9.7c-18.873-6.479-38.241-11.162-57.828-14.043v-63.032c0-9.050-7.708-16.384-17.217-16.384h-8.605v-131.072c0-9.050-7.708-16.384-17.217-16.384h-8.609c-9.506 0-17.214 7.334-17.214 16.384v131.072h-8.609c-9.506 0-17.214 7.334-17.214 16.384v63.032c-19.59 2.881-38.958 7.563-57.828 14.043l-28.248 9.7v413.385c-38.734 4.078-68.86 35.33-68.86 73.28 0 40.719 34.684 73.728 77.468 73.728 9.506 0 17.214-7.335 17.214-16.384v-8.192c0-9.049-7.708-16.384-17.214-16.384-19.015 0-34.43-14.671-34.43-32.768s15.415-32.768 34.43-32.768h249.62c19.015 0 34.431 14.671 34.431 32.768s-15.416 32.768-34.431 32.768c-9.509 0-17.217 7.335-17.217 16.384v8.192c0 9.049 7.708 16.384 17.217 16.384 42.782 0 77.467-33.009 77.467-73.728 0-37.95-30.127-69.205-68.862-73.28v-413.385zM558.998 215.383v375.977h-180.757v-65.536h68.859v-32.768h-68.859v-24.576h111.898v-32.768h-111.898v-24.576h68.859v-32.768h-68.859v-24.576h111.898v-32.768h-111.898v-24.576h68.859v-32.768h-68.859v-48.297c58.417-20.017 122.34-20.017 180.757 0zM464.313 140.8v-16.384h8.609v16.384h-8.609zM124.046 650.861c7.211 0 13.057 5.56 13.057 12.418s-5.846 12.418-13.057 12.418c-7.211 0-13.057-5.56-13.057-12.418s5.846-12.418 13.057-12.418zM104.46 632.234c0-6.858-5.846-12.418-13.057-12.418s-13.058 5.56-13.058 12.418c0 6.858 5.846 12.418 13.058 12.418s13.057-5.56 13.057-12.418zM156.69 247.278c-7.211 0-13.057-5.558-13.057-12.415 0-6.861 5.846-12.419 13.057-12.419s13.057 5.558 13.057 12.419c0 6.857-5.846 12.415-13.057 12.415zM91.403 557.727c7.211 0 13.057 5.558 13.057 12.419 0 6.857-5.846 12.419-13.057 12.419s-13.058-5.561-13.058-12.419c0-6.861 5.846-12.419 13.058-12.419zM156.69 309.368c-7.211 0-13.057-5.558-13.057-12.415 0-6.861 5.846-12.419 13.057-12.419s13.057 5.558 13.057 12.419c0 6.857-5.846 12.415-13.057 12.415zM156.69 619.816c7.211 0 13.057 5.56 13.057 12.418s-5.846 12.418-13.057 12.418c-7.211 0-13.057-5.56-13.057-12.418s5.846-12.418 13.057-12.418zM91.403 247.278c-7.211 0-13.058-5.558-13.058-12.415 0-6.861 5.846-12.419 13.058-12.419s13.057 5.558 13.057 12.419c0 6.857-5.846 12.415-13.057 12.415zM156.69 557.727c7.211 0 13.057 5.558 13.057 12.419 0 6.857-5.846 12.419-13.057 12.419s-13.057-5.561-13.057-12.419c0-6.861 5.846-12.419 13.057-12.419zM91.403 309.368c-7.211 0-13.058-5.558-13.058-12.415 0-6.861 5.846-12.419 13.058-12.419s13.057 5.558 13.057 12.419c0 6.857-5.846 12.415-13.057 12.415zM110.989 203.818c0 6.857 5.846 12.415 13.057 12.415s13.057-5.558 13.057-12.415c0-6.861-5.846-12.419-13.057-12.419s-13.057 5.558-13.057 12.419zM137.104 601.19c0-6.861-5.846-12.419-13.057-12.419s-13.057 5.558-13.057 12.419c0 6.857 5.846 12.417 13.057 12.417s13.057-5.56 13.057-12.417zM110.989 265.908c0 6.857 5.846 12.415 13.057 12.415s13.057-5.558 13.057-12.415c0-6.861-5.846-12.419-13.057-12.419s-13.057 5.558-13.057 12.419zM71.816 601.19c0-6.861-5.846-12.419-13.057-12.419s-13.058 5.558-13.058 12.419c0 6.857 5.846 12.417 13.058 12.417s13.057-5.56 13.057-12.417zM176.276 265.908c0 6.857 5.846 12.415 13.057 12.415s13.057-5.558 13.057-12.415c0-6.861-5.846-12.419-13.057-12.419s-13.057 5.558-13.057 12.419zM202.391 601.19c0-6.861-5.846-12.419-13.057-12.419s-13.057 5.558-13.057 12.419c0 6.857 5.846 12.417 13.057 12.417s13.057-5.56 13.057-12.417zM45.701 265.908c0 6.857 5.846 12.415 13.058 12.415s13.057-5.558 13.057-12.415c0-6.861-5.846-12.419-13.057-12.419s-13.058 5.558-13.058 12.419zM58.759 508.056h130.575c7.211 0 13.057-5.561 13.057-12.419v-124.179c0-6.857-5.846-12.419-13.057-12.419h-130.575c-7.211 0-13.058 5.561-13.058 12.419v124.179c0 6.857 5.846 12.419 13.058 12.419zM78.345 477.011v-86.927h91.403v86.927h-91.403zM124.046 743.995c68.509 0 124.046-52.817 124.046-117.97v-384.954c0-65.155-55.538-117.968-124.046-117.968s-124.046 52.814-124.046 117.968v384.954c0 65.153 55.538 117.97 124.046 117.97zM215.449 241.071v384.954c0 48.008-40.922 86.925-91.402 86.925s-91.403-38.918-91.403-86.925v-384.954c0-48.008 40.922-86.927 91.403-86.927s91.402 38.919 91.402 86.927z" />
<glyph unicode="&#xe93a;" glyph-name="Cosmetics" horiz-adv-x="512" d="M149.662 361.353h78.769v-82.705h47.261v82.705h82.708v47.264h-82.708v78.766h-47.261v-78.766h-78.769v-47.264zM126.031 944.246v-142.65c-70.892-7.837-126.031-67.939-126.031-140.919v-645.907c0-43.503 35.266-78.769 78.769-78.769h354.461c43.503 0 78.769 35.267 78.769 78.769v645.907c0 72.98-55.139 133.082-126.031 140.919v142.65c0 8.701-7.052 15.754-15.753 15.754h-228.432c-8.701 0-15.754-7.053-15.754-15.754zM173.292 810.338v23.631h165.416v-23.631h-165.416zM338.708 881.231h-165.416v31.507h165.416v-31.507zM141.785 755.2h228.432c52.204 0 94.522-42.32 94.522-94.523v-149.66h-31.508v63.014c0 8.701-7.052 15.753-15.753 15.753h-322.955c-8.701 0-15.754-7.052-15.754-15.753v-63.014h-31.507v149.66c0 52.204 42.319 94.523 94.523 94.523zM78.769 463.753v-322.953c0-8.701 7.053-15.753 15.754-15.753h322.955c8.701 0 15.753 7.052 15.753 15.753v322.953h31.508v-448.983c0-17.401-14.107-31.508-31.508-31.508h-354.461c-17.401 0-31.507 14.107-31.507 31.508v448.983h31.507zM126.031 172.308v370.214h259.939v-370.214h-259.939z" />
<glyph unicode="&#xe93b;" glyph-name="BAD" horiz-adv-x="630" d="M293.076 492.39c6.95 6.947 14.35 14.344 22.001 22.843 7.652-8.499 15.052-15.896 22.002-22.843 4.88-4.876 9.538-9.535 13.905-14.194 17.639-18.818 30.543-37.695 34.193-71.471 20.643 12.741 39.598 15.581 60.791 16.089 6.443 0.158 13.091 0.095 20.055 0.032 9.921-0.091 20.48-0.185 32.004 0.327-0.504-11.725-0.41-22.477-0.319-32.571 0.059-7.085 0.122-13.852-0.032-20.405-0.729-31.464-6.333-58.088-39.901-92.247-32-32.567-61.176-39.444-90.643-40.657-8.308-0.343-16.639-0.236-25.063-0.126-8.867 0.114-17.838 0.228-26.993-0.177-9.154 0.406-18.124 0.291-26.992 0.177-8.424-0.11-16.755-0.217-25.063 0.126-29.466 1.213-58.644 8.090-90.644 40.657-33.566 34.158-39.17 60.782-39.899 92.247-0.152 6.554-0.093 13.32-0.030 20.409 0.089 10.094 0.184 20.842-0.319 32.567 11.521-0.512 22.083-0.417 32.002-0.327 6.964 0.063 13.612 0.126 20.053-0.032 21.193-0.508 40.152-3.348 60.793-16.089 3.65 33.776 16.554 52.653 34.193 71.471 4.367 4.659 9.027 9.318 13.906 14.194zM315.077 236.989v0c0.031 0.713 0.032-0.725 0 0zM315.077 441.202c-3.631-3.931-6.428-7.27-8.767-10.528-5.793-8.066-11.219-18.593-11.219-44.737 0-27.632 6.090-39.648 19.987-54.91 13.896 15.262 19.987 27.278 19.987 54.91 0 26.144-5.426 36.671-11.219 44.737-2.339 3.257-5.136 6.597-8.767 10.528zM445.649 369.869c-5.396-0.169-9.771-0.524-13.761-1.154-9.878-1.564-21.232-5.167-39.727-23.989-19.552-19.901-23.666-33.012-24.459-54.181 20.803 0.807 33.686 4.994 53.241 24.891 18.495 18.822 22.036 30.377 23.572 40.428 0.618 4.061 0.965 8.515 1.134 14.005zM198.265 368.715c-3.988 0.63-8.364 0.985-13.76 1.154 0.168-5.49 0.516-9.945 1.135-14.005 1.536-10.051 5.077-21.606 23.573-40.428 19.552-19.897 32.436-24.084 53.239-24.891-0.792 21.169-4.907 34.28-24.458 54.181-18.496 18.822-29.851 22.426-39.729 23.989zM101.638 928.97c0 17.138 13.651 31.030 30.491 31.030h365.897c16.837 0 30.492-13.893 30.492-31.030v-144.808c0-17.137-13.655-31.030-30.492-31.030h-20.33v-32.447c88.611-30.244 152.458-115.432 152.458-215.797v-527.514c0-22.851-18.204-41.374-40.657-41.374h-548.842c-22.453 0-40.655 18.523-40.655 41.374v527.514c0 100.365 63.845 185.552 152.457 215.797v32.447h-20.328c-16.84 0-30.491 13.893-30.491 31.030v144.808zM152.457 804.849h325.239v103.434h-325.239v-103.434zM203.275 753.131v-54.665c0-15.942-11.87-29.29-27.458-30.876l-23.361-2.378v-0.036c-23.462-10.802-44.129-26.783-60.596-46.51h446.432c-16.467 19.727-37.136 35.707-60.597 46.51v0.036l-23.359 2.378c-15.588 1.586-27.459 14.934-27.459 30.876v54.665h-223.603zM61.888 566.949c-7.155-19.298-11.069-40.216-11.069-62.062v-362.019h528.517v362.019c0 21.847-3.915 42.764-11.071 62.062h-506.377zM50.819-12.284h528.517v103.436h-528.517v-103.436z" />
<glyph unicode="&#xe93c;" glyph-name="Preparat" horiz-adv-x="630" d="M286.618 504.887h56.918v-115.846h113.834v-57.923h-113.834v-115.846h-56.918v115.846h-113.834v57.923h113.834v115.846zM132.129 960c-16.84 0-30.491-13.893-30.491-31.030v-144.808c0-17.137 13.651-31.030 30.491-31.030h20.328v-32.447c-88.612-30.244-152.457-115.432-152.457-215.797v-527.514c0-22.851 18.202-41.374 40.655-41.374h548.842c22.453 0 40.657 18.523 40.657 41.374v527.514c0 100.365-63.846 185.552-152.458 215.797v32.447h20.33c16.837 0 30.492 13.893 30.492 31.030v144.808c0 17.138-13.655 31.030-30.492 31.030h-365.897zM152.457 908.283h325.239v-103.434h-325.239v103.434zM203.275 698.466v54.665h223.603v-54.665c0-15.942 11.871-29.29 27.459-30.876l23.359-2.378v-0.036c23.461-10.802 44.13-26.783 60.597-46.51h-446.432c16.466 19.727 37.134 35.707 60.596 46.51v0.036l23.361 2.378c15.588 1.586 27.458 14.934 27.458 30.876zM50.819 504.887c0 21.847 3.914 42.764 11.069 62.062h506.377c7.156-19.298 11.071-40.216 11.071-62.062v-362.019h-528.517v362.019zM50.819 91.152h528.517v-103.436h-528.517v103.436z" />
</font>
</defs>
</svg>
